<svg xmlns="http://www.w3.org/2000/svg" xmlns:xlink="http://www.w3.org/1999/xlink" viewBox="0 0 2105.63 1651.97"><defs><style>.cls-1{fill:#caf0ff;}.cls-2{isolation:isolate;}.cls-3{fill:#74c2ff;}.cls-4{clip-path:url(#clip-path);}.cls-5{fill:#83bde5;}.cls-6{fill:#e3eef4;}.cls-6,.cls-8{mix-blend-mode:multiply;}.cls-11,.cls-12,.cls-7{fill:#fff;}.cls-7{opacity:0.2;}.cls-8{fill:#c8e5f7;}.cls-9{fill:#3c8f7c;}.cls-10{fill:#2a806c;}.cls-12{opacity:0.37;mix-blend-mode:screen;}.cls-13{fill:#13375b;}.cls-14{fill:#f48c7f;}.cls-15{fill:#d0f0fd;}.cls-16{fill:#001e6e;}.cls-17{fill:#001653;}.cls-18{fill:#b2cffa;}.cls-19{fill:#f7cc7f;}.cls-20{fill:#f47458;}.cls-21{fill:#b75742;}.cls-22{fill:#86b1f2;}.cls-23{fill:#f7a491;}.cls-24{fill:#f7604b;}.cls-25{fill:#e6f8ff;}.cls-26{fill:#f7aba2;}</style><clipPath id="clip-path" transform="translate(-812.89 -88.39)"><path class="cls-1" d="M2536.93,1544.8s149.16,57.39,246.92-145.91c48.79-101.48,105.38-257.39-162.76-643.13-54-77.7-117.9-393.37-385-498.06s-583.92-23.65-631.91,136.66S1504,536.34,1406,546.87s-409,72.71-446.54,245,135.63,322.47,123.11,404.37-134.38,256.16-79.71,330.11c10.83,14.66,41.35,30.95,84.06,30.95,187.37,0,534-4.77,534-4.77Z"/></clipPath></defs><g class="cls-2"><g id="Layer_1" data-name="Layer 1"><rect class="cls-3" x="62.68" width="1964.29" height="1510.3"/><path class="cls-1" d="M2536.93,1544.8s149.16,57.39,246.92-145.91c48.79-101.48,105.38-257.39-162.76-643.13-54-77.7-117.9-393.37-385-498.06s-583.92-23.65-631.91,136.66S1504,536.34,1406,546.87s-409,72.71-446.54,245,135.63,322.47,123.11,404.37-134.38,256.16-79.71,330.11c10.83,14.66,41.35,30.95,84.06,30.95,187.37,0,534-4.77,534-4.77Z" transform="translate(-812.89 -88.39)"/><g class="cls-4"><path class="cls-5" d="M1359.2,936l433.66,438.45-937.37,286.1s10.86-93.68,17.4-137c6.62-43.71-22.8-100.8-60-167.94Z" transform="translate(-812.89 -88.39)"/><path class="cls-6" d="M856.07,1440.51c13.3,31.32,20.44,59.2,16.82,83.08-3.88,25.67-9.28,69.07-13,100.14-1.55,16.25-3.21,29.12-4.37,36.81L1178,1562.11l-81.7-66.09L1359.2,936,812.89,1355.65C835.49,1371.37,848.73,1403.07,856.07,1440.51Z" transform="translate(-812.89 -88.39)"/><polygon class="cls-7" points="800.15 1104.24 673.89 1014.67 673.89 1173.36 586.84 1014.67 480.27 1298.84 487.77 1014.67 378.9 1109.89 412.73 1014.67 247.93 1083.45 546.31 847.6 800.15 1104.24"/><polygon class="cls-5" points="1412.99 1574.22 2105.63 1486.99 1592.04 998.86 1310.77 700.85 215.42 1552.99 1412.99 1574.22"/><polygon class="cls-8" points="231.35 1548.65 1205.22 1548.16 1013.28 1312.8 1310.77 700.85 231.35 1548.65"/><polygon class="cls-9" points="1859.84 1614.99 1654.9 1095.83 1623.25 1260.35 1576.23 1173.64 1547.19 1261.66 1460.8 1044.17 1367.37 1368.56 1284.78 1233.22 1234.34 1385.71 1206.82 1359.67 1174.05 1651.97 1357.04 1651.18 1859.84 1614.99"/><polygon class="cls-10" points="1814.71 1115.64 1867.14 1226.17 1950.56 946.57 2019.92 1162.8 2088.12 1131.41 2101.98 1426.95 1693.28 1572.28 1814.71 1115.64"/><polygon class="cls-9" points="1278.1 1530.99 1225.59 1312.16 701.8 1383.01 639.16 1197.62 565.35 1367.1 512.38 1142.37 473.44 1205.63 431.2 1031.85 370.81 1181.86 274.17 727.94 78.83 1486.99 556.51 1550.06 786.17 1550.06 1278.1 1530.99"/><polygon class="cls-7" points="1570.79 976.34 1402.68 911.67 1412.65 976.34 1317.97 890.74 1050.54 1086.12 1168.47 890.74 979.98 967.25 1310.77 700.85 1570.79 976.34"/><path class="cls-11" d="M2077.74,425.3c3.62-20.82,17.72-36.35,34.57-36.35a27.52,27.52,0,0,1,9,1.51c8.32-23.5,26.36-39.78,47.29-39.78a40.84,40.84,0,0,1,15.54,3.1c11.26-24.65,31.73-41.14,55.11-41.14,27.83,0,51.52,23.34,60.5,56a35.91,35.91,0,0,1,21.46-7.36c24.39,0,44.16,26.12,44.16,58.35,0,1.91-.08,3.8-.21,5.66Z" transform="translate(-812.89 -88.39)"/><path class="cls-11" d="M2534.39,1035.26c2.36-13.56,11.54-23.68,22.52-23.68a17.89,17.89,0,0,1,5.83,1c5.42-15.32,17.17-25.92,30.81-25.92a26.41,26.41,0,0,1,10.12,2c7.34-16.06,20.68-26.8,35.91-26.8,18.12,0,33.56,15.2,39.41,36.48a23.44,23.44,0,0,1,14-4.79c15.89,0,28.77,17,28.77,38,0,1.25,0,2.48-.14,3.69Z" transform="translate(-812.89 -88.39)"/><path class="cls-12" d="M2773.13,830.13c-24.37.56-53.68,2-78.05,2.52-46,1.08-92.15,2.15-138-1.71-25.71-2.16-51.62-6-75.47-16.14-14.37-6.14-27.85-14.55-42.63-19.55-26-8.78-54.08-6.43-81.39-7.85-42.19-2.2-83.37-13.53-124.18-24.79-62.88-17.37-217.8-43.36-221.77-109.16-.46-7.56,1.15-15.55,5.45-21.67,3.28-4.67,8.29-7.66,13.26-10.28,73-38.49,160-25.12,241.67-31.85,20.9-1.72,42.11-4.95,60.94-14.5,22-11.16,41.16-31,65.6-32.55,17.17-1.1,39.93,4.51,47.31-11.59,1.82-4,1.72-8.51,2.27-12.86,2.38-18.77,32.83-30.91,49.16-37.28,57,25,85.83,61.53,124.71,102a69.6,69.6,0,0,0-13.07,2.7c-15.66,5-28.76,16.48-44.38,21.58-12,3.92-24.81,3.86-37.39,3.75l-136.49-1.11c-8.59-.07-17.43-.09-25.43,3.15s-14.25,9.24-21.34,14c-23.43,15.58-53,15.84-80.3,21.28-8.67,1.73-18.23,4.78-22.39,12.86-6.92,13.45,6.18,28.84,19.4,35.56,53,27,118.34.8,174.79,18.88,15.09,4.83,29.09,12.71,43.8,18.68,48.24,19.58,101.93,17.86,153.46,12.25,32.1-3.5,64.29-8.39,96.47-10.25,15.09,28.74,28,57,39.46,83.31Z" transform="translate(-812.89 -88.39)"/><path class="cls-12" d="M952.86,721.93c19.9-2.37,40.07-.08,60-2a149.76,149.76,0,0,0,61.89-20.64c5.35-3.18,10.64-6.73,16.44-8.39,7.78-2.24,15.91-.9,23.91-.51a103.44,103.44,0,0,0,46-8.41c5-2.13,10.51-5.66,11.33-12,1-8.08-6.2-13.86-12.52-16.63s-13.92-6.19-15.28-14.2c-.62-3.6.21-7.66-1.39-10.78-1.1-2.13-3.08-3.29-5-4.28-21-11-43.83-15.31-66.54-16.46-3.07-.16-6.2-.12-9.37,0,35.78-19.29,76.27-34.52,115.85-46.32,2.57,0,5.14-.09,7.71-.19,30.29-1.11,62.85-4.72,88.71,14.5,3.36,2.49,6.75,5.68,7.85,10.27,2.73,11.34-9.17,19.08-18.59,22-1.48,7.85,7,12.32,13.57,13.72a325,325,0,0,1,61.88,20.07c14.26,6.25,30.08,16.23,32.89,34.35,2,12.74-3.65,25.92-12,34s-18.87,12-29.33,14.46c-35.62,8.4-72.45,2.64-108.57,6.83-4.82.56-9.86,1.4-13.78,4.85-6.2,5.46-7.87,15.69-12.2,23.36-8.62,15.24-25.88,18-41.06,19a899.42,899.42,0,0,1-101.48,1c-8.53-.39-17.21-.89-25.44,1.83-8.65,2.86-16.24,9.08-24.25,14-16.35,10-34.47,14.34-52.58,17.86-6-27.4-7.19-55.91-.32-85.21C951.74,726,952.28,723.93,952.86,721.93Z" transform="translate(-812.89 -88.39)"/><path class="cls-11" d="M1520,801c-3.91-22.46-19.11-39.21-37.29-39.21a29.63,29.63,0,0,0-9.66,1.62c-9-25.35-28.44-42.92-51-42.92a43.87,43.87,0,0,0-16.76,3.36c-12.15-26.6-34.23-44.39-59.46-44.39-30,0-55.57,25.18-65.26,60.42a38.83,38.83,0,0,0-23.16-7.94c-26.3,0-47.63,28.18-47.63,62.95q0,3.09.23,6.11Z" transform="translate(-812.89 -88.39)"/></g><path class="cls-5" d="M2772.07,1559.85l-1801.2.65c-2,0-3.55-3.3-3.55-7.37h0c0-4.08,1.59-7.38,3.54-7.38l1801.21-.65c1.95,0,3.54,3.3,3.54,7.37h0C2775.61,1556.55,2774,1559.85,2772.07,1559.85Z" transform="translate(-812.89 -88.39)"/><path class="cls-13" d="M1727.47,577.36c-11,33.87,6.19,83,34.3,90.06,18.28,4.6,36.26-8.37,42.35-32.85,9.89-39.69,6.11-70.72-10.71-84.94C1771.7,531.29,1736.53,549.43,1727.47,577.36Z" transform="translate(-812.89 -88.39)"/><path class="cls-14" d="M1728.3,763.61s62.3,115.28,79,122.74,46.24-146.61,46.24-146.61,6.54-19.61,8.4-20.69c7.37-4.29-2.17-12.16-2.17-12.16l-11-31.64s-1.09.75-5.46,14.62c-5.92,18.74-8.64,44.9-11.57,50.42l-30.29,60.12-42.49-80.19Z" transform="translate(-812.89 -88.39)"/><path class="cls-14" d="M1849.28,689.26l2.64-1.19a17.11,17.11,0,0,0,3.58-2.22c4.51-3.65,16.94-13.25,18.86-10.11,2.34,3.85-16.83,18.26-16.83,18.26s21.46-14.08,22.73-8.91-20.86,18.17-20.86,18.17,19.65-10,20.73-7.19-21.65,22.35-21.65,22.35,18.63-15,21.46-12.44-26.56,34.27-26.56,34.27Z" transform="translate(-812.89 -88.39)"/><path class="cls-15" d="M1829.39,1464.73a2.23,2.23,0,0,1-1.94-1.43l-46.91-100.17a3.64,3.64,0,0,1,.74-4.16c1.08-.88,2.48-.44,3.15,1l46.91,100.16a3.64,3.64,0,0,1-.74,4.16A1.89,1.89,0,0,1,1829.39,1464.73Z" transform="translate(-812.89 -88.39)"/><path class="cls-16" d="M1875.84,637.54S1856.08,643,1854.49,651s-12.74,67.94-10.36,71.06c.74,1,16.41-1.09,22.54-7.81S1885,635.85,1875.84,637.54Z" transform="translate(-812.89 -88.39)"/><path class="cls-17" d="M1868,643.59a73.06,73.06,0,0,0-12.34,4.83c4.58-6.57,20.21-10.88,20.21-10.88,9.18-1.69-3,70-9.17,76.68a20.6,20.6,0,0,1-6.92,4.61C1866.08,706.7,1876.71,642,1868,643.59Z" transform="translate(-812.89 -88.39)"/><path class="cls-13" d="M2039.89,1552c-80.75,0-146.44-86.81-146.44-193.52S1959.14,1165,2039.89,1165s146.42,86.81,146.42,193.52S2120.63,1552,2039.89,1552Zm0-362.85c-70.65,0-128.13,76-128.13,169.33s57.48,169.33,128.13,169.33,128.12-76,128.12-169.33S2110.53,1189.19,2039.89,1189.19Z" transform="translate(-812.89 -88.39)"/><path class="cls-18" d="M2039.89,1508.7c-62.66,0-113.64-67.37-113.64-150.18s51-150.18,113.64-150.18,113.63,67.37,113.63,150.18S2102.54,1508.7,2039.89,1508.7Zm0-294.31c-60.14,0-109.07,64.65-109.07,144.13s48.93,144.13,109.07,144.13,109-64.65,109-144.13S2100,1214.39,2039.89,1214.39Z" transform="translate(-812.89 -88.39)"/><path class="cls-18" d="M2039.89,1489.83c-54.79,0-99.36-58.91-99.36-131.31a164.57,164.57,0,0,1,11-60c.58-1.49,2-2.07,3.09-1.31a3.54,3.54,0,0,1,1,4.07,157.14,157.14,0,0,0-10.45,57.24c0,69.07,42.52,125.26,94.79,125.26a75.24,75.24,0,0,0,39.39-11.3c1.15-.69,2.51,0,3,1.49a3.51,3.51,0,0,1-1.13,4A79,79,0,0,1,2039.89,1489.83Z" transform="translate(-812.89 -88.39)"/><path class="cls-15" d="M2110.74,1273.85a2.06,2.06,0,0,1-1.67-1c-17.86-25.19-43.08-39.63-69.18-39.63-1.27,0-2.29-1.36-2.29-3s1-3,2.29-3c27.36,0,53.8,15.14,72.52,41.55a3.75,3.75,0,0,1-.11,4.27A2,2,0,0,1,2110.74,1273.85Z" transform="translate(-812.89 -88.39)"/><path class="cls-19" d="M1881.36,1367.59c-3.79,0-6.86-4.06-6.86-9.07,0-120.52,74.19-218.58,165.39-218.58,39.08,0,77,18.36,106.8,51.69,2.89,3.24,3.25,9,.81,12.79s-6.78,4.3-9.68,1.06c-27.31-30.56-62.09-47.39-97.93-47.39-83.63,0-151.66,89.91-151.66,200.43C1888.23,1363.53,1885.15,1367.59,1881.36,1367.59Z" transform="translate(-812.89 -88.39)"/><path class="cls-14" d="M1733.38,1264.24l-28,32.08s-9.41,1.37-12.87-5.12a26.54,26.54,0,0,1-2.72-13.65l26.18-41.33Z" transform="translate(-812.89 -88.39)"/><path class="cls-20" d="M1711.28,1289.54c6-3.12,0,0,7,28.37,6.44,18.66,13.52,26.26,11.1,30a15.46,15.46,0,0,1-5.77,5.37l-44.85-65.22s9.87-23.22,14.63-14.29C1714.31,1297.25,1711.28,1289.54,1711.28,1289.54Z" transform="translate(-812.89 -88.39)"/><path class="cls-21" d="M1692.23,966s159.89,91.88,159.89,143.42c0,30.51-116.92,166-116.92,166l-25.55-36.29s63.69-98.87,61-111.17-152.92-93.44-157.87-113.09,20.81-53.93,20.81-53.93Z" transform="translate(-812.89 -88.39)"/><path class="cls-13" d="M1580.88,1552c-80.74,0-146.43-86.81-146.43-193.52S1500.14,1165,1580.88,1165s146.43,86.81,146.43,193.52S1661.62,1552,1580.88,1552Zm0-362.85c-70.65,0-128.12,76-128.12,169.33s57.47,169.33,128.12,169.33,128.13-76,128.13-169.33S1651.53,1189.19,1580.88,1189.19Z" transform="translate(-812.89 -88.39)"/><path class="cls-18" d="M1580.88,1508.7c-62.66,0-113.63-67.37-113.63-150.18s51-150.18,113.63-150.18,113.64,67.37,113.64,150.18S1643.54,1508.7,1580.88,1508.7Zm0-294.31c-60.13,0-109.06,64.65-109.06,144.13s48.93,144.13,109.06,144.13,109.06-64.65,109.06-144.13S1641,1214.39,1580.88,1214.39Z" transform="translate(-812.89 -88.39)"/><path class="cls-18" d="M1580.88,1489.83c-54.78,0-99.36-58.91-99.36-131.31a164.65,164.65,0,0,1,11-60c.58-1.49,2-2.07,3.08-1.31a3.54,3.54,0,0,1,1,4.07,157,157,0,0,0-10.45,57.24c0,69.07,42.52,125.26,94.78,125.26a75.27,75.27,0,0,0,39.4-11.3c1.15-.69,2.51,0,3,1.49a3.48,3.48,0,0,1-1.13,4A78.91,78.91,0,0,1,1580.88,1489.83Z" transform="translate(-812.89 -88.39)"/><path class="cls-15" d="M1651.73,1273.85a2.06,2.06,0,0,1-1.67-1c-17.85-25.19-43.07-39.63-69.18-39.63-1.26,0-2.29-1.36-2.29-3s1-3,2.29-3c27.37,0,53.8,15.14,72.52,41.55a3.73,3.73,0,0,1-.1,4.27A2,2,0,0,1,1651.73,1273.85Z" transform="translate(-812.89 -88.39)"/><path class="cls-19" d="M1683.25,1207.63a6,6,0,0,1-4.43-2.15c-27.31-30.56-62.09-47.39-97.94-47.39-30.24,0-59.44,11.72-84.44,33.91-3.15,2.8-7.42,1.69-9.53-2.47s-1.28-9.79,1.87-12.58c27.27-24.21,59.12-37,92.1-37,39.09,0,77,18.36,106.81,51.69,2.89,3.24,3.25,9,.8,12.79A6.32,6.32,0,0,1,1683.25,1207.63Z" transform="translate(-812.89 -88.39)"/><path class="cls-9" d="M1580.88,1338.54a2.23,2.23,0,0,1-1.89-2.4,2.34,2.34,0,0,1,1.8-2.62l201.61-12.34c1-.09,1.93,1,2,2.39a2.33,2.33,0,0,1-1.81,2.62L1581,1338.53Z" transform="translate(-812.89 -88.39)"/><path class="cls-9" d="M1785.35,1395.86h-.09l-204.47-12.35a2.33,2.33,0,0,1-1.8-2.62c0-1.38,1-2.45,2-2.39l204.47,12.35a2.33,2.33,0,0,1,1.8,2.62A2.23,2.23,0,0,1,1785.35,1395.86Z" transform="translate(-812.89 -88.39)"/><path class="cls-13" d="M1580.88,1386c-11.47,0-20.81-12.34-20.81-27.5s9.34-27.51,20.81-27.51,20.81,12.34,20.81,27.51S1592.36,1386,1580.88,1386Z" transform="translate(-812.89 -88.39)"/><path class="cls-19" d="M1758.61,1314.52c-2.25,0-4.38-1.77-5.29-4.68-1.2-3.86.19-8.28,3.11-9.87,25.19-13.74,46-38.9,58.55-70.85l32.32-82.22c11-28,27.66-51.21,48.2-67.23l20.87-16.27c2.72-2.12,6.23-.92,7.83,2.67s.7,8.23-2,10.36l-20.86,16.27c-18.69,14.57-33.86,35.72-43.86,61.17l-32.33,82.22c-13.81,35.11-36.65,62.76-64.34,77.85A4.51,4.51,0,0,1,1758.61,1314.52Z" transform="translate(-812.89 -88.39)"/><path class="cls-19" d="M1774.84,1354.39c-2,0-3.95-1.4-5-3.88l-126.2-298.24c-1.54-3.64-.56-8.25,2.2-10.28s6.24-.74,7.78,2.9l126.2,298.24c1.54,3.65.56,8.26-2.2,10.29A4.68,4.68,0,0,1,1774.84,1354.39Z" transform="translate(-812.89 -88.39)"/><path class="cls-19" d="M1729.35,1366.08H1580.88c-3.16,0-5.72-3.38-5.72-7.56s2.56-7.56,5.72-7.56h148.47c43.33,0,82.67-31.57,102.65-82.38l32.32-82.22c11-28,27.67-51.22,48.2-67.23l20.87-16.27c2.72-2.12,6.22-.93,7.83,2.67s.7,8.23-2,10.35l-20.86,16.27c-18.69,14.57-33.86,35.73-43.87,61.18l-32.32,82.22C1820.19,1331.39,1777,1366.08,1729.35,1366.08Z" transform="translate(-812.89 -88.39)"/><path class="cls-19" d="M1580.88,1364.57a3.81,3.81,0,0,1-2.3-.82c-2.18-1.68-2.93-5.38-1.66-8.27l101.33-230.6c1.27-2.89,4.07-3.87,6.26-2.2s2.92,5.38,1.66,8.27l-101.33,230.61A4.52,4.52,0,0,1,1580.88,1364.57Z" transform="translate(-812.89 -88.39)"/><path class="cls-13" d="M1782.49,1398.37c-16.63,0-30.15-17.88-30.15-39.85s13.52-39.85,30.15-39.85,30.15,17.88,30.15,39.85S1799.11,1398.37,1782.49,1398.37Z" transform="translate(-812.89 -88.39)"/><path class="cls-22" d="M1563.86,1358.52c0,12.42,7.62,22.49,17,22.49s17-10.07,17-22.49-7.62-22.49-17-22.49S1563.86,1346.1,1563.86,1358.52Z" transform="translate(-812.89 -88.39)"/><path class="cls-22" d="M1756.13,1358.52c0,19.24,11.8,34.83,26.36,34.83s26.36-15.59,26.36-34.83-11.8-34.84-26.36-34.84S1756.13,1339.28,1756.13,1358.52Z" transform="translate(-812.89 -88.39)"/><path class="cls-15" d="M1804.22,1472.67c-2.23,0-4.19-2.16-4.52-5.17-.37-3.3,1.35-6.38,3.85-6.86l50.34-9.83c2.5-.48,4.83,1.79,5.2,5.1s-1.36,6.38-3.86,6.86l-50.34,9.83A3.81,3.81,0,0,1,1804.22,1472.67Z" transform="translate(-812.89 -88.39)"/><path class="cls-9" d="M1617.18,1034.22h44.63c3.31,0,6,3.55,6,7.92v9.48c0,4.38-2.68,7.92-6,7.92h-56.35c-4.39,0-7.39-6.1-5.43-11.29C1603.17,1039.93,1609.67,1034.22,1617.18,1034.22Z" transform="translate(-812.89 -88.39)"/><path class="cls-23" d="M1805.94,1367.59v70.3s-4.58,11-10.58,11a35.14,35.14,0,0,1-11.87-2.46l-5.86-93Z" transform="translate(-812.89 -88.39)"/><path class="cls-20" d="M1805.34,1432.35c4.8-.76,9.4,1,22.89,6.44,14.84,6,23.34,2.68,24.29,7.47s-.52,5.08-.52,5.08l-67.14,19.34s-10-26-2.1-29.33C1800.19,1434,1805.34,1432.35,1805.34,1432.35Z" transform="translate(-812.89 -88.39)"/><path class="cls-20" d="M1707.25,961.44s98.5,99.24,111.46,180.38-9.86,253.49-9.86,253.49-12.46,8.06-37.91,4c0,0,.49-225.27-8.66-241.4s-149.87-117.42-156.73-147.66,10.76-63.5,10.76-63.5Z" transform="translate(-812.89 -88.39)"/><path class="cls-24" d="M1652.33,932.05a1.41,1.41,0,0,1-.45-.07,2.62,2.62,0,0,1-1.39-3c1-5.23,1.68-8.47,1.71-8.61.3-1.33,1.35-2.08,2.36-1.69a2.7,2.7,0,0,1,1.28,3.12s-.73,3.27-1.66,8.36A2.08,2.08,0,0,1,1652.33,932.05Z" transform="translate(-812.89 -88.39)"/><path class="cls-19" d="M1743.59,696.31s19.45,13.11,25.17,40.32,11.64,88.32,0,104.82c-18.32,26-39.23,82.71-52.07,131.5-2.91,11-109.06.83-107.85-9.43,1.7-14.47,52.51-173.77,71.19-224.16S1743.59,696.31,1743.59,696.31Z" transform="translate(-812.89 -88.39)"/><path class="cls-23" d="M1780.32,669.17s-17.54,43.65-11.82,65.27c3.19,12.07,5.6,30.4,5.6,47.67,0,30.24-39.72-86-39.72-86l19.45-49Z" transform="translate(-812.89 -88.39)"/><path class="cls-20" d="M1750.56,655.34c3.15,11.64,8.49,22.35,16.76,29.9a36.26,36.26,0,0,0,6,4.53c3.4-11.73,7-20.6,7-20.6l-26.49-22.07Z" transform="translate(-812.89 -88.39)"/><path class="cls-19" d="M2039.89,1366.08c-2,0-4-1.42-5-3.92l-154-370.47a30.58,30.58,0,0,1-2.25-11.6v-24c0-4.72-2.4-7-3.44-7.8a5.31,5.31,0,0,0-6.83.12l-26.82,21.26c-2.71,2.16-6.22,1-7.85-2.59s-.75-8.22,2-10.37l26.82-21.27c5.7-4.52,12.57-4.64,18.36-.3s9.24,12.16,9.24,20.95v24a11.3,11.3,0,0,0,.84,4.31l154,370.48c1.52,3.66.51,8.25-2.26,10.27A4.69,4.69,0,0,1,2039.89,1366.08Z" transform="translate(-812.89 -88.39)"/><path class="cls-13" d="M2022.87,1358.52c0,12.42,7.62,22.49,17,22.49s17-10.07,17-22.49-7.62-22.49-17-22.49S2022.87,1346.1,2022.87,1358.52Z" transform="translate(-812.89 -88.39)"/><path class="cls-23" d="M1866.22,937.94c-7.15-9.45-28.8-13.37-37.38-9.59-4.64,2-88-20.19-89.65-23.83-3.92-8.74,1.35-87.26,4.4-131.1s-.27-49.52-8.27-60.76c-6.84-9.61-38.26-9.11-43.2,11.22-9.55,39.3-.76,209,4.25,216.14,18.62,26.54,134.56,20.78,136.7,20.78,2.86,0,8.14,8.66,11,8.66s10.9-2.26,17-8.57C1862.63,959.24,1873.37,947.39,1866.22,937.94Z" transform="translate(-812.89 -88.39)"/><path class="cls-13" d="M1714.52,600.9c-9.19-15.29-38.63-77.88-66.8-52.92s-8.63,66.94-55.68,35.67c-43.59-29-69.25,34-47.34,69.63a40.71,40.71,0,0,0-9.17,15.28c-7.38,21.4.51,47.1,17.62,57.41,2.72,1.64,4.08,4.89,6.88,5.58,7.34,18.19,21,32.55,41.47,39.16,55.86,18,45.21-59.54,62.86-76.2s18.74,12.26,41.36,8.34,31.32-20.71,29.38-82.72l-1.18-16.31S1723.7,616.18,1714.52,600.9Z" transform="translate(-812.89 -88.39)"/><path class="cls-23" d="M1771.89,562.64s-13.09,2.72-21.73,17.57-12.08,69.12,13.31,92.3,43.13-14.54,44.72-43.79S1806.5,560,1771.89,562.64Z" transform="translate(-812.89 -88.39)"/><path class="cls-13" d="M1735.47,617.54c-.72-27.84,3.42-47.91,19.38-54.57s29.77-13.69,40.75,6.9l2.71,2.83s-26,3.53-29.52,20.39-20.09,34.62-18.31,43.28c3.48,16.9-1.2,22.12-1.2,22.12l-2.28-2.93S1736.18,645.37,1735.47,617.54Z" transform="translate(-812.89 -88.39)"/><path class="cls-23" d="M1762.4,612.8c1.13,7.89-1.36,15-5.55,15.93s-8.51-4.75-9.64-12.63,1.36-15,5.55-15.94S1761.27,604.91,1762.4,612.8Z" transform="translate(-812.89 -88.39)"/><ellipse class="cls-25" cx="1151.73" cy="373.88" rx="75.46" ry="99.72"/><polygon class="cls-25" points="1103.65 438.63 1076.59 516.89 1129.4 464.36 1103.65 438.63"/><path class="cls-26" d="M1930.12,519c0,4.43,15.45,8,34.5,8s34.5-3.59,34.5-8-15.45-8-34.5-8S1930.12,514.57,1930.12,519Z" transform="translate(-812.89 -88.39)"/><path class="cls-20" d="M1936.2,426.06c0,15.77,28.42,92.94,28.42,92.94S1993,441.83,1993,426.06a28.42,28.42,0,1,0-56.84,0Zm16.36,5c0-8.58,5.4-15.53,12.06-15.53s12.06,6.95,12.06,15.53-5.4,15.54-12.06,15.54S1952.56,439.62,1952.56,431Z" transform="translate(-812.89 -88.39)"/></g></g></svg>