<svg xmlns="http://www.w3.org/2000/svg" xmlns:xlink="http://www.w3.org/1999/xlink" viewBox="0 0 479.44 400.59"><defs><style>.cls-1{fill:#caf0ff;}.cls-2{isolation:isolate;}.cls-3{clip-path:url(#clip-path);}.cls-4{fill:#83bde5;}.cls-5{fill:#e3eef4;}.cls-5,.cls-7{mix-blend-mode:multiply;}.cls-10,.cls-11,.cls-6{fill:#fff;}.cls-6{opacity:0.2;}.cls-7{fill:#c8e5f7;}.cls-8{fill:#3c8f7c;}.cls-9{fill:#2a806c;}.cls-11{opacity:0.37;mix-blend-mode:screen;}.cls-12{fill:#13375b;}.cls-13{fill:#f48c7f;}.cls-14{fill:#d0f0fd;}.cls-15{fill:#001e6e;}.cls-16{fill:#001653;}.cls-17{fill:#b2cffa;}.cls-18{fill:#f7cc7f;}.cls-19{fill:#f47458;}.cls-20{fill:#b75742;}.cls-21{fill:#86b1f2;}.cls-22{fill:#f7a491;}.cls-23{fill:#f7604b;}.cls-24{fill:#e6f8ff;}.cls-25{fill:#f7aba2;}</style><clipPath id="clip-path"><path class="cls-1" d="M459.34,396.41s47,17,77.74-43.36c15.36-30.15,33.18-76.48-51.24-191.1-17-23.08-37.12-116.88-121.21-148s-183.84-7-198.95,40.61-31.53,42.19-62.41,45.32-128.76,21.6-140.59,72.8S5.38,268.51,1.44,292.85-40.86,369-23.65,390.93c3.41,4.36,13,9.2,26.46,9.2,59,0,168.13-1.42,168.13-1.42Z"/></clipPath></defs><g class="cls-2"><g id="Layer_1" data-name="Layer 1"><path class="cls-1" d="M459.34,396.41s47,17,77.74-43.36c15.36-30.15,33.18-76.48-51.24-191.1-17-23.08-37.12-116.88-121.21-148s-183.84-7-198.95,40.61-31.53,42.19-62.41,45.32-128.76,21.6-140.59,72.8S5.38,268.51,1.44,292.85-40.86,369-23.65,390.93c3.41,4.36,13,9.2,26.46,9.2,59,0,168.13-1.42,168.13-1.42Z"/><g class="cls-3"><path class="cls-4" d="M88.55,215.51,225.08,345.78-70,430.8s3.42-27.84,5.49-40.7-7.18-30-18.9-49.9Z"/><path class="cls-5" d="M-69.85,365.42c4.18,9.31,6.43,17.59,5.3,24.68-1.23,7.63-2.93,20.53-4.11,29.76-.49,4.83-1,8.65-1.38,10.94L31.49,401.55,5.77,381.91l82.78-166.4-172,124.69C-76.33,344.87-72.16,354.29-69.85,365.42Z"/><polygon class="cls-6" points="168.47 291.76 128.72 265.15 128.72 312.3 101.31 265.15 67.76 349.58 70.12 265.15 35.84 293.44 46.49 265.15 -5.39 285.59 88.55 215.51 168.47 291.76"/><polygon class="cls-4" points="361.41 431.41 579.48 405.49 417.78 260.45 329.23 171.9 -15.63 425.1 361.41 431.41"/><polygon class="cls-7" points="-10.61 423.81 296 423.67 235.57 353.73 329.23 171.9 -10.61 423.81"/><polygon class="cls-8" points="502.1 443.52 437.57 289.26 427.61 338.15 412.81 312.38 403.67 338.54 376.46 273.91 347.05 370.3 321.05 330.09 305.17 375.4 296.5 367.66 286.19 454.51 343.8 454.28 502.1 443.52"/><polygon class="cls-9" points="487.89 295.15 504.4 327.99 530.66 244.91 552.5 309.16 573.97 299.84 578.33 387.65 449.66 430.83 487.89 295.15"/><polygon class="cls-8" points="318.94 418.57 302.41 353.54 137.5 374.6 117.78 319.51 94.54 369.87 77.87 303.09 65.61 321.89 52.31 270.25 33.3 314.83 2.87 179.95 -58.63 405.49 91.76 424.23 164.07 424.23 318.94 418.57"/><polygon class="cls-6" points="411.09 253.76 358.17 234.54 361.31 253.76 331.5 228.32 247.3 286.38 284.43 228.32 225.08 251.06 329.23 171.9 411.09 253.76"/><path class="cls-10" d="M314.77,63.76c1.14-6.18,5.58-10.8,10.89-10.8a9.24,9.24,0,0,1,2.82.45c2.61-7,8.3-11.82,14.88-11.82a13.5,13.5,0,0,1,4.9.92c3.54-7.32,10-12.22,17.35-12.22,8.76,0,16.22,6.93,19,16.64a11.79,11.79,0,0,1,6.76-2.19c7.68,0,13.9,7.76,13.9,17.34q0,.86-.06,1.68Z"/><path class="cls-10" d="M458.54,245c.74-4,3.64-7,7.09-7a6,6,0,0,1,1.84.29c1.7-4.55,5.41-7.7,9.7-7.7a8.72,8.72,0,0,1,3.18.6c2.32-4.77,6.51-8,11.31-8,5.71,0,10.57,4.51,12.41,10.84a7.63,7.63,0,0,1,4.4-1.43c5,0,9.06,5.06,9.06,11.3,0,.37,0,.73,0,1.09Z"/><path class="cls-11" d="M533.71,184.05c-7.67.17-16.9.58-24.58.75-14.49.32-29,.64-43.46-.51-8.09-.64-16.25-1.77-23.76-4.79-4.52-1.83-8.76-4.33-13.42-5.81-8.19-2.61-17-1.91-25.62-2.34-13.28-.65-26.25-4-39.1-7.36C344,158.83,295.2,151.11,294,131.55a9.8,9.8,0,0,1,1.72-6.44,11.31,11.31,0,0,1,4.17-3c23-11.43,50.38-7.46,76.09-9.46,6.58-.51,13.25-1.47,19.18-4.31,6.93-3.32,13-9.2,20.66-9.67,5.4-.33,12.57,1.34,14.89-3.45a12.44,12.44,0,0,0,.72-3.82c.74-5.57,10.33-9.18,15.47-11.08,17.94,7.43,27,18.29,39.26,30.33a23,23,0,0,0-4.11.8c-4.93,1.47-9.05,4.9-14,6.41-3.78,1.17-7.81,1.15-11.77,1.12l-43-.33a22,22,0,0,0-8,.93c-2.48,1-4.49,2.75-6.72,4.15-7.38,4.63-16.67,4.71-25.28,6.32-2.73.52-5.74,1.42-7,3.82-2.18,4,1.95,8.57,6.11,10.57,16.7,8,37.26.24,55,5.61,4.75,1.44,9.16,3.78,13.79,5.55,15.19,5.82,32.09,5.31,48.31,3.64,10.11-1,20.24-2.49,30.37-3,4.75,8.54,8.83,16.93,12.43,24.75Z"/><path class="cls-11" d="M-39.38,151.9c6.27-.7,12.62,0,18.9-.6A49.19,49.19,0,0,0-1,145.17a23.67,23.67,0,0,1,5.17-2.5c2.45-.66,5-.27,7.53-.15A34.26,34.26,0,0,0,26.19,140c1.56-.63,3.3-1.68,3.56-3.56.33-2.4-1.95-4.12-3.94-4.94s-4.38-1.84-4.81-4.22c-.19-1.07.07-2.28-.44-3.2A3.22,3.22,0,0,0,19,122.83c-6.62-3.28-13.8-4.55-21-4.9-1,0-1.95,0-2.94,0a203,203,0,0,1,36.47-13.77c.81,0,1.62,0,2.43,0,9.53-.33,19.78-1.4,27.93,4.31a5.64,5.64,0,0,1,2.47,3c.86,3.37-2.89,5.67-5.86,6.53-.46,2.33,2.22,3.66,4.28,4.08a105.93,105.93,0,0,1,19.48,6c4.49,1.86,9.47,4.82,10.35,10.21a11.69,11.69,0,0,1-3.76,10.11,19.33,19.33,0,0,1-9.24,4.3c-11.21,2.5-22.81.78-34.18,2a8,8,0,0,0-4.34,1.44c-2,1.62-2.47,4.66-3.84,6.94-2.71,4.53-8.15,5.36-12.92,5.66A301.37,301.37,0,0,1-7.58,169a23.41,23.41,0,0,0-8,.55c-2.73.85-5.12,2.7-7.64,4.15-5.14,3-10.85,4.26-16.55,5.3a53.36,53.36,0,0,1-.1-25.32C-39.73,153.1-39.56,152.5-39.38,151.9Z"/><path class="cls-10" d="M139.17,175.4c-1.23-6.67-6-11.65-11.74-11.65a10,10,0,0,0-3,.48c-2.82-7.53-9-12.75-16.06-12.75a14.49,14.49,0,0,0-5.28,1c-3.82-7.91-10.77-13.19-18.72-13.19-9.45,0-17.49,7.48-20.54,18a12.72,12.72,0,0,0-7.29-2.36c-8.29,0-15,8.38-15,18.71,0,.61,0,1.21.07,1.81Z"/></g><path class="cls-4" d="M533.37,400.88l-567.08.19c-.62,0-1.11-1-1.12-2.19h0c0-1.21.5-2.19,1.12-2.19l567.08-.2c.62,0,1.12,1,1.12,2.2h0C534.49,399.9,534,400.88,533.37,400.88Z"/><path class="cls-12" d="M204.5,109C201,119,206.44,133.6,215.3,135.7c5.75,1.37,11.41-2.48,13.33-9.75,3.11-11.8,1.92-21-3.37-25.24C218.42,95.26,207.35,100.65,204.5,109Z"/><path class="cls-13" d="M204.76,164.29s19.61,34.25,24.89,36.47S244.2,157.2,244.2,157.2s2.06-5.83,2.65-6.15c2.32-1.28-.69-3.62-.69-3.62l-3.44-9.4s-.35.23-1.72,4.35c-1.87,5.57-2.72,13.34-3.65,15l-9.53,17.86-13.38-23.83Z"/><path class="cls-13" d="M242.85,142.2l.83-.36a5.31,5.31,0,0,0,1.12-.66c1.42-1.08,5.34-3.94,5.94-3,.74,1.14-5.3,5.42-5.3,5.42s6.76-4.18,7.16-2.64-6.57,5.39-6.57,5.39,6.19-3,6.53-2.13-6.82,6.64-6.82,6.64,5.87-4.45,6.76-3.7-8.36,10.19-8.36,10.19Z"/><path class="cls-14" d="M236.59,372.61a.71.71,0,0,1-.62-.42L221.2,342.43a1,1,0,0,1,.24-1.24.64.64,0,0,1,1,.29l14.77,29.76a1,1,0,0,1-.24,1.24A.6.6,0,0,1,236.59,372.61Z"/><path class="cls-15" d="M251.21,126.83s-6.22,1.62-6.73,4-4,20.18-3.26,21.11c.24.29,5.17-.32,7.1-2.32S254.1,126.32,251.21,126.83Z"/><path class="cls-16" d="M248.73,128.63a23.69,23.69,0,0,0-3.88,1.43c1.44-1.95,6.36-3.23,6.36-3.23,2.89-.51-1,20.78-2.89,22.78a6.35,6.35,0,0,1-2.18,1.37C248.14,147.38,251.48,128.15,248.73,128.63Z"/><path class="cls-12" d="M302.86,398.56c-25.43,0-46.11-25.8-46.11-57.5s20.68-57.51,46.11-57.51,46.1,25.8,46.1,57.51S328.28,398.56,302.86,398.56Zm0-107.82c-22.25,0-40.34,22.57-40.34,50.32s18.09,50.31,40.34,50.31,40.33-22.57,40.33-50.31S325.1,290.74,302.86,290.74Z"/><path class="cls-17" d="M302.86,385.68c-19.73,0-35.78-20-35.78-44.62s16.05-44.63,35.78-44.63,35.77,20,35.77,44.63S322.58,385.68,302.86,385.68Zm0-87.45c-18.94,0-34.34,19.21-34.34,42.83s15.4,42.82,34.34,42.82,34.33-19.21,34.33-42.82S321.79,298.23,302.86,298.23Z"/><path class="cls-17" d="M302.86,380.07c-17.25,0-31.29-17.5-31.29-39A46.43,46.43,0,0,1,275,323.23a.66.66,0,0,1,1-.39,1,1,0,0,1,.31,1.21,44.4,44.4,0,0,0-3.29,17c0,20.52,13.39,37.22,29.85,37.22a24.74,24.74,0,0,0,12.4-3.36.66.66,0,0,1,.95.44,1,1,0,0,1-.35,1.19A25.92,25.92,0,0,1,302.86,380.07Z"/><path class="cls-14" d="M325.16,315.9a.65.65,0,0,1-.52-.29c-5.63-7.48-13.56-11.77-21.78-11.77a.92.92,0,0,1,0-1.8c8.61,0,16.93,4.5,22.83,12.34a1.06,1.06,0,0,1,0,1.27A.61.61,0,0,1,325.16,315.9Z"/><path class="cls-18" d="M253,343.75a2.47,2.47,0,0,1-2.17-2.69c0-35.82,23.36-64.95,52.08-64.95,12.3,0,24.24,5.45,33.62,15.36a3.16,3.16,0,0,1,.25,3.8,1.88,1.88,0,0,1-3,.31c-8.6-9.08-19.55-14.08-30.83-14.08-26.33,0-47.75,26.72-47.75,59.56A2.47,2.47,0,0,1,253,343.75Z"/><path class="cls-13" d="M206.36,313l-8.83,9.54s-3,.4-4.05-1.53a7.5,7.5,0,0,1-.86-4.05l8.25-12.28Z"/><path class="cls-19" d="M199.4,320.56c1.9-.93,0,0,2.19,8.43,2,5.54,4.26,7.8,3.5,8.93a4.82,4.82,0,0,1-1.82,1.59l-14.12-19.38s3.11-6.9,4.61-4.25C200.35,322.85,199.4,320.56,199.4,320.56Z"/><path class="cls-20" d="M193.4,224.41s50.34,27.3,50.34,42.61c0,9.07-36.81,49.33-36.81,49.33l-8-10.78s20.05-29.38,19.21-33-48.15-27.76-49.71-33.6,6.56-16,6.56-16Z"/><path class="cls-12" d="M158.34,398.56c-25.42,0-46.1-25.8-46.1-57.5s20.68-57.51,46.1-57.51,46.11,25.8,46.11,57.51S183.77,398.56,158.34,398.56Zm0-107.82c-22.24,0-40.33,22.57-40.33,50.32s18.09,50.31,40.33,50.31,40.34-22.57,40.34-50.31S180.59,290.74,158.34,290.74Z"/><path class="cls-17" d="M158.34,385.68c-19.72,0-35.77-20-35.77-44.62s16.05-44.63,35.77-44.63,35.78,20,35.78,44.63S178.07,385.68,158.34,385.68Zm0-87.45c-18.93,0-34.33,19.21-34.33,42.83s15.4,42.82,34.33,42.82,34.34-19.21,34.34-42.82S177.28,298.23,158.34,298.23Z"/><path class="cls-17" d="M158.34,380.07c-17.24,0-31.28-17.5-31.28-39a46.43,46.43,0,0,1,3.45-17.83.66.66,0,0,1,1-.39,1,1,0,0,1,.31,1.21,44.4,44.4,0,0,0-3.29,17c0,20.52,13.39,37.22,29.84,37.22a24.75,24.75,0,0,0,12.41-3.36.66.66,0,0,1,.95.44,1,1,0,0,1-.35,1.19A25.92,25.92,0,0,1,158.34,380.07Z"/><path class="cls-14" d="M180.65,315.9a.65.65,0,0,1-.52-.29c-5.63-7.48-13.57-11.77-21.79-11.77a.92.92,0,0,1,0-1.8c8.62,0,16.94,4.5,22.84,12.34a1.06,1.06,0,0,1,0,1.27A.61.61,0,0,1,180.65,315.9Z"/><path class="cls-18" d="M190.57,296.22a1.9,1.9,0,0,1-1.39-.64c-8.6-9.08-19.55-14.08-30.84-14.08a41.12,41.12,0,0,0-26.58,10.08,1.91,1.91,0,0,1-3-.74,3.13,3.13,0,0,1,.59-3.74c8.58-7.19,18.61-11,29-11,12.31,0,24.25,5.45,33.63,15.36a3.16,3.16,0,0,1,.25,3.8A2,2,0,0,1,190.57,296.22Z"/><path class="cls-8" d="M158.34,335.12a.67.67,0,0,1-.59-.71.7.7,0,0,1,.57-.78L221.79,330a.66.66,0,0,1,.62.71.7.7,0,0,1-.57.78l-63.47,3.67Z"/><path class="cls-8" d="M222.72,352.15h0l-64.37-3.67a.69.69,0,0,1-.57-.78.67.67,0,0,1,.62-.71l64.38,3.67a.7.7,0,0,1,.56.78A.66.66,0,0,1,222.72,352.15Z"/><path class="cls-12" d="M158.34,349.23c-3.61,0-6.55-3.67-6.55-8.17s2.94-8.18,6.55-8.18,6.56,3.67,6.56,8.18S162,349.23,158.34,349.23Z"/><path class="cls-18" d="M214.3,328a1.85,1.85,0,0,1-1.67-1.39,2.48,2.48,0,0,1,1-2.93c7.93-4.08,14.48-11.56,18.44-21.05l10.17-24.43a47.08,47.08,0,0,1,15.18-20l6.57-4.83a1.61,1.61,0,0,1,2.46.79,2.59,2.59,0,0,1-.63,3.08l-6.57,4.83a42.75,42.75,0,0,0-13.81,18.18l-10.18,24.43c-4.34,10.43-11.54,18.65-20.25,23.13A1.47,1.47,0,0,1,214.3,328Z"/><path class="cls-18" d="M219.41,339.83a1.78,1.78,0,0,1-1.57-1.15l-39.73-88.62a2.56,2.56,0,0,1,.69-3.06,1.63,1.63,0,0,1,2.45.87L221,336.48a2.55,2.55,0,0,1-.69,3.06A1.49,1.49,0,0,1,219.41,339.83Z"/><path class="cls-18" d="M205.09,343.3H158.34a2.3,2.3,0,0,1,0-4.49h46.75c13.64,0,26-9.38,32.31-24.48l10.18-24.43a47,47,0,0,1,15.18-20l6.57-4.83a1.61,1.61,0,0,1,2.46.79,2.58,2.58,0,0,1-.63,3.08l-6.57,4.83A42.75,42.75,0,0,0,250.78,292L240.6,316.4C233.69,333,220.08,343.3,205.09,343.3Z"/><path class="cls-18" d="M158.34,342.85a1.27,1.27,0,0,1-.72-.24,2.06,2.06,0,0,1-.52-2.46L189,271.63a1.3,1.3,0,0,1,2-.65,2.06,2.06,0,0,1,.52,2.46L159.59,342A1.42,1.42,0,0,1,158.34,342.85Z"/><path class="cls-12" d="M221.82,352.9c-5.24,0-9.5-5.32-9.5-11.84s4.26-11.85,9.5-11.85,9.49,5.32,9.49,11.85S227.05,352.9,221.82,352.9Z"/><path class="cls-21" d="M153,341.06c0,3.69,2.4,6.68,5.35,6.68s5.36-3,5.36-6.68-2.4-6.69-5.36-6.69S153,337.37,153,341.06Z"/><path class="cls-21" d="M213.52,341.06c0,5.71,3.71,10.35,8.3,10.35s8.3-4.64,8.3-10.35-3.72-10.35-8.3-10.35S213.52,335.34,213.52,341.06Z"/><path class="cls-14" d="M228.66,375a1.58,1.58,0,0,1-1.42-1.53,1.77,1.77,0,0,1,1.21-2l15.85-2.92a1.52,1.52,0,0,1,1.63,1.51,1.77,1.77,0,0,1-1.21,2L228.87,375A.75.75,0,0,1,228.66,375Z"/><path class="cls-8" d="M169.77,244.69h14a2.16,2.16,0,0,1,1.89,2.36v2.82a2.15,2.15,0,0,1-1.89,2.35H166.08c-1.38,0-2.33-1.81-1.71-3.36C165.36,246.39,167.41,244.69,169.77,244.69Z"/><path class="cls-22" d="M229.2,343.75v20.89s-1.44,3.26-3.33,3.26a11.54,11.54,0,0,1-3.74-.74l-1.84-27.62Z"/><path class="cls-19" d="M229,363c1.51-.22,3,.29,7.21,1.92,4.67,1.78,7.35.79,7.65,2.22s-.17,1.5-.17,1.5l-21.14,5.75s-3.14-7.73-.66-8.71C227.39,363.48,229,363,229,363Z"/><path class="cls-19" d="M198.13,223.07s31,29.49,35.09,53.6-3.1,75.32-3.1,75.32-3.93,2.39-11.94,1.19c0,0,.16-66.93-2.73-71.72s-47.18-34.89-49.34-43.88,3.39-18.87,3.39-18.87Z"/><path class="cls-23" d="M180.84,214.34l-.14,0a.77.77,0,0,1-.44-.9c.3-1.56.53-2.52.54-2.56a.58.58,0,0,1,.74-.5.78.78,0,0,1,.4.93s-.23,1-.52,2.48A.64.64,0,0,1,180.84,214.34Z"/><path class="cls-18" d="M209.57,144.29a20.23,20.23,0,0,1,7.93,12c1.8,8.09,3.66,26.24,0,31.15-5.77,7.71-12.36,24.57-16.4,39.07-.91,3.28-34.33.25-33.95-2.8.53-4.3,16.53-51.63,22.41-66.61S209.57,144.29,209.57,144.29Z"/><path class="cls-22" d="M221.14,136.22s-5.53,13-3.73,19.4a56.83,56.83,0,0,1,1.77,14.17c0,9-12.51-25.57-12.51-25.57l6.12-14.55Z"/><path class="cls-19" d="M211.76,132.12A18.21,18.21,0,0,0,217,141a11.24,11.24,0,0,0,1.91,1.35c1.06-3.49,2.19-6.13,2.19-6.13l-8.35-6.55Z"/><path class="cls-18" d="M302.86,343.3a1.77,1.77,0,0,1-1.58-1.16l-48.5-110.08a8.73,8.73,0,0,1-.71-3.45v-7.14a2.75,2.75,0,0,0-1.08-2.32,1.75,1.75,0,0,0-2.15,0l-8.45,6.32a1.62,1.62,0,0,1-2.47-.77,2.58,2.58,0,0,1,.62-3.08l8.44-6.33a4.74,4.74,0,0,1,5.78-.09,7.51,7.51,0,0,1,2.91,6.23v7.14a3.06,3.06,0,0,0,.27,1.28L304.43,340a2.55,2.55,0,0,1-.71,3A1.49,1.49,0,0,1,302.86,343.3Z"/><path class="cls-12" d="M297.5,341.06c0,3.69,2.4,6.68,5.36,6.68s5.35-3,5.35-6.68-2.4-6.69-5.35-6.69S297.5,337.37,297.5,341.06Z"/><path class="cls-22" d="M248.18,216.09c-2.25-2.81-9.07-4-11.77-2.85-1.46.6-27.71-6-28.22-7.08-1.24-2.6.42-25.93,1.38-39s-.08-14.71-2.6-18c-2.16-2.86-12.05-2.71-13.6,3.33-3,11.68-.24,62.1,1.33,64.22,5.87,7.89,42.37,6.18,43,6.18.9,0,2.57,2.57,3.47,2.57a9.11,9.11,0,0,0,5.34-2.54C247.05,222.42,250.43,218.89,248.18,216.09Z"/><path class="cls-12" d="M200.42,115.94c-2.89-4.54-12.16-23.14-21-15.73s-2.72,19.9-17.53,10.6c-13.73-8.6-21.81,10.11-14.91,20.69a12,12,0,0,0-2.88,4.54c-2.33,6.36.16,14,5.54,17.06.86.49,1.29,1.45,2.17,1.66a20.17,20.17,0,0,0,13.06,11.64c17.58,5.36,14.23-17.7,19.79-22.65s5.9,3.65,13,2.48,9.86-6.15,9.25-24.58l-.37-4.84S203.31,120.48,200.42,115.94Z"/><path class="cls-22" d="M218.48,104.57a11.43,11.43,0,0,0-6.84,5.22c-2.72,4.41-3.8,20.54,4.19,27.43s13.58-4.32,14.08-13S229.38,103.8,218.48,104.57Z"/><path class="cls-12" d="M207,120.88c-.22-8.27,1.08-14.23,6.11-16.21s9.37-4.07,12.83,2l.85.84s-8.18,1-9.29,6.06-6.33,10.29-5.77,12.86c1.1,5-.38,6.57-.38,6.57l-.72-.87S207.24,129.15,207,120.88Z"/><path class="cls-22" d="M215.49,119.48c.36,2.34-.42,4.46-1.74,4.73s-2.68-1.41-3-3.75.43-4.47,1.75-4.74S215.14,117.13,215.49,119.48Z"/><ellipse class="cls-24" cx="279.16" cy="74.75" rx="23.76" ry="29.63"/><polygon class="cls-24" points="264.02 93.99 255.5 117.24 272.13 101.63 264.02 93.99"/><path class="cls-25" d="M268.3,91.6c0,1.32,4.86,2.39,10.86,2.39S290,92.92,290,91.6s-4.86-2.38-10.86-2.38S268.3,90.29,268.3,91.6Z"/><path class="cls-19" d="M270.21,64c0,4.69,9,27.61,9,27.61s8.95-22.92,8.95-27.61a9,9,0,0,0-17.9,0Zm5.15,1.48c0-2.55,1.7-4.62,3.8-4.62s3.8,2.07,3.8,4.62-1.7,4.61-3.8,4.61S275.36,68,275.36,65.47Z"/></g></g></svg>