<svg xmlns="http://www.w3.org/2000/svg" xmlns:xlink="http://www.w3.org/1999/xlink" viewBox="0 0 1525.1 1187.09"><defs><style>.cls-1{fill:#caf0ff;}.cls-2{isolation:isolate;}.cls-3{fill:#74c2ff;}.cls-4{clip-path:url(#clip-path);}.cls-5{fill:#83bde5;}.cls-6{fill:#e3eef4;}.cls-6,.cls-8{mix-blend-mode:multiply;}.cls-11,.cls-12,.cls-7{fill:#fff;}.cls-7{opacity:0.2;}.cls-8{fill:#c8e5f7;}.cls-9{fill:#3c8f7c;}.cls-10{fill:#2a806c;}.cls-12{opacity:0.37;mix-blend-mode:screen;}.cls-13{fill:#13375b;}.cls-14{fill:#f48c7f;}.cls-15{fill:#d0f0fd;}.cls-16{fill:#001e6e;}.cls-17{fill:#001653;}.cls-18{fill:#b2cffa;}.cls-19{fill:#f7cc7f;}.cls-20{fill:#f47458;}.cls-21{fill:#b75742;}.cls-22{fill:#86b1f2;}.cls-23{fill:#f7a491;}.cls-24{fill:#f7604b;}.cls-25{fill:#e6f8ff;}.cls-26{fill:#f7aba2;}</style><clipPath id="clip-path" transform="translate(47.25)"><path class="cls-1" d="M1201.46,1045.44s108,41.57,178.85-105.68c35.34-73.5,76.32-186.42-117.89-465.82C1223.3,417.66,1177,189,983.57,113.2s-422.93-17.13-457.69,99S453.34,315,382.3,322.65,86.07,375.31,58.87,500.11,157.11,733.68,148,793,50.71,978.54,90.31,1032.1c7.84,10.61,30,22.41,60.88,22.41,135.71,0,386.78-3.45,386.78-3.45Z"/></clipPath></defs><g class="cls-2"><g id="Layer_1" data-name="Layer 1"><rect class="cls-3" x="47.25" width="1422.73" height="1054.51"/><path class="cls-1" d="M1201.46,1045.44s108,41.57,178.85-105.68c35.34-73.5,76.32-186.42-117.89-465.82C1223.3,417.66,1177,189,983.57,113.2s-422.93-17.13-457.69,99S453.34,315,382.3,322.65,86.07,375.31,58.87,500.11,157.11,733.68,148,793,50.71,978.54,90.31,1032.1c7.84,10.61,30,22.41,60.88,22.41,135.71,0,386.78-3.45,386.78-3.45Z" transform="translate(47.25)"/><g class="cls-4"><path class="cls-5" d="M348.44,604.48l314.1,317.57L-16.4,1129.27s7.87-67.85,12.61-99.19c4.79-31.66-16.52-73-43.46-121.64Z" transform="translate(47.25)"/><path class="cls-6" d="M-16,969.9c9.62,22.69,14.8,42.88,12.18,60.18-2.81,18.59-6.73,50-9.44,72.53-1.13,11.77-2.33,21.09-3.17,26.66L217.17,1058,158,1010.11,348.44,604.48l-395.69,304C-30.88,919.83-21.29,942.79-16,969.9Z" transform="translate(47.25)"/><polygon class="cls-7" points="579.54 790.36 488.1 725.49 488.1 840.43 425.04 725.49 347.86 931.31 353.29 725.49 274.44 794.45 298.94 725.49 179.58 775.3 395.69 604.48 579.54 790.36"/><polygon class="cls-5" points="1023.42 1130.77 1525.1 1067.59 1153.11 714.03 949.39 498.19 156.03 1115.39 1023.42 1130.77"/><polygon class="cls-8" points="167.56 1112.25 872.94 1111.9 733.91 941.42 949.39 498.19 167.56 1112.25"/><polygon class="cls-9" points="1347.08 1160.3 1198.64 784.27 1175.72 903.44 1141.65 840.63 1120.63 904.38 1058.05 746.85 990.38 981.81 930.56 883.78 894.03 994.23 874.1 975.37 850.36 1187.09 982.9 1186.51 1347.08 1160.3"/><polygon class="cls-10" points="1314.39 798.62 1352.37 878.68 1412.79 676.16 1463.02 832.78 1512.42 810.05 1522.45 1024.1 1226.44 1129.36 1314.39 798.62"/><polygon class="cls-9" points="925.73 1099.46 887.69 940.96 508.31 992.28 462.94 858 409.48 980.75 371.11 817.98 342.91 863.8 312.32 737.93 268.58 846.59 198.58 517.81 57.1 1067.59 403.08 1113.27 569.42 1113.27 925.73 1099.46"/><polygon class="cls-7" points="1137.72 697.73 1015.96 650.88 1023.18 697.73 954.6 635.73 760.9 777.24 846.32 635.73 709.79 691.14 949.39 498.19 1137.72 697.73"/><path class="cls-11" d="M868.88,234.59c2.62-15.08,12.83-26.32,25-26.32a20,20,0,0,1,6.49,1.09c6-17,19.09-28.82,34.25-28.82a29.45,29.45,0,0,1,11.25,2.25c8.16-17.85,23-29.79,39.92-29.79,20.15,0,37.31,16.9,43.82,40.56a26,26,0,0,1,15.54-5.33c17.67,0,32,18.92,32,42.26,0,1.38-.05,2.75-.15,4.1Z" transform="translate(47.25)"/><path class="cls-11" d="M1199.62,676.38c1.71-9.82,8.36-17.14,16.31-17.14a12.82,12.82,0,0,1,4.23.71c3.92-11.09,12.44-18.78,22.31-18.78a19,19,0,0,1,7.33,1.47c5.32-11.64,15-19.41,26-19.41,13.13,0,24.31,11,28.55,26.42a17,17,0,0,1,10.13-3.47c11.5,0,20.83,12.33,20.83,27.53,0,.91,0,1.8-.1,2.67Z" transform="translate(47.25)"/><path class="cls-12" d="M1372.54,527.8c-17.65.42-38.88,1.43-56.53,1.84-33.34.77-66.74,1.55-100-1.24-18.62-1.57-37.39-4.32-54.66-11.7-10.41-4.45-20.17-10.54-30.88-14.15-18.84-6.36-39.17-4.67-59-5.69-30.56-1.59-60.38-9.8-89.94-18C936.06,466.33,823.85,447.5,821,399.84c-.33-5.47.83-11.27,3.94-15.7,2.38-3.38,6-5.54,9.61-7.44,52.86-27.88,115.9-18.2,175-23.07,15.14-1.24,30.5-3.58,44.14-10.51,15.93-8.08,29.81-22.43,47.51-23.57,12.44-.8,28.93,3.27,34.27-8.39,1.32-2.87,1.25-6.16,1.64-9.32,1.72-13.59,23.78-22.39,35.61-27,41.27,18.11,62.17,44.57,90.32,73.92a50.3,50.3,0,0,0-9.46,1.95c-11.34,3.59-20.83,11.93-32.14,15.63-8.69,2.84-18,2.79-27.08,2.72l-98.86-.81c-6.23-.05-12.63-.07-18.42,2.28s-10.32,6.7-15.46,10.12c-17,11.28-38.35,11.47-58.16,15.41-6.28,1.25-13.2,3.46-16.21,9.31-5,9.74,4.47,20.89,14,25.76,38.42,19.52,85.72.58,126.6,13.67,10.93,3.5,21.07,9.21,31.73,13.54,34.94,14.17,73.83,12.93,111.15,8.86,23.25-2.53,46.57-6.07,69.87-7.42,10.93,20.82,20.31,41.27,28.59,60.34Z" transform="translate(47.25)"/><path class="cls-12" d="M54.12,449.44c14.42-1.71,29-.06,43.49-1.47a108.44,108.44,0,0,0,44.82-15c3.88-2.3,7.71-4.88,11.91-6.08,5.64-1.62,11.53-.65,17.32-.36a75,75,0,0,0,33.3-6.1c3.6-1.54,7.61-4.1,8.2-8.68.76-5.86-4.48-10-9.06-12.05S194,395.27,193,389.47c-.44-2.61.15-5.55-1-7.81a7.71,7.71,0,0,0-3.6-3.1c-15.21-8-31.74-11.09-48.2-11.92-2.22-.12-4.49-.09-6.78,0,25.91-14,55.24-25,83.91-33.55,1.86,0,3.72-.06,5.59-.13,21.93-.81,45.52-3.42,64.25,10.5,2.43,1.8,4.88,4.11,5.68,7.44,2,8.21-6.64,13.82-13.46,15.91-1.08,5.7,5.1,8.93,9.83,9.95a234.77,234.77,0,0,1,44.81,14.53c10.33,4.53,21.79,11.76,23.83,24.88,1.43,9.23-2.65,18.77-8.66,24.66S335.55,449.5,328,451.29c-25.8,6.08-52.48,1.91-78.64,4.94-3.49.41-7.14,1-10,3.52-4.49,3.95-5.7,11.36-8.84,16.92-6.24,11-18.74,13.05-29.73,13.78a653.19,653.19,0,0,1-73.51.73c-6.17-.29-12.46-.65-18.42,1.32-6.27,2.07-11.76,6.58-17.57,10.12-11.84,7.21-25,10.38-38.08,12.93-4.37-19.84-5.2-40.49-.23-61.72C53.32,452.35,53.71,450.89,54.12,449.44Z" transform="translate(47.25)"/><path class="cls-11" d="M464.89,506.72c-2.82-16.26-13.84-28.4-27-28.4a21.43,21.43,0,0,0-7,1.18c-6.5-18.36-20.6-31.09-36.95-31.09a31.73,31.73,0,0,0-12.14,2.43c-8.8-19.26-24.8-32.15-43.07-32.15-21.73,0-40.25,18.24-47.27,43.76a28.08,28.08,0,0,0-16.77-5.75c-19.05,0-34.5,20.42-34.5,45.6,0,1.49.06,3,.17,4.42Z" transform="translate(47.25)"/></g><path class="cls-5" d="M1371.77,1056.34l-1304.6.47c-1.42,0-2.57-2.39-2.57-5.34h0c0-3,1.15-5.34,2.57-5.34l1304.6-.47c1.42,0,2.57,2.39,2.57,5.34h0C1374.34,1054,1373.19,1056.34,1371.77,1056.34Z" transform="translate(47.25)"/><path class="cls-13" d="M615.18,344.73c-8,24.53,4.48,60.1,24.84,65.23,13.24,3.33,26.26-6.06,30.67-23.79,7.16-28.76,4.43-51.23-7.76-61.53C647.21,311.36,621.74,324.5,615.18,344.73Z" transform="translate(47.25)"/><path class="cls-14" d="M615.77,479.63s45.13,83.49,57.26,88.9,33.49-106.19,33.49-106.19,4.74-14.21,6.08-15c5.35-3.11-1.57-8.81-1.57-8.81l-7.93-22.92s-.78.55-4,10.59c-4.29,13.57-6.26,32.52-8.38,36.52l-21.94,43.54L638.05,448.2Z" transform="translate(47.25)"/><path class="cls-14" d="M703.4,425.78l1.91-.87a11.93,11.93,0,0,0,2.59-1.6c3.27-2.65,12.28-9.6,13.66-7.33,1.7,2.8-12.18,13.23-12.18,13.23s15.54-10.19,16.46-6.45-15.11,13.15-15.11,13.15,14.23-7.22,15-5.2-15.67,16.18-15.67,16.18,13.49-10.84,15.54-9-19.24,24.82-19.24,24.82Z" transform="translate(47.25)"/><path class="cls-15" d="M689,987.45a1.61,1.61,0,0,1-1.41-1l-34-72.55a2.62,2.62,0,0,1,.54-3,1.44,1.44,0,0,1,2.28.7l34,72.55a2.64,2.64,0,0,1-.54,3A1.37,1.37,0,0,1,689,987.45Z" transform="translate(47.25)"/><path class="cls-16" d="M722.64,388.31s-14.31,3.95-15.47,9.74-9.23,49.2-7.5,51.46c.53.7,11.89-.79,16.33-5.65S729.29,387.09,722.64,388.31Z" transform="translate(47.25)"/><path class="cls-17" d="M716.94,392.7a52.46,52.46,0,0,0-8.94,3.5c3.32-4.76,14.64-7.89,14.64-7.89,6.65-1.22-2.2,50.68-6.64,55.55a15.1,15.1,0,0,1-5,3.34C715.57,438.41,723.27,391.54,716.94,392.7Z" transform="translate(47.25)"/><path class="cls-13" d="M841.46,1050.68c-58.49,0-106.06-62.87-106.06-140.16S783,770.35,841.46,770.35s106,62.88,106,140.17S899.94,1050.68,841.46,1050.68Zm0-262.81c-51.18,0-92.81,55-92.81,122.65s41.63,122.64,92.81,122.64,92.8-55,92.8-122.64S892.63,787.87,841.46,787.87Z" transform="translate(47.25)"/><path class="cls-18" d="M841.46,1019.29c-45.39,0-82.31-48.79-82.31-108.77s36.92-108.78,82.31-108.78,82.3,48.8,82.3,108.78S886.84,1019.29,841.46,1019.29Zm0-213.17c-43.56,0-79,46.84-79,104.4s35.44,104.39,79,104.39,79-46.83,79-104.39S885,806.12,841.46,806.12Z" transform="translate(47.25)"/><path class="cls-18" d="M841.46,1005.63c-39.69,0-72-42.67-72-95.11a119.14,119.14,0,0,1,7.94-43.46c.42-1.08,1.41-1.5,2.23-.95a2.58,2.58,0,0,1,.71,2.95,113.84,113.84,0,0,0-7.57,41.46c0,50,30.8,90.73,68.66,90.73A54.54,54.54,0,0,0,870,993.06c.83-.5,1.82,0,2.2,1.08a2.54,2.54,0,0,1-.82,2.91A57.19,57.19,0,0,1,841.46,1005.63Z" transform="translate(47.25)"/><path class="cls-15" d="M892.77,849.19a1.5,1.5,0,0,1-1.21-.69c-12.93-18.24-31.19-28.71-50.1-28.71a2.27,2.27,0,0,1,0-4.38c19.82,0,39,11,52.52,30.1a2.71,2.71,0,0,1-.07,3.09A1.45,1.45,0,0,1,892.77,849.19Z" transform="translate(47.25)"/><path class="cls-19" d="M726.64,917.09c-2.75,0-5-2.94-5-6.57,0-87.3,53.74-158.32,119.8-158.32,28.31,0,55.78,13.3,77.36,37.44a8.12,8.12,0,0,1,.58,9.26c-1.78,2.77-4.91,3.12-7,.77-19.78-22.13-45-34.32-70.93-34.32-60.58,0-109.85,65.12-109.85,145.17C731.61,914.15,729.38,917.09,726.64,917.09Z" transform="translate(47.25)"/><path class="cls-14" d="M619.46,842.23l-20.3,23.24s-6.82,1-9.33-3.71a19.31,19.31,0,0,1-2-9.89l19-29.93Z" transform="translate(47.25)"/><path class="cls-20" d="M603.45,860.56c4.38-2.27,0,0,5,20.55,4.66,13.51,9.79,19,8,21.76a11.21,11.21,0,0,1-4.18,3.88l-32.49-47.23s7.15-16.82,10.6-10.36C605.64,866.14,603.45,860.56,603.45,860.56Z" transform="translate(47.25)"/><path class="cls-21" d="M589.65,626.18s115.81,66.55,115.81,103.88c0,22.1-84.68,120.23-84.68,120.23L602.27,824s46.13-71.61,44.19-80.52-110.75-67.68-114.34-81.91,15.07-39.06,15.07-39.06Z" transform="translate(47.25)"/><path class="cls-13" d="M509,1050.68c-58.48,0-106.06-62.87-106.06-140.16S450.52,770.35,509,770.35s106.06,62.88,106.06,140.17S567.48,1050.68,509,1050.68Zm0-262.81c-51.17,0-92.8,55-92.8,122.65s41.63,122.64,92.8,122.64,92.8-55,92.8-122.64S560.17,787.87,509,787.87Z" transform="translate(47.25)"/><path class="cls-18" d="M509,1019.29c-45.38,0-82.3-48.79-82.3-108.77S463.62,801.74,509,801.74s82.31,48.8,82.31,108.78S554.38,1019.29,509,1019.29Zm0-213.17c-43.55,0-79,46.84-79,104.4s35.44,104.39,79,104.39,79-46.83,79-104.39S552.56,806.12,509,806.12Z" transform="translate(47.25)"/><path class="cls-18" d="M509,1005.63c-39.68,0-72-42.67-72-95.11A119.38,119.38,0,0,1,445,867.06c.42-1.08,1.42-1.5,2.23-.95a2.56,2.56,0,0,1,.72,2.95,113.84,113.84,0,0,0-7.57,41.46c0,50,30.8,90.73,68.65,90.73a54.55,54.55,0,0,0,28.54-8.19c.83-.5,1.81,0,2.19,1.08a2.54,2.54,0,0,1-.81,2.91A57.22,57.22,0,0,1,509,1005.63Z" transform="translate(47.25)"/><path class="cls-15" d="M560.32,849.19a1.5,1.5,0,0,1-1.21-.69c-12.94-18.24-31.2-28.71-50.11-28.71a2.27,2.27,0,0,1,0-4.38c19.82,0,39,11,52.53,30.1a2.71,2.71,0,0,1-.08,3.09A1.44,1.44,0,0,1,560.32,849.19Z" transform="translate(47.25)"/><path class="cls-19" d="M583.15,801.23a4.28,4.28,0,0,1-3.21-1.56c-19.79-22.13-45-34.32-70.94-34.32-21.91,0-43.06,8.49-61.16,24.56-2.28,2-5.37,1.22-6.9-1.79S440,781,442.29,779c19.76-17.54,42.82-26.81,66.71-26.81,28.31,0,55.79,13.3,77.36,37.44a8.09,8.09,0,0,1,.58,9.26A4.56,4.56,0,0,1,583.15,801.23Z" transform="translate(47.25)"/><path class="cls-9" d="M509,896a1.61,1.61,0,0,1-1.37-1.73,1.69,1.69,0,0,1,1.31-1.9l146-8.94c.76-.06,1.4.73,1.44,1.73a1.7,1.7,0,0,1-1.31,1.9l-146,8.94Z" transform="translate(47.25)"/><path class="cls-9" d="M657.1,937.57H657l-148.09-8.94a1.68,1.68,0,0,1-1.31-1.9c0-1,.72-1.77,1.43-1.73l148.1,8.94a1.7,1.7,0,0,1,1.31,1.9C658.43,936.81,657.83,937.57,657.1,937.57Z" transform="translate(47.25)"/><path class="cls-13" d="M509,930.44c-8.31,0-15.07-8.94-15.07-19.92S500.69,890.6,509,890.6s15.07,8.93,15.07,19.92S517.31,930.44,509,930.44Z" transform="translate(47.25)"/><path class="cls-19" d="M637.73,878.65c-1.63,0-3.17-1.28-3.83-3.39-.87-2.8.13-6,2.25-7.15,18.25-10,33.31-28.17,42.41-51.31L702,757.24c8-20.25,20-37.09,34.91-48.69L752,696.77c2-1.54,4.51-.67,5.68,1.93s.5,6-1.47,7.5L741.09,718c-13.54,10.56-24.52,25.88-31.77,44.31l-23.41,59.55c-10,25.44-26.55,45.46-46.6,56.39A3.34,3.34,0,0,1,637.73,878.65Z" transform="translate(47.25)"/><path class="cls-19" d="M649.49,907.53a4.13,4.13,0,0,1-3.62-2.81l-91.41-216c-1.11-2.64-.4-6,1.6-7.46s4.52-.53,5.64,2.11l91.4,216c1.12,2.63.4,6-1.59,7.45A3.41,3.41,0,0,1,649.49,907.53Z" transform="translate(47.25)"/><path class="cls-19" d="M616.54,916H509c-2.29,0-4.14-2.45-4.14-5.47S506.71,905,509,905H616.54c31.38,0,59.87-22.86,74.34-59.67l23.42-59.55c8-20.26,20-37.09,34.91-48.69l15.11-11.79c2-1.53,4.51-.67,5.67,1.94s.51,6-1.46,7.5l-15.11,11.78c-13.54,10.55-24.52,25.88-31.77,44.31l-23.42,59.55C682.33,890.87,651,916,616.54,916Z" transform="translate(47.25)"/><path class="cls-19" d="M509,914.9a2.7,2.7,0,0,1-1.66-.59,5.23,5.23,0,0,1-1.21-6l73.4-167c.92-2.09,2.94-2.8,4.53-1.59a5.23,5.23,0,0,1,1.2,6l-73.39,167A3.28,3.28,0,0,1,509,914.9Z" transform="translate(47.25)"/><path class="cls-13" d="M655,939.38c-12,0-21.84-13-21.84-28.86S643,881.66,655,881.66s21.84,12.94,21.84,28.86S667.07,939.38,655,939.38Z" transform="translate(47.25)"/><path class="cls-22" d="M496.68,910.52c0,9,5.51,16.29,12.32,16.29s12.33-7.3,12.33-16.29-5.52-16.29-12.33-16.29S496.68,901.52,496.68,910.52Z" transform="translate(47.25)"/><path class="cls-22" d="M635.93,910.52c0,13.93,8.55,25.23,19.09,25.23s19.09-11.3,19.09-25.23-8.54-25.23-19.09-25.23S635.93,896.58,635.93,910.52Z" transform="translate(47.25)"/><path class="cls-15" d="M670.76,993.2c-1.61,0-3-1.57-3.27-3.75-.27-2.39,1-4.62,2.79-5l36.46-7.12c1.81-.34,3.5,1.3,3.76,3.7s-1,4.62-2.79,5l-36.46,7.12A2.72,2.72,0,0,1,670.76,993.2Z" transform="translate(47.25)"/><path class="cls-9" d="M535.29,675.63h32.33c2.39,0,4.34,2.57,4.34,5.74v6.86c0,3.17-2,5.74-4.34,5.74H526.8c-3.18,0-5.35-4.42-3.93-8.18C525.14,679.77,529.85,675.63,535.29,675.63Z" transform="translate(47.25)"/><path class="cls-23" d="M672,917.09V968S668.7,976,664.34,976a25.31,25.31,0,0,1-8.59-1.79l-4.24-67.33Z" transform="translate(47.25)"/><path class="cls-20" d="M671.57,964c3.49-.55,6.81.7,16.59,4.66,10.74,4.36,16.9,2,17.59,5.42s-.38,3.68-.38,3.68l-48.63,14s-7.22-18.84-1.52-21.24C667.85,965.19,671.57,964,671.57,964Z" transform="translate(47.25)"/><path class="cls-20" d="M600.53,622.92s71.34,71.87,80.73,130.64-7.15,183.6-7.15,183.6-9,5.84-27.45,2.92c0,0,.35-163.16-6.27-174.84s-108.55-85-113.52-107,7.79-46,7.79-46Z" transform="translate(47.25)"/><path class="cls-24" d="M560.75,601.63a.93.93,0,0,1-.32,0,1.9,1.9,0,0,1-1-2.19c.69-3.79,1.22-6.14,1.24-6.23.22-1,1-1.51,1.71-1.23a2,2,0,0,1,.92,2.26s-.53,2.37-1.2,6A1.52,1.52,0,0,1,560.75,601.63Z" transform="translate(47.25)"/><path class="cls-19" d="M626.85,430.89a49.16,49.16,0,0,1,18.23,29.2c4.14,19.71,8.43,64,0,75.92-13.27,18.81-28.41,59.9-37.72,95.25-2.1,8-79,.6-78.11-6.84,1.24-10.48,38-125.86,51.56-162.36S626.85,430.89,626.85,430.89Z" transform="translate(47.25)"/><path class="cls-23" d="M653.46,411.22s-12.71,31.62-8.57,47.28c2.31,8.74,4.06,22,4.06,34.53,0,21.9-28.77-62.32-28.77-62.32l14.09-35.47Z" transform="translate(47.25)"/><path class="cls-20" d="M631.9,401.21c2.28,8.43,6.15,16.18,12.14,21.65a25.81,25.81,0,0,0,4.38,3.29c2.45-8.5,5-14.93,5-14.93l-19.19-16Z" transform="translate(47.25)"/><path class="cls-19" d="M841.46,916a4.15,4.15,0,0,1-3.64-2.84L726.26,644.82a22,22,0,0,1-1.63-8.4V619a6.76,6.76,0,0,0-2.5-5.65,3.86,3.86,0,0,0-5,.08l-19.42,15.41c-2,1.56-4.51.71-5.69-1.88s-.54-6,1.42-7.51l19.43-15.41a10.4,10.4,0,0,1,13.3-.22c4.19,3.14,6.69,8.81,6.69,15.18v17.4a8.2,8.2,0,0,0,.61,3.13L845.09,907.88c1.1,2.65.37,6-1.64,7.44A3.37,3.37,0,0,1,841.46,916Z" transform="translate(47.25)"/><path class="cls-13" d="M829.13,910.52c0,9,5.52,16.29,12.33,16.29s12.32-7.3,12.32-16.29-5.52-16.29-12.32-16.29S829.13,901.52,829.13,910.52Z" transform="translate(47.25)"/><path class="cls-23" d="M715.67,605.89c-5.18-6.84-20.86-9.68-27.08-6.94-3.36,1.48-63.74-14.62-64.93-17.26-2.84-6.33,1-63.2,3.19-95s-.2-35.86-6-44c-5-7-27.71-6.6-31.29,8.13-6.92,28.47-.55,151.38,3.08,156.55,13.49,19.22,97.46,15.05,99,15.05,2.07,0,5.9,6.27,8,6.27s7.89-1.63,12.29-6.2C713.07,621.32,720.85,612.74,715.67,605.89Z" transform="translate(47.25)"/><path class="cls-13" d="M605.79,361.78c-6.65-11.07-28-56.41-48.38-38.33s-6.25,48.49-40.33,25.83c-31.57-21-50.16,24.64-34.29,50.44a29.54,29.54,0,0,0-6.64,11.06c-5.34,15.5.37,34.12,12.76,41.59,2,1.18,3,3.53,5,4,5.31,13.18,15.23,23.58,30,28.37,40.46,13.08,32.74-43.12,45.53-55.19s13.57,8.88,29.95,6,22.69-15,21.28-59.92l-.85-11.81S612.45,372.85,605.79,361.78Z" transform="translate(47.25)"/><path class="cls-23" d="M647.35,334.06s-9.48,2-15.74,12.73-8.75,50.07,9.64,66.86,31.24-10.54,32.39-31.72S672.42,332.19,647.35,334.06Z" transform="translate(47.25)"/><path class="cls-13" d="M621,373.83c-.52-20.16,2.47-34.7,14-39.52s21.57-9.92,29.52,5l2,2.06s-18.83,2.55-21.39,14.76-14.55,25.08-13.26,31.35c2.52,12.24-.87,16-.87,16l-1.65-2.12S621.49,394,621,373.83Z" transform="translate(47.25)"/><path class="cls-23" d="M640.47,370.4c.82,5.71-1,10.88-4,11.54s-6.17-3.44-7-9.16,1-10.88,4-11.53S639.66,364.68,640.47,370.4Z" transform="translate(47.25)"/><ellipse class="cls-25" cx="834.2" cy="261.36" rx="54.65" ry="72.23"/><polygon class="cls-25" points="799.37 308.26 779.77 364.95 818.02 326.9 799.37 308.26"/><path class="cls-26" d="M762,302.46c0,3.21,11.19,5.8,25,5.8s25-2.59,25-5.8-11.19-5.81-25-5.81S762,299.25,762,302.46Z" transform="translate(47.25)"/><path class="cls-20" d="M766.36,235.15c0,11.42,20.58,67.31,20.58,67.31s20.59-55.89,20.59-67.31a20.59,20.59,0,1,0-41.17,0Zm11.85,3.6c0-6.21,3.91-11.25,8.73-11.25s8.73,5,8.73,11.25S791.76,250,786.94,250,778.21,245,778.21,238.75Z" transform="translate(47.25)"/></g></g></svg>