<svg xmlns="http://www.w3.org/2000/svg" xmlns:xlink="http://www.w3.org/1999/xlink" viewBox="0 0 949.74 677.32"><defs><style>.cls-1,.cls-15,.cls-18,.cls-19,.cls-20,.cls-21,.cls-23,.cls-24,.cls-25,.cls-26,.cls-27,.cls-28,.cls-30{fill:none;}.cls-2{fill:#fffcf7;}.cls-3{opacity:0.69;}.cls-4{clip-path:url(#clip-path);}.cls-5{fill:#bcebe9;}.cls-6{fill:#d7f5ef;}.cls-7{fill:#97d19d;}.cls-8{fill:#5ea466;}.cls-9{fill:#96d89f;}.cls-10{fill:#5ebd75;}.cls-11{fill:#fffaed;}.cls-12{fill:#292b50;}.cls-13,.cls-32{fill:#ffb09e;}.cls-14{fill:#e26191;}.cls-15{stroke:#fcf9f5;stroke-width:0.92px;}.cls-15,.cls-18,.cls-19,.cls-20,.cls-21,.cls-23,.cls-24,.cls-25,.cls-27,.cls-28,.cls-30,.cls-36,.cls-37,.cls-38{stroke-miterlimit:10;}.cls-16{fill:#d47082;}.cls-17{fill:#34753d;}.cls-18,.cls-24,.cls-25,.cls-26,.cls-28,.cls-37,.cls-38{stroke:#f7b767;}.cls-18,.cls-19,.cls-24,.cls-25,.cls-26,.cls-28,.cls-30,.cls-32,.cls-38{stroke-linecap:round;}.cls-18,.cls-19{stroke-width:4.97px;}.cls-19{stroke:#222343;}.cls-20,.cls-21,.cls-27{stroke:#292b50;}.cls-20,.cls-28,.cls-30{stroke-width:2.15px;}.cls-21{stroke-width:8.2px;}.cls-22{fill:#f7b767;}.cls-23,.cls-30{stroke:#fff;}.cls-23{stroke-width:6.62px;}.cls-24,.cls-26{stroke-width:7.49px;}.cls-25{stroke-width:7.48px;}.cls-26,.cls-32{stroke-linejoin:round;}.cls-27{stroke-width:3.22px;}.cls-29{fill:#fff;}.cls-31,.cls-37,.cls-38{fill:#003b3a;}.cls-32{stroke:#ffb09e;stroke-width:1.87px;}.cls-33{fill:#c56274;}.cls-34{clip-path:url(#clip-path-2);}.cls-35{fill:#fcf9f5;}.cls-36{fill:#ff5e6e;stroke:#ff5e6e;stroke-width:0.4px;opacity:0.37;}.cls-37,.cls-38{stroke-width:1.42px;}.cls-39{opacity:0.17;}.cls-40{clip-path:url(#clip-path-3);}.cls-41{clip-path:url(#clip-path-4);}.cls-42{fill:#419355;}.cls-43{fill:#357843;}</style><clipPath id="clip-path" transform="translate(1.02 -0.13)"><rect class="cls-1" x="161.4" y="41.37" width="627.2" height="443.73"/></clipPath><clipPath id="clip-path-2" transform="translate(1.02 -0.13)"><path class="cls-1" d="M640.81,142.8c-16.35,3.09-27.15-7.55-48.75-16,0,0-11.21-5-19,6.62s8.66,22.24,8.66,22.24c16,10.91,29.23,27,46.58,23Z"/></clipPath><clipPath id="clip-path-3" transform="translate(1.02 -0.13)"><path class="cls-1" d="M609.12,131.89c1,.87,15.25,27.38,13.33,38.81-1.28,7.67,3.61,21.93-1.26,36.88,0,0-25.07-.94-61.52-8.42-1.16-12-1-48,14.84-66.54,0,0,9.76-1.33,13.77-1.17C588.28,131.45,606.07,145.84,609.12,131.89Z"/></clipPath><clipPath id="clip-path-4" transform="translate(1.02 -0.13)"><path class="cls-1" d="M630.66,183.13c-14.18-10-20.61-23.11-29.49-44.75,0,0-4.09-11.66-18.87-9.6S571,150.17,571,150.17c2.9,19.18,6.31,30.26,21.89,40.41Z"/></clipPath></defs><g id="BACKGROUND"><rect class="cls-2" width="949.74" height="500.14"/></g><g id="OBJECTS"><g class="cls-3"><g class="cls-4"><circle class="cls-5" cx="474.14" cy="376.9" r="300.48" transform="translate(-126.62 445.52) rotate(-45)"/><path class="cls-6" d="M386.55,89.42c17.72,31.35,35.07,70.25,45.77,104.63,2,6.48,3.67,14.29-.76,19.44-3,3.47-7.86,4.55-12.41,5-29.08,3.15-57.46-9.22-86.57-12-14.1-1.35-31.41,1.55-36.71,14.69-5.94,14.76,7.83,30.93,5.29,46.63-2.6,16.14-21.23,24.66-37.57,25s-32.63-4.7-48.87-2.86-29.65,15.31-34.54,29.57c0,0,17.91-159.29,192.82-225.69Z" transform="translate(1.02 -0.13)"/><path class="cls-6" d="M295.32,619.25c3.56,2.89,7.6-7.34,6.46-11.78s-4.39-8-6.93-11.79c-13.8-20.75-5.83-48.17-1.21-72.65a237,237,0,0,0,3.43-61.78c-1.64-21.57-7.8-45.24-26.1-56.78-12.54-7.9-28.2-8.4-43-8.66l-52.78-.92S165.56,514.35,295.32,619.25Z" transform="translate(1.02 -0.13)"/><path class="cls-6" d="M773.71,401.29c-45.55,15.26-100.11,7.8-139.16-20.19-6.9-4.94-13.93-10.68-22.38-11.35s-18,7-15.41,15c1.82,5.7,8.77,9.29,8.84,15.28.08,6.81-8.28,9.88-13.08,14.72-3.44,3.47-5.17,8.26-6.37,13-9.06,35.83,7,73.06,6.78,110-.13,22.33-9.68,48.07-31.25,53.86-20.89,5.61-41.18-10.24-55.55-26.41a311.83,311.83,0,0,1-54.49-86.69c-8.21-19.66-13.37-45,1.7-60.08,7.1-7.11,17.25-10.13,25.58-15.73,9.4-6.32,16.52-16.38,18-27.61s-3.26-23.38-12.72-29.6c-18.63-12.25-42.95,1.75-65.25,2a9.39,9.39,0,0,1-4.28-.67c-5.08-2.45-3.05-10.26.55-14.61,10.41-12.59,26.66-18.37,41.65-24.87s30.6-15.53,36.35-30.82c2.35-6.23,2.94-13.29,6.93-18.62,9.31-12.43,28.47-7.41,43.94-8.69,18.29-1.51,35.06-14.75,40.78-32.19,3.45-10.53,3.09-21.93,5.63-32.71,6-25.34,29.09-44.71,49.82-57.87,0,0,132.94,70,135.1,250.9Z" transform="translate(1.02 -0.13)"/><path class="cls-6" d="M644.49,624.74c-15.48,11.09-2.65-40.61-2-59.63.45-12.4,1.59-25.09,6.88-36.31,2.65-5.61,6.57-11,12.21-13.57,3.57-1.64,7.57-2.06,11.5-2.19,20-.69,42.77,7.26,58.67,19.41C731.78,532.45,709.34,578.31,644.49,624.74Z" transform="translate(1.02 -0.13)"/></g></g><path class="cls-7" d="M479.79,454.41h0c-.14.34-.27.68-.41,1a1.31,1.31,0,0,1-.69,1.76q-1,2.47-1.84,5,10.53-.21,21.07.15a81.8,81.8,0,0,0,2.27-10.76A99.48,99.48,0,0,0,479.79,454.41Z" transform="translate(1.02 -0.13)"/><path class="cls-7" d="M494.09,428.39a135.85,135.85,0,0,0-13.17,23.33,102.94,102.94,0,0,1,19.54-2.54c.47-4.38.56-8.89-.83-13.06A15.49,15.49,0,0,0,494.09,428.39Z" transform="translate(1.02 -0.13)"/><path class="cls-7" d="M476.66,455.76a133.82,133.82,0,0,1-9.8-14.06,66.09,66.09,0,0,0-7,14.25c-3.31,9.35-7.19,20.18-8.78,30h17.48A137,137,0,0,1,476.66,455.76Z" transform="translate(1.02 -0.13)"/><path class="cls-7" d="M468.59,440a131.33,131.33,0,0,0,9.09,13.23,137.13,137.13,0,0,1,14.34-26,10.33,10.33,0,0,0-1.9-.63c-5-1.14-10.17,1.49-14.15,4.78a45.73,45.73,0,0,0-7.7,8.27A1.25,1.25,0,0,1,468.59,440Z" transform="translate(1.02 -0.13)"/><path class="cls-7" d="M476,464.54A136.16,136.16,0,0,0,471,485.91h17.17a115.48,115.48,0,0,0,9.08-21.25Q486.61,464.33,476,464.54Z" transform="translate(1.02 -0.13)"/><path class="cls-8" d="M423.73,437.87a1.09,1.09,0,0,1-.23.32q6.69,9.35,13.25,18.79a1.1,1.1,0,0,1,.67-.23q9.93-.27,19.8-1.32-2.58-4.74-5.21-9.45a4.75,4.75,0,0,0-1.86-2.14A4.36,4.36,0,0,0,447,444c-3.44,1.14-6.75,3.11-10.38,3s-7.45-3.67-6-7a7.84,7.84,0,0,1,3.24-3.11l8.07-5.19c1.23-.79,2.59-1.8,2.66-3.26a4.64,4.64,0,0,0-1.12-2.73c-2.45-3.54-4.91-7.08-7.42-10.57A233.66,233.66,0,0,0,423.73,437.87Z" transform="translate(1.02 -0.13)"/><path class="cls-8" d="M458.43,457.67h0q-10.06,1.11-20.19,1.42,7.13,10.34,14.1,20.79c.85,1.27-1.2,2.46-2,1.19Q418.1,432.71,382.18,387a20.51,20.51,0,0,0-2.78,6.84c-3.12,12.75-1.64,26.24,1.77,38.91A132.22,132.22,0,0,0,410.79,487l62.95.23Q466.36,472.29,458.43,457.67Z" transform="translate(1.02 -0.13)"/><path class="cls-8" d="M422,436.07a234.07,234.07,0,0,1,12.54-23,178.62,178.62,0,0,0-11.74-14.58c-6.58-7.25-14.42-14-24-16.2-5.19-1.21-11.25-.72-15.08,2.86Q403.41,410.2,422,436.07Z" transform="translate(1.02 -0.13)"/><path class="cls-9" d="M833.56,455.32a87.85,87.85,0,0,1-11,13.91l0,0c2.46,5.73,4.81,11.51,7,17.35h13.2C841,476.41,837,465.13,833.56,455.32Z" transform="translate(1.02 -0.13)"/><path class="cls-9" d="M816.92,462.49a1,1,0,0,1-.92-1.41l.12-.32q-8.19-17.64-18.1-34.44a1.18,1.18,0,0,1,2-1.19q9.39,15.86,17.21,32.53,3.21-8.61,6.41-17.2c.53-1.42,2.82-.8,2.28.62l-7.29,19.59c1,2.07,1.89,4.15,2.8,6.25a86.36,86.36,0,0,0,11.06-14.4c-3.54-9.13-8.79-17.73-16.31-24-4.23-3.5-9.71-6.3-15.07-5.09-4.86,1.1-8.54,5.4-10.12,10.13s-1.36,9.88-.78,14.84c1.55,13.14,6.69,26.56,13,38.17H827Q822.37,474.39,816.92,462.49Z" transform="translate(1.02 -0.13)"/><path class="cls-8" d="M777.92,458.35q.17-6.17.34-12.32a1.14,1.14,0,0,1,.33-.8,10.33,10.33,0,0,0-7.34-1.45,9.42,9.42,0,0,0-6,4.82C770.15,450.35,774.32,454.14,777.92,458.35Z" transform="translate(1.02 -0.13)"/><path class="cls-8" d="M780.22,460.71a1.11,1.11,0,0,1-.07.37c1.69,2.16,3.24,4.33,4.68,6.32a67.22,67.22,0,0,1,9.92,19.21h4.68c-1.15-7.06-4-14.89-6.35-21.63s-6.1-13.18-11.61-17.75c-.28-.23-.57-.45-.86-.67Z" transform="translate(1.02 -0.13)"/><path class="cls-8" d="M766.48,472c6.17.15,12.32.06,18.48-.23-.47-.71-.94-1.41-1.42-2.1-4.63-6.6-11.09-16-19.2-18.87a23.59,23.59,0,0,0-.49,9.94A60.12,60.12,0,0,0,766.36,472Z" transform="translate(1.02 -0.13)"/><path class="cls-8" d="M786.41,474.05q-9.61.51-19.25.31a86,86,0,0,0,5.53,12.25h19.6A60.6,60.6,0,0,0,786.41,474.05Z" transform="translate(1.02 -0.13)"/><path class="cls-8" d="M895,408.17q6-16.4,10.85-33.23a22.84,22.84,0,0,0-8.32.41,40.67,40.67,0,0,0-16,8.22Q887.94,396,895,408.17Z" transform="translate(1.02 -0.13)"/><path class="cls-8" d="M888.8,430.24a147.13,147.13,0,0,1,19.13.19,65.92,65.92,0,0,1,7.65,1.13c.25-.84.49-1.67.72-2.51,3.63-13.49,5.21-27.86,1.89-41.43-.75-3-1.79-6.12-3.87-8.46a12.89,12.89,0,0,0-6.16-3.73A474.53,474.53,0,0,1,888.8,430.24Z" transform="translate(1.02 -0.13)"/><path class="cls-8" d="M858.11,485.64a468.08,468.08,0,0,0,31.48-63.5h0q-8.4-15-17.56-29.57l0,0c-8.15,9-15.08,19-22,29a5,5,0,0,0-1.2,2.91c.08,1.55,1.53,2.63,2.84,3.47l8.58,5.52a8.46,8.46,0,0,1,3.46,3.32c1.56,3.53-2.52,7.34-6.38,7.43s-7.38-2-11-3.21a4.62,4.62,0,0,0-3.4-.15,5,5,0,0,0-2,2.28Q828.77,464.76,817.76,487l40.39-.15A1.08,1.08,0,0,1,858.11,485.64Z" transform="translate(1.02 -0.13)"/><path class="cls-8" d="M908.66,432.87c-2.18-.23-4.37-.36-6.56-.43-4.78-.14-9.56,0-14.34.2a470.93,470.93,0,0,1-27.6,54.19h0l24.62-.09A140.66,140.66,0,0,0,915,433.62C912.49,433.23,908.88,432.89,908.66,432.87Z" transform="translate(1.02 -0.13)"/><path class="cls-8" d="M890.72,419.33q1.63-4.12,3.19-8.28-7.49-12.8-14.3-25.94a81.1,81.1,0,0,0-5.91,5.67Q882.57,404.85,890.72,419.33Z" transform="translate(1.02 -0.13)"/><path class="cls-9" d="M900.36,473.36a1.7,1.7,0,0,1-.41-.05q-2,6.35-3.55,12.83a1.09,1.09,0,0,1-.23.47H908a84.05,84.05,0,0,0,6.09-13.89Z" transform="translate(1.02 -0.13)"/><path class="cls-9" d="M911.57,444.9a180,180,0,0,0-7.46,16.61,76.61,76.61,0,0,1,12.82-1.27,22.45,22.45,0,0,0-.58-9.59,10.88,10.88,0,0,0-4.68-6A2.77,2.77,0,0,1,911.57,444.9Z" transform="translate(1.02 -0.13)"/><path class="cls-9" d="M903.82,463.94a1.1,1.1,0,0,1-.63,0q-1.32,3.51-2.5,7.08l14.19-.66a59.9,59.9,0,0,0,1.74-7.71A74.41,74.41,0,0,0,903.82,463.94Z" transform="translate(1.02 -0.13)"/><path class="cls-9" d="M894.12,485.51a185.88,185.88,0,0,1,15.37-41.73h0c-3.64-.82-7.35,1.08-10.22,3.45-5.51,4.57-9.23,11-11.62,17.75s-5.2,14.57-6.34,21.63h13.12A1.1,1.1,0,0,1,894.12,485.51Z" transform="translate(1.02 -0.13)"/><path class="cls-10" d="M364.87,482.17a182.79,182.79,0,0,0-30-53.85c-13-16.11-29.73-32.63-48.86-41.18-9.11-4.07-18.82-5.52-28.49-2.63-11.56,3.44-22.36,11-34.53,5-10.11-4.95-18.75-13.43-28.07-19.71a169,169,0,0,0-29.62-16.35c-22.63-9.39-48.88-11.68-71.17-.12-1.71.89-.2,3.48,1.52,2.59,20.43-10.6,44.57-8.94,65.58-.89a157.24,157.24,0,0,1,30,15.89c8.93,5.88,17.09,12.92,26.05,18.73,8.12,5.26,16.35,6.43,25.58,3.48,11.08-3.53,20.47-9,32.55-6.45,11.18,2.41,21,9.29,29.84,16.31a177,177,0,0,1,21.35,20.16A179.13,179.13,0,0,1,362,483c.64,1.81,3.53,1,2.89-.8Z" transform="translate(1.02 -0.13)"/><path class="cls-10" d="M231.14,407.44A273.74,273.74,0,0,0,172.57,480a1.34,1.34,0,0,1-1.68.65c.39.84.77,1.69,1.16,2.54l191.73,2.49A258.9,258.9,0,0,0,345.07,463a1.25,1.25,0,0,1-.49.76c-12.53,9.93-29.16,5.73-40.1-4.47-10.16-9.48-19.44-26.14-11-39.47,1-1.63,3.62-.12,2.59,1.51-7.42,11.7.81,26.22,9.41,34.77,9.64,9.59,25.23,14.82,37,5.54a1.52,1.52,0,0,1,1-.35c-18.72-20.15-41.83-40.34-61-53.66-4.9-3.4-10.21-6.75-16.17-7.09-7.86-.46-15,4.38-22.65,6.12a32.15,32.15,0,0,1-12.15.34A1.54,1.54,0,0,1,231.14,407.44Zm35.16-2.07a1.5,1.5,0,0,1,2.89.79,113.83,113.83,0,0,0-4.46,37.47c.59,11.66,2,27.34,10.52,36.22,1.33,1.4-.79,3.52-2.13,2.12-8.42-8.84-10.18-23-11.15-34.7A116.33,116.33,0,0,1,266.3,405.37Z" transform="translate(1.02 -0.13)"/><path class="cls-10" d="M144.62,432a424.15,424.15,0,0,1,25.32,46.53.49.49,0,0,1,0-.11,276.28,276.28,0,0,1,58-72.17c-12.44-3.15-24.15-12.23-35-20-2.53-1.81-5.1-3.55-7.7-5.25A202.75,202.75,0,0,0,144.62,432Z" transform="translate(1.02 -0.13)"/><path class="cls-10" d="M153,452.06a1.24,1.24,0,0,1-.94,0A259.15,259.15,0,0,0,35.21,433.7a1.24,1.24,0,0,1-1.28-.69c.21,16.39,3.81,32.89,9.14,48.46l125.69,1.64Q161.53,467.26,153,452.06Z" transform="translate(1.02 -0.13)"/><path class="cls-10" d="M135.37,417.91c.6.38,1.21.73,1.8,1.11a1.47,1.47,0,0,1,.41,2.15q2.67,4,5.23,8a205.22,205.22,0,0,1,39.85-49.82,235.18,235.18,0,0,0-39.93-20.43c-17.12-6.77-35.89-11.54-53.88-7.61a58.19,58.19,0,0,0-7.63,2.25A425.43,425.43,0,0,1,135.37,417.91Z" transform="translate(1.02 -0.13)"/><path class="cls-10" d="M35.21,430.7a261.16,261.16,0,0,1,115.72,17.67q-8.3-14.49-17.72-28.28A540.07,540.07,0,0,0,53.47,379.3c-1.76-.73-1-3.63.8-2.9A546.71,546.71,0,0,1,129,414a423.54,423.54,0,0,0-50.79-59.21c-20.11,8.76-35.07,28.5-40.87,50a102.32,102.32,0,0,0-3.4,26.84A1.49,1.49,0,0,1,35.21,430.7Z" transform="translate(1.02 -0.13)"/><path class="cls-8" d="M306.58,334s-1.83-25.63-19.22-22.89C287.36,311.12,281.87,332.18,306.58,334Z" transform="translate(1.02 -0.13)"/><path class="cls-8" d="M218.06,370.26s13.86-12.35,4.62-21.1C222.68,349.16,208.21,355.3,218.06,370.26Z" transform="translate(1.02 -0.13)"/><path class="cls-11" d="M353.56,390s-9.89-10.78-16.68-3.39C336.88,386.62,341.89,398,353.56,390Z" transform="translate(1.02 -0.13)"/><path class="cls-8" d="M882.28,344.81s-4.74-13.4,10.66-17.35C892.94,327.46,898.75,344.45,882.28,344.81Z" transform="translate(1.02 -0.13)"/><path class="cls-8" d="M896.76,355.56s5.53-19,26.14-10.95C922.9,344.61,915.68,368.53,896.76,355.56Z" transform="translate(1.02 -0.13)"/><path class="cls-11" d="M342.14,466.15s7.06-24.28,33.42-14C375.56,452.14,366.33,482.73,342.14,466.15Z" transform="translate(1.02 -0.13)"/><path class="cls-12" d="M524.31,486.77c0,2.84-20.35,5.13-45.46,5.13s-45.46-2.29-45.46-5.13,20.35-5.13,45.46-5.13S524.31,483.94,524.31,486.77Z" transform="translate(1.02 -0.13)"/><path class="cls-12" d="M824.94,486.77c0,2.84-20.36,5.13-45.46,5.13S734,489.61,734,486.77s20.35-5.13,45.46-5.13S824.94,483.94,824.94,486.77Z" transform="translate(1.02 -0.13)"/><path class="cls-13" d="M642.77,352.93c-3.43,9.52-14.41,31.67-14.41,31.67l38.75,18.34c-3.54-4.91-14.7-24.48-14.7-24.48l6.1-18.36S642.68,353.08,642.77,352.93Z" transform="translate(1.02 -0.13)"/><path class="cls-14" d="M652.5,378.54l15.35,24.23a1.36,1.36,0,0,1-1.57,2c-9.89-3.53-36.47-13.23-43.45-15.81a1.34,1.34,0,0,1-.59-2.08c3.07-4,10.6-15.67,13.14-18.9.4-.52,2.75,12.38,6.06,12.29C644.29,380.22,652.28,378.49,652.5,378.54Z" transform="translate(1.02 -0.13)"/><path class="cls-15" d="M653.46,379.87l-6,2.78a2.85,2.85,0,0,0-1.38,3.78h0a2.84,2.84,0,0,0,3.77,1.38l6.73-3.12" transform="translate(1.02 -0.13)"/><path class="cls-16" d="M642.52,352.8,635.38,368s2.08,9,3,9.39S649.25,356,649.25,356Z" transform="translate(1.02 -0.13)"/><path class="cls-17" d="M553.57,255.34c-8.2-20.8,11.66-40.34,16.39-48.54,4.21,0,12.46,9.65,19.92,10.43,33.07,3.49,74.26,27.85,85.37,35.59,17.65,12.29-9,98.82-14.82,115.85-1.76,1.38-26.32-10.24-25.06-9.61,7.14-37.74,22.37-55.65,4.89-70C623.93,275.72,561.11,274.48,553.57,255.34Z" transform="translate(1.02 -0.13)"/><path class="cls-18" d="M736.09,230l-5-10.63a10,10,0,0,0-9.27-5.73l-25.73.66" transform="translate(1.02 -0.13)"/><line class="cls-19" x1="722.88" y1="213.54" x2="697.15" y2="214.2"/><line class="cls-20" x1="836.81" y1="335.59" x2="817.82" y2="406.95"/><line class="cls-20" x1="882.03" y1="369.73" x2="818.15" y2="406.76"/><line class="cls-20" x1="886.13" y1="426.62" x2="814.77" y2="407.64"/><line class="cls-20" x1="851.99" y1="471.84" x2="814.96" y2="407.96"/><line class="cls-20" x1="778.7" y1="344.45" x2="815.73" y2="408.33"/><line class="cls-20" x1="744.01" y1="389.25" x2="815.37" y2="408.24"/><line class="cls-20" x1="754.97" y1="445.23" x2="818.85" y2="408.2"/><line class="cls-20" x1="799.77" y1="479.91" x2="818.76" y2="408.56"/><circle class="cls-21" cx="816.27" cy="406.56" r="76.38" transform="translate(-47.39 696.13) rotate(-45)"/><circle class="cls-12" cx="817.28" cy="406.43" r="17.19"/><circle class="cls-22" cx="817.28" cy="406.43" r="11"/><circle class="cls-12" cx="817.28" cy="406.43" r="7.69"/><circle class="cls-23" cx="816.27" cy="406.56" r="82.54" transform="translate(-47.39 696.13) rotate(-45)"/><path class="cls-24" d="M816.27,313.21a93.36,93.36,0,0,0-93.36,93.35" transform="translate(1.02 -0.13)"/><line class="cls-20" x1="543.11" y1="335.59" x2="524.13" y2="406.95"/><line class="cls-20" x1="588.33" y1="369.73" x2="524.45" y2="406.76"/><line class="cls-20" x1="592.43" y1="426.62" x2="521.08" y2="407.64"/><line class="cls-20" x1="558.29" y1="471.84" x2="521.26" y2="407.96"/><line class="cls-20" x1="485" y1="344.45" x2="522.03" y2="408.33"/><line class="cls-20" x1="450.32" y1="389.25" x2="521.67" y2="408.24"/><line class="cls-20" x1="461.28" y1="445.23" x2="525.16" y2="408.2"/><line class="cls-20" x1="506.08" y1="479.91" x2="525.06" y2="408.56"/><circle class="cls-21" cx="522.57" cy="406.56" r="76.38" transform="translate(-76.33 126.3) rotate(-12.85)"/><circle class="cls-12" cx="523.59" cy="406.43" r="17.19"/><circle class="cls-22" cx="523.59" cy="406.43" r="11"/><circle class="cls-12" cx="523.59" cy="406.43" r="7.24"/><circle class="cls-23" cx="522.57" cy="406.56" r="82.54" transform="translate(-133.41 488.46) rotate(-45)"/><path class="cls-25" d="M615.82,406.56a93.25,93.25,0,0,0-93.25-93.25" transform="translate(1.02 -0.13)"/><line class="cls-23" x1="700.46" y1="338.9" x2="709.02" y2="348.55"/><path class="cls-23" d="M641.55,374.41S712.29,362.62,743.38,249" transform="translate(1.02 -0.13)"/><path class="cls-22" d="M732.34,230.05l80.52,178.06a3.74,3.74,0,0,0,6.82-3.09L739.16,227Z" transform="translate(1.02 -0.13)"/><line class="cls-24" x1="657.22" y1="410.24" x2="595.28" y2="276.97"/><polyline class="cls-26" points="615.77 325.56 523.59 406.43 650.55 406.43 767.74 297.45"/><circle class="cls-12" cx="655.31" cy="405.6" r="9.83"/><circle class="cls-27" cx="655.31" cy="405.6" r="20.7"/><path class="cls-28" d="M594.49,276.15H570.92a6.44,6.44,0,0,1-6.44-6.44V265.2" transform="translate(1.02 -0.13)"/><path class="cls-29" d="M601.65,273.29H556.74a13.81,13.81,0,0,1-13.82-13.81h58.73a6.91,6.91,0,0,1,6.91,6.91h0A6.9,6.9,0,0,1,601.65,273.29Z" transform="translate(1.02 -0.13)"/><line class="cls-30" x1="655.31" y1="405.6" x2="681.78" y2="450.97"/><rect class="cls-12" x="660.98" y="449.55" width="46.34" height="7.08" rx="3.54"/><path class="cls-31" d="M600.12,73.29c-6.08-4.73-15.24-2.42-21.29,2.34S568.59,87.12,563,92.39a43.61,43.61,0,0,1-18.92,10.41c-19.3,5-39.18-3.62-58.94-6.31-8.27-1.13-17.62-.88-23.74,4.81-4.11,3.81-6,9.62-5.84,15.23a31.78,31.78,0,0,0,5.35,15.74c2.81,4.42,6.6,8.49,11.56,10.18,7.51,2.57,16.44-.71,23.39,3.13,4.45,2.46,7,7.37,8.33,12.29s1.58,10.06,2.81,15c3.54,14.12,16.3,26.16,30.85,26.41,0,0,32.94,12,30.14.58-8.57-34.91,42.78-60.21,17-99.3C575.39,86,600.12,73.29,600.12,73.29Z" transform="translate(1.02 -0.13)"/><path class="cls-31" d="M601.2,71.44c-19-13-33.07,16.11-45.94,24.22-21.87,13.78-47.09,1.67-70.15-1.31-8.15-1-17.42-.92-24.14,4.49-7.34,5.92-8.93,16.17-6.4,24.86,2.34,8,7.91,16.85,15.85,20.23,10.54,4.5,24.22-2.6,30.21,10.43,2.49,5.41,2.63,11.47,3.87,17.21a38.92,38.92,0,0,0,5.08,12.72,37.41,37.41,0,0,0,18.17,15.19c4.67,1.74,9.67,2,14.44,3.5a88.14,88.14,0,0,0,15.7,3.66c3.56.42,9,1,11.42-2.46,1.08-1.53,1-3.13.71-4.89a41.61,41.61,0,0,1-.73-11c1.44-14.09,10.64-26.17,17-38.36,7.22-13.77,11.11-28.55,4.44-43.37-1.84-4.11-5.76-8.13-5.84-12.8-.07-3.9,2.33-7.38,4.88-10.13a42.42,42.42,0,0,1,11.41-8.53c2.44-1.27.28-4.95-2.15-3.69-7.2,3.75-15.45,10-17.8,18.15-2,6.69,1.79,11.17,4.7,16.81a36.14,36.14,0,0,1,4,20.48c-2.73,25.18-28.69,43.68-24.66,70.34.32,2.12,1.55,3.88-.41,5.06-1.74,1.05-5.41.3-7.27.05A89.49,89.49,0,0,1,543,198.76c-4-1.27-8.1-1.52-12.13-2.73-8.69-2.63-15.8-9.5-19.65-17.61-4.32-9.1-2.7-20.06-8.19-28.69-4.94-7.75-12.7-8.28-21.1-8.31-5.86,0-10.77-.85-15.12-5.1a32.09,32.09,0,0,1-8.54-15.38c-2.76-12.26,4.81-22,17.13-22.78,11.81-.78,23.77,3.32,35.21,5.7,10.88,2.26,22.18,3.8,33.14,1.2,10.45-2.47,18.88-8.56,25.82-16.59s17.83-21.32,29.49-13.34C601.32,76.68,603.46,73,601.2,71.44Z" transform="translate(1.02 -0.13)"/><path class="cls-31" d="M589,105.45s-22.22-21.28-9.46-33.1,37.52-4.81,40.2,16.31Z" transform="translate(1.02 -0.13)"/><path class="cls-32" d="M582.64,156.56c18,17.95,90.12,32.43,105.22,8,9.06-14.66,14.89-37.82,18.57-48.76,5.34-15.87,7.62-16.81,9.19-31.46-1.93,4.71-3.31,8.41-4.83,12.79.49-6.09,1.53-12.41,2.56-18.22.11-.62-1,.68-1.26,1.25a110.35,110.35,0,0,0-5,14.25,142.46,142.46,0,0,1,1.72-18.5c.07-.55-.48-.66-.68-.15a138.74,138.74,0,0,0-5.88,17.68c-.35-.66,2.29-17.41-.38-15s-3.64,15.74-5,20.29c-.45-.09-2.15-12.75-4.22-9.86-1.35,1.87.63,10.44.79,14.76.1,2.78.76,5.58-.87,10-3,8-13.24,24.45-18.48,29.62-17.76,17.51-64.89-5.4-80.62-16.48-5-.34-16.63-5.89-18.87,5.3S564.62,138.61,582.64,156.56Z" transform="translate(1.02 -0.13)"/><path class="cls-22" d="M640.81,142.8c-16.35,3.09-27.15-7.55-48.75-16,0,0-11.21-5-19,6.62s8.66,22.24,8.66,22.24c16,10.91,29.23,27,46.58,23Z" transform="translate(1.02 -0.13)"/><path class="cls-33" d="M640.1,146.11l-4.89,31.68s-1.12-1.84-5.36-1.57Z" transform="translate(1.02 -0.13)"/><g class="cls-34"><path class="cls-35" d="M581.6,127.65a106.39,106.39,0,0,0,63.59,24.9c2.75.13,2.74-4.14,0-4.27a101.65,101.65,0,0,1-60.58-23.64c-2.09-1.76-5.12,1.25-3,3Z" transform="translate(1.02 -0.13)"/><path class="cls-35" d="M571.73,135.49a156.76,156.76,0,0,0,64.64,27.74c2.68.48,3.83-3.63,1.13-4.12a153.81,153.81,0,0,1-63.62-27.31c-2.22-1.62-4.35,2.08-2.15,3.69Z" transform="translate(1.02 -0.13)"/><path class="cls-35" d="M568.58,142.34a123.81,123.81,0,0,0,74,33.7c2.74.25,2.72-4,0-4.27a119.19,119.19,0,0,1-71-32.44c-2-1.9-5,1.11-3,3Z" transform="translate(1.02 -0.13)"/></g><path class="cls-13" d="M589.35,90.22a.61.61,0,0,1-.87.32c-1.35-.75-4.75-2.13-7,1.44s2.76,6.62,4.42,8.28c2.43,2.43,6.75,11,6.38,19.43-.27,6.12-5.84,18.87-5.84,18.87s17.58,9.24,24.4-.21c0,0-6.39-19.89-4.84-24.87,0-.11,9.48,1.65,13.34-14.73,3.63-15.43-7.41-20.11-10-21C607.23,77.08,596.89,72.67,589.35,90.22Z" transform="translate(1.02 -0.13)"/><path class="cls-16" d="M608.59,130.19c-.3.13-10.47,10.85-10.47,10.85s7.92,3.69,12.76-2.69Z" transform="translate(1.02 -0.13)"/><path class="cls-29" d="M617.69,102.89l-8.4-1.29s1.48,4.36,4,4.31S617.69,102.89,617.69,102.89Z" transform="translate(1.02 -0.13)"/><path class="cls-16" d="M588,92.75c-1.27-.6-3.21-.38-3.8.89s.37,3.12,1.64,3.72" transform="translate(1.02 -0.13)"/><path class="cls-16" d="M615.14,97l-1.1,4.17,2.23.13a.54.54,0,0,0,.53-.77Z" transform="translate(1.02 -0.13)"/><path class="cls-31" d="M613.78,76.92s-15.08,16.56-25.3,13.62,3.57-23.68,15.77-19.82C611.89,73.14,613.78,76.92,613.78,76.92Z" transform="translate(1.02 -0.13)"/><path class="cls-16" d="M606.11,113.49a17.64,17.64,0,0,1-9.7-4.55c-2.47-2.32,2.67,11.45,10.08,12.38C606.49,121.32,606.21,117.18,606.11,113.49Z" transform="translate(1.02 -0.13)"/><path class="cls-31" d="M609.57,90.22c-.84.43.67-1.8,1.76-1.94a1.86,1.86,0,0,1,2.17,1.46A5.83,5.83,0,0,0,609.57,90.22Z" transform="translate(1.02 -0.13)"/><path class="cls-31" d="M619.86,89.65a2,2,0,0,0-2.52.91,5.73,5.73,0,0,1,2.71.7" transform="translate(1.02 -0.13)"/><path class="cls-31" d="M611.58,95.88c-.07.76.17,1.4.54,1.44s.72-.56.79-1.31-.17-1.4-.54-1.44S611.65,95.13,611.58,95.88Z" transform="translate(1.02 -0.13)"/><path class="cls-31" d="M616.8,96.38c-.07.72.16,1.33.51,1.37s.69-.53.76-1.26-.17-1.33-.52-1.36S616.86,95.65,616.8,96.38Z" transform="translate(1.02 -0.13)"/><path class="cls-36" d="M599.31,100.88a4.13,4.13,0,1,0,3.9-4.36A4.13,4.13,0,0,0,599.31,100.88Z" transform="translate(1.02 -0.13)"/><path class="cls-37" d="M622.42,95.52c-.15,3.49-1.69,6.26-3.45,6.18s-3.05-3-2.9-6.45,1.69-6.26,3.44-6.18S622.57,92,622.42,95.52Z" transform="translate(1.02 -0.13)"/><ellipse class="cls-37" cx="610.6" cy="94.53" rx="7.17" ry="4.68" transform="translate(491.06 700.4) rotate(-87.55)"/><line class="cls-38" x1="588.39" y1="89.71" x2="606.95" y2="92.78"/><g class="cls-39"><path class="cls-29" d="M610.14,94.8l1.8-2.18a1.42,1.42,0,0,0-.57-2.23c-1.35-.5-3.14-.37-3.73,3.3A1.42,1.42,0,0,0,610.14,94.8Z" transform="translate(1.02 -0.13)"/><path class="cls-29" d="M619.08,94.94l1-1.75a1.39,1.39,0,0,0-.31-1.78c-.74-.4-1.72-.3-2,2.65C617.58,95.19,618.58,95.83,619.08,94.94Z" transform="translate(1.02 -0.13)"/></g><path class="cls-32" d="M609.12,131.89c1,.87,15.25,27.38,13.33,38.81-1.28,7.67-11.84,24.61-16.71,39.56,0,0-23,1.07-37.2-5-1.16-12-9.92-54,6-72.6,0,0,9.76-1.33,13.77-1.17C588.28,131.45,606.07,145.84,609.12,131.89Z" transform="translate(1.02 -0.13)"/><path class="cls-22" d="M609.12,131.89c1,.87,15.25,27.38,13.33,38.81-1.28,7.67,3.61,21.93-1.26,36.88,0,0-25.07-.94-61.52-8.42-1.16-12-1-48,14.84-66.54,0,0,9.76-1.33,13.77-1.17C588.28,131.45,606.07,145.84,609.12,131.89Z" transform="translate(1.02 -0.13)"/><g class="cls-40"><path class="cls-35" d="M567.47,201.12c3-25,6.43-51,21.14-72.16,1.56-2.26-2.13-4.4-3.69-2.15-15.13,21.82-18.63,48.58-21.72,74.31-.32,2.72,3.95,2.7,4.27,0Z" transform="translate(1.02 -0.13)"/><path class="cls-35" d="M579.43,203.32A409.36,409.36,0,0,1,593.2,131c.75-2.64-3.36-3.77-4.12-1.13a416.39,416.39,0,0,0-13.92,73.42c-.26,2.73,4,2.71,4.27,0Z" transform="translate(1.02 -0.13)"/><path class="cls-35" d="M591.45,204.53a577.41,577.41,0,0,0,8.26-72.76c.13-2.75-4.13-2.74-4.27,0a568.52,568.52,0,0,1-8.1,71.62c-.48,2.69,3.63,3.84,4.11,1.14Z" transform="translate(1.02 -0.13)"/><path class="cls-35" d="M607.19,208.39c4-25.55,2.17-51.3.08-76.93-.22-2.72-4.49-2.74-4.27,0,2.06,25.21,4,50.66.08,75.79-.42,2.69,3.69,3.85,4.11,1.14Z" transform="translate(1.02 -0.13)"/><path class="cls-35" d="M621.3,210a134.44,134.44,0,0,0-7.71-77.74c-1.05-2.49-5.17-1.4-4.12,1.14a130.39,130.39,0,0,1,7.72,75.47c-.53,2.68,3.58,3.83,4.11,1.13Z" transform="translate(1.02 -0.13)"/></g><path class="cls-32" d="M695,217l-20.12,1.48S579.6,207.18,571,150.17c0,0-3.47-19.32,11.31-21.39s18.87,9.6,18.87,9.6c4.85,36.88,39.62,55.51,64.34,60.49l29.08,6.34c4,.89,4.24-.37,8.22-1.08,6.18-1.09,21.06,5.85,22.4,6.53,2.07,1-19.62.47-19.62.47S690,210,695,217Z" transform="translate(1.02 -0.13)"/><path class="cls-22" d="M630.66,183.13c-14.18-10-20.61-23.11-29.49-44.75,0,0-4.09-11.66-18.87-9.6S571,150.17,571,150.17c2.9,19.18,6.31,30.26,21.89,40.41Z" transform="translate(1.02 -0.13)"/><g class="cls-41"><path class="cls-35" d="M574.15,131.92a75.18,75.18,0,0,0,23.06,59.34c2,1.89,5-1.12,3-3a71,71,0,0,1-21.81-56.32c.18-2.74-4.08-2.73-4.27,0Z" transform="translate(1.02 -0.13)"/><path class="cls-35" d="M581.44,129.08a99.83,99.83,0,0,0,27.35,60.53c1.9,2,4.91-1,3-3a95.12,95.12,0,0,1-26.11-57.51c-.23-2.71-4.5-2.74-4.26,0Z" transform="translate(1.02 -0.13)"/><path class="cls-35" d="M590.62,130.15c5.17,22,13.25,44.73,33.4,57.52,2.33,1.48,4.47-2.21,2.16-3.68-19.17-12.17-26.55-34.08-31.45-55-.63-2.67-4.74-1.54-4.11,1.13Z" transform="translate(1.02 -0.13)"/></g><path class="cls-16" d="M624.6,185.27l-13,14.7s-11.45-6.25-14.7-9.2Z" transform="translate(1.02 -0.13)"/><path class="cls-13" d="M670.9,409.49c.23,10.11-2,34.73-2,34.73l42.75,3.15c-5.07-3.3-22.53-17.53-22.53-17.53l-6-19.4S670.86,409.66,670.9,409.49Z" transform="translate(1.02 -0.13)"/><path class="cls-14" d="M689.2,429.87l23,17.08a1.35,1.35,0,0,1-.73,2.45c-10.5.27-38.79.8-46.23.92a1.35,1.35,0,0,1-1.3-1.74c1.42-4.84,4.24-18.43,5.44-22.36.19-.63,7,10.56,10.09,9.28C682.15,434.4,689,429.91,689.2,429.87Z" transform="translate(1.02 -0.13)"/><path class="cls-15" d="M690.58,430.77,686,435.52a2.84,2.84,0,0,0,.07,4h0a2.83,2.83,0,0,0,4-.07l5.15-5.33" transform="translate(1.02 -0.13)"/><path class="cls-16" d="M667.05,410.12l2.38,16.1s5.19,7.64,6.16,7.69-1.6-23.16-1.6-23.16Z" transform="translate(1.02 -0.13)"/><path class="cls-42" d="M568.07,204.9s-18.92,29.64-16.39,40.35c4.45,18.95,32.15,27.12,34,30.27s51.07,64.31,82,145l26.48-1.26S672.1,309.56,662.64,294.43c-32.33-51.72-55.48-83.85-55.48-83.85Z" transform="translate(1.02 -0.13)"/><path class="cls-43" d="M568.07,204.9s-18.92,29.64-16.39,40.35c4.45,18.95,32.15,27.12,34,30.27s51.07,64.31,82,145l26.48-1.26s-25.79-25.85-38.09-49.5-49.18-100.24-69.51-110.64S568.07,204.9,568.07,204.9Z" transform="translate(1.02 -0.13)"/><path class="cls-31" d="M585.88,104.09c5.27,11.85,14.12,21.65,21.64,32.2s14,22.78,13.38,35.72q-11.61-17.76-23.75-35.17c-2.41-3.47-5.12-7.14-9.13-8.47-3.38-1.12-7.17-.33-10.32,1.34a39.78,39.78,0,0,0-8.39,6.6l-5.16,4.87c2.25-14.09,16.44-23.21,21.46-36.56" transform="translate(1.02 -0.13)"/><path class="cls-31" d="M584,105.17c10.4,22.55,35.42,40,34.73,66.84l4-1.07q-7.4-11.31-15-22.47c-4.19-6.15-8.08-13.54-13.56-18.67-11.29-10.58-23.32,2.11-31.55,9.87l3.57,2.07c2.71-14.33,16.13-23.32,21.46-36.55,1-2.55-3.1-3.66-4.11-1.14-5.37,13.32-18.7,22-21.47,36.56a2.15,2.15,0,0,0,3.57,2.07c4.32-4.07,8.7-9.3,14.28-11.62,7.93-3.29,12.4,2.59,16.47,8.44q11.58,16.62,22.65,33.59a2.15,2.15,0,0,0,4-1.08c.71-27.95-24.51-45.56-35.32-69-1.15-2.49-4.82-.33-3.68,2.15Z" transform="translate(1.02 -0.13)"/></g></svg>