<?xml version="1.0" encoding="utf-8"?>
<!-- Generator: Adobe Illustrator 26.0.1, SVG Export Plug-In . SVG Version: 6.00 Build 0)  -->
<svg version="1.1" xmlns="http://www.w3.org/2000/svg" xmlns:xlink="http://www.w3.org/1999/xlink" x="0px" y="0px"
	 viewBox="0 0 5669.3 5669.3" style="enable-background:new 0 0 5669.3 5669.3;" xml:space="preserve">
<style type="text/css">
	.st0{opacity:0.64;fill:#00DF7D;}
	.st1{opacity:0.5;fill:#EA5B0C;}
	.st2{opacity:0.37;fill:#FF4AFC;}
	.st3{opacity:0.56;fill:#FFDB55;}
	.st4{fill:none;stroke:#1D1D1B;stroke-width:55;stroke-miterlimit:10;}
	.st5{fill:none;stroke:#1D1D1B;stroke-width:55;stroke-linecap:round;stroke-miterlimit:10;}
	.st6{fill:none;stroke:#1D1D1B;stroke-width:58;stroke-linecap:round;stroke-miterlimit:10;}
	.st7{fill:none;stroke:#1D1D1B;stroke-width:2;stroke-miterlimit:10;}
	.st8{fill:none;stroke:#1D1D1B;stroke-width:37;stroke-miterlimit:10;}
</style>
<g id="Layer_1">
</g>
<g id="Layer_2">
	<circle class="st0" cx="3548.2" cy="2752.4" r="701.3"/>
	<circle class="st1" cx="2128.1" cy="2752.9" r="701.3"/>
	<circle class="st2" cx="2884.9" cy="2140.2" r="701.3"/>
	<circle class="st3" cx="2866.9" cy="3527.8" r="701.3"/>
</g>
<g id="Layer_3">
	<circle class="st4" cx="2272.7" cy="3002.4" r="391.9"/>
	<circle class="st4" cx="3432.7" cy="2978.6" r="391.9"/>
	<line class="st5" x1="2272.7" y1="3002.4" x2="3493.8" y2="2985.5"/>
	<line class="st5" x1="2569.6" y1="2455.6" x2="2893.9" y2="3329.6"/>
	<path class="st5" d="M2470.5,2518.7c365.5-24.2,567.6-306.3,567.6-306.3"/>
	<path class="st5" d="M2659.7,2491.6c0,0,603.7,216.2,216.2,396.4"/>
	<line class="st6" x1="1860.3" y1="2119.2" x2="1887.4" y2="3398.6"/>
	<line class="st6" x1="3016.3" y1="2570.2" x2="3043.3" y2="3849.6"/>
	<path class="st5" d="M3059.2,2230.2c0,0,211.6,382.9,463.5,255"/>
	<circle cx="3249.2" cy="2103.1" r="128.1"/>
</g>
<g id="Layer_4">
	<line class="st7" x1="2137.1" y1="2725.9" x2="2245.2" y2="2951.1"/>
	<line class="st7" x1="1974.9" y1="3077.3" x2="2218.2" y2="3023.2"/>
	<line class="st7" x1="2434.4" y1="2734.9" x2="2290.3" y2="2933.1"/>
	<line class="st7" x1="2155.1" y1="3302.5" x2="2254.2" y2="3068.3"/>
	<line class="st7" x1="2452.5" y1="3284.5" x2="2299.3" y2="3086.3"/>
	<line class="st7" x1="3551.7" y1="2707.9" x2="3515.6" y2="2924.1"/>
	<line class="st7" x1="3281.4" y1="2707.9" x2="3443.6" y2="2924.1"/>
	<line class="st7" x1="3254.3" y1="3257.5" x2="3479.6" y2="3041.2"/>
	<line class="st7" x1="3650.8" y1="3230.4" x2="3551.7" y2="3041.2"/>
	<path d="M3184.6,2032.9c-12.1,2.4-13.3-13.7-12.6-28.4l-0.3,5.4c-25.9,14.9-52.3,43.3-75.6,72.9c-23.3,29.6-44.8,61.4-68.6,90.4
		c-23.8,28.9-51.2,55.8-76.4,66.7c-33.8,14.6-56-1.9-71.6-23c-0.2-0.3-0.4-0.5-0.6-0.8c27.1-28.8,52.1-61.7,73.6-96.7
		c-28.3,30.7-58.4,55.9-88,73.4c-8.7-16.4-15.6-34.8-20.7-55.1c-3.2-13.1-5.2-29.5,4.3-49c9.5-19.3,27.3-34.6,42-41.2
		c14.7-6.6,27.5-6.8,41.1-9.5c13.5-2.7,29.2-8.9,43.9-23.9c33.8-34.7,42.2-93.9,76.4-127.4c16.8-16.4,33.9-20.3,48.8-22.2
		c22.7-2.8,44.5-3.4,65.2-1.7c18.2,1.5,35.9,4.9,46.5,18.4c10.6,13.5,12.9,38.8,0.5,68.2c4.5,10.9,9.1,22.8,5.1,40.1
		C3213.8,2006.7,3197.5,2030.4,3184.6,2032.9z"/>
	<line class="st7" x1="3776.9" y1="2987.2" x2="3551.7" y2="2978.2"/>
</g>
<g id="Layer_5">
	<path class="st8" d="M2425.4,4077.4"/>
</g>
</svg>
