<?xml version="1.0" encoding="utf-8"?>
<!-- Generator: Adobe Illustrator 26.0.1, SVG Export Plug-In . SVG Version: 6.00 Build 0)  -->
<svg version="1.1" id="Layer_1" xmlns="http://www.w3.org/2000/svg" xmlns:xlink="http://www.w3.org/1999/xlink" x="0px" y="0px"
	 viewBox="0 0 800.3 695.4" style="enable-background:new 0 0 800.3 695.4;" xml:space="preserve">
<style type="text/css">
	.st0{fill:#3F3D56;}
	.st1{fill:#6C63FF;}
	.st2{fill:#FFFFFF;}
	.st3{fill:#00B456;}
	.st4{fill:#F2F2F2;}
	.st5{fill:#F9269C;}
	.st6{fill:#2F2E41;}
	.st7{fill:#CCCCCC;}
</style>
<path class="st0" d="M767,187.9c-0.4,0.6-0.9,1.2-1.3,1.9l-1-2l-0.2-0.3l-1-2l-25.5-51.3l0,0l-43.2-86.9v0l-1-2v0l-21.4-43l-1-2
	c0.8,0,1.5,0.1,2.3,0.1l1,2.1l21.3,42.9l0,0l1,2v0l42.1,84.7v0l1,2v0l25.5,51.3l0.3,0.7L767,187.9z"/>
<path class="st0" d="M763.4,47.1H572.9c0.5-0.7,1-1.3,1.6-2h187.4C762.4,45.8,762.9,46.5,763.4,47.1z"/>
<path class="st0" d="M787.5,131.9c-0.1,0.7-0.1,1.3-0.2,2h-48.8v-2H787.5z"/>
<path class="st0" d="M580.1,38.5v162.9c-0.7-0.7-1.4-1.5-2-2.2V40.7C578.8,40,579.4,39.3,580.1,38.5z"/>
<rect x="579.1" y="185.4" class="st0" width="186.1" height="2"/>
<path class="st1" d="M695.6,93.3c0,17-25.1,65.1-34.5,82.6c-1,1.9-3.5,2.7-5.4,1.6c-0.7-0.4-1.3-0.9-1.6-1.6
	c-9.4-17.5-34.5-65.5-34.5-82.6c0-21,17-38,38-38S695.6,72.3,695.6,93.3L695.6,93.3z"/>
<circle class="st2" cx="657.6" cy="93.3" r="17"/>
<circle class="st1" cx="657.6" cy="187.3" r="7"/>
<path class="st3" d="M221.3,684.2c0.3,0.1,0.6,0.3,0.9,0.4c-0.3-0.1-0.6-0.2-0.8-0.3c-4-1.3-7.9-2.7-11.8-4.2
	c-6.3-2.3-12.5-4.9-18.6-7.7c-4.4-2-8.7-4-13-6.2c-37.6-18.9-71.1-44.9-98.8-76.5c-2.5-2.9-5-5.8-7.4-8.8c-2.1-2.5-4.1-5.1-6-7.7
	C54.5,558.5,44.6,542.6,36,526C11.7,478.7-0.6,426.3,0,373.1c0.3-18,2.2-36.4,9.7-52.7c6.2-13.5,16.9-25.5,30.3-31.4
	c1.1-0.5,2.3-1,3.4-1.4c1.8-0.6,3.6-1.2,5.4-1.6c19.2-4.2,39.4,4.4,53.7,17.9c14.3,13.5,23.7,31.2,32.3,48.9
	c27.5,56.2,51.4,114.5,70.1,174.4c0.2,0.7,0.4,1.3,0.6,2c-7.1,5.1-13.3,11.2-18.7,18.1l-9.8,15.8c-2,4.1-3.7,8.4-5,12.8
	c-0.6,1.8-1.1,3.7-1.5,5.6C160.9,623.5,182.1,666.5,221.3,684.2L221.3,684.2z"/>
<path class="st4" d="M241.3,690.2l-0.1,0.3l0,0.1c0,0,0,0,0-0.1c0-0.1,0-0.3,0-0.4C241.2,690.1,241.2,690.2,241.3,690.2z"/>
<path class="st2" d="M171,573.4c0.4,0.9,0.8,1.7,1.3,2.6c-0.6,1.8-1.1,3.7-1.5,5.6c-0.4-0.9-0.9-1.9-1.4-2.8
	c-7.3-15-14.4-30.1-21.4-45.3c-11.9-26-23.4-52.2-35-78.4c-12.1-27.6-24.3-55.2-36.4-82.7c-12.1-27.6-24.3-55.2-36.4-82.7
	c-0.1-0.2-0.1-0.4-0.2-0.6c-0.2-1.9,2.5-3.3,3.4-1.4c0,0,0,0,0,0c1.5,3.4,3,6.9,4.5,10.3c12.1,27.6,24.3,55.1,36.4,82.7
	c12.1,27.5,24.2,54.9,36.3,82.4c11.5,26.1,23,52.2,35,78.1C160.7,552,165.8,562.7,171,573.4z"/>
<path class="st2" d="M232.6,693c-0.7-1.1-1.3-2.1-2-3.1c-0.6-0.9-1.1-1.8-1.7-2.7c-0.1-0.2-0.3-0.4-0.4-0.7c1.8,0.6,3.7,1.1,5.5,1.6
	c0.1,0.2,0.3,0.5,0.5,0.8c0.4,0.7,0.9,1.4,1.4,2.1c0.1,0.1,0.1,0.2,0.2,0.3C236.9,693.4,233.9,695,232.6,693z"/>
<path class="st3" d="M223.6,687.3c0.8,1.2,1.6,2.3,2.4,3.5c-1.4,0.3-2.8,0.6-4.2,0.9c-1.1,0.2-2.2,0.4-3.3,0.6
	c-82.7,15.4-165.6-25.8-203.3-101c-4.7-9.4-8.7-19.5-9.2-30c-0.4-8.7,1.9-17.8,7.3-24.5c0.4-0.6,0.9-1.1,1.4-1.6
	c0.8-0.8,1.6-1.6,2.4-2.3c5.4-4.3,12-6.7,18.9-6.8c4.7-0.2,9.3,0.3,13.8,1.6c11.1,3.1,20.7,9.8,30,16.7
	c31.5,23.1,61.1,48.8,88.5,76.7c0.9,0.9,1.8,1.9,2.7,2.8c6.7,26.7,25.2,48.9,50.3,60.3c0,0,0.1,0.1,0.1,0.1
	C222.2,685.3,222.9,686.3,223.6,687.3z"/>
<path class="st4" d="M226.1,691c0-0.1-0.1-0.2-0.1-0.2c0,0,0,0,0.1,0L226.1,691z"/>
<path class="st2" d="M13.6,537.1l41.2,33.1l41.2,33.1c13.1,10.5,26.1,21,39.3,31.3c13.1,10.2,26.4,20.2,39.9,29.8
	c13.6,9.6,27.4,18.7,41.7,27.1c1.8,1,3.6,2.1,5.4,3.1c1.2,0.7,2.4-1.2,1.2-1.9c-14.4-8.3-28.3-17.2-42-26.7
	c-13.6-9.5-27-19.4-40.1-29.5c-13.2-10.2-26.2-20.6-39.2-31.1c-13.7-11-27.4-22-41.1-33l-41.2-33.1l-5.1-4.1
	C13.7,534.3,12.5,536.2,13.6,537.1L13.6,537.1z"/>
<path class="st3" d="M578.9,684.2c-0.3,0.1-0.6,0.3-0.9,0.4c0.3-0.1,0.6-0.2,0.8-0.3c4-1.3,7.9-2.7,11.8-4.2
	c6.3-2.3,12.5-4.9,18.6-7.7c4.4-2,8.7-4,13-6.2c37.6-18.9,71.1-44.9,98.8-76.5c2.5-2.9,5-5.8,7.4-8.8c2.1-2.5,4.1-5.1,6-7.7
	c11.3-14.9,21.3-30.7,29.8-47.3c24.3-47.3,36.7-99.8,36-152.9c-0.3-18-2.2-36.4-9.7-52.7c-6.2-13.5-16.9-25.5-30.3-31.4
	c-1.1-0.5-2.3-1-3.4-1.4c-1.8-0.6-3.6-1.2-5.4-1.6c-19.2-4.2-39.4,4.4-53.7,17.9c-14.3,13.5-23.7,31.2-32.3,48.9
	c-27.5,56.2-51.4,114.5-70.1,174.4c-0.2,0.7-0.4,1.3-0.6,2c7.1,5.1,13.3,11.2,18.7,18.1l9.8,15.8c2,4.1,3.7,8.4,5,12.8
	c0.6,1.8,1.1,3.7,1.5,5.6C639.3,623.5,618.1,666.5,578.9,684.2L578.9,684.2z"/>
<path class="st4" d="M559,690.2l0.1,0.3l0,0.1c0,0,0,0,0-0.1c0-0.1,0-0.3,0-0.4C559.1,690.1,559,690.2,559,690.2z"/>
<path class="st2" d="M629.3,573.4c-0.4,0.9-0.8,1.7-1.3,2.6c0.6,1.8,1.1,3.7,1.5,5.6c0.4-0.9,0.9-1.9,1.4-2.8
	c7.3-15,14.4-30.1,21.4-45.3c11.9-26,23.4-52.2,35-78.4c12.1-27.6,24.3-55.2,36.4-82.7c12.1-27.6,24.3-55.2,36.4-82.7
	c0.1-0.2,0.1-0.4,0.2-0.6c0.2-1.9-2.5-3.3-3.4-1.4c0,0,0,0,0,0c-1.5,3.4-3,6.9-4.5,10.3c-12.1,27.6-24.3,55.1-36.4,82.7
	c-12.1,27.5-24.2,54.9-36.3,82.4c-11.5,26.1-23,52.2-35,78.1C639.5,552,634.4,562.7,629.3,573.4z"/>
<path class="st2" d="M567.6,693c0.7-1.1,1.3-2.1,2-3.1c0.6-0.9,1.1-1.8,1.7-2.7c0.1-0.2,0.3-0.4,0.4-0.7c-1.8,0.6-3.7,1.1-5.5,1.6
	c-0.1,0.2-0.3,0.5-0.5,0.8c-0.4,0.7-0.9,1.4-1.4,2.1c-0.1,0.1-0.1,0.2-0.2,0.3C563.4,693.4,566.4,695,567.6,693z"/>
<path class="st3" d="M576.7,687.3c-0.8,1.2-1.6,2.3-2.4,3.5c1.4,0.3,2.8,0.6,4.2,0.9c1.1,0.2,2.2,0.4,3.3,0.6
	c82.7,15.4,165.6-25.8,203.3-101c4.7-9.4,8.7-19.5,9.2-30c0.4-8.7-1.9-17.8-7.3-24.5c-0.4-0.6-0.9-1.1-1.4-1.6
	c-0.8-0.8-1.6-1.6-2.4-2.3c-5.4-4.3-12-6.7-18.9-6.8c-4.7-0.2-9.3,0.3-13.8,1.6c-11.1,3.1-20.7,9.8-30,16.7
	c-31.5,23.1-61.1,48.8-88.5,76.7c-0.9,0.9-1.8,1.9-2.7,2.8c-6.7,26.7-25.2,48.9-50.3,60.3c0,0-0.1,0.1-0.1,0.1
	C578.1,685.3,577.4,686.3,576.7,687.3z"/>
<path class="st4" d="M574.1,691c0-0.1,0.1-0.2,0.1-0.2c0,0,0,0-0.1,0L574.1,691z"/>
<path class="st2" d="M786.7,537.1l-41.2,33.1l-41.2,33.1c-13.1,10.5-26.1,21-39.3,31.3c-13.1,10.2-26.4,20.2-39.9,29.8
	c-13.6,9.6-27.4,18.7-41.7,27.1c-1.8,1-3.6,2.1-5.4,3.1c-1.2,0.7-2.4-1.2-1.2-1.9c14.4-8.3,28.3-17.2,42-26.7
	c13.6-9.5,27-19.4,40.1-29.5c13.2-10.2,26.2-20.6,39.2-31.1c13.7-11,27.4-22,41.1-33l41.2-33.1l5.1-4.1
	C786.6,534.3,787.8,536.2,786.7,537.1L786.7,537.1z"/>
<path class="st5" d="M369,357.5c-1.6,0.6-3,1.7-3.7,3.3l-5.1,10.4l-1.4,2.8c-1.6,3.2-0.3,7.1,3,8.7l39.8,19.6l70.6,34.7
	c3.1,1.5,6.8,0.4,8.5-2.5c0.1-0.1,0.2-0.3,0.2-0.4l3.9-8l2.6-5.3c0.2-0.4,0.4-0.9,0.5-1.3c0.3-1.2,0.2-2.5-0.2-3.6
	c-0.6-1.6-1.7-3-3.3-3.7l-8.4-4.1l-62.2-30.6L374,357.8C372.4,357,370.6,356.9,369,357.5z"/>
<path class="st6" d="M356.7,361.4c-0.7,1-1.4,2.1-1.9,3.3c-4.1,9.3,0.1,20.3,9.5,24.4l31.1,13.7c2,0.9,4.3,0.7,6.2-0.5
	c0.7-0.5,1.4-1.1,1.9-1.8c0.2-0.3,0.4-0.7,0.6-1l9.7-22c0-0.1,0-0.1,0.1-0.2c1.3-3.3-0.2-7-3.4-8.4l-31.1-13.7
	C371.2,351.7,361.8,354.3,356.7,361.4z"/>
<path class="st5" d="M441.9,461.2h-14.8c-3.6,0-6.5,2.9-6.5,6.5v92c0,3.6,2.9,6.5,6.5,6.5h14.8c3.6,0,6.5-2.9,6.5-6.5c0,0,0,0,0,0
	v-92C448.4,464.2,445.5,461.2,441.9,461.2C441.9,461.2,441.9,461.2,441.9,461.2z"/>
<path class="st7" d="M432.8,494.6c-1.1,0-2.1-0.2-3.1-0.6l-82.2-32.2c-4.6-1.8-6.8-7-4.9-11.6l7-18c0.9-2.2,2.6-4,4.7-5
	c2.1-1,4.6-1,6.8-0.2l82.2,32.2c2.2,0.9,3.9,2.6,4.8,4.7c0.9,2.2,1,4.7,0.1,6.9l-7,18C439.9,492.3,436.5,494.6,432.8,494.6z"/>
<path class="st6" d="M442.4,572h-16c-3,0-5.5-2.5-5.5-5.5s2.5-5.5,5.5-5.5h16c3,0,5.5,2.5,5.5,5.5S445.4,572,442.4,572z"/>
<path class="st6" d="M316.5,472.3c-2,0-4-0.2-6-0.6c-8.9-2-12.2-5.9-12.7-7.9c-0.2-0.6-0.1-1.3,0.3-1.8c0.5-0.4,1.1-0.5,1.6-0.2
	c2.8,0.9,41.8-6.8,55.7-10c5.8-1.3,9.8-1.1,12,0.7c0.9,0.7,1.5,1.7,1.6,2.8v0.3l-27.3,10.1C340.9,466.1,328.2,472.3,316.5,472.3z"/>
<path class="st6" d="M530.3,592.8c-0.4,0-0.8-0.2-0.9-0.6l-51.5-117.2c-0.5-1.1-1.6-1.8-2.8-1.8l-140.9,2.9c-1,0-2,0.6-2.5,1.4
	L264,588.2c-0.3,0.5-0.9,0.6-1.4,0.3c-0.5-0.3-0.6-0.9-0.3-1.4l67.6-110.6c0.9-1.5,2.5-2.4,4.2-2.4l140.9-2.9c2,0,3.9,1.1,4.7,3
	l51.5,117.2c0.2,0.5,0,1.1-0.5,1.3C530.6,592.8,530.4,592.8,530.3,592.8L530.3,592.8z"/>
<path class="st6" d="M367.1,597c-0.4,0-0.8-0.3-1-0.7l-32.6-113.4c-0.2-0.5,0.2-1.1,0.7-1.2c0.5-0.2,1.1,0.2,1.2,0.7l32.6,113.4
	c0.2,0.5-0.2,1.1-0.7,1.2c0,0,0,0,0,0C367.3,597,367.2,597,367.1,597z"/>
<path class="st7" d="M374.1,465.5h-32c-12.4,0-22.5-10.1-22.5-22.5v-5c0-12.4,10.1-22.5,22.5-22.5h32c12.4,0,22.5,10.1,22.5,22.5v5
	C396.6,455.4,386.5,465.5,374.1,465.5z"/>
<circle class="st6" cx="538.4" cy="602.2" r="6"/>
<circle class="st6" cx="256.4" cy="602.2" r="6"/>
<path class="st6" d="M470.3,429c-1.9,0-3.5-1.6-3.5-3.5c0-1.5,0.9-2.8,2.3-3.3l30.2-10.7c1.8-0.6,3.8,0.3,4.5,2.1s-0.3,3.8-2.1,4.5
	l-30.2,10.7C471.1,429,470.7,429,470.3,429z"/>
<path class="st6" d="M391.3,596.2c-0.6,0-1-0.4-1-1c0-0.3,0.1-0.5,0.3-0.7l90.4-93.7c0.4-0.4,1-0.4,1.4,0c0.4,0.4,0.4,1,0,1.4
	c0,0,0,0,0,0L392,595.9C391.8,596.1,391.6,596.2,391.3,596.2z"/>
<path class="st6" d="M272.6,608.2c-0.6,0-1-0.4-1-1c0-0.6,0.4-1,1-1l83.5-0.2h0c0.6,0,1,0.4,1,1s-0.4,1-1,1L272.6,608.2L272.6,608.2
	z"/>
<path class="st6" d="M476.3,464.8c-0.5,0-0.9-0.3-1-0.8l-4.7-21.8c-0.1-0.5,0.2-1.1,0.8-1.2c0.1,0,0.1,0,0.2,0h15.9v-10.7
	c0-0.6,0.4-1,1-1s1,0.4,1,1v11.7c0,0.6-0.4,1-1,1h-15.6l4.4,20.6c0.1,0.5-0.2,1.1-0.8,1.2C476.5,464.8,476.4,464.8,476.3,464.8
	L476.3,464.8z"/>
<path class="st6" d="M374.1,634c-11,0-20-9-20-20s9-20,20-20s20,9,20,20C394.1,625,385.2,634,374.1,634z M374.1,596
	c-9.9,0-18,8.1-18,18s8.1,18,18,18s18-8.1,18-18l0,0C392.1,604.1,384.1,596,374.1,596z"/>
<path class="st6" d="M393.4,619h-16c-3,0-5.5-2.5-5.5-5.5c0-3,2.5-5.5,5.5-5.5h16c3,0,5.5,2.5,5.5,5.5S396.4,619,393.4,619z"/>
<path class="st0" d="M775.4,695H37.1c-0.7,0-1.2-0.5-1.2-1.2c0-0.7,0.5-1.2,1.2-1.2c0,0,0,0,0,0h738.3c0.7,0,1.2,0.5,1.2,1.2
	C776.6,694.5,776.1,695,775.4,695C775.4,695,775.4,695,775.4,695z"/>
<path class="st5" d="M383.1,330.3c-1.7,0.2-3.3,1-4.4,2.4l-7.4,9l-2,2.4c-2.3,2.8-1.9,6.9,0.9,9.1l34.3,28.1l60.8,49.9
	c2.6,2.2,6.5,1.9,8.8-0.5c0.1-0.1,0.2-0.2,0.3-0.4l5.6-6.9l3.7-4.5c0.3-0.4,0.6-0.8,0.8-1.2c0.6-1.1,0.8-2.4,0.7-3.6
	c-0.2-1.7-1-3.3-2.4-4.4l-7.3-5.9l-53.6-44l-34.2-28.1C386.5,330.7,384.8,330.2,383.1,330.3z"/>
<circle class="st5" cx="361.2" cy="239.9" r="53.5"/>
<path class="st6" d="M406.4,263.6l-0.1-2c3.7-0.1,7-0.3,9.5-2.1c1.4-1.1,2.3-2.7,2.4-4.5c0.1-1.1-0.3-2.2-1.2-2.9
	c-1.6-1.4-4.3-0.9-6.2-0.1l-1.7,0.8l3.2-23.2l2,0.3l-2.7,19.7c2.6-0.8,5-0.4,6.7,1c1.3,1.1,2,2.8,1.9,4.5c-0.1,2.4-1.3,4.6-3.2,6.1
	C413.8,263.4,409.7,263.5,406.4,263.6z"/>
<rect x="390.1" y="231.5" class="st6" width="10.8" height="2"/>
<path class="st6" d="M420.1,356l-23.9-24.2c-7.2-7.3-18.9-7.4-26.2-0.2c-7.3,7.2-7.4,18.9-0.2,26.2l23.9,24.2
	c2.2,2.2,5.6,2.6,8.2,0.9c0.4-0.2,0.7-0.5,1-0.8l17.1-16.8c0.6-0.6,1.1-1.3,1.4-2.1C422.5,360.7,422,357.9,420.1,356z"/>
<path class="st5" d="M392.9,505.2h-14.8c-3.6,0-6.5,2.9-6.5,6.5v92c0,3.6,2.9,6.5,6.5,6.5h14.8c3.6,0,6.5-2.9,6.5-6.5c0,0,0,0,0,0
	v-92C399.4,508.2,396.5,505.2,392.9,505.2C392.9,505.2,392.9,505.2,392.9,505.2z"/>
<path class="st7" d="M370.7,536.9c-4.7,0-8.8-2.9-9.5-7.1l-15-87c-0.4-2.4,0.3-4.8,1.9-6.7c1.7-2,4-3.3,6.6-3.7l21.6-3.7
	c5.5-0.9,10.7,2.2,11.5,7l15,87c0.4,2.4-0.3,4.8-1.9,6.7c-1.7,2-4,3.3-6.6,3.7l-21.6,3.7C372,536.8,371.4,536.9,370.7,536.9z"/>
<path class="st6" d="M392.6,319.7c-2.5-2.9-5.5-5.4-8.8-7.4c-14.4-8.8-32.5-8.7-46.9,0.2c-2.8,1.8-5.4,3.9-7.6,6.3
	c-5.9,6.1-9.2,14.3-9.3,22.8v96.3c0,0.3,0,0.6,0.1,0.9c0.5,3,3.4,5.3,6.9,5.3h67.1c3.8,0,7-2.8,7-6.2v-96.3
	C401.1,333.5,398,325.7,392.6,319.7z"/>
<path class="st6" d="M373.2,244.2c-7.1,2.4-15.1-2.5-15.5-10.1c-0.3-3.6,1.1-7.1,3.7-9.6c2.4-2,5.3-3.3,8.4-3.7
	c6.7-1.2,13.7-0.2,20.4-1.2c6.8-1,12.8-4.5,15.8-11c2.9-6.4,3-13.7,0.2-20.1c-3.1-7.1-9.2-12.5-15.9-16.1c-12.9-7-28.4-8.4-42.6-5.3
	c-14.3,3-27.2,10.7-36.7,21.8c-1.1,1.4-2.2,2.8-3.2,4.2c-0.4,0.7-0.2,1.6,0.6,2.1c0.2,0.1,0.5,0.2,0.7,0.2l8.8-1.1l-1.3-2.3
	l-9.5,17.1c-0.6,1.1,0.4,2.7,1.7,2.2l14-5.3l-1.5-2.5l-13.9,16.9c-1.2,1.5,0.9,3.6,2.1,2.1l13.9-16.9c0.8-1,0.1-3.1-1.5-2.5l-14,5.3
	l1.7,2.2l9.5-17.1c0.5-0.9-0.1-2.4-1.3-2.3l-8.8,1.1l1.3,2.3c8.2-11.7,20.8-20,34.5-23.8c13.8-3.8,29.1-3.2,42.1,3.1
	c6.8,3.3,13.1,8.4,16.4,15.4c2.9,6.2,2.6,13.3-0.7,19.3c-7.5,12.8-25.1,6.2-36.8,10c-6.7,2.1-11.5,8-11.2,15.2
	c0.4,7.6,6.5,13.6,14.1,13.9c1.8,0.1,3.5-0.2,5.2-0.7C375.8,246.5,375.1,243.6,373.2,244.2L373.2,244.2z"/>
<path class="st7" d="M764.9,187.4h0.2v-0.3C765.1,187.2,765,187.3,764.9,187.4z M763.4,47.1c-0.5-0.7-1-1.3-1.6-2
	c-21.5-27-53.6-43.4-88-45c-0.8,0-1.5-0.1-2.3-0.1c-1.1,0-2.3-0.1-3.4-0.1c-33.4,0-65.4,14-88,38.5c-0.7,0.7-1.4,1.5-2,2.2
	c-1.3,1.4-2.5,2.9-3.7,4.4c-0.5,0.7-1.1,1.3-1.6,2c-34.9,45.4-32.7,109.2,5.2,152.1c0.6,0.7,1.3,1.5,2,2.2
	c44.9,48.6,120.7,51.6,169.3,6.7c6-5.6,11.5-11.8,16.3-18.5c0.4-0.6,0.9-1.2,1.3-1.9c11.1-16.1,18.1-34.6,20.3-54
	c0.1-0.7,0.2-1.3,0.2-2c0.4-3.9,0.6-7.9,0.6-11.9C788.2,93.6,779.5,68,763.4,47.1L763.4,47.1z M785.3,133.9
	c-2.2,18.6-8.8,36.4-19.3,52c-0.3,0.4-0.5,0.8-0.8,1.2c-0.1,0.1-0.1,0.2-0.2,0.3c-0.1,0.1-0.1,0.2-0.2,0.3
	c-37.3,53.3-110.8,66.3-164.1,29c-7.5-5.3-14.4-11.4-20.5-18.2c-0.7-0.8-1.4-1.5-2-2.3c-36.3-42.7-37.4-105.1-2.7-149.1
	c0.5-0.7,1.1-1.3,1.6-2c0.4-0.4,0.7-0.9,1.1-1.3c0.6-0.8,1.3-1.5,2-2.3C602.5,16.4,634.5,2,668.1,2c1.5,0,3,0,4.4,0.1
	c0.8,0,1.5,0.1,2.3,0.1c32.9,1.9,63.5,17.5,84.4,42.9c0.5,0.7,1.1,1.3,1.6,2c16.4,20.8,25.3,46.4,25.2,72.9c0,4-0.2,8-0.6,11.9
	C785.5,132.5,785.4,133.2,785.3,133.9L785.3,133.9z M764.9,187.4h0.2v-0.3C765.1,187.2,765,187.3,764.9,187.4L764.9,187.4z"/>
<path class="st6" d="M258.1,692.7c-50.3,0-91-40.7-91-91s40.7-91,91-91s91,40.7,91,91C349.1,651.9,308.4,692.7,258.1,692.7z
	 M258.1,512.7c-49.2,0-89,39.8-89,89s39.8,89,89,89s89-39.8,89-89l0,0C347.1,552.6,307.3,512.8,258.1,512.7z"/>
<path class="st6" d="M540.1,692.7c-50.3,0-91-40.7-91-91s40.7-91,91-91s91,40.7,91,91C631.1,651.9,590.4,692.7,540.1,692.7z
	 M540.1,512.7c-49.2,0-89,39.8-89,89s39.8,89,89,89s89-39.8,89-89l0,0C629.1,552.6,589.3,512.8,540.1,512.7z"/>
</svg>
