<svg xmlns="http://www.w3.org/2000/svg" viewBox="0 0 5669.29 5669.29"><defs><style>.cls-1{fill:#00df7d;opacity:0.64;}.cls-2{fill:#ea5b0c;opacity:0.5;}.cls-3{fill:#ff4afc;opacity:0.37;}.cls-4{fill:#ffdb55;opacity:0.56;}.cls-5,.cls-6,.cls-7,.cls-8{fill:none;stroke:#1d1d1b;stroke-miterlimit:10;}.cls-5,.cls-6{stroke-width:55px;}.cls-6,.cls-7{stroke-linecap:round;}.cls-7{stroke-width:58px;}.cls-8{stroke-width:2px;}</style></defs><g id="Layer_2" data-name="Layer 2"><circle class="cls-1" cx="3548.22" cy="2752.44" r="701.35"/><circle class="cls-2" cx="2128.1" cy="2752.92" r="701.35"/><circle class="cls-3" cx="2884.94" cy="2140.25" r="701.35"/><circle class="cls-4" cx="2866.92" cy="3527.77" r="701.35"/></g><g id="Layer_3" data-name="Layer 3"><circle class="cls-5" cx="2272.66" cy="3002.35" r="391.93"/><circle class="cls-5" cx="3432.68" cy="2978.64" r="391.93"/><line class="cls-6" x1="2272.66" y1="3002.35" x2="3493.79" y2="2985.51"/><line class="cls-6" x1="2569.59" y1="2455.59" x2="2893.95" y2="3329.55"/><path class="cls-6" d="M2470.48,2518.66c365.46-24.18,567.62-306.34,567.62-306.34"/><path class="cls-6" d="M2659.69,2491.63s603.66,216.24,216.24,396.44"/><line class="cls-7" x1="1860.34" y1="2119.19" x2="1887.37" y2="3398.6"/><line class="cls-7" x1="3016.26" y1="2570.16" x2="3043.29" y2="3849.56"/><path class="cls-6" d="M3059.22,2230.21s211.63,382.88,463.54,255.05"/><circle cx="3249.22" cy="2103.08" r="128.07"/></g><g id="Layer_4" data-name="Layer 4"><line class="cls-8" x1="2137.11" y1="2725.89" x2="2245.23" y2="2951.14"/><line class="cls-8" x1="1974.94" y1="3077.28" x2="2218.2" y2="3023.22"/><line class="cls-8" x1="2434.44" y1="2734.9" x2="2290.28" y2="2933.12"/><line class="cls-8" x1="2155.13" y1="3302.52" x2="2254.24" y2="3068.27"/><line class="cls-8" x1="2452.46" y1="3284.5" x2="2299.29" y2="3086.29"/><line class="cls-8" x1="3551.67" y1="2707.87" x2="3515.63" y2="2924.11"/><line class="cls-8" x1="3281.37" y1="2707.87" x2="3443.55" y2="2924.11"/><line class="cls-8" x1="3254.34" y1="3257.47" x2="3479.59" y2="3041.24"/><line class="cls-8" x1="3650.78" y1="3230.44" x2="3551.67" y2="3041.24"/><path d="M3184.65,2032.91c-12.14,2.41-13.31-13.65-12.65-28.39l-.34,5.43c-25.95,14.87-52.31,43.29-75.64,73s-44.78,61.42-68.61,90.39-51.22,55.78-76.43,66.7c-33.77,14.63-56-1.93-71.57-23-.21-.29-.41-.54-.61-.83a606,606,0,0,0,73.56-96.67c-28.28,30.72-58.41,55.86-88,73.4a241.76,241.76,0,0,1-20.66-55.1c-3.24-13.13-5.24-29.53,4.34-49s27.3-34.57,42-41.19,27.5-6.81,41.07-9.54a82.14,82.14,0,0,0,43.93-24c33.81-34.67,42.19-93.92,76.39-127.38,16.83-16.45,33.93-20.31,48.84-22.18a318.6,318.6,0,0,1,65.24-1.72c18.19,1.48,35.92,4.93,46.53,18.38s12.93,38.82.52,68.15c4.53,10.87,9.09,22.77,5.15,40.08S3197.5,2030.38,3184.65,2032.91Z"/><line class="cls-8" x1="3776.92" y1="2987.18" x2="3551.67" y2="2978.17"/></g></svg>