<svg id="Layer_1" data-name="Layer 1" xmlns="http://www.w3.org/2000/svg" viewBox="0 0 575.74 422.02"><defs><style>.cls-1{fill:#00b456;}.cls-2{fill:#f9269c;}.cls-3{fill:#3f3d56;}.cls-4{fill:#fff;}.cls-5{fill:#a0616a;}.cls-6{fill:#2f2e41;}.cls-7{fill:#ccc;}.cls-8{fill:#ffbd5f;}</style></defs><path class="cls-1" d="M554,481.34l16.12-5.11a54.6,54.6,0,0,0-.39-26.25c-6.48,14.4-25.48,17.93-36.3,29.42a32.86,32.86,0,0,0-8.4,27.18l-3.39,11.51a55,55,0,0,0,40-22.77,53,53,0,0,0,6.22-11.79C561.05,482.85,554,481.34,554,481.34Z" transform="translate(-22.64 -97.49)"/><path class="cls-1" d="M536.81,460.07,549,448.31A54.57,54.57,0,0,0,536.9,425c.62,15.77-14.81,27.4-19.37,42.52a32.79,32.79,0,0,0,4.61,28.07l2.09,11.81a55,55,0,0,0,25.67-38.23,53.51,53.51,0,0,0,.32-13.32C543.76,458.29,536.81,460.07,536.81,460.07Z" transform="translate(-22.64 -97.49)"/><circle class="cls-2" cx="181.27" cy="188.56" r="96.93"/><circle class="cls-3" cx="182.96" cy="212.97" r="13.85"/><circle class="cls-2" cx="182.96" cy="212.97" r="6.39"/><path class="cls-4" d="M231.31,341.28H180.16a19.12,19.12,0,0,1-19.1-19.1V298.73a19.12,19.12,0,0,1,19.1-19.1h51.15a19.13,19.13,0,0,1,19.1,19.1v23.45A19.12,19.12,0,0,1,231.31,341.28Zm-51.15-59.65a17.12,17.12,0,0,0-17.1,17.1v23.45a17.12,17.12,0,0,0,17.1,17.1h51.15a17.12,17.12,0,0,0,17.1-17.1V298.73a17.12,17.12,0,0,0-17.1-17.1Z" transform="translate(-22.64 -97.49)"/><path class="cls-3" d="M177.13,328.55h45.4a17.94,17.94,0,0,0,17.94-17.94h0V291a17.76,17.76,0,0,0-1.18-6.37,17.9,17.9,0,0,1,7.13,14.3v19.62a17.94,17.94,0,0,1-17.94,17.94h-45.4a17.93,17.93,0,0,1-16.76-11.57A17.89,17.89,0,0,0,177.13,328.55Z" transform="translate(-22.64 -97.49)"/><polygon class="cls-5" points="394.26 409.06 383.11 409.05 377.8 366.03 394.27 366.03 394.26 409.06"/><path class="cls-6" d="M417.3,518.18H383v-.44a13.35,13.35,0,0,1,13.35-13.35h0l6.27-4.75,11.69,4.75h3Z" transform="translate(-22.64 -97.49)"/><polygon class="cls-5" points="473.19 409.06 484.35 409.05 489.65 366.03 473.19 366.03 473.19 409.06"/><path class="cls-6" d="M495.45,518.18h34.3v-.44a13.35,13.35,0,0,0-13.35-13.35h0l-6.27-4.75-11.69,4.75h-3Z" transform="translate(-22.64 -97.49)"/><path class="cls-6" d="M400,431.9c.16-2.46,1.47-16,1.47-16l3.14-28.79,5.53-76.33.36-5,29-5.56,19.8-9.49,23.53,7.52,18.32,6.88s0,2.94.17,6.49c.19,4.65.52,10.35,1.3,11.84,1.31,2.62,1,16.68,1,16.68s1.31,28.61,3,31.75,2,9.67,1.47,11,1.64,35.68,1.64,35.68,5.48,60.81,2,70-16.42,3.16-16.42,3.16.63-2.45-3.14-3.6-15.23-87.38-15.23-87.38-2.13-17.68-4.09-22.75-3.77-19.3-3.77-19.3-12.11-23.56-12.26-28.8c0,0-1.59-4.91-3.09.49s-5.91,18.32-5.91,18.32l-4.31,15.88-5.07,23.72-3.27,20s-4.91,26.5-5.7,27.65,0,25.36,0,25.36-3.79,20.62-9.16,24.22-19.58.06-19.58.06S399.79,434.35,400,431.9Z" transform="translate(-22.64 -97.49)"/><polygon class="cls-6" points="389.67 138.64 396.11 158.04 388.16 167.5 391.66 171.1 389.08 176.19 382.35 229.54 419.25 243.54 431.67 227.96 441.47 243.54 484.17 233.11 473.28 165.07 473.28 160.62 470.2 152.03 470.2 133.85 478.32 79.73 454.09 71.24 442.51 62.07 438.76 74.97 422.8 72.13 422.38 62.44 410.17 73.98 399.88 76.91 387.57 79.73 386 83.65 389.14 82.87 388.63 133.89 389.67 138.64"/><path class="cls-5" d="M388.11,326.54l6.19-60,1.64-24.69-17.35-3.13s.69,17.65-1.58,27.61-.3,58.88-.16,60.19a8.44,8.44,0,1,0,11.92.66q-.31-.34-.66-.66Z" transform="translate(-22.64 -97.49)"/><path class="cls-6" d="M374.19,261l4.82,1,16.55,3.42.92.19,1.95-7.76,2.27-2.42L405,232.81l.23-1.17,6.52-13.93,4.51-41.87-16.77,3c-.09.09-.16.18-.24.27-2.41,2.73-4.13,6.53-6.94,10.35-9.13,12.43-16.15,42.64-15.87,59.19,0,.27-.27.56-.6.85A9.19,9.19,0,0,0,374.19,261Z" transform="translate(-22.64 -97.49)"/><path class="cls-5" d="M509.11,307.1l-6.2-60-1.63-24.68,17.34-3.14s-.69,17.65,1.59,27.61.29,58.88.15,60.19a8.44,8.44,0,1,1-11.91.66q.32-.35.66-.66Z" transform="translate(-22.64 -97.49)"/><path class="cls-6" d="M526,259.55l-4.83,1L504.65,264l-.92.18-2-7.76L499.51,254l-4.31-22.6L495,230.2l-6.51-13.93L490,174.4l10.77,3,.24.28c2.41,2.73,4.12,6.52,6.93,10.34,9.14,12.43,16.15,42.64,15.88,59.19,0,.27.26.56.59.86A9.18,9.18,0,0,1,526,259.55Z" transform="translate(-22.64 -97.49)"/><path class="cls-2" d="M437.14,180.59,445,159.93l20.13-.37,6.68,21,24,134.11s-73.55,20.48-72.8-4.14c.78-25.88,4.32-60.27,4.32-60.27Z" transform="translate(-22.64 -97.49)"/><circle class="cls-5" cx="431.99" cy="32.95" r="23.71"/><path class="cls-6" d="M429.53,113.24c3.86-4.2,8.69-11.9,23.31-15.13,18.07-4,26.61,12.34,22.05,12.61,13.33,4,4.77,31.61.95,29.29l-.1-.07a18.76,18.76,0,0,1-7.49-12.81l-.73-6.52c-.1,5.31-5.53,6-11.07,4a7,7,0,0,1,4.91-4.83,23.79,23.79,0,0,1-14,6.08,9.53,9.53,0,0,1,4.63-6.37l-.22-.21a23.06,23.06,0,0,1-7.33,4.15c-3.06.87-6.72.4-8.81-2a6.54,6.54,0,0,1-1.26-2.26c.46,4.21-2.36,9-4.56,8.18C428,127.06,427,116,429.53,113.24Z" transform="translate(-22.64 -97.49)"/><path class="cls-7" d="M598.38,518.18a1.2,1.2,0,0,1-1.18,1.19H316.9a1.19,1.19,0,1,1,0-2.38H597.19a1.17,1.17,0,0,1,1.19,1.18Z" transform="translate(-22.64 -97.49)"/><path class="cls-3" d="M206.52,237.93c-9.48,0-17.81,4.29-22.53,10.73a29.11,29.11,0,0,1,17.37-5.57C216,243.09,228,253.37,228,266v10.51h5.16V260.85C233.15,248.21,221.2,237.93,206.52,237.93Z" transform="translate(-22.64 -97.49)"/><path class="cls-4" d="M236.69,281.9H174.77V263.68c0-14.7,13.89-26.66,31-26.66s31,12,31,26.66Zm-59.92-2h57.92V263.68c0-13.6-13-24.66-29-24.66s-29,11.06-29,24.66Z" transform="translate(-22.64 -97.49)"/><path class="cls-4" d="M221.59,274.94H189.88a5.4,5.4,0,0,1-5.39-5.38v-7.25c0-10.11,9.53-18.33,21.24-18.33S227,252.2,227,262.31v7.25A5.38,5.38,0,0,1,221.59,274.94Zm-15.86-29c-10.6,0-19.24,7.32-19.24,16.33v7.25a3.39,3.39,0,0,0,3.39,3.38h31.71a3.38,3.38,0,0,0,3.38-3.38v-7.25c0-9-8.63-16.33-19.24-16.33Z" transform="translate(-22.64 -97.49)"/><rect class="cls-3" x="87.06" y="395.75" width="65.19" height="5.28" transform="matrix(0.94, -0.34, 0.34, 0.94, -149.8, -33.93)"/><path class="cls-3" d="M327.15,518.69a60.21,60.21,0,1,1,60.21-60.21h0A60.28,60.28,0,0,1,327.15,518.69Zm0-114.84a54.63,54.63,0,1,0,54.63,54.63A54.63,54.63,0,0,0,327.15,403.85Z" transform="translate(-22.64 -97.49)"/><path class="cls-3" d="M79.7,519.51a57,57,0,1,1,57.05-57.05h0A57.12,57.12,0,0,1,79.7,519.51Zm0-108.82a51.77,51.77,0,1,0,51.76,51.77A51.77,51.77,0,0,0,79.7,410.69Z" transform="translate(-22.64 -97.49)"/><circle class="cls-3" cx="171.68" cy="363.92" r="9.8"/><polygon class="cls-3" points="59.22 364.37 55.37 360.76 124.16 287.37 246.93 250.63 307.86 357.56 303.27 360.18 244.42 256.89 127.04 292.02 59.22 364.37"/><rect class="cls-3" x="111.44" y="361.04" width="51.91" height="5.28"/><rect class="cls-3" x="122.96" y="262.08" width="5.28" height="27.62"/><rect class="cls-3" x="257.07" y="296.53" width="5.28" height="56.08" transform="translate(-109.82 -1.97) rotate(-17.9)"/><rect class="cls-3" x="167.1" y="379.17" width="5.28" height="85.71" transform="translate(-212.66 46.17) rotate(-30.36)"/><rect class="cls-3" x="191.66" y="425.72" width="112.52" height="5.28" transform="translate(-220.89 116.64) rotate(-34.29)"/><path class="cls-8" d="M158.38,362.86H137.25a5.55,5.55,0,0,1,0-11.1h21.13a5.55,5.55,0,0,1,0,11.1Z" transform="translate(-22.64 -97.49)"/><path class="cls-8" d="M261.39,303.17H240.26a5.55,5.55,0,1,1,0-11.1h21.13a5.55,5.55,0,0,1,0,11.1Z" transform="translate(-22.64 -97.49)"/><path class="cls-3" d="M277.06,368.15l-17.64-37.23.24-.12a10.3,10.3,0,0,1,13.71,4.9h0l8.82,18.62A10.31,10.31,0,0,1,277.3,368h0Z" transform="translate(-22.64 -97.49)"/><ellipse class="cls-8" cx="280.7" cy="345.18" rx="6.07" ry="9.24" transform="translate(-124.92 21.26) rotate(-20.29)"/><circle class="cls-3" cx="54.86" cy="364.8" r="8.5"/><circle class="cls-3" cx="307.36" cy="365.3" r="8.5"/></svg>