<?xml version="1.0" encoding="utf-8"?>
<!-- Generator: Adobe Illustrator 26.0.1, SVG Export Plug-In . SVG Version: 6.00 Build 0)  -->
<svg version="1.1" id="Layer_1" xmlns="http://www.w3.org/2000/svg" xmlns:xlink="http://www.w3.org/1999/xlink" x="0px" y="0px"
	 viewBox="0 0 598.4 519.4" style="enable-background:new 0 0 598.4 519.4;" xml:space="preserve">
<style type="text/css">
	.st0{fill:#00B456;}
	.st1{fill:#F9269C;}
	.st2{fill:#3F3D56;}
	.st3{fill:#FFFFFF;}
	.st4{fill:#A0616A;}
	.st5{fill:#2F2E41;}
	.st6{fill:#CCCCCC;}
	.st7{fill:#FFBD5F;}
</style>
<path class="st0" d="M554,481.3l16.1-5.1c2-8.7,1.9-17.7-0.4-26.2c-6.5,14.4-25.5,17.9-36.3,29.4c-6.8,7.3-9.9,17.3-8.4,27.2
	l-3.4,11.5c16-1.4,30.7-9.7,40-22.8c2.6-3.7,4.7-7.6,6.2-11.8C561,482.8,554,481.3,554,481.3z"/>
<path class="st0" d="M536.8,460.1l12.1-11.8c-2.1-8.6-6.2-16.6-12.1-23.3c0.6,15.8-14.8,27.4-19.4,42.5c-2.8,9.6-1.1,19.9,4.6,28.1
	l2.1,11.8c13.7-8.4,23.1-22.3,25.7-38.2c0.7-4.4,0.8-8.9,0.3-13.3C543.8,458.3,536.8,460.1,536.8,460.1z"/>
<circle class="st1" cx="306.5" cy="324.4" r="96.9"/>
<circle class="st2" cx="306.4" cy="344.4" r="13.8"/>
<circle class="st1" cx="306.4" cy="344.4" r="6.4"/>
<path class="st3" d="M332.1,375.2h-51.1c-10.5,0-19.1-8.6-19.1-19.1v-23.4c0-10.5,8.6-19.1,19.1-19.1h51.1
	c10.5,0,19.1,8.6,19.1,19.1v23.4C351.2,366.7,342.6,375.2,332.1,375.2z M280.9,315.6c-9.4,0-17.1,7.7-17.1,17.1v23.4
	c0,9.4,7.7,17.1,17.1,17.1h51.1c9.4,0,17.1-7.7,17.1-17.1v-23.4c0-9.4-7.7-17.1-17.1-17.1H280.9z"/>
<path class="st2" d="M277.9,362.5h45.4c9.9,0,17.9-8,17.9-17.9v0v-19.6c0-2.2-0.4-4.3-1.2-6.4c4.5,3.4,7.1,8.7,7.1,14.3v19.6
	c0,9.9-8,17.9-17.9,17.9h0h-45.4c-7.4,0-14.1-4.6-16.8-11.6C270.2,361.2,274,362.5,277.9,362.5z"/>
<polygon class="st4" points="416.9,506.5 405.8,506.5 400.4,463.5 416.9,463.5 "/>
<path class="st5" d="M417.3,518.2l-34.3,0v-0.4c0-7.4,6-13.4,13.4-13.4h0l6.3-4.8l11.7,4.8l3,0L417.3,518.2z"/>
<polygon class="st4" points="495.8,506.5 507,506.5 512.3,463.5 495.8,463.5 "/>
<path class="st5" d="M495.4,518.2l34.3,0v-0.4c0-7.4-6-13.4-13.4-13.4h0l-6.3-4.8l-11.7,4.8l-3,0L495.4,518.2z"/>
<path class="st5" d="M400,431.9c0.2-2.5,1.5-16,1.5-16l3.1-28.8l5.5-76.3l0.4-5l29-5.6l19.8-9.5l23.5,7.5l18.3,6.9
	c0,0,0,2.9,0.2,6.5c0.2,4.7,0.5,10.4,1.3,11.8c1.3,2.6,1,16.7,1,16.7s1.3,28.6,2.9,31.8s2,9.7,1.5,11s1.6,35.7,1.6,35.7
	s5.5,60.8,2,70s-16.4,3.2-16.4,3.2s0.6-2.4-3.1-3.6s-15.2-87.4-15.2-87.4s-2.1-17.7-4.1-22.7s-3.8-19.3-3.8-19.3
	s-12.1-23.6-12.3-28.8c0,0-1.6-4.9-3.1,0.5s-5.9,18.3-5.9,18.3l-4.3,15.9l-5.1,23.7l-3.3,20c0,0-4.9,26.5-5.7,27.6s0,25.4,0,25.4
	s-3.8,20.6-9.2,24.2s-19.6,0.1-19.6,0.1S399.8,434.4,400,431.9z"/>
<polygon class="st5" points="412.3,236.1 418.8,255.5 410.8,265 414.3,268.6 411.7,273.7 405,327 441.9,341 454.3,325.4 464.1,341 
	506.8,330.6 495.9,262.6 495.9,258.1 492.8,249.5 492.8,231.3 501,177.2 476.7,168.7 465.2,159.6 461.4,172.5 445.4,169.6 
	445,159.9 432.8,171.5 422.5,174.4 410.2,177.2 408.6,181.1 411.8,180.4 411.3,231.4 "/>
<path class="st4" d="M401.3,307.1l6.2-60l1.6-24.7l-17.3-3.1c0,0,0.7,17.7-1.6,27.6c-2.2,9.8-0.3,58.9-0.2,60.2
	c-3.5,3.1-3.8,8.4-0.7,11.9s8.4,3.8,11.9,0.7c3.5-3.1,3.8-8.4,0.7-11.9C401.7,307.5,401.5,307.3,401.3,307.1L401.3,307.1z"/>
<path class="st5" d="M384.4,259.6l4.8,1l16.6,3.4l0.9,0.2l2-7.8l2.3-2.4l4.3-22.6l0.2-1.2l6.5-13.9l4.5-41.9l-16.8,3
	c-0.1,0.1-0.2,0.2-0.2,0.3c-2.4,2.7-4.1,6.5-6.9,10.3c-9.1,12.4-16.1,42.6-15.9,59.2c0,0.3-0.3,0.6-0.6,0.9
	C382.8,251,382.1,255.8,384.4,259.6z"/>
<path class="st4" d="M509.1,307.1l-6.2-60l-1.6-24.7l17.3-3.1c0,0-0.7,17.7,1.6,27.6c2.2,9.8,0.3,58.9,0.2,60.2
	c3.5,3.1,3.8,8.4,0.7,11.9s-8.4,3.8-11.9,0.7s-3.8-8.4-0.7-11.9C508.7,307.5,508.9,307.3,509.1,307.1L509.1,307.1z"/>
<path class="st5" d="M526,259.6l-4.8,1l-16.6,3.4l-0.9,0.2l-2-7.8l-2.3-2.4l-4.3-22.6l-0.2-1.2l-6.5-13.9l1.5-41.9l10.8,3
	c0.1,0.1,0.2,0.2,0.2,0.3c2.4,2.7,4.1,6.5,6.9,10.3c9.1,12.4,16.1,42.6,15.9,59.2c0,0.3,0.3,0.6,0.6,0.9
	C527.6,251,528.3,255.8,526,259.6z"/>
<path class="st1" d="M437.1,180.6l7.9-20.7l20.1-0.4l6.7,21l24,134.1c0,0-73.5,20.5-72.8-4.1c0.8-25.9,4.3-60.3,4.3-60.3
	L437.1,180.6z"/>
<circle class="st4" cx="454.6" cy="130.4" r="23.7"/>
<path class="st5" d="M429.5,113.2c3.9-4.2,8.7-11.9,23.3-15.1c18.1-4,26.6,12.3,22.1,12.6c13.3,4,4.8,31.6,0.9,29.3
	c0,0-0.1,0-0.1-0.1c-4.2-3.1-6.9-7.7-7.5-12.8l-0.7-6.5c-0.1,5.3-5.5,6-11.1,4.1c0.7-2.4,2.5-4.2,4.9-4.8c-3.9,3.5-8.8,5.6-14,6.1
	c0.6-2.7,2.2-5,4.6-6.4l-0.2-0.2c-2.2,1.8-4.7,3.2-7.3,4.2c-3.1,0.9-6.7,0.4-8.8-2c-0.6-0.7-1-1.4-1.3-2.3c0.5,4.2-2.4,9-4.6,8.2
	C428,127.1,427,116,429.5,113.2z"/>
<path class="st6" d="M598.4,518.2c0,0.7-0.5,1.2-1.2,1.2c0,0,0,0,0,0H316.9c-0.7,0-1.2-0.5-1.2-1.2s0.5-1.2,1.2-1.2h280.3
	C597.8,517,598.4,517.5,598.4,518.2C598.4,518.2,598.4,518.2,598.4,518.2z"/>
<path class="st2" d="M307.3,271.9c-9.5,0-17.8,4.3-22.5,10.7c5-3.7,11.1-5.6,17.4-5.6c14.7,0,26.6,10.3,26.6,22.9v10.5h5.2v-15.7
	C333.9,282.1,322,271.9,307.3,271.9z"/>
<path class="st3" d="M337.5,315.8h-61.9v-18.2c0-14.7,13.9-26.7,31-26.7s31,12,31,26.7L337.5,315.8z M277.5,313.8h57.9v-16.2
	c0-13.6-13-24.7-29-24.7s-29,11.1-29,24.7V313.8z"/>
<path class="st3" d="M322.4,308.9h-31.7c-3,0-5.4-2.4-5.4-5.4v-7.2c0-10.1,9.5-18.3,21.2-18.3s21.2,8.2,21.2,18.3v7.2
	C327.7,306.5,325.3,308.9,322.4,308.9z M306.5,279.9c-10.6,0-19.2,7.3-19.2,16.3v7.2c0,1.9,1.5,3.4,3.4,3.4h31.7
	c1.9,0,3.4-1.5,3.4-3.4v-7.2C325.7,287.2,317.1,279.9,306.5,279.9L306.5,279.9z"/>
<rect x="87.1" y="395.7" transform="matrix(0.9416 -0.3367 0.3367 0.9416 -127.1585 63.5545)" class="st2" width="65.2" height="5.3"/>
<path class="st2" d="M327.1,518.7c-33.3,0-60.2-27-60.2-60.2c0-33.3,27-60.2,60.2-60.2c33.3,0,60.2,27,60.2,60.2c0,0,0,0,0,0
	C387.3,491.7,360.4,518.7,327.1,518.7z M327.1,403.8c-30.2,0-54.6,24.5-54.6,54.6s24.5,54.6,54.6,54.6c30.2,0,54.6-24.5,54.6-54.6
	C381.7,428.3,357.3,403.9,327.1,403.8z"/>
<path class="st2" d="M79.7,519.5c-31.5,0-57.1-25.5-57.1-57.1s25.5-57.1,57.1-57.1s57.1,25.5,57.1,57.1l0,0
	C136.7,494,111.2,519.5,79.7,519.5z M79.7,410.7c-28.6,0-51.8,23.2-51.8,51.8s23.2,51.8,51.8,51.8s51.8-23.2,51.8-51.8
	C131.4,433.9,108.3,410.7,79.7,410.7z"/>
<circle class="st2" cx="194.3" cy="461.4" r="9.8"/>
<polygon class="st2" points="81.9,461.9 78,458.2 146.8,384.9 269.6,348.1 330.5,455 325.9,457.7 267.1,354.4 149.7,389.5 "/>
<rect x="134.1" y="458.5" class="st2" width="51.9" height="5.3"/>
<rect x="145.6" y="359.6" class="st2" width="5.3" height="27.6"/>
<rect x="257.1" y="296.5" transform="matrix(0.9516 -0.3073 0.3073 0.9516 -87.174 95.515)" class="st2" width="5.3" height="56.1"/>
<rect x="167.1" y="379.2" transform="matrix(0.8629 -0.5054 0.5054 0.8629 -190.0164 143.6532)" class="st2" width="5.3" height="85.7"/>
<rect x="191.7" y="425.7" transform="matrix(0.8262 -0.5634 0.5634 0.8262 -198.2431 214.1292)" class="st2" width="112.5" height="5.3"/>
<path class="st7" d="M158.4,362.9h-21.1c-3.1,0-5.5-2.5-5.5-5.5c0-3.1,2.5-5.5,5.5-5.5h21.1c3.1,0,5.5,2.5,5.5,5.5
	C163.9,360.4,161.4,362.9,158.4,362.9z"/>
<path class="st7" d="M261.4,303.2h-21.1c-3.1,0-5.5-2.5-5.5-5.5s2.5-5.5,5.5-5.5h21.1c3.1,0,5.5,2.5,5.5,5.5
	S264.5,303.2,261.4,303.2z"/>
<path class="st2" d="M277.1,368.2l-17.6-37.2l0.2-0.1c5.1-2.4,11.3-0.2,13.7,4.9c0,0,0,0,0,0l8.8,18.6c2.4,5.1,0.2,11.3-4.9,13.7
	c0,0,0,0,0,0L277.1,368.2z"/>
<ellipse transform="matrix(0.938 -0.3467 0.3467 0.938 -102.7859 117.9907)" class="st7" cx="278.3" cy="346.2" rx="6.1" ry="9.2"/>
<circle class="st2" cx="77.5" cy="462.3" r="8.5"/>
<circle class="st2" cx="330" cy="462.8" r="8.5"/>
</svg>
