<svg xmlns="http://www.w3.org/2000/svg" viewBox="0 0 2897.45 2887.5"><defs><style>.cls-1{fill:#00df7d;opacity:0.64;}.cls-2{fill:#ea5b0c;opacity:0.5;}.cls-3{fill:#ff4afc;opacity:0.37;}.cls-4{fill:#ffdb55;opacity:0.56;}.cls-5,.cls-6,.cls-7,.cls-8{fill:none;stroke:#1d1d1b;stroke-miterlimit:10;}.cls-5,.cls-6{stroke-width:55px;}.cls-6,.cls-7{stroke-linecap:round;}.cls-7{stroke-width:58px;}.cls-8{stroke-width:2px;}</style></defs><g id="Layer_2" data-name="Layer 2"><circle class="cls-1" cx="2144.22" cy="1361.94" r="701.35"/><circle class="cls-2" cx="724.1" cy="1362.42" r="701.35"/><circle class="cls-3" cx="1480.94" cy="749.75" r="701.35"/><circle class="cls-4" cx="1462.92" cy="2137.27" r="701.35"/></g><g id="Layer_3" data-name="Layer 3"><circle class="cls-5" cx="868.66" cy="1611.85" r="391.93"/><circle class="cls-5" cx="2028.68" cy="1588.14" r="391.93"/><line class="cls-6" x1="868.66" y1="1611.85" x2="2089.79" y2="1595.01"/><line class="cls-6" x1="1165.59" y1="1065.09" x2="1489.95" y2="1939.05"/><path class="cls-6" d="M1066.48,1128.16C1431.94,1104,1634.1,821.82,1634.1,821.82"/><path class="cls-6" d="M1255.69,1101.13s603.66,216.24,216.24,396.44"/><line class="cls-7" x1="456.34" y1="728.69" x2="483.37" y2="2008.1"/><line class="cls-7" x1="1612.26" y1="1179.66" x2="1639.29" y2="2459.06"/><path class="cls-6" d="M1655.22,839.71s211.63,382.88,463.54,255"/><circle cx="1845.22" cy="712.58" r="128.07"/></g><g id="Layer_4" data-name="Layer 4"><line class="cls-8" x1="733.11" y1="1335.39" x2="841.23" y2="1560.64"/><line class="cls-8" x1="570.94" y1="1686.78" x2="814.2" y2="1632.72"/><line class="cls-8" x1="1030.44" y1="1344.4" x2="886.28" y2="1542.62"/><line class="cls-8" x1="751.13" y1="1912.02" x2="850.24" y2="1677.77"/><line class="cls-8" x1="1048.46" y1="1894" x2="895.29" y2="1695.79"/><line class="cls-8" x1="2147.67" y1="1317.37" x2="2111.63" y2="1533.61"/><line class="cls-8" x1="1877.37" y1="1317.37" x2="2039.55" y2="1533.61"/><line class="cls-8" x1="1850.34" y1="1866.97" x2="2075.59" y2="1650.74"/><line class="cls-8" x1="2246.78" y1="1839.94" x2="2147.67" y2="1650.74"/><path d="M1780.65,642.41c-12.14,2.41-13.31-13.65-12.65-28.39l-.34,5.43c-26,14.87-52.31,43.29-75.64,72.95s-44.78,61.42-68.61,90.39-51.22,55.78-76.43,66.7c-33.77,14.63-56-1.93-71.57-23-.21-.29-.41-.54-.61-.83A606,606,0,0,0,1548.36,729c-28.28,30.72-58.41,55.86-88,73.4a241.76,241.76,0,0,1-20.66-55.1c-3.24-13.13-5.24-29.53,4.34-49s27.3-34.57,42-41.19,27.5-6.81,41.07-9.54A82.14,82.14,0,0,0,1571,623.61c33.81-34.67,42.19-93.92,76.39-127.38,16.83-16.45,33.93-20.31,48.84-22.18a318.6,318.6,0,0,1,65.24-1.72c18.19,1.48,35.92,4.93,46.53,18.38s12.93,38.82.52,68.15c4.53,10.87,9.09,22.77,5.15,40.08S1793.5,639.88,1780.65,642.41Z"/><line class="cls-8" x1="2372.92" y1="1596.68" x2="2147.67" y2="1587.67"/></g></svg>