<svg xmlns="http://www.w3.org/2000/svg" xmlns:xlink="http://www.w3.org/1999/xlink" viewBox="0 0 2875.17 1769.66"><defs><style>.cls-1{fill:#caf0ff;}.cls-2{isolation:isolate;}.cls-3{clip-path:url(#clip-path);}.cls-4{fill:#83bde5;}.cls-5{fill:#e3eef4;}.cls-5,.cls-7{mix-blend-mode:multiply;}.cls-10,.cls-11,.cls-6{fill:#fff;}.cls-6{opacity:0.2;}.cls-7{fill:#c8e5f7;}.cls-8{fill:#3c8f7c;}.cls-9{fill:#2a806c;}.cls-11{opacity:0.37;mix-blend-mode:screen;}.cls-12{fill:#13375b;}.cls-13{fill:#f48c7f;}.cls-14{fill:#d0f0fd;}.cls-15{fill:#001e6e;}.cls-16{fill:#001653;}.cls-17{fill:#b2cffa;}.cls-18{fill:#f7cc7f;}.cls-19{fill:#f47458;}.cls-20{fill:#b75742;}.cls-21{fill:#86b1f2;}.cls-22{fill:#f7a491;}.cls-23{fill:#f7604b;}.cls-24{fill:#e6f8ff;}.cls-25{fill:#f7aba2;}</style><clipPath id="clip-path" transform="translate(435.16 18.34)"><path class="cls-1" d="M1919,1525.07s203.67,66.4,337.16-168.8c66.63-117.4,143.89-297.77-222.24-744-73.76-89.89-161-455.09-525.7-576.21S710.87,8.67,645.34,194.13,508.57,358.38,374.66,370.57-183.8,454.69-235.09,654-49.89,1027.11-67,1121.87s-183.49,296.34-108.84,381.9c14.79,17,56.46,35.8,114.77,35.8,255.86,0,729.18-5.51,729.18-5.51Z"/></clipPath></defs><g class="cls-2"><g id="Layer_1" data-name="Layer 1"><path class="cls-1" d="M1919,1525.07s203.67,66.4,337.16-168.8c66.63-117.4,143.89-297.77-222.24-744-73.76-89.89-161-455.09-525.7-576.21S710.87,8.67,645.34,194.13,508.57,358.38,374.66,370.57-183.8,454.69-235.09,654-49.89,1027.11-67,1121.87s-183.49,296.34-108.84,381.9c14.79,17,56.46,35.8,114.77,35.8,255.86,0,729.18-5.51,729.18-5.51Z" transform="translate(435.16 18.34)"/><g class="cls-3"><path class="cls-4" d="M310.81,820.74,903,1328-377,1659s14.83-108.38,23.77-158.43c9-50.57-31.14-116.61-81.94-194.29Z" transform="translate(435.16 18.34)"/><path class="cls-5" d="M-376.19,1404.42c18.15,36.24,27.9,68.49,23,96.12-5.31,29.69-12.68,79.91-17.8,115.85-2.12,18.81-4.38,33.69-6,42.58L63.34,1545.11l-111.57-76.47,359-647.9-746,485.51C-404.3,1324.43-386.21,1361.11-376.19,1404.42Z" transform="translate(435.16 18.34)"/><polygon class="cls-6" points="1092.58 1135.98 920.18 1032.37 920.18 1215.96 801.3 1032.37 655.79 1361.12 666.04 1032.37 517.38 1142.52 563.57 1032.37 338.54 1111.93 745.97 839.08 1092.58 1135.98"/><polygon class="cls-4" points="1929.4 1679.71 2875.17 1578.8 2173.89 1014.07 1789.82 669.3 294.15 1655.15 1929.4 1679.71"/><polygon class="cls-7" points="315.9 1650.13 1645.69 1649.57 1383.6 1377.27 1789.82 669.3 315.9 1650.13"/><polygon class="cls-8" points="2539.56 1726.87 2259.72 1126.26 2216.51 1316.6 2152.29 1216.28 2112.65 1318.11 1994.68 1066.49 1867.11 1441.78 1754.33 1285.2 1685.46 1461.62 1647.88 1431.5 1603.13 1769.66 1853 1768.75 2539.56 1726.87"/><polygon class="cls-9" points="2477.94 1149.18 2549.53 1277.05 2663.44 953.58 2758.14 1203.74 2851.26 1167.43 2870.18 1509.33 2312.13 1677.46 2477.94 1149.18"/><polygon class="cls-8" points="1745.21 1629.7 1673.51 1376.53 958.29 1458.5 872.75 1244.02 771.96 1440.09 699.63 1180.1 646.47 1253.28 588.79 1052.24 506.33 1225.79 374.36 700.64 107.64 1578.8 759.89 1651.76 1073.49 1651.76 1745.21 1629.7"/><polygon class="cls-6" points="2144.87 988.02 1915.32 913.2 1928.93 988.02 1799.65 888.99 1434.47 1115.02 1595.51 888.99 1338.13 977.51 1789.82 669.3 2144.87 988.02"/><path class="cls-10" d="M1292,229.92c4.94-24.08,24.19-42,47.2-42a43.49,43.49,0,0,1,12.22,1.75c11.36-27.19,36-46,64.58-46a64.38,64.38,0,0,1,21.21,3.59c15.39-28.52,43.33-47.59,75.26-47.59,38,0,70.35,27,82.61,64.79a55,55,0,0,1,29.31-8.52c33.29,0,60.29,30.23,60.29,67.51,0,2.21-.11,4.4-.29,6.55Z" transform="translate(435.16 18.34)"/><path class="cls-10" d="M1915.5,935.59c3.22-15.69,15.76-27.39,30.74-27.39a28.43,28.43,0,0,1,8,1.13c7.4-17.71,23.45-30,42.07-30a41.69,41.69,0,0,1,13.82,2.34c10-18.58,28.23-31,49-31,24.75,0,45.83,17.59,53.82,42.21a35.86,35.86,0,0,1,19.09-5.55c21.7,0,39.28,19.69,39.28,44,0,1.44-.06,2.87-.18,4.27Z" transform="translate(435.16 18.34)"/><path class="cls-11" d="M2241.49,698.27c-33.27.65-73.3,2.26-106.57,2.92-62.85,1.24-125.83,2.48-188.49-2-35.1-2.5-70.49-6.89-103-18.68-19.63-7.1-38-16.83-58.22-22.61-35.5-10.16-73.84-7.45-111.13-9.09-57.6-2.53-113.83-15.64-169.56-28.68-85.86-20.08-297.4-50.16-302.82-126.28-.63-8.75,1.56-18,7.43-25.08,4.48-5.4,11.33-8.85,18.11-11.88,99.66-44.53,218.51-29.07,330-36.85,28.55-2,57.51-5.72,83.22-16.78,30-12.91,56.2-35.83,89.57-37.65,23.45-1.28,54.53,5.22,64.61-13.41,2.48-4.58,2.34-9.84,3.09-14.88,3.25-21.71,44.83-35.76,67.12-43.13,77.82,28.93,117.21,71.18,170.29,118.07a110.44,110.44,0,0,0-17.84,3.12c-21.38,5.74-39.27,19.06-60.59,25-16.38,4.54-33.88,4.46-51.06,4.35l-186.38-1.29c-11.73-.08-23.8-.11-34.72,3.64-10.73,3.68-19.45,10.69-29.14,16.15-32,18-72.31,18.33-109.64,24.62-11.85,2-24.9,5.53-30.57,14.87-9.46,15.57,8.43,33.38,26.48,41.14,72.42,31.18,161.6.94,238.67,21.85,20.61,5.59,39.72,14.71,59.81,21.61C1906,610,1979.28,608,2049.64,601.47c43.83-4.05,87.79-9.7,131.72-11.85,20.61,33.25,38.3,65.92,53.9,96.37Z" transform="translate(435.16 18.34)"/><path class="cls-11" d="M-244,573.09c27.18-2.73,54.72-.09,82-2.35a230.49,230.49,0,0,0,84.51-23.87c7.3-3.68,14.52-7.79,22.44-9.71,10.63-2.59,21.73-1,32.65-.59a163.75,163.75,0,0,0,62.79-9.73c6.78-2.47,14.34-6.55,15.46-13.87,1.43-9.35-8.45-16-17.09-19.24s-19-7.16-20.87-16.43c-.83-4.16.29-8.86-1.89-12.47-1.5-2.46-4.21-3.8-6.8-4.95-28.67-12.74-59.84-17.71-90.86-19.05-4.19-.17-8.47-.14-12.79,0C-45.66,418.5,9.63,400.88,63.68,387.22c3.51-.05,7-.1,10.53-.21,41.36-1.29,85.82-5.46,121.13,16.77,4.59,2.88,9.21,6.57,10.72,11.88,3.72,13.12-12.53,22.08-25.39,25.43-2,9.09,9.62,14.25,18.53,15.88a501.28,501.28,0,0,1,84.49,23.21c19.47,7.23,41.08,18.78,44.92,39.74,2.69,14.74-5,30-16.33,39.4s-25.77,13.87-40,16.73c-48.64,9.71-98.94,3-148.26,7.89-6.58.65-13.45,1.63-18.81,5.62-8.47,6.31-10.74,18.15-16.66,27-11.76,17.62-35.34,20.84-56.06,22q-69.21,3.89-138.58,1.16c-11.63-.46-23.49-1-34.73,2.11C-152.68,645.18-163,652.38-174,658c-22.31,11.52-47,16.6-71.79,20.66-8.23-31.69-9.81-64.68-.43-98.58C-245.56,577.75-244.83,575.41-244,573.09Z" transform="translate(435.16 18.34)"/><path class="cls-10" d="M530.36,664.59c-5.33-26-26.09-45.36-50.91-45.36a46.93,46.93,0,0,0-13.19,1.88c-12.25-29.33-38.84-49.66-69.66-49.66a69.37,69.37,0,0,0-22.89,3.88C357.12,544.56,327,524,292.52,524c-41,0-75.89,29.12-89.11,69.89a59.48,59.48,0,0,0-31.62-9.19c-35.92,0-65,32.61-65,72.83,0,2.39.12,4.74.32,7.07Z" transform="translate(435.16 18.34)"/></g><path class="cls-4" d="M1896.5,1471.47l-1801.2.65c-2,0-3.55-3.31-3.55-7.38h0c0-4.08,1.59-7.38,3.54-7.38l1801.21-.65c2,0,3.54,3.3,3.54,7.38h0C1900,1468.16,1898.45,1471.47,1896.5,1471.47Z" transform="translate(435.16 18.34)"/><path class="cls-12" d="M851.9,489c-11,33.86,6.19,83,34.3,90,18.28,4.6,36.26-8.37,42.35-32.84,9.89-39.7,6.11-70.73-10.71-85C896.13,442.9,861,461,851.9,489Z" transform="translate(435.16 18.34)"/><path class="cls-13" d="M852.73,675.23S915,790.5,931.78,798,978,651.36,978,651.36s6.54-19.62,8.4-20.69c7.37-4.3-2.17-12.17-2.17-12.17l-11-31.64s-1.09.76-5.46,14.62c-5.92,18.75-8.64,44.9-11.57,50.43L926,712l-42.49-80.19Z" transform="translate(435.16 18.34)"/><path class="cls-13" d="M973.71,600.87l2.64-1.19a16.32,16.32,0,0,0,3.58-2.22c4.51-3.65,16.94-13.25,18.86-10.11,2.34,3.86-16.83,18.26-16.83,18.26s21.46-14.07,22.73-8.91-20.86,18.17-20.86,18.17,19.65-10,20.73-7.19S982.91,630,982.91,630s18.63-15,21.46-12.43-26.56,34.26-26.56,34.26Z" transform="translate(435.16 18.34)"/><path class="cls-14" d="M953.82,1376.34a2.23,2.23,0,0,1-1.94-1.43L905,1274.75a3.66,3.66,0,0,1,.74-4.17c1.08-.87,2.48-.44,3.15,1l46.91,100.17a3.64,3.64,0,0,1-.74,4.16A1.93,1.93,0,0,1,953.82,1376.34Z" transform="translate(435.16 18.34)"/><path class="cls-15" d="M1000.27,549.15s-19.76,5.45-21.35,13.44-12.74,67.93-10.36,71c.74,1,16.41-1.08,22.54-7.81S1009.45,547.46,1000.27,549.15Z" transform="translate(435.16 18.34)"/><path class="cls-16" d="M992.4,555.21A72.53,72.53,0,0,0,980.06,560c4.58-6.57,20.21-10.88,20.21-10.88,9.18-1.69-3,70-9.17,76.68a20.62,20.62,0,0,1-6.92,4.62C990.51,618.31,1001.14,553.6,992.4,555.21Z" transform="translate(435.16 18.34)"/><path class="cls-12" d="M1164.32,1463.65c-80.75,0-146.44-86.81-146.44-193.52s65.69-193.52,146.44-193.52,146.42,86.82,146.42,193.52S1245.06,1463.65,1164.32,1463.65Zm0-362.85c-70.65,0-128.13,76-128.13,169.33s57.48,169.33,128.13,169.33,128.12-76,128.12-169.33S1235,1100.8,1164.32,1100.8Z" transform="translate(435.16 18.34)"/><path class="cls-17" d="M1164.32,1420.31c-62.66,0-113.64-67.37-113.64-150.18s51-150.18,113.64-150.18S1278,1187.32,1278,1270.13,1227,1420.31,1164.32,1420.31Zm0-294.31c-60.14,0-109.07,64.66-109.07,144.13s48.93,144.13,109.07,144.13,109-64.65,109-144.13S1224.45,1126,1164.32,1126Z" transform="translate(435.16 18.34)"/><path class="cls-17" d="M1164.32,1401.44c-54.79,0-99.36-58.9-99.36-131.31a164.65,164.65,0,0,1,11-60c.58-1.48,2-2.07,3.09-1.31a3.56,3.56,0,0,1,1,4.08,157.09,157.09,0,0,0-10.45,57.23c0,69.07,42.52,125.27,94.79,125.27a75.33,75.33,0,0,0,39.39-11.3c1.15-.69,2.51,0,3,1.49a3.52,3.52,0,0,1-1.13,4A79,79,0,0,1,1164.32,1401.44Z" transform="translate(435.16 18.34)"/><path class="cls-14" d="M1235.17,1185.46a2.07,2.07,0,0,1-1.67-1c-17.86-25.19-43.08-39.64-69.18-39.64-1.27,0-2.29-1.36-2.29-3s1-3,2.29-3c27.36,0,53.8,15.15,72.52,41.55a3.76,3.76,0,0,1-.11,4.28A2,2,0,0,1,1235.17,1185.46Z" transform="translate(435.16 18.34)"/><path class="cls-18" d="M1005.79,1279.21c-3.79,0-6.86-4.07-6.86-9.08,0-120.52,74.19-218.57,165.39-218.57,39.08,0,77,18.35,106.8,51.69,2.89,3.23,3.25,9,.81,12.78s-6.78,4.3-9.68,1.06c-27.31-30.56-62.09-47.39-97.93-47.39-83.63,0-151.66,89.91-151.66,200.43C1012.66,1275.14,1009.58,1279.21,1005.79,1279.21Z" transform="translate(435.16 18.34)"/><path class="cls-13" d="M857.81,1175.86l-28,32.08s-9.41,1.36-12.87-5.13a26.54,26.54,0,0,1-2.72-13.65l26.18-41.33Z" transform="translate(435.16 18.34)"/><path class="cls-19" d="M835.71,1201.16c6-3.13,0,0,7,28.37,6.44,18.66,13.52,26.25,11.1,30a15.48,15.48,0,0,1-5.77,5.36l-44.85-65.22s9.87-23.22,14.63-14.29C838.74,1208.87,835.71,1201.16,835.71,1201.16Z" transform="translate(435.16 18.34)"/><path class="cls-20" d="M816.66,877.56S976.55,969.45,976.55,1021c0,30.51-116.92,166-116.92,166l-25.55-36.29s63.69-98.86,61-111.17S742.18,946.08,737.23,926.43,758,872.51,758,872.51Z" transform="translate(435.16 18.34)"/><path class="cls-12" d="M705.31,1463.65c-80.74,0-146.43-86.81-146.43-193.52s65.69-193.52,146.43-193.52,146.43,86.82,146.43,193.52S786.05,1463.65,705.31,1463.65Zm0-362.85c-70.65,0-128.12,76-128.12,169.33s57.47,169.33,128.12,169.33,128.13-76,128.13-169.33S776,1100.8,705.31,1100.8Z" transform="translate(435.16 18.34)"/><path class="cls-17" d="M705.31,1420.31c-62.66,0-113.63-67.37-113.63-150.18S642.65,1120,705.31,1120,819,1187.32,819,1270.13,768,1420.31,705.31,1420.31Zm0-294.31c-60.13,0-109.06,64.66-109.06,144.13s48.93,144.13,109.06,144.13,109.06-64.65,109.06-144.13S765.45,1126,705.31,1126Z" transform="translate(435.16 18.34)"/><path class="cls-17" d="M705.31,1401.44c-54.78,0-99.36-58.9-99.36-131.31a164.65,164.65,0,0,1,11-60c.58-1.48,2-2.07,3.08-1.31a3.56,3.56,0,0,1,1,4.08,156.92,156.92,0,0,0-10.45,57.23c0,69.07,42.52,125.27,94.78,125.27a75.37,75.37,0,0,0,39.4-11.3c1.15-.69,2.51,0,3,1.49a3.49,3.49,0,0,1-1.13,4A78.9,78.9,0,0,1,705.31,1401.44Z" transform="translate(435.16 18.34)"/><path class="cls-14" d="M776.16,1185.46a2.07,2.07,0,0,1-1.67-1c-17.85-25.19-43.07-39.64-69.18-39.64-1.26,0-2.29-1.36-2.29-3s1-3,2.29-3c27.37,0,53.8,15.15,72.52,41.55a3.75,3.75,0,0,1-.1,4.28A2,2,0,0,1,776.16,1185.46Z" transform="translate(435.16 18.34)"/><path class="cls-18" d="M807.68,1119.24a5.92,5.92,0,0,1-4.43-2.15c-27.31-30.56-62.09-47.39-97.94-47.39-30.24,0-59.44,11.73-84.44,33.92-3.15,2.79-7.42,1.69-9.53-2.48s-1.28-9.79,1.87-12.58c27.27-24.21,59.12-37,92.1-37,39.09,0,77,18.35,106.81,51.69,2.89,3.23,3.25,9,.8,12.78A6.32,6.32,0,0,1,807.68,1119.24Z" transform="translate(435.16 18.34)"/><path class="cls-8" d="M705.31,1250.15a2.23,2.23,0,0,1-1.89-2.39,2.33,2.33,0,0,1,1.8-2.62l201.61-12.35c1-.08,1.93,1,2,2.39a2.33,2.33,0,0,1-1.81,2.62l-201.6,12.35Z" transform="translate(435.16 18.34)"/><path class="cls-8" d="M909.78,1307.47h-.09l-204.47-12.34a2.34,2.34,0,0,1-1.8-2.62c0-1.39,1-2.46,2-2.39l204.47,12.34a2.34,2.34,0,0,1,1.8,2.62A2.22,2.22,0,0,1,909.78,1307.47Z" transform="translate(435.16 18.34)"/><path class="cls-12" d="M705.31,1297.64c-11.47,0-20.81-12.34-20.81-27.51s9.34-27.5,20.81-27.5,20.81,12.34,20.81,27.5S716.79,1297.64,705.31,1297.64Z" transform="translate(435.16 18.34)"/><path class="cls-18" d="M883,1226.13c-2.25,0-4.38-1.76-5.29-4.68-1.2-3.86.19-8.28,3.11-9.87,25.19-13.73,46-38.89,58.55-70.85l32.32-82.22c11-28,27.66-51.21,48.2-67.22L1040.8,975c2.72-2.12,6.23-.93,7.83,2.67s.7,8.23-2,10.35l-20.86,16.27c-18.69,14.57-33.86,35.73-43.86,61.17l-32.33,82.22c-13.81,35.12-36.65,62.77-64.34,77.86A4.49,4.49,0,0,1,883,1226.13Z" transform="translate(435.16 18.34)"/><path class="cls-18" d="M899.27,1266c-2,0-3.95-1.4-5-3.87L768.08,963.89c-1.54-3.65-.56-8.25,2.2-10.29s6.24-.73,7.78,2.91l126.2,298.24c1.54,3.64.56,8.25-2.2,10.28A4.61,4.61,0,0,1,899.27,1266Z" transform="translate(435.16 18.34)"/><path class="cls-18" d="M853.78,1277.69H705.31c-3.16,0-5.72-3.38-5.72-7.56s2.56-7.56,5.72-7.56H853.78c43.33,0,82.67-31.57,102.65-82.38L988.75,1098c11-28,27.67-51.22,48.2-67.23l20.87-16.27c2.72-2.12,6.22-.93,7.83,2.67s.7,8.23-2,10.35l-20.86,16.27c-18.69,14.57-33.86,35.73-43.87,61.18l-32.32,82.22C944.62,1243,901.4,1277.69,853.78,1277.69Z" transform="translate(435.16 18.34)"/><path class="cls-18" d="M705.31,1276.18a3.75,3.75,0,0,1-2.3-.82c-2.18-1.67-2.92-5.38-1.66-8.26l101.33-230.61c1.27-2.89,4.07-3.87,6.26-2.2s2.92,5.38,1.66,8.27L709.27,1273.17A4.52,4.52,0,0,1,705.31,1276.18Z" transform="translate(435.16 18.34)"/><path class="cls-12" d="M906.92,1310c-16.63,0-30.15-17.87-30.15-39.85s13.52-39.85,30.15-39.85,30.15,17.88,30.15,39.85S923.54,1310,906.92,1310Z" transform="translate(435.16 18.34)"/><path class="cls-21" d="M688.29,1270.13c0,12.42,7.62,22.49,17,22.49s17-10.07,17-22.49-7.62-22.49-17-22.49S688.29,1257.71,688.29,1270.13Z" transform="translate(435.16 18.34)"/><path class="cls-21" d="M880.56,1270.13c0,19.24,11.8,34.84,26.36,34.84s26.36-15.6,26.36-34.84-11.8-34.83-26.36-34.83S880.56,1250.89,880.56,1270.13Z" transform="translate(435.16 18.34)"/><path class="cls-14" d="M928.65,1384.28c-2.23,0-4.19-2.16-4.52-5.16-.37-3.31,1.35-6.38,3.85-6.87l50.34-9.83c2.5-.47,4.83,1.8,5.2,5.1s-1.36,6.38-3.86,6.87l-50.34,9.82A3.05,3.05,0,0,1,928.65,1384.28Z" transform="translate(435.16 18.34)"/><path class="cls-8" d="M741.61,945.83h44.63c3.31,0,6,3.55,6,7.93v9.47c0,4.38-2.68,7.93-6,7.93H729.89c-4.39,0-7.39-6.11-5.43-11.3C727.6,951.54,734.1,945.83,741.61,945.83Z" transform="translate(435.16 18.34)"/><path class="cls-22" d="M930.37,1279.21v70.3s-4.58,11-10.58,11a35,35,0,0,1-11.87-2.47l-5.86-93Z" transform="translate(435.16 18.34)"/><path class="cls-19" d="M929.77,1344c4.8-.76,9.4,1,22.89,6.44,14.84,6,23.34,2.69,24.29,7.47s-.52,5.08-.52,5.08l-67.14,19.35s-10-26-2.1-29.33C924.62,1345.61,929.77,1344,929.77,1344Z" transform="translate(435.16 18.34)"/><path class="cls-19" d="M831.68,873.05s98.5,99.24,111.46,180.38-9.86,253.49-9.86,253.49-12.46,8.06-37.91,4c0,0,.49-225.27-8.66-241.39S736.85,952.13,730,921.89s10.76-63.49,10.76-63.49Z" transform="translate(435.16 18.34)"/><path class="cls-23" d="M776.76,843.67a1.35,1.35,0,0,1-.44-.07,2.63,2.63,0,0,1-1.4-3c1-5.23,1.68-8.47,1.71-8.6.3-1.34,1.35-2.09,2.36-1.69a2.7,2.7,0,0,1,1.28,3.12s-.73,3.26-1.66,8.35A2.09,2.09,0,0,1,776.76,843.67Z" transform="translate(435.16 18.34)"/><path class="cls-18" d="M868,607.93s19.45,13.1,25.17,40.31,11.64,88.32,0,104.83c-18.32,26-39.23,82.7-52.07,131.5-2.91,11-109.06.83-107.85-9.44C735,860.66,785.78,701.37,804.46,651S868,607.93,868,607.93Z" transform="translate(435.16 18.34)"/><path class="cls-22" d="M904.75,580.78s-17.54,43.65-11.82,65.28c3.19,12.06,5.6,30.39,5.6,47.67,0,30.23-39.72-86.05-39.72-86.05l19.45-49Z" transform="translate(435.16 18.34)"/><path class="cls-19" d="M875,567c3.15,11.64,8.49,22.35,16.76,29.9a35.19,35.19,0,0,0,6,4.53c3.4-11.73,7-20.6,7-20.6l-26.49-22.06Z" transform="translate(435.16 18.34)"/><path class="cls-18" d="M1164.32,1277.69c-2,0-4-1.41-5-3.92l-154-370.47a30.58,30.58,0,0,1-2.25-11.6v-24c0-4.71-2.4-7-3.44-7.8a5.31,5.31,0,0,0-6.83.12l-26.82,21.27c-2.71,2.15-6.22,1-7.85-2.6s-.75-8.22,2-10.37L986.85,847c5.7-4.52,12.57-4.64,18.36-.3s9.24,12.16,9.24,20.95v24a11.35,11.35,0,0,0,.84,4.32l154,370.47c1.52,3.66.51,8.26-2.26,10.27A4.67,4.67,0,0,1,1164.32,1277.69Z" transform="translate(435.16 18.34)"/><path class="cls-12" d="M1147.3,1270.13c0,12.42,7.62,22.49,17,22.49s17-10.07,17-22.49-7.62-22.49-17-22.49S1147.3,1257.71,1147.3,1270.13Z" transform="translate(435.16 18.34)"/><path class="cls-22" d="M990.65,849.55c-7.15-9.45-28.8-13.37-37.38-9.59-4.64,2-88-20.19-89.65-23.82C859.7,807.4,865,728.88,868,685s-.27-49.52-8.27-60.76c-6.84-9.6-38.26-9.11-43.2,11.23-9.55,39.3-.76,209,4.25,216.13,18.62,26.54,134.56,20.79,136.7,20.79,2.86,0,8.14,8.65,11,8.65s10.9-2.26,17-8.56C987.06,870.86,997.8,859,990.65,849.55Z" transform="translate(435.16 18.34)"/><path class="cls-12" d="M839,512.51c-9.19-15.28-38.63-77.87-66.8-52.92s-8.63,66.95-55.68,35.67c-43.59-29-69.25,34-47.34,69.64A40.58,40.58,0,0,0,660,580.17c-7.38,21.4.51,47.1,17.62,57.42,2.72,1.63,4.08,4.88,6.88,5.57,7.34,18.2,21,32.55,41.47,39.16,55.86,18.06,45.21-59.54,62.86-76.2s18.74,12.26,41.36,8.34,31.32-20.71,29.38-82.72l-1.18-16.31S848.13,527.8,839,512.51Z" transform="translate(435.16 18.34)"/><path class="cls-22" d="M896.32,474.25s-13.09,2.73-21.73,17.57-12.08,69.12,13.31,92.3,43.13-14.54,44.72-43.78S930.93,471.66,896.32,474.25Z" transform="translate(435.16 18.34)"/><path class="cls-12" d="M859.9,529.15c-.72-27.83,3.42-47.91,19.38-54.56s29.77-13.7,40.75,6.89l2.71,2.84s-26,3.52-29.52,20.39S873.13,539.32,874.91,548c3.48,16.91-1.2,22.12-1.2,22.12l-2.28-2.92S860.61,557,859.9,529.15Z" transform="translate(435.16 18.34)"/><path class="cls-22" d="M886.83,524.41c1.13,7.89-1.36,15-5.55,15.93s-8.51-4.74-9.64-12.63,1.36-15,5.55-15.93S885.7,516.52,886.83,524.41Z" transform="translate(435.16 18.34)"/><ellipse class="cls-24" cx="1524.21" cy="392.22" rx="75.46" ry="99.72"/><polygon class="cls-24" points="1476.13 456.97 1449.06 535.23 1501.87 482.7 1476.13 456.97"/><path class="cls-25" d="M1054.55,430.61c0,4.43,15.45,8,34.5,8s34.5-3.59,34.5-8-15.45-8-34.5-8S1054.55,426.19,1054.55,430.61Z" transform="translate(435.16 18.34)"/><path class="cls-19" d="M1060.63,337.68c0,15.77,28.42,92.93,28.42,92.93s28.42-77.16,28.42-92.93a28.42,28.42,0,1,0-56.84,0Zm16.36,5c0-8.58,5.4-15.53,12.06-15.53s12.06,6.95,12.06,15.53-5.4,15.54-12.06,15.54S1077,351.23,1077,342.65Z" transform="translate(435.16 18.34)"/></g></g></svg>