<?xml version="1.0" encoding="utf-8"?>
<!-- Generator: Adobe Illustrator 26.0.1, SVG Export Plug-In . SVG Version: 6.00 Build 0)  -->
<svg version="1.1" id="Layer_1" xmlns="http://www.w3.org/2000/svg" xmlns:xlink="http://www.w3.org/1999/xlink" x="0px" y="0px"
	 viewBox="0 0 794.7 615.3" style="enable-background:new 0 0 794.7 615.3;" xml:space="preserve">
<style type="text/css">
	.st0{fill:#007CAA;}
	.st1{fill:#FF748C;}
	.st2{fill:#FFFFFF;}
	.st3{fill:#FFB6B6;}
	.st4{fill:#2F2E41;}
	.st5{fill:#3F3D56;}
	.st6{fill:#F9269C;}
	.st7{fill:#00B456;}
	.st8{fill:#CCCCCC;}
	.st9{fill:#FD6584;}
	.st10{fill:#007BF4;}
	.st11{fill:#00AFDF;}
</style>
<path class="st0" d="M572.3,232.6c-4.8-4.8-11.2-7.5-18-7.4v-14.8c0-14.2-11.5-25.8-25.8-25.8c0,0,0,0,0,0v-11.2h6.1
	c5.5,0,9.9-4.4,9.9-9.9c0-5.5-4.4-9.9-9.9-9.9l0,0h-6.1v-7.7h-3v7.7h-7.3c-5.5,0-9.9,4.4-9.9,9.9c0,5.5,4.4,9.9,9.9,9.9h7.3v11.2
	h-18.9c-7.6,0-13.7,6.1-13.7,13.7c0,0,0,0,0,0v26.9h-4.4c-28.4,0-51.4,23-51.4,51.4c0,0,0,0,0,0v36c-19,5.5-33.6,20.9-38.1,40.2
	h-22.5v-22.8h-13.7v-9.6h8.4c5.5,0,9.9-4.4,9.9-9.9c0-5.5-4.4-9.9-9.9-9.9h-8.4v-6.3h-3v6.3h-5.1c-5.5,0-9.9,4.4-9.9,9.9
	c0,5.5,4.4,9.9,9.9,9.9h5.1v9.6c-7.2,0.4-12.9,6.4-12.9,13.7v9.1c-27.3,1.5-48.6,24.1-48.6,51.4v210.5H437v0h142.7V250.6
	C579.7,243.8,577,237.3,572.3,232.6z"/>
<path class="st1" d="M285.2,225.1v-14.8c0-14.3-11.6-25.8-25.8-25.8l0,0l0,0V170h6c5.5,0,9.9-4.4,9.9-9.9s-4.4-9.9-9.9-9.9
	c0,0,0,0,0,0h-6v-4.4h-3v4.4h-7.5c-5.5,0-9.9,4.4-9.9,9.9c0,5.5,4.4,9.9,9.9,9.9c0,0,0,0,0,0h7.5v14.5h-18.9
	c-7.6,0-13.7,6.1-13.7,13.7c0,0,0,0,0,0v26.9h-4.4c-28.4,0-51.4,23-51.4,51.4v33.3c-17.6,7.6-29.9,23.8-32.5,42.8h-28.1v-22.8H93.6
	V317h5c5.5,0,9.9-4.4,9.9-9.9c0-5.5-4.4-9.9-9.9-9.9l0,0h-5v-3h-3v3H82c-5.5,0-9.9,4.4-9.9,9.9c0,5.5,4.4,9.9,9.9,9.9h8.5V330
	c-7.2,0.4-12.9,6.4-12.9,13.7v9.1C50.3,354.3,29,376.8,29,404.2v210.5h281.6V250.6C310.6,236.5,299.2,225.1,285.2,225.1
	C285.2,225.1,285.2,225.1,285.2,225.1z"/>
<rect x="98.1" y="428.6" class="st2" width="19" height="15.2"/>
<rect x="67" y="428.6" class="st2" width="19" height="15.2"/>
<rect x="98.1" y="467.4" class="st2" width="19" height="15.2"/>
<rect x="67" y="467.4" class="st2" width="19" height="15.2"/>
<rect x="98.1" y="506.1" class="st2" width="19" height="15.2"/>
<rect x="67" y="506.1" class="st2" width="19" height="15.2"/>
<rect x="67" y="544.8" class="st2" width="19" height="15.2"/>
<rect x="67" y="583.6" class="st2" width="19" height="15.2"/>
<rect x="208.5" y="396.4" class="st2" width="61.5" height="4.6"/>
<rect x="208.5" y="424.5" class="st2" width="61.5" height="4.6"/>
<rect x="208.5" y="452.6" class="st2" width="61.5" height="4.6"/>
<rect x="244.9" y="192.9" class="st2" width="19" height="15.2"/>
<rect x="367.2" y="467.4" class="st2" width="19" height="15.2"/>
<rect x="336.1" y="467.4" class="st2" width="19" height="15.2"/>
<rect x="367.2" y="506.1" class="st2" width="19" height="15.2"/>
<rect x="336.1" y="506.1" class="st2" width="19" height="15.2"/>
<rect x="367.2" y="544.8" class="st2" width="19" height="15.2"/>
<rect x="336.1" y="544.8" class="st2" width="19" height="15.2"/>
<rect x="367.2" y="583.6" class="st2" width="19" height="15.2"/>
<rect x="336.1" y="583.6" class="st2" width="19" height="15.2"/>
<rect x="514" y="192.9" class="st2" width="19" height="15.2"/>
<rect x="532.9" y="257.6" class="st2" width="46.8" height="9.9"/>
<rect x="532.9" y="287.3" class="st2" width="46.8" height="9.9"/>
<rect x="532.9" y="317" class="st2" width="46.8" height="9.9"/>
<rect x="532.9" y="346.8" class="st2" width="46.8" height="9.9"/>
<rect x="532.9" y="376.5" class="st2" width="46.8" height="9.9"/>
<rect x="532.9" y="406.2" class="st2" width="46.8" height="9.9"/>
<polygon class="st3" points="309.2,462.6 320,471.6 360.5,433.5 344.7,420.2 "/>
<path class="st4" d="M341,459.5l-22.8-15.7l59.9-95c-43.4-25.2-73.3-56-97.6-89.8c-8.3-11.4-13.3-24.7-1.8-33.3
	c0.5-0.4,1.1-0.8,1.7-1.1c13.2-8.2,8.9,4.1,27-1.9l16.3,17.4l35.2,34.3l60.1,38.4c12.1,7.7,15.4,24,7.5,36.3
	c-0.4,0.6-0.9,1.3-1.3,1.9L341,459.5z"/>
<path class="st4" d="M310.6,455.3l18.8,13.9l-6.4,7.7l7.2,26.1c0.9,3.3-1,6.8-4.4,7.7c-2,0.5-4.1,0.1-5.7-1.2l-21.4-17.9l2.7-10.7
	l-7.8,6.4l-8.1-6.7L310.6,455.3z"/>
<rect x="166.2" y="380.8" transform="matrix(0.9416 -0.3367 0.3367 0.9416 -116.6092 99.268)" class="st5" width="123.4" height="10"/>
<path class="st5" d="M311.5,521.1l-30.3-26.1c-4.4-3.8-4.9-10.4-1.1-14.8c3.8-4.4,10.4-4.9,14.8-1.1l30.3,26.1
	c4.4,3.8,4.9,10.4,1.1,14.8S315.9,524.9,311.5,521.1C311.5,521.1,311.5,521.1,311.5,521.1L311.5,521.1z"/>
<path class="st3" d="M483.5,219.1c-7.2,2.5-15.1-1.3-17.6-8.6c-0.3-0.8-0.5-1.6-0.6-2.4l-108.2-27.8l17.6-18.5l103,30.2
	c7.7-0.7,14.4,5,15.1,12.6C493.5,211,489.6,217,483.5,219.1L483.5,219.1z"/>
<path class="st6" d="M319.2,89.8c0,0-17.6,2-17.3,22.3c0.3,20.3,43.4,66.4,50.2,74.1s73.8,11.6,73.8,11.6l21-18.4l-62.2-20.9
	L319.2,89.8z"/>
<path class="st3" d="M283.5,184.9l-4,18.6c0,0-7.2,15.5-5.8,19.6c1.4,4.1,63.9,26.5,63.9,26.5s5.4-27.9,14.3-46.7L283.5,184.9z"/>
<path class="st5" d="M483.8,475.9l-36.1,17.2c-5.2,2.5-11.5,0.3-14-4.9c-2.5-5.2-0.3-11.5,4.9-14l36.1-17.2c5.2-2.5,11.5-0.3,14,4.9
	C491.2,467.2,489,473.4,483.8,475.9L483.8,475.9z"/>
<path class="st5" d="M620.7,613.6c-62.9,0-114-51-114-114c0-62.9,51-114,114-114c62.9,0,114,51,114,114c0,0,0,0,0,0
	C734.6,562.5,683.6,613.5,620.7,613.6z M620.7,396.2c-57.1,0-103.4,46.3-103.4,103.4S563.6,603,620.7,603s103.4-46.3,103.4-103.4
	C724.1,442.5,677.8,396.2,620.7,396.2z"/>
<circle class="st5" cx="625.7" cy="507.6" r="16"/>
<path class="st5" d="M152.2,615.1c-59.6,0-108-48.4-108-108s48.4-108,108-108s108,48.4,108,108l0,0
	C260.2,566.7,211.9,615.1,152.2,615.1z M152.2,409.1c-54.1,0-98,43.9-98,98s43.9,98,98,98s98-43.9,98-98
	C250.2,453,206.3,409.2,152.2,409.1z"/>
<circle class="st5" cx="152.2" cy="507.1" r="16"/>
<circle class="st5" cx="369.2" cy="505.1" r="18.6"/>
<polygon class="st5" points="156.4,506 149.1,499.1 279.3,360.2 511.7,290.7 627.1,493.1 618.4,498 507,302.5 284.7,369 "/>
<rect x="255.2" y="499.7" class="st5" width="98.3" height="10"/>
<rect x="277" y="312.3" class="st5" width="10" height="52.3"/>
<rect x="488" y="193" transform="matrix(0.9516 -0.3073 0.3073 0.9516 -51.7641 163.4161)" class="st5" width="10" height="106.2"/>
<rect x="317.7" y="349.4" transform="matrix(0.8629 -0.5054 0.5054 0.8629 -173.3608 222.136)" class="st5" width="10" height="162.2"/>
<rect x="364.2" y="437.6" transform="matrix(0.8262 -0.5634 0.5634 0.8262 -167.5242 342.1158)" class="st5" width="213" height="10"/>
<path class="st6" d="M301.2,318.6h-40c-5.8,0-10.5-4.7-10.5-10.5s4.7-10.5,10.5-10.5h40c5.8,0,10.5,4.7,10.5,10.5
	S307,318.6,301.2,318.6z"/>
<path class="st6" d="M496.2,205.6h-40c-5.8,0-10.5-4.7-10.5-10.5s4.7-10.5,10.5-10.5h40c5.8,0,10.5,4.7,10.5,10.5
	S502,205.6,496.2,205.6z"/>
<path class="st7" d="M754.2,551.4l1.1-25.7c11.9-6.4,25.2-9.7,38.7-9.8c-18.6,15.2-16.3,44.5-28.9,65c-8.1,12.9-21.6,21.4-36.6,23.1
	l-15.6,9.5c-4.3-24.1,2.1-48.9,17.6-67.8c4.4-5.2,9.3-9.8,14.9-13.8C749.2,541.7,754.2,551.4,754.2,551.4z"/>
<path class="st8" d="M794.7,614.1c0,0.7-0.5,1.2-1.2,1.2c0,0,0,0,0,0H1.2c-0.7,0-1.2-0.5-1.2-1.2s0.5-1.2,1.2-1.2h792.3
	C794.1,612.9,794.7,613.5,794.7,614.1C794.7,614.1,794.7,614.1,794.7,614.1z"/>
<ellipse transform="matrix(0.9859 -0.1676 0.1676 0.9859 -2.8138 58.1112)" class="st3" cx="342.9" cy="45.7" rx="29.6" ry="29.6"/>
<circle class="st9" cx="664.9" cy="157.8" r="26.7"/>
<path class="st10" d="M724.6,145.2c-1.5-5-5.9-8.7-11.2-9.3c-0.1,0-0.1,0-0.2,0c-0.1,0-0.2,0-0.2-0.1c-12.2-1.6-26.3,4.3-31.4,15.8
	c-2.5-3.4-6.6-5.4-10.8-5.3c-5.5,0.4-10.3,4.2-11.8,9.5c-0.2,0.7,0.1,1.3,0.7,1.7c0.8,0.7,1.8,1.2,2.8,1.4c2.2,0.5,4.4,0.9,6.7,1.3
	c4.4,0.8,8.7,1.4,13.1,1.8c8.9,1,17.9,1.3,26.9,1c3-0.1,5.9-0.2,8.6-1.5c2-1,3.7-2.5,4.9-4.3C725.2,153.7,725.8,149.3,724.6,145.2z"
	/>
<path class="st11" d="M669.1,180.8c-1.5-5-5.9-8.7-11.2-9.3c-0.1,0-0.1,0-0.2,0c-0.1,0-0.2,0-0.2-0.1c-12.2-1.6-26.3,4.3-31.4,15.8
	c-2.5-3.4-6.6-5.4-10.8-5.3c-5.5,0.4-10.3,4.2-11.8,9.5c-0.2,0.7,0.1,1.3,0.7,1.7c0.8,0.7,1.8,1.2,2.8,1.4c2.2,0.5,4.4,0.9,6.7,1.3
	c4.4,0.8,8.7,1.4,13.1,1.8c8.9,1,17.9,1.3,26.9,1c3-0.1,5.9-0.2,8.6-1.5c2-1,3.7-2.5,4.9-4.3C669.7,189.3,670.3,184.9,669.1,180.8z"
	/>
<path class="st5" d="M525.9,328.6l-33.4-70.5l0.5-0.2c9.7-4.6,21.4-0.5,26,9.3c0,0,0,0,0,0l16.7,35.2c4.6,9.7,0.5,21.4-9.3,26
	c0,0,0,0,0,0L525.9,328.6z"/>
<path class="st5" d="M423.8,341c-8.6,0-16.2-5.7-18.7-14l-0.1-0.5l74.8-22.1l0.1,0.5c3,10.3-2.9,21.2-13.2,24.2c0,0,0,0,0,0
	l-37.4,11C427.5,340.7,425.7,341,423.8,341z"/>
<polygon class="st3" points="433.4,462.5 447,459.1 440.7,403.8 420.6,408.8 "/>
<path class="st4" d="M427,446.6l21.2-9.9l3.7,9.3l26.3,6.1c3.4,0.8,5.5,4.1,4.7,7.5c-0.5,2-1.9,3.7-3.8,4.4l-25.9,10.2l-8.1-7.5
	l1.9,9.9l-9.8,3.9L427,446.6z"/>
<path class="st4" d="M447.8,412.6l-29,17.4l-31-109.3c-50.2-0.4-96.7-6.1-134.6-23.4c-12.8-5.8-18.6-21.2-12.8-34.4
	c0.3-0.6,0.6-1.2,0.9-1.8c7.4-13.7,21.7-21.7,34.4-35.9l63,23.3l-4.5,17l71.2,3.6c14.3,0.7,25.3,13.2,24.5,27.8
	c0,0.8-0.1,1.5-0.2,2.3L447.8,412.6z"/>
<path class="st6" d="M324.6,74.6L344,84.7c2.2,0.9,3.6,3,3.5,5.4l5,20.2l17.7,37.5c0,0,4.6,20-4.2,38.8s-28.3,65.9-28.3,65.9
	c-12.7,30.5-117.2,6.9-90-19c3.2-3.1,21.5-29.2,28.1-30.7l16.4-93.6c1.7-10,7.7-18.7,16.5-23.8c2.6-1.5,5-2.4,6.7-1.9
	C319.2,84.5,321,75.9,324.6,74.6z"/>
<path class="st3" d="M492.7,198.6c-6.6,3.8-15.1,1.4-18.9-5.2c-0.4-0.7-0.7-1.5-1-2.2l-111.4-7.5l13.9-21.4L482.2,173
	c7.4-2.1,15.1,2.2,17.2,9.6C501.1,188.8,498.3,195.4,492.7,198.6z"/>
<path class="st6" d="M307.5,101.6c0,0-16.9,5.2-12.9,25.1c4,19.9,54.9,57.3,62.9,63.6s74.7-2.2,74.7-2.2l17.2-22l-65-9.2
	L307.5,101.6z"/>
<path class="st4" d="M374.4,35.9c-4.5,2.2-9.5-1-13.4-4.2l1.4,1.2c-6.8,6.7-9.9,16.3-11.3,25.8c-1.5,9.4-1.5,19.1-3.4,28.5
	c-1.9,9.4-5.9,18.8-13.5,24.6c-10.2,7.8-24.3,7.4-36.9,5.2c-0.2,0-0.3-0.1-0.5-0.1c3.3-9.8,4.5-20.2,3.7-30.5
	c-3.3,10.4-8.9,19.8-16.5,27.6c-8.4-2.2-16.5-5.1-24.4-8.6c-5.1-2.3-10.6-5.4-12.1-10.8c-1.5-5.4,1.8-11,6.1-14.5
	c4.4-3.4,9.7-5.3,14.7-7.7c5-2.5,9.9-5.9,11.8-11.1c4.5-12-8.8-25.5-3.8-37.3c2.5-5.8,8.6-9,14.4-11.5c8.8-3.8,17.9-6.9,27.2-9.5
	c8.1-2.2,16.6-4,24.9-2.7c8.3,1.3,16.5,6.3,19.6,14.1c5,1.6,10.3,3.5,13.6,7.6C379.3,26.4,379.1,33.6,374.4,35.9z"/>
<rect x="67.7" y="544.1" class="st5" width="168.7" height="2"/>
<rect x="67.7" y="564.1" class="st5" width="168.7" height="2"/>
<rect x="541.7" y="544.1" class="st5" width="168.7" height="2"/>
<rect x="541.7" y="564.1" class="st5" width="168.7" height="2"/>
<ellipse transform="matrix(0.938 -0.3467 0.3467 0.938 -66.7761 200.9914)" class="st6" cx="528.3" cy="287.1" rx="11.5" ry="17.5"/>
</svg>
