<svg xmlns="http://www.w3.org/2000/svg" xmlns:xlink="http://www.w3.org/1999/xlink" viewBox="0 0 1297.4 988.85"><defs><style>.cls-1{isolation:isolate;}.cls-2{fill:url(#Untitled_Gradient);}.cls-3{fill:#c1e6f7;}.cls-19,.cls-20,.cls-4,.cls-6{opacity:0.61;}.cls-4{fill:url(#linear-gradient);}.cls-5{fill:#f9d4d9;opacity:0.22;}.cls-6{fill:url(#linear-gradient-2);}.cls-7{fill:#f7c9cf;}.cls-8{fill:url(#linear-gradient-3);}.cls-9{fill:url(#linear-gradient-4);}.cls-10{fill:url(#linear-gradient-5);}.cls-11{fill:url(#linear-gradient-6);}.cls-12,.cls-14{opacity:0.44;}.cls-12,.cls-14,.cls-15,.cls-17{mix-blend-mode:screen;}.cls-13,.cls-14{fill:#cce7fe;}.cls-15{fill:#59c5f4;opacity:0.36;}.cls-16{fill:#fff;}.cls-18{fill:url(#linear-gradient-7);}.cls-19{fill:url(#linear-gradient-8);}.cls-20{fill:url(#linear-gradient-9);}.cls-21{fill:#007d28;}.cls-22{fill:#00a334;}.cls-23{fill:#ff8a63;}.cls-24{fill:#00154d;}.cls-25{fill:#001e6e;}.cls-26{fill:#ffa97a;}.cls-27,.cls-46{fill:#ff4900;}.cls-27{opacity:0.37;}.cls-27,.cls-33,.cls-41,.cls-43,.cls-45,.cls-46,.cls-58,.cls-60,.cls-66{mix-blend-mode:multiply;}.cls-28{fill:#322783;}.cls-29{fill:#d0f0fd;}.cls-30{fill:#fcb500;}.cls-31{fill:#bf2604;}.cls-32{fill:#ed694e;}.cls-33{fill:#e8725a;}.cls-34{fill:#eccc47;}.cls-35{fill:#261d62;}.cls-36{fill:#fcc332;}.cls-37{fill:#bfd1ff;}.cls-38,.cls-58{fill:#802500;}.cls-39,.cls-41{fill:#ff7d63;}.cls-40{fill:#f7604b;}.cls-42{fill:#0037d3;}.cls-43{fill:#ffb9ab;}.cls-44{fill:#1a73ed;}.cls-45{fill:#7ec2fe;}.cls-46{opacity:0.68;}.cls-47{fill:#100062;}.cls-48{fill:#ffd357;}.cls-49{fill:red;}.cls-50{fill:#ff7446;}.cls-51{fill:#ffba94;}.cls-52{fill:#09434c;}.cls-53{fill:#2d255d;}.cls-54{fill:#0001e4;}.cls-55{fill:#007273;opacity:0.32;}.cls-56{fill:#f75f4b;}.cls-57{opacity:0.57;}.cls-59{fill:#4335ad;}.cls-60{fill:#1b1547;}.cls-61{fill:#ff826a;}.cls-62{fill:#0b0080;}.cls-63{fill:#30b7f1;}.cls-64{fill:#5bcff7;}.cls-65{fill:#e0c13a;}.cls-66{fill:#e68c80;}</style><linearGradient id="Untitled_Gradient" x1="633.88" y1="-240.57" x2="653.22" y2="718.52" gradientUnits="userSpaceOnUse"><stop offset="0" stop-color="#bce3f1"/><stop offset="1" stop-color="#d0f7ff"/></linearGradient><linearGradient id="linear-gradient" x1="82.3" y1="410.97" x2="379.86" y2="834.81" gradientUnits="userSpaceOnUse"><stop offset="0" stop-color="#a3bdd1"/><stop offset="1" stop-color="#689add"/></linearGradient><linearGradient id="linear-gradient-2" x1="1078.81" y1="632.94" x2="1228.98" y2="846.84" xlink:href="#linear-gradient"/><linearGradient id="linear-gradient-3" x1="90.29" y1="415.61" x2="89" y2="514.75" xlink:href="#linear-gradient"/><linearGradient id="linear-gradient-4" x1="64.96" y1="400.13" x2="63.33" y2="525.54" xlink:href="#linear-gradient"/><linearGradient id="linear-gradient-5" x1="147.45" y1="521.14" x2="440.49" y2="692.42" gradientUnits="userSpaceOnUse"><stop offset="0" stop-color="#82aed1"/><stop offset="1" stop-color="#689add"/></linearGradient><linearGradient id="linear-gradient-6" x1="572.04" y1="956.19" x2="674.96" y2="564.63" gradientUnits="userSpaceOnUse"><stop offset="0" stop-color="#1e88b5"/><stop offset="1" stop-color="#3adefb"/></linearGradient><linearGradient id="linear-gradient-7" x1="344.2" y1="470.79" x2="342.91" y2="569.92" xlink:href="#linear-gradient"/><linearGradient id="linear-gradient-8" x1="25.69" y1="235.86" x2="24.4" y2="334.99" xlink:href="#linear-gradient"/><linearGradient id="linear-gradient-9" x1="41.36" y1="236.16" x2="40.07" y2="335.29" xlink:href="#linear-gradient"/></defs><g class="cls-1"><g id="Layer_1" data-name="Layer 1"><rect class="cls-2" width="1297.4" height="988.82"/><path class="cls-3" d="M872.22,443.29c-500.15,47.55-327.31-143.36-607.6-270.17C64,82.34,2.17,197.49,0,208.56V988.82H1297.33V531.88C1278,321.8,1003.81,430.77,872.22,443.29Z" transform="translate(0)"/><path class="cls-4" d="M693.18,591.2c-141.35,0-278-76-362.79-161.39C260.27,359.16,92,251.1,0,318.59V988.82H696.82V591.2Z" transform="translate(0)"/><path class="cls-5" d="M953.15,568.5q0,14.22.11,28.45L693.18,591.2c-141.35,0-278-76-362.79-161.39l-1.61-1.62c36.75,1.69,75.83,3,111.48,17.47,34.7,14.1,62.86,50.65,96.88,68.23,84.84,43.87,179.78-20.95,267.94,5.42,50,14.94,97.54,59,148.06,48.67C953.14,568.16,953.14,568.33,953.15,568.5Z" transform="translate(0)"/><path class="cls-6" d="M1238.79,533.32c1.27-2.74,2.12-7.71,2.12-13.38a32.82,32.82,0,0,0-4.39-15.64,31.63,31.63,0,0,0-4.37,17.11,44.49,44.49,0,0,0,1.34,9.93q-3.85-1.43-7.7-2.75v-5.23c2-1.36,3.57-7.73,3.57-15.37a32.82,32.82,0,0,0-4.39-15.64,31.63,31.63,0,0,0-4.37,17.11c.12,4.44,1.11,13.28,4,14.12v4.6a340.18,340.18,0,0,0-43.68-11.95c-64.21-12.78-121.88,54.21-121.88,141.79v330.8H1297.4V560.26A524.68,524.68,0,0,0,1238.79,533.32Z" transform="translate(0)"/><rect class="cls-7" y="738.95" width="1297.4" height="249.88"/><path class="cls-8" d="M97.05,444.33a50.47,50.47,0,0,0-3.51-17.86h0a51.16,51.16,0,0,0-3.64-7.63h0a51.63,51.63,0,0,0-7.12,27.88c.19,7.24,1.82,21.64,6.53,23v10.74h1.92V469.37C94.54,467.15,97.05,456.78,97.05,444.33Z" transform="translate(0)"/><path class="cls-9" d="M73.51,436.45a63.81,63.81,0,0,0-4.44-22.58h0a63.4,63.4,0,0,0-4.6-9.65h0a65.23,65.23,0,0,0-9,35.26c.23,9.16,2.29,27.37,8.26,29.1v13.59h2.42v-14C70.34,465.33,73.51,452.21,73.51,436.45Z" transform="translate(0)"/><path class="cls-10" d="M696.82,591.2h-3.64c-46.71,0-92.91-8.29-136.9-22.49a548.4,548.4,0,0,0-104.74-22.86c-29.43-3.44-58.49-7.51-85.22-12.32v-8c3.31-3.08,5.82-17.44,5.82-34.7a94.16,94.16,0,0,0-3.51-24.73A84.29,84.29,0,0,0,365,455.53c-.29,1.2-7.56,15.51-7.12,38.62.19,10,1.82,30,6.53,31.87v7.16c-45.43-8.27-83.95-18.69-105.85-31.79-30-17.92-73.46-24.34-117.65-25.06V474c1.66-1.54,2.91-8.72,2.91-17.35a47.06,47.06,0,0,0-1.75-12.36,42,42,0,0,0-1.82-5.29,46.18,46.18,0,0,0-3.56,19.31c.1,5,.91,15,3.27,15.94v2.05c-2.75,0-5.49-.05-8.23-.05V463.79c2.82-2.62,4.95-14.84,4.95-29.53a79.6,79.6,0,0,0-3-21,70.71,70.71,0,0,0-3.09-9c-.25,1-6.44,13.2-6.06,32.87.16,8.53,1.54,25.51,5.56,27.12v12.05q-7.12,0-14.21.23v-7.87c2.82-2.62,5-14.85,5-29.53a80.07,80.07,0,0,0-3-21,72.36,72.36,0,0,0-3.1-9c-.25,1-6.43,13.21-6.06,32.87.16,8.54,1.55,25.51,5.56,27.12v7.51c-44.45,1.36-87,7.37-114.25,12V686l696.82-22.22Z" transform="translate(0)"/><path class="cls-11" d="M0,752.59c6.38,13.63,91.16,6.71,214.26,10.08C278,764.41,351.79,794,430.75,793.83c69.72-.16,143-29.93,216.57-31.17s147.48,26,217.25,24.11c78.8-2.18,152.08-33.62,215.94-36.13,120.68-4.75,205.47,18.14,216.89,15.12V563.34H0Z" transform="translate(0)"/><g class="cls-12"><path class="cls-13" d="M1178.87,594.71a2.54,2.54,0,0,0-2.19,4.35,15.64,15.64,0,0,0,21.1,0,2.54,2.54,0,0,0-2.19-4.35A60.8,60.8,0,0,1,1178.87,594.71Z" transform="translate(0)"/><path class="cls-13" d="M1229.25,593.14a4.06,4.06,0,0,0-3.5,7,25,25,0,0,0,33.76,0,4.06,4.06,0,0,0-3.5-7A98.29,98.29,0,0,1,1229.25,593.14Z" transform="translate(0)"/><path class="cls-13" d="M577.87,594.81a3.85,3.85,0,0,0-3.32,6.59,23.71,23.71,0,0,0,32,0,3.85,3.85,0,0,0-3.32-6.59A93.64,93.64,0,0,1,577.87,594.81Z" transform="translate(0)"/><path class="cls-13" d="M495.51,577.79a2.89,2.89,0,0,0-2.5,5,17.81,17.81,0,0,0,24,0,2.89,2.89,0,0,0-2.49-5A70.65,70.65,0,0,1,495.51,577.79Z" transform="translate(0)"/><path class="cls-13" d="M527.1,605.48a2.18,2.18,0,0,0-1.88,3.73,13.43,13.43,0,0,0,18.14,0,2.18,2.18,0,0,0-1.88-3.73A53.27,53.27,0,0,1,527.1,605.48Z" transform="translate(0)"/><path class="cls-13" d="M457.2,616.49a1.61,1.61,0,0,0-1.38,2.75,9.89,9.89,0,0,0,13.34,0,1.61,1.61,0,0,0-1.39-2.75A39,39,0,0,1,457.2,616.49Z" transform="translate(0)"/><path class="cls-13" d="M528.94,575.08c-1.54-.15-2.46,1.11-1.34,1.83a12.9,12.9,0,0,0,12.89,0c1.13-.72.21-2-1.33-1.83A54.52,54.52,0,0,1,528.94,575.08Z" transform="translate(0)"/><path class="cls-13" d="M547.09,580.81c-1.54-.15-2.46,1.11-1.33,1.83a12.9,12.9,0,0,0,12.89,0c1.12-.72.2-2-1.34-1.83A54.52,54.52,0,0,1,547.09,580.81Z" transform="translate(0)"/><path class="cls-13" d="M547.09,575.08c-1.54-.15-2.46,1.11-1.33,1.83a12.9,12.9,0,0,0,12.89,0c1.12-.72.2-2-1.34-1.83A54.52,54.52,0,0,1,547.09,575.08Z" transform="translate(0)"/><path class="cls-13" d="M564.14,576.86c-1.54-.15-2.46,1.11-1.33,1.83a12.9,12.9,0,0,0,12.89,0c1.12-.72.2-2-1.34-1.83A54.52,54.52,0,0,1,564.14,576.86Z" transform="translate(0)"/><path class="cls-13" d="M582.54,573.3c-1.54-.15-2.46,1.11-1.34,1.83a13,13,0,0,0,12.9,0c1.12-.72.2-2-1.34-1.83A54.52,54.52,0,0,1,582.54,573.3Z" transform="translate(0)"/></g><path class="cls-14" d="M1190.23,578.08a2.54,2.54,0,0,0-2.18,4.35,15.61,15.61,0,0,0,21.09,0,2.54,2.54,0,0,0-2.19-4.35A60.8,60.8,0,0,1,1190.23,578.08Z" transform="translate(0)"/><path class="cls-14" d="M1145.31,593.18a3,3,0,0,0-2.58,5.13,18.44,18.44,0,0,0,24.91,0,3,3,0,0,0-2.58-5.13A72.57,72.57,0,0,1,1145.31,593.18Z" transform="translate(0)"/><path class="cls-14" d="M768.42,619a1.62,1.62,0,0,0-1.39,2.77,9.94,9.94,0,0,0,13.42,0,1.62,1.62,0,0,0-1.4-2.77A38.62,38.62,0,0,1,768.42,619Z" transform="translate(0)"/><path class="cls-14" d="M794.92,607.76a2.06,2.06,0,0,0-1.77,3.53,12.68,12.68,0,0,0,17.13,0,2.07,2.07,0,0,0-1.78-3.53A49.81,49.81,0,0,1,794.92,607.76Z" transform="translate(0)"/><path class="cls-14" d="M821.54,586.65a2.06,2.06,0,0,0-1.78,3.53,12.69,12.69,0,0,0,17.13,0,2.06,2.06,0,0,0-1.77-3.53A49.81,49.81,0,0,1,821.54,586.65Z" transform="translate(0)"/><path class="cls-14" d="M778,590.09a2.23,2.23,0,0,0-1.92,3.81,13.7,13.7,0,0,0,18.51,0,2.23,2.23,0,0,0-1.92-3.81A53.79,53.79,0,0,1,778,590.09Z" transform="translate(0)"/><path class="cls-14" d="M286.23,593.18a2.72,2.72,0,0,0-2.34,4.66,16.74,16.74,0,0,0,22.62,0,2.72,2.72,0,0,0-2.34-4.66A65.72,65.72,0,0,1,286.23,593.18Z" transform="translate(0)"/><path class="cls-14" d="M126,590a2.49,2.49,0,0,0-2.14,4.26,15.31,15.31,0,0,0,20.68,0,2.49,2.49,0,0,0-2.15-4.26A60,60,0,0,1,126,590Z" transform="translate(0)"/><path class="cls-14" d="M152.35,582.21a2.57,2.57,0,0,0-2.21,4.4,15.84,15.84,0,0,0,21.37,0,2.57,2.57,0,0,0-2.22-4.4A62.4,62.4,0,0,1,152.35,582.21Z" transform="translate(0)"/><path class="cls-14" d="M277.24,629.68a2.07,2.07,0,0,0-1.79,3.54,12.74,12.74,0,0,0,17.21,0,2.07,2.07,0,0,0-1.79-3.54A50.17,50.17,0,0,1,277.24,629.68Z" transform="translate(0)"/><path class="cls-14" d="M111.1,578.74a2.07,2.07,0,0,0-1.78,3.55,12.75,12.75,0,0,0,17.21,0,2.08,2.08,0,0,0-1.79-3.55A49.46,49.46,0,0,1,111.1,578.74Z" transform="translate(0)"/><path class="cls-14" d="M86.43,592.23a2.49,2.49,0,0,0-2.15,4.26,15.31,15.31,0,0,0,20.68,0,2.49,2.49,0,0,0-2.14-4.26A60,60,0,0,1,86.43,592.23Z" transform="translate(0)"/><path class="cls-14" d="M71.51,581a2.07,2.07,0,0,0-1.79,3.54,12.74,12.74,0,0,0,17.21,0A2.07,2.07,0,0,0,85.15,581,50.25,50.25,0,0,1,71.51,581Z" transform="translate(0)"/><path class="cls-14" d="M41.49,585.08a2,2,0,0,0-1.76,3.49,12.56,12.56,0,0,0,17,0,2,2,0,0,0-1.76-3.49A49.51,49.51,0,0,1,41.49,585.08Z" transform="translate(0)"/><path class="cls-14" d="M29.27,575.9a1.69,1.69,0,0,0-1.46,2.9,10.45,10.45,0,0,0,14.1,0,1.7,1.7,0,0,0-1.47-2.9A41,41,0,0,1,29.27,575.9Z" transform="translate(0)"/><path class="cls-14" d="M304,579.53a2.07,2.07,0,0,0-1.78,3.54,12.73,12.73,0,0,0,17.2,0,2.07,2.07,0,0,0-1.78-3.54A50.25,50.25,0,0,1,304,579.53Z" transform="translate(0)"/><path class="cls-14" d="M255,587.48a2.64,2.64,0,0,0-2.27,4.52,16.25,16.25,0,0,0,22,0,2.64,2.64,0,0,0-2.28-4.52A63.37,63.37,0,0,1,255,587.48Z" transform="translate(0)"/><path class="cls-15" d="M740.87,701.07C520.76,752.59,194.55,731.68,0,711.49V754c15,10.68,98.58,5.51,214.26,8.68C278,764.41,351.79,794,430.75,793.83c69.72-.16,143-29.93,216.57-31.17s147.48,26,217.25,24.11c78.8-2.18,152.08-33.62,215.94-36.13,120.68-4.75,205.47,18.14,216.89,15.12V676.47C1147.32,662.82,931.44,656.46,740.87,701.07Z" transform="translate(0)"/><path class="cls-16" d="M1297.4,764.66c-11.74-1.84-56.63-24.67-129.41-18a192.32,192.32,0,0,1-24.45,1.07c-16-.14-27.34-4-40.7-5.32-20.1-1.78-46.23,2.46-64.85,12.37l.15,1.82c12.9,2,51.28,2.47,60.75,1.55,20-1.57,33.36-9.45,68.82-1.45,33.68,7.25,87.71,16.47,121.45,12.06a29.28,29.28,0,0,0,8.24-2Z" transform="translate(0)"/><g class="cls-17"><path class="cls-16" d="M864.56,785.85c8.47-4.66,23.42-8.38,32.31-9.73,9.41-1.29,10-1.21,21.82,0,21.06,2.42,30.29-7,53.59-14.7,15-5,24.39-7.9,43.4-8.53a87.72,87.72,0,0,1,22.31,1.9l.15,1.82c-10.8,7.11-29.49,14.51-42.29,18-9.3,2.56-28.11,4.93-32.68,5.12-7.47.44-13.76-.39-22.11.42-20.42,2-25.83,11.22-43.28,12.27-10.93.62-22.8,0-33.2-4.74Z" transform="translate(0)"/></g><path class="cls-16" d="M864.56,785.85c-4.54-.81-9.07-1.43-13.58-2.1-78.29-13.72-93.13-21.37-148.61-26.29-51.59-3.85-58,1.76-109.48,7.5-38,5-38.66,1.2-94.93,13.78-18.76,4.29-35.15,7.69-47.13,10.11a89.41,89.41,0,0,1-38-.56c-28.05-6.48-77-15.76-104.33-17.41-45.72-3.16-39.44-4.92-69.68-13.51-.64-.14-4.48-1.09-8.27-1.68-15.16-2.59-45.59,0-62.07,5.2v1.84c16.55,5.82,45.75,8.68,61.41,9,20.06.78,33.14-5,69.37,8.67,40.64,14.85,87.16,25.7,128.86,15.09a13.32,13.32,0,0,1,5.33-.26c25.87,4,53.86,1.59,79.45-3.21,37.48-6.84,53.58-16,80.45-21.14,35.95-6.4,55.08-2.74,67.66-1.82,82.61,10.87,141.28,29.91,203.59,18.67Z" transform="translate(0)"/><path class="cls-16" d="M94.32,754.21c-9.22,1.58-19.28,5.61-31.76,4.31-14.44-1.3-14-7.22-42-6-10.72.4-18,1.55-20.57-.17v2.52c4.48,9,23.46,13.12,30.53,13.84,17.72,2.06,22-6.11,42.6-4,8,.79,34.68,9.48,63.55,5.88,9.6-1.1,22.54-3.7,31.78-7.79v-1.84c-12-5.57-29.91-8.62-42.37-9.11C117,751.39,98.75,753.4,94.32,754.21Z" transform="translate(0)"/><path class="cls-16" d="M648.74,228.07a27.32,27.32,0,0,1,13.81-3.94c4.68-10.29,15.61-17.17,28-17.17a32,32,0,0,1,20,6.93c6.07-12.8,20-21.74,35.78-21.74a40.65,40.65,0,0,1,27.5,10.47,22.15,22.15,0,0,1,3.15-.23c11.3,0,20.49,8.48,20.49,18.91a17.43,17.43,0,0,1-1.37,6.77Z" transform="translate(0)"/><path class="cls-16" d="M802.38,125.36a47.73,47.73,0,0,1,24.17-6.89c8.21-18,27.35-30.07,49.1-30.07a56,56,0,0,1,35,12.13c10.62-22.4,35-38.06,62.66-38.06a71.15,71.15,0,0,1,48.15,18.33,37.77,37.77,0,0,1,5.52-.41c19.78,0,35.87,14.86,35.87,33.11a30.64,30.64,0,0,1-2.39,11.86Z" transform="translate(0)"/><path class="cls-18" d="M351,499.5a50.45,50.45,0,0,0-3.51-17.85h0a48.46,48.46,0,0,0-3.64-7.63h0a51.51,51.51,0,0,0-7.11,27.87c.18,7.24,1.81,21.64,6.53,23v10.73h1.91V524.54C348.46,522.32,351,512,351,499.5Z" transform="translate(0)"/><path class="cls-16" d="M47.89,107.9A27.42,27.42,0,0,1,61.72,104c4.7-10.32,15.65-17.21,28.1-17.21a32.06,32.06,0,0,1,20,6.94c6.08-12.82,20-21.78,35.86-21.78A40.73,40.73,0,0,1,173.24,82.4a22.29,22.29,0,0,1,3.16-.23c11.32,0,20.53,8.5,20.53,19a17.47,17.47,0,0,1-1.37,6.78Z" transform="translate(0)"/><path class="cls-19" d="M30.93,277.52a40.93,40.93,0,0,0-2.84-14.46h0a41,41,0,0,0-2.95-6.19h0a41.78,41.78,0,0,0-5.77,22.59c.15,5.86,1.47,17.53,5.29,18.64v8.7h1.56v-9C28.9,296,30.93,287.61,30.93,277.52Z" transform="translate(0)"/><path class="cls-20" d="M48.12,264.87A50.47,50.47,0,0,0,44.61,247h0A50.55,50.55,0,0,0,41,239.38h0a51.53,51.53,0,0,0-7.12,27.88c.18,7.24,1.81,21.64,6.53,23V301H42.3V289.91C45.62,287.69,48.12,277.32,48.12,264.87Z" transform="translate(0)"/><path class="cls-21" d="M106.9,918.59c-9.35-9.25-56.35,25.71-56.35,25.71s29-72.74,18-92.51-26.79,15.29-26.79,15.29,21.66-58.38-2.19-78.57C20.86,772.69,3.72,815.45,0,825V988.82H113.91S116.25,927.84,106.9,918.59Z" transform="translate(0)"/><path class="cls-22" d="M190.7,958.59c-3.28-5.43-51.19,11.55-51.19,11.55S156.3,937.53,144,928.7s-42.59,25.82-42.59,25.82,8.19-35.63-9-39.89-25,37.09-25,37.09S71.84,923,56.69,915.56,22.82,962,22.82,962s16.78-59.78,9-79.48S2.75,935.66,2.75,935.66,8.06,900,0,883.85v105H182.1S194,964,190.7,958.59Z" transform="translate(0)"/><path class="cls-21" d="M1297.4,886.24s-8.33-24.62-26.88-11.77-10.92,40.68-10.92,40.68-11.09-12.58-19.64,0-8,33.73-8,33.73S1220.31,937.1,1213,943s-5.45,44.7-5.45,44.7h89.82Z" transform="translate(0)"/><path class="cls-22" d="M1132.63,988.85s-10.55-22.36-7.64-27.26S1170.47,972,1170.47,972s-14.92-29.4-4-37.36,37.84,23.27,37.84,23.27-7.27-32.12,8-36,22.19,33.46,22.19,33.46-3.9-25.87,9.56-32.61,30.1,41.86,30.1,41.86-14.92-53.91-8-71.67S1292,940.91,1292,940.91s-5.87-39.95,5.41-51v98.92H1132.63Z" transform="translate(0)"/><path class="cls-23" d="M401.12,388.21s-11.6,61.64-22.3,66.08S336.9,403,336.9,403l-8.12,12.65s26.8,57.58,52.62,68.07,35-41.61,35-41.61Z" transform="translate(0)"/><path class="cls-24" d="M343.14,410.57l-8.78,8.84a1.21,1.21,0,0,1-1.86-.05l-23.64-25.51a3.07,3.07,0,0,1,.05-3.84l8.77-8.84a1.22,1.22,0,0,1,1.87.05l23.63,25.51A3.07,3.07,0,0,1,343.14,410.57Z" transform="translate(0)"/><path class="cls-25" d="M344.49,409.33l-8.78,8.84a1.21,1.21,0,0,1-1.86,0l-23.64-25.52a3.05,3.05,0,0,1,.05-3.83l8.78-8.84a1.21,1.21,0,0,1,1.86,0l23.64,25.52A3.05,3.05,0,0,1,344.49,409.33Z" transform="translate(0)"/><path class="cls-26" d="M328.52,386.78s6-1.36,7.25,3.72,1.68,7.34,1.68,7.34l-5-4.75s-6.42.76-7-1.38S328.52,386.78,328.52,386.78Z" transform="translate(0)"/><path class="cls-26" d="M313.2,398.53a85.15,85.15,0,0,0,2.2,9.34C317.27,414.66,325,421,327.33,421s11.47-9.85,10.17-11.76-7.34-7-7.34-8.81S319.41,396.81,313.2,398.53Z" transform="translate(0)"/><path class="cls-27" d="M401.41,388.64l15,53.51s-4.56,25.88-16.29,37.48c-3.31-1.58-5.13-4.76-6.33-9.08C386.64,444.85,401.41,388.64,401.41,388.64Z" transform="translate(0)"/><path class="cls-28" d="M152,806.06c0-69.87,38.85-126.71,86.6-126.71s86.59,56.84,86.59,126.71-38.84,126.71-86.59,126.71S152,875.93,152,806.06Zm10.83,0c0,61.14,34,110.88,75.77,110.88S314.4,867.2,314.4,806.06s-34-110.88-75.77-110.88S162.86,744.92,162.86,806.06Z" transform="translate(0)"/><path class="cls-29" d="M171.43,806.06c0-54.22,30.14-98.34,67.2-98.34s67.2,44.12,67.2,98.34-30.15,98.34-67.2,98.34S171.43,860.28,171.43,806.06Zm2.7,0c0,52,28.93,94.38,64.5,94.38s64.49-42.34,64.49-94.38-28.93-94.37-64.49-94.37S174.13,754,174.13,806.06Z" transform="translate(0)"/><path class="cls-29" d="M238.63,892c32.4,0,58.75-38.57,58.75-86a118.15,118.15,0,0,0-6.48-39.29c-.34-1-1.15-1.35-1.82-.85a2.49,2.49,0,0,0-.58,2.66,112.69,112.69,0,0,1,6.18,37.48c0,45.23-25.15,82-56.05,82a41.38,41.38,0,0,1-23.3-7.4c-.68-.45-1.48,0-1.8,1a2.42,2.42,0,0,0,.67,2.62A43.39,43.39,0,0,0,238.63,892Z" transform="translate(0)"/><path class="cls-29" d="M196.73,750.62a1.18,1.18,0,0,0,1-.63c10.56-16.49,25.48-26,40.92-26,.74,0,1.35-.89,1.35-2s-.61-2-1.35-2c-16.19,0-31.82,9.92-42.89,27.21a2.68,2.68,0,0,0,.06,2.8A1.17,1.17,0,0,0,196.73,750.62Z" transform="translate(0)"/><path class="cls-30" d="M332.37,812c2.24,0,4.06-2.66,4.06-5.94,0-78.92-43.87-143.12-97.8-143.12-23.12,0-45.55,12-63.17,33.85a8,8,0,0,0-.47,8.37c1.45,2.5,4,2.81,5.72.69,16.15-20,36.72-31,57.92-31,49.45,0,89.68,58.87,89.68,131.24C328.31,809.34,330.13,812,332.37,812Z" transform="translate(0)"/><path class="cls-23" d="M398.65,712l16.58,21s5.57.9,7.61-3.35a19.15,19.15,0,0,0,1.61-8.94L409,693.68Z" transform="translate(0)"/><path class="cls-28" d="M434.06,739.17a5.39,5.39,0,0,0,0-5.17c-1-1.66-2.68-1.85-3.81-.42l-22.84,28.66a5.35,5.35,0,0,0-.3,5.59c1,1.66,2.69,1.85,3.82.42l22.84-28.66A3.07,3.07,0,0,0,434.06,739.17Z" transform="translate(0)"/><path class="cls-28" d="M390.26,816.2a1.37,1.37,0,0,0,1.15-1l27.49-65.81a2.55,2.55,0,0,0-.45-2.72c-.64-.57-1.47-.28-1.86.66l-27.49,65.8a2.57,2.57,0,0,0,.45,2.73A1.1,1.1,0,0,0,390.26,816.2Z" transform="translate(0)"/><path class="cls-31" d="M411.72,728.6c-3.58-2.05,0,0-4.12,18.57-3.81,12.22-8,17.19-6.56,19.67a9.42,9.42,0,0,0,3.41,3.51l29-40.3s-6.88-16.29-9.69-10.45C411.41,735,411.72,728.6,411.72,728.6Z" transform="translate(0)"/><path class="cls-32" d="M444.22,549l-15.91-1.24s-85.24-4.13-93.27,27.3c-8.07,31.61,69.94,158,69.94,158l15.11-23.76s-39.95-87.79-38.37-95.84S488.26,593.88,491.19,581s-12.3-35.31-12.3-35.31Z" transform="translate(0)"/><path class="cls-33" d="M491.19,581a7.43,7.43,0,0,0,.16-.82l0-.21c.05-.27.08-.55.11-.84s0-.57.06-.87a1.7,1.7,0,0,1,0-.22c0-.29,0-.58,0-.88s0-.77-.05-1.15v-.13c0-.37-.06-.75-.1-1.12v-.09a.34.34,0,0,1,0-.1c-.05-.37-.1-.74-.16-1.11l0-.08s0-.08,0-.12l-.21-1.14v0l0-.12q-.12-.6-.27-1.2s0,0,0-.06h0c-.1-.4-.2-.8-.31-1.2v0a.24.24,0,0,1,0-.08c-.11-.4-.23-.79-.35-1.19l-.06-.19c-.12-.38-.24-.77-.37-1.16a.56.56,0,0,1,0-.12l0-.09c-.13-.38-.27-.77-.41-1.15l-.06-.18c-.15-.4-.29-.79-.45-1.19v0l0-.08-.47-1.17,0,0v0c-.16-.39-.33-.79-.5-1.18l0-.1a.14.14,0,0,1,0-.06c-.17-.37-.33-.74-.49-1.1l-.05-.11a.36.36,0,0,1,0-.09l-.51-1.09a1.42,1.42,0,0,0-.08-.18l-.51-1.07,0-.07,0-.06c-.36-.75-.73-1.47-1.09-2.17l-.07-.13-.51-1-.05-.1,0-.07c-.16-.31-.33-.62-.5-.93l0-.08,0-.06-.49-.89-.07-.11c-.16-.3-.33-.59-.49-.87h0l-.49-.84,0,0v0l-.45-.75-.06-.11-.4-.66,0-.06,0,0-.38-.61-.06-.09-.74-1.19,0,0a3.23,3.23,0,0,1-.18-.28v0h0l-.22-.35h0c-.19-.31-.3-.47-.3-.47L444.22,549h0l-12.48,13.15c-24.75,11-64.64,17-67.81,31.56-4,18.45,28.13,92.13,50.14,125.1l.81-1.28,5.21-8.19h0s-7.47-16.42-15.82-35.68a120.45,120.45,0,0,1-5.17-12.07c-9.35-22.05-18.14-44.23-17.38-48.09,1.58-8.06,106.54-19.63,109.47-32.5Z" transform="translate(0)"/><path class="cls-28" d="M423.47,806.06c0-69.87,38.85-126.71,86.6-126.71s86.59,56.84,86.59,126.71-38.84,126.71-86.59,126.71S423.47,875.93,423.47,806.06Zm10.83,0c0,61.14,34,110.88,75.77,110.88s75.77-49.74,75.77-110.88-34-110.88-75.77-110.88S434.3,744.92,434.3,806.06Z" transform="translate(0)"/><path class="cls-29" d="M442.87,806.06c0-54.22,30.14-98.34,67.2-98.34s67.2,44.12,67.2,98.34-30.15,98.34-67.2,98.34S442.87,860.28,442.87,806.06Zm2.7,0c0,52,28.94,94.38,64.5,94.38s64.49-42.34,64.49-94.38-28.93-94.37-64.49-94.37S445.57,754,445.57,806.06Z" transform="translate(0)"/><path class="cls-29" d="M510.07,892c32.4,0,58.76-38.57,58.76-86a118.15,118.15,0,0,0-6.48-39.29c-.35-1-1.16-1.35-1.83-.85a2.49,2.49,0,0,0-.58,2.66,112.74,112.74,0,0,1,6.18,37.48c0,45.23-25.14,82-56.05,82a41.38,41.38,0,0,1-23.3-7.4c-.68-.45-1.48,0-1.8,1a2.42,2.42,0,0,0,.67,2.62A43.39,43.39,0,0,0,510.07,892Z" transform="translate(0)"/><path class="cls-29" d="M468.17,750.62a1.18,1.18,0,0,0,1-.63c10.57-16.49,25.48-26,40.92-26,.75,0,1.35-.89,1.35-2s-.6-2-1.35-2c-16.19,0-31.82,9.92-42.89,27.21a2.68,2.68,0,0,0,.06,2.8A1.18,1.18,0,0,0,468.17,750.62Z" transform="translate(0)"/><path class="cls-34" d="M449.53,707.26a3.37,3.37,0,0,0,2.62-1.41c16.15-20,36.72-31,57.92-31,17.88,0,35.15,7.68,49.94,22.21,1.86,1.83,4.38,1.11,5.63-1.62s.75-6.41-1.11-8.24c-16.12-15.85-35-24.23-54.46-24.23-23.12,0-45.55,12-63.17,33.85a8,8,0,0,0-.47,8.37A3.71,3.71,0,0,0,449.53,707.26Z" transform="translate(0)"/><path class="cls-28" d="M510.07,793c.59,0,1.09-.69,1.12-1.57s-.45-1.67-1.07-1.72L390.9,781.61c-.62-.05-1.15.66-1.18,1.57s.45,1.67,1.07,1.71L510,793Z" transform="translate(0)"/><path class="cls-28" d="M389.15,830.51h.05l120.92-8.08c.62,0,1.1-.81,1.07-1.72s-.59-1.61-1.17-1.56L389.1,827.23c-.62,0-1.1.81-1.07,1.71S388.55,830.51,389.15,830.51Z" transform="translate(0)"/><path class="cls-35" d="M510.07,824.07c6.78,0,12.31-8.08,12.31-18s-5.53-18-12.31-18-12.31,8.08-12.31,18S503.28,824.07,510.07,824.07Z" transform="translate(0)"/><path class="cls-30" d="M405,777.25c1.33,0,2.59-1.16,3.13-3.07.72-2.52-.11-5.42-1.83-6.46-14.9-9-27.2-25.46-34.63-46.39L352.51,667.5c-6.5-18.31-16.35-33.54-28.5-44l-12.34-10.66c-1.61-1.38-3.68-.6-4.63,1.75s-.42,5.39,1.19,6.78L320.57,632c11.06,9.55,20,23.4,25.94,40.06l19.12,53.84c8.16,23,21.67,41.09,38.05,51A2.43,2.43,0,0,0,405,777.25Z" transform="translate(0)"/><path class="cls-36" d="M395.36,803.36c1.19,0,2.34-.92,3-2.54L473,605.54c.91-2.39.33-5.4-1.3-6.74s-3.69-.48-4.61,1.9L392.42,796c-.92,2.38-.33,5.4,1.3,6.73A2.58,2.58,0,0,0,395.36,803.36Z" transform="translate(0)"/><path class="cls-30" d="M422.26,811h87.81c1.87,0,3.38-2.21,3.38-5s-1.51-4.95-3.38-4.95H422.26c-25.62,0-48.88-20.67-60.69-53.94l-19.12-53.84c-6.5-18.31-16.36-33.53-28.5-44l-12.34-10.65c-1.61-1.39-3.69-.61-4.64,1.75s-.41,5.38,1.2,6.77l12.34,10.66c11.05,9.54,20,23.39,25.94,40l19.11,53.84C368.55,788.3,394.11,811,422.26,811Z" transform="translate(0)"/><path class="cls-36" d="M510.07,810a2.11,2.11,0,0,0,1.36-.53,5.1,5.1,0,0,0,1-5.42l-59.92-151c-.75-1.9-2.41-2.53-3.7-1.44a5.06,5.06,0,0,0-1,5.41l59.92,151A2.72,2.72,0,0,0,510.07,810Z" transform="translate(0)"/><path class="cls-35" d="M390.84,832.15c9.84,0,17.83-11.7,17.83-26.09s-8-26.09-17.83-26.09S373,791.67,373,806.06,381,832.15,390.84,832.15Z" transform="translate(0)"/><path class="cls-37" d="M520.1,804.87c.49,9.07-4.65,16.59-10.85,15.87-4.88-.56-8.83-6.35-9.21-13.48-.49-9.08,4.64-16.59,10.85-15.88C515.76,792,519.71,797.73,520.1,804.87Z" transform="translate(0)"/><path class="cls-37" d="M406.41,804.87c.47,13.54-7.13,24.66-16.38,24-7.92-.59-14.35-10-14.75-21.59-.47-13.54,7.13-24.65,16.37-24C399.57,783.87,406,793.29,406.41,804.87Z" transform="translate(0)"/><path class="cls-28" d="M378,880.8c1.32,0,2.48-1.41,2.68-3.38.21-2.16-.81-4.18-2.28-4.49l-29.77-6.44c-1.48-.31-2.86,1.18-3.07,3.34s.8,4.18,2.28,4.49l29.76,6.44A1.87,1.87,0,0,0,378,880.8Z" transform="translate(0)"/><path class="cls-28" d="M363.1,875.6a1.34,1.34,0,0,0,1.16-.93L392,809.08a2.55,2.55,0,0,0-.43-2.72c-.64-.58-1.47-.29-1.87.64L362,872.58a2.57,2.57,0,0,0,.43,2.73A1.07,1.07,0,0,0,363.1,875.6Z" transform="translate(0)"/><path class="cls-38" d="M488.6,593.72H462.21c-2,0-3.55,2.32-3.55,5.18v6.21c0,2.86,1.59,5.19,3.55,5.19h33.32c2.6,0,4.38-4,3.21-7.4C496.89,597.45,493,593.72,488.6,593.72Z" transform="translate(0)"/><path class="cls-26" d="M377.7,823.78l-.6,34.56s2.58,6.87,6.13,6.87,6-3.13,6-3.13l5.19-47.57Z" transform="translate(0)"/><path class="cls-31" d="M377.44,851.29c-.92-5.47,0,0-12.75,5.75-9,2.48-14.21.33-14.78,3.47a19,19,0,0,0,0,6.1l39.24,11.55s5.15-17.6.26-17.6C373.71,854.57,377.44,851.29,377.44,851.29Z" transform="translate(0)"/><path class="cls-39" d="M428.28,542.07s-51.19,69-58.86,122.1,6.24,170.1,6.24,170.1,6.27,5.73,21.32,3.09c0,0,.4-152.07,5.82-162.63s88.62-76.89,92.68-96.69-6.36-41.58-6.36-41.58Z" transform="translate(0)"/><path class="cls-40" d="M386.09,822.33l-.55-11.28c-.05-.9.42-1.69,1-1.75s1.15.61,1.2,1.52l.55,11.28c.05.9-.42,1.69-1,1.75h-.08C386.63,823.86,386.13,823.2,386.09,822.33ZM385,799.78l-.55-11.28c0-.9.42-1.69,1-1.75s1.15.61,1.2,1.52l.54,11.27c0,.91-.42,1.69-1,1.76h-.09C385.52,801.3,385,800.64,385,799.78Zm-1.09-22.56L383.37,766c-.05-.91.42-1.69,1-1.76s1.15.62,1.2,1.53l.53,11.28c0,.9-.42,1.68-1,1.75H385C384.43,778.75,383.94,778.09,383.9,777.22Zm-1.06-22.55c-.17-3.77-.35-7.54-.52-11.28,0-.9.43-1.69,1.05-1.75s1.15.63,1.19,1.53c.17,3.74.34,7.51.52,11.27,0,.91-.42,1.69-1,1.75H384C383.37,756.2,382.88,755.53,382.84,754.67Zm-1-22.56c-.17-3.83-.33-7.61-.49-11.28,0-.91.43-1.69,1.05-1.75s1.15.63,1.19,1.54c.16,3.67.32,7.44.49,11.28,0,.9-.43,1.68-1.05,1.74h-.07C382.34,733.64,381.85,733,381.81,732.11Zm-1-22.57c-.16-3.95-.32-7.73-.45-11.29,0-.91.43-1.68,1.05-1.73s1.15.64,1.18,1.54c.14,3.56.3,7.34.46,11.28,0,.91-.44,1.69-1.05,1.74H382C381.37,711.08,380.88,710.41,380.84,709.54ZM380,687c-.15-4.46-.27-8.3-.33-11.34,0-.9.47-1.66,1.09-1.69s1.13.68,1.15,1.59c.07,3,.18,6.84.33,11.27,0,.91-.44,1.68-1.06,1.73h-.06C380.5,688.51,380,687.83,380,687Zm1.54-20.83a2.11,2.11,0,0,1-.41-2.24,52.73,52.73,0,0,1,4.93-9.16.9.9,0,0,1,1.59-.06,2.24,2.24,0,0,1,0,2.33,50,50,0,0,0-4.62,8.53,1.11,1.11,0,0,1-1,.82A.87.87,0,0,1,381.51,666.12Zm10.09-17a2.22,2.22,0,0,1,.11-2.32c1.77-2.28,3.78-4.74,6-7.3a.9.9,0,0,1,1.57.26,2.2,2.2,0,0,1-.17,2.31c-2.16,2.52-4.14,4.94-5.89,7.2a1,1,0,0,1-.74.41A1,1,0,0,1,391.6,649.15Zm12-14.27a2.16,2.16,0,0,1,.22-2.3c1.94-2.13,4.05-4.39,6.25-6.71.51-.53,1.21-.36,1.57.38a2.18,2.18,0,0,1-.26,2.29c-2.19,2.3-4.28,4.55-6.21,6.67a.92.92,0,0,1-.68.33A1.05,1.05,0,0,1,403.6,634.88Zm12.52-13.26a2.18,2.18,0,0,1,.28-2.29c2.11-2.15,4.25-4.29,6.39-6.41.51-.51,1.21-.32,1.55.44a2.16,2.16,0,0,1-.29,2.28c-2.13,2.11-4.26,4.25-6.37,6.39a.88.88,0,0,1-.64.29A1.07,1.07,0,0,1,416.12,621.62Zm12.78-12.74a2.13,2.13,0,0,1,.31-2.28c2.18-2.12,4.34-4.21,6.45-6.24.52-.51,1.22-.29,1.56.46a2.17,2.17,0,0,1-.32,2.28c-2.12,2-4.27,4.12-6.45,6.23a.86.86,0,0,1-.62.28A1.08,1.08,0,0,1,428.9,608.88Zm12.9-12.46a2.13,2.13,0,0,1,.33-2.27L448.6,588c.52-.5,1.21-.29,1.55.47a2.13,2.13,0,0,1-.32,2.27l-6.47,6.2a.9.9,0,0,1-.62.26A1.1,1.1,0,0,1,441.8,596.42ZM454.73,584a2.16,2.16,0,0,1,.32-2.28c2.64-2.57,4.72-4.65,6.36-6.35.51-.52,1.2-.35,1.56.39a2.18,2.18,0,0,1-.26,2.29c-1.66,1.71-3.76,3.81-6.42,6.41a.91.91,0,0,1-.62.27A1.09,1.09,0,0,1,454.73,584Zm12.53-13.29a2.17,2.17,0,0,1-.31-2.28,30.42,30.42,0,0,0,2.13-9.93c.07-.9.63-1.55,1.24-1.44s1.06.91,1,1.81a34.6,34.6,0,0,1-2.49,11.39,1.1,1.1,0,0,1-.94.73A.88.88,0,0,1,467.26,570.72Zm1.91-23.18c-.16-3.4-.46-7.11-.91-11a1.68,1.68,0,0,1,.92-1.89c.61-.16,1.19.45,1.29,1.35.46,4,.78,7.85.94,11.36,0,.9-.43,1.69-1.05,1.75h-.07C469.7,549.07,469.21,548.4,469.17,547.54Z" transform="translate(0)"/><path class="cls-41" d="M428.28,542.07l60.84-5.61a85.9,85.9,0,0,1,5.34,15.93c-9,13.2-21.16,10.6-36.62,6.19-12.78-3.65-30.49-7.54-33.72-10.69C426.73,544.16,428.28,542.07,428.28,542.07Z" transform="translate(0)"/><path class="cls-40" d="M467.81,526.82a.65.65,0,0,0,.27-.05,1.79,1.79,0,0,0,.83-2c-.57-3.42-1-5.54-1-5.63-.18-.87-.8-1.37-1.4-1.11a1.85,1.85,0,0,0-.75,2s.43,2.14,1,5.47C466.85,526.32,467.31,526.82,467.81,526.82Z" transform="translate(0)"/><path class="cls-16" d="M413.85,372.46S402.34,381,399,398.86s-5,55.77,0,68.64,14.89,75.23,22.33,78.86,67.42,3,71.93,1.32-27.51-105.26-38.56-138.26S413.85,372.46,413.85,372.46Z" transform="translate(0)"/><path class="cls-42" d="M433,380.34c21.77-19.75,54.39,12.87,52.8,20.41,25.08,31.18,29.5,56,37.47,79.43S520,513.31,504.92,523.8s-24.33-14.33-31.5-36.71S432.1,385.43,433,380.34Z" transform="translate(0)"/><path class="cls-43" d="M485.76,400.75c-12.14,10-29.1,20.4-41.28-14.2,11.43,36.83,25.8,26.17,31.51,24.45S485.76,400.75,485.76,400.75Z" transform="translate(0)"/><path class="cls-44" d="M507.14,454.35c5,11,14.76,34.78,10.63,41.26s-16.39,15.77-20.82,6.26-11.19-32.81-11.19-32.81A39.93,39.93,0,0,0,507.14,454.35Z" transform="translate(0)"/><path class="cls-43" d="M509.09,472.65c-4.06,5.07-12,11.48-16.24,9a14,14,0,0,1-5.19-6.2,28.64,28.64,0,0,1-.91-4.88,38.6,38.6,0,0,0,21-14.18C508.93,460.76,513.15,467.59,509.09,472.65Z" transform="translate(0)"/><path class="cls-44" d="M508.1,471.2c-4.06,5.06-12,11.47-16.24,8.94-2.09-1.24-3.67-4-4.75-6.52-.84-2.78-1.35-4.56-1.35-4.56a39.93,39.93,0,0,0,21.38-14.71C508.32,458.77,512.16,466.13,508.1,471.2Z" transform="translate(0)"/><path class="cls-42" d="M442.56,378c-20.57-9.55-32.43,4.17-29.7,46.4,14.59,65,75.21,90.71,75.21,90.71l-7.41-22.29s-25-3.46-50.62-43.77c-17.61-27.74-11.62-55.25-4.18-61.16,6.16-4.9,17.91-5.63,17.91-5.63Z" transform="translate(0)"/><path class="cls-45" d="M418.4,525.93c5.18-11.22-.77-63.28-2.57-92S423.72,394,423.72,394c4.17-6.11,19.17-5.6,22.55,7.49,2,7.83,14.77,80.45,4.51,124.83,0,.1,0,.19-.07.29-3.23,13.67-12.54,22.23-22.4,21.14a25.56,25.56,0,0,1-7-1.41c-2.21-1.08-4.64-7.34-7.1-16A12.38,12.38,0,0,0,418.4,525.93Z" transform="translate(0)"/><path class="cls-26" d="M391.86,359.59s1.75,3.06,3.75,7.34a51.35,51.35,0,0,1,3.51,30.5,175.53,175.53,0,0,0-3.31,31.21c0,19.8,18-56.18,18-56.18l-9.81-28Z" transform="translate(0)"/><path class="cls-46" d="M391.86,359.59,404,344.49l3.64,10.4a73,73,0,0,1-9.51,19,45.49,45.49,0,0,0-2.56-7C393.61,362.65,391.86,359.59,391.86,359.59Z" transform="translate(0)"/><path class="cls-47" d="M421.08,296.6s.87-12.37,6.05-35.14,23.88-39.24,38-26.12,22.14,0,35.66-15.88,31-9.06,40.91,8,29,16.7,25.31,53.54-33.08,59.2-50.22,40.62-20.17-11.24-33.1,5.48-44.55-11.71-51.36-20.59S421.08,296.6,421.08,296.6Z" transform="translate(0)"/><path class="cls-48" d="M238.62,811c1.2,0,2.36-.93,3-2.56l91.09-242.59a21.56,21.56,0,0,0,1.34-7.59V542.54a6.39,6.39,0,0,1,2-5.11,2.92,2.92,0,0,1,4,.08L356,551.43c1.61,1.41,3.68.65,4.64-1.69s.45-5.39-1.16-6.8L343.57,529a7.85,7.85,0,0,0-10.85-.2c-3.43,2.83-5.47,8-5.47,13.72v15.73a8.25,8.25,0,0,1-.49,2.83l-91.1,242.58c-.9,2.39-.3,5.4,1.34,6.72A2.52,2.52,0,0,0,238.62,811Z" transform="translate(0)"/><path class="cls-37" d="M248.66,804.87c.49,9.07-4.65,16.59-10.85,15.87-4.88-.56-8.83-6.35-9.21-13.48-.49-9.08,4.64-16.59,10.85-15.88C244.32,792,248.27,797.73,248.66,804.87Z" transform="translate(0)"/><path class="cls-26" d="M342.47,531c4.23-6.19,15.45.33,20.52,2.8,2.75,1.34,48.24-7.67,53.43-18.89s-.77-63.27-2.57-92S421.74,383,421.74,383c4.17-6.1,19.17-5.59,22.55,7.49,2,7.83,14.77,80.45,4.51,124.83-12.94,55.93-87.86,30.36-89.3,30.36-1.69,0-3.38,5.61-5.08,5.61s-9.18-4.37-10-5.61S338.24,537.21,342.47,531Z" transform="translate(0)"/><path class="cls-26" d="M377.57,297.69s-5.95,4.81-7.2,27.72,1.88,46.49,8.29,48.55,22.23-11.68,27.39-22.9-3.13-47.87-11.58-53.37S377.57,297.69,377.57,297.69Z" transform="translate(0)"/><path class="cls-47" d="M421.86,279.83c2,2.86,5.64,16,5.64,31.15s-13.78,43-17.38,45.34S391.86,344.49,388.05,311c-.89-7.91-11.59-11.94-11.59-11.94s-1.24-14.86,8.31-20.13,12.68,4.81,20.34,1.61S418.18,274.45,421.86,279.83Z" transform="translate(0)"/><path class="cls-26" d="M391.86,332.25s-1-10,2.77-10,8.23,11.12,5.8,15.91-6.83,1.64-6.83,1.64Z" transform="translate(0)"/><path class="cls-16" d="M320.81,270.28c-14.07,0-25.48,8.85-25.48,19.75,0,3.27,17.12,78.16,17.12,78.16l-7.61-62.77c4.61,3.57,8.93,4.36,16,4.36,14.07,0,25.47-8.84,25.47-19.75S334.88,270.28,320.81,270.28Z" transform="translate(0)"/><path class="cls-49" d="M310.22,251.09c0,7.63,10.59,45,10.59,45s10.58-37.34,10.58-45-4.74-13.82-10.58-13.82S310.22,243.45,310.22,251.09Zm6.1,1.45c0-3.62,2-6.56,4.49-6.56s4.49,2.94,4.49,6.56-2,6.57-4.49,6.57S316.32,256.17,316.32,252.54Z" transform="translate(0)"/><path class="cls-50" d="M856.14,232a2.38,2.38,0,0,0,.68.88c.77.38,1.1-2.7.45-6.25s-1.41-4.66-.94-6.36c.3-1.09,1.07-1.63,1.93-1.25,4.1,1.85,7.48,22.56,7.86,23.29,12.87,24.41,29.54,62.14,53.21,79.58,6.8,5,54.26,10.84,65.31,10,4.46-.33,8.81,2.09,12,6.75,10.71,15.89.56,42.53-13.94,39.43-21.93-4.68-63.77-13-78.07-26.18-21.64-20-41-80.31-46-87.72h0a136.38,136.38,0,0,0-8.83-10.92C855.45,246.18,856.23,237.13,856.14,232Z" transform="translate(0)"/><path class="cls-46" d="M953.7,329.57c4.12.55,8.23,1,12.07,1.41.07,10.41-.37,28.48-.37,32.19A28.74,28.74,0,0,1,963,374.33c-3.57-.67-7.26-1.39-11-2.15C952.29,362.31,952.82,346.88,953.7,329.57Z" transform="translate(0)"/><path class="cls-51" d="M996.08,695.36l-13.37,16.32s-10.58-16.57-24.42-38.83c6.23-6.13,12.8-11.67,19.38-17.3C988.15,678.84,996.08,695.36,996.08,695.36Z" transform="translate(0)"/><path class="cls-52" d="M980.23,701.09s8.45,4.4,9.95,1.47-.42-13.66,2.55-14.27,18.46,14.65,18.9,19.24,2.08,10.5.54,13.49-36.45,48.55-42.69,53.41-12-7-6.28-15.13S966,700.68,980.23,701.09Z" transform="translate(0)"/><path class="cls-53" d="M1012,727.11a5.42,5.42,0,0,0,0-5.17c-1-1.66-2.69-1.84-3.82-.41L985.4,750.36a5.33,5.33,0,0,0-.27,5.59c1,1.66,2.68,1.84,3.82.41l22.77-28.83A3.13,3.13,0,0,0,1012,727.11Z" transform="translate(0)"/><path d="M966,813.23a1.34,1.34,0,0,0,1.15-.94l27.77-65.65a2.57,2.57,0,0,0-.44-2.72c-.64-.58-1.47-.29-1.87.64L964.85,810.2a2.57,2.57,0,0,0,.44,2.73A1.06,1.06,0,0,0,966,813.23Z" transform="translate(0)"/><path class="cls-16" d="M1000.16,712.35a41.58,41.58,0,0,1,8.67-10,30.26,30.26,0,0,1,3.54,6c1.74,4.87,1.34,9.68-.2,12.67s-36.45,48.55-42.69,53.41c-3.37,2.63-6.61.36-8-3.56a13.82,13.82,0,0,0,4.47-3.15C971.83,761.9,992.32,724.82,1000.16,712.35Z" transform="translate(0)"/><path class="cls-54" d="M1027.86,494.41S908.8,526.94,904.11,575.07C901.16,605.45,967,702.4,967,702.4L988.32,680s-31.43-73.3-35.06-83.07c-6-16.15,76-12,80.53-18.7S1027.86,494.41,1027.86,494.41Z" transform="translate(0)"/><path class="cls-55" d="M1027.86,494.41s-12.45,3.4-29.46,9.63c-4.56,21.54-10.16,55.8-13.7,80.47,8.29-.85,17.1-1.44,24.94-2,7-8.1,12.47-15.41,14-17.58,2.63-3.85,5.25-28.54,7-48.69C1029.13,503.74,1027.86,494.41,1027.86,494.41Z" transform="translate(0)"/><path class="cls-56" d="M907.38,811.89c2.24,0,4.06-2.66,4.06-5.94,0-79-43.91-143.25-97.89-143.25-23.13,0-45.59,12-63.22,33.87a8,8,0,0,0-.47,8.38c1.45,2.51,4,2.82,5.72.7,16.17-20,36.76-31.06,58-31.06,49.5,0,89.77,58.93,89.77,131.36C903.32,809.23,905.14,811.89,907.38,811.89Z" transform="translate(0)"/><path class="cls-28" d="M998.56,806c0-69.94,38.88-126.83,86.67-126.83S1171.91,736,1171.91,806,1133,932.77,1085.23,932.77,998.56,875.88,998.56,806Zm10.84,0c0,61.19,34,111,75.83,111s75.84-49.78,75.84-111-34-111-75.84-111S1009.4,744.76,1009.4,806Z" transform="translate(0)"/><path class="cls-30" d="M1005.82,806c0-64.08,35.63-116.21,79.41-116.21s79.42,52.13,79.42,116.21S1129,922.16,1085.23,922.16,1005.82,870,1005.82,806Zm4.08,0c0,60.78,33.8,110.23,75.33,110.23s75.33-49.45,75.33-110.23-33.79-110.23-75.33-110.23S1009.9,745.16,1009.9,806Z" transform="translate(0)"/><g class="cls-57"><path class="cls-29" d="M1018,806c0-54.27,30.18-98.43,67.26-98.43s67.27,44.16,67.27,98.43-30.18,98.42-67.27,98.42S1018,860.22,1018,806Zm2.71,0c0,52.08,29,94.46,64.55,94.46S1149.79,858,1149.79,806s-29-94.46-64.56-94.46S1020.68,753.86,1020.68,806Z" transform="translate(0)"/></g><g class="cls-57"><path class="cls-29" d="M1085.23,892c32.43,0,58.81-38.6,58.81-86a118.34,118.34,0,0,0-6.48-39.33c-.34-1-1.16-1.35-1.82-.85a2.48,2.48,0,0,0-.59,2.67,112.62,112.62,0,0,1,6.19,37.51c0,45.26-25.17,82.09-56.11,82.09a41.4,41.4,0,0,1-23.32-7.41c-.68-.45-1.48,0-1.79,1a2.44,2.44,0,0,0,.67,2.63A43.43,43.43,0,0,0,1085.23,892Z" transform="translate(0)"/></g><path class="cls-29" d="M1043.3,750.46a1.21,1.21,0,0,0,1-.63c10.57-16.51,25.49-26,40.94-26,.75,0,1.36-.88,1.36-2s-.61-2-1.36-2c-16.2,0-31.84,9.93-42.92,27.23a2.68,2.68,0,0,0,.06,2.8A1.17,1.17,0,0,0,1043.3,750.46Z" transform="translate(0)"/><path class="cls-56" d="M1024.64,707.06a3.44,3.44,0,0,0,2.63-1.41c16.16-20,36.75-31.06,58-31.06,17.91,0,35.19,7.69,50,22.23,1.86,1.83,4.39,1.11,5.64-1.62s.75-6.42-1.11-8.25c-16.14-15.86-35-24.25-54.52-24.25-23.13,0-45.58,12-63.22,33.87a8,8,0,0,0-.47,8.38A3.71,3.71,0,0,0,1024.64,707.06Z" transform="translate(0)"/><path class="cls-38" d="M970.43,803.24c1.18,0,2.34-.92,3-2.54l74.69-195.46c.92-2.39.33-5.4-1.3-6.74s-3.69-.48-4.61,1.91L967.48,795.86c-.92,2.39-.33,5.41,1.3,6.75A2.57,2.57,0,0,0,970.43,803.24Z" transform="translate(0)"/><path class="cls-38" d="M964,812.91c125.76-3.19,122.41.41,124.21-4.7,1.26-3.59,4.72,7.44-60.85-157.85L885.19,611.93c-2.16-.58-4.12,2-4,5.17h0C881.3,619.62,880,615.45,964,812.91ZM891.51,623.72l131.6,35.55,56.28,141.82-111.62,1.85Z" transform="translate(0)"/><path class="cls-58" d="M885.19,611.93l6.86,1.86-6.18,15.67c-4.8-11.41-4.63-11.37-4.67-12.35h0C881.07,613.89,883,611.35,885.19,611.93Z" transform="translate(0)"/><path class="cls-58" d="M1042.17,600.41c.92-2.39,3-3.25,4.61-1.91s2.22,4.35,1.3,6.74l-4.23,11.08-7-2Z" transform="translate(0)"/><path class="cls-59" d="M1085.24,792.74c.55,0,1-.64,1-1.46s-.42-1.56-1-1.6L966,781.59c-.56-.05-1.06.61-1.09,1.46s.42,1.56,1,1.59l119.33,8.1Z" transform="translate(0)"/><path class="cls-59" d="M964.21,830.3h0l121-8.09c.58,0,1-.75,1-1.59s-.53-1.53-1.09-1.46l-121,8.09c-.57,0-1,.75-1,1.6S963.66,830.3,964.21,830.3Z" transform="translate(0)"/><path class="cls-59" d="M985.34,805c.36,16.45-8.83,29.9-20.07,29.37-10.19-.47-18.48-12.61-18.81-27.51-.36-16.46,8.83-29.91,20.08-29.38C976.73,778,985,790.11,985.34,805Z" transform="translate(0)"/><path class="cls-60" d="M949,819.9l11.29-41.19a13.79,13.79,0,0,1,5.66-1.23c5.73,0,10.89,3.63,14.45,9.4-.78,6.62-1.9,12.75-3.45,14-3.62,2.8-6.93,16-9,23.9-.79,3-1.66,6.5-2.44,9.67C958.36,834.16,952.21,828.38,949,819.9Z" transform="translate(0)"/><path d="M938.14,875.55a1.33,1.33,0,0,0,1.15-.94L967.06,809a2.59,2.59,0,0,0-.44-2.73c-.64-.58-1.47-.29-1.87.65L937,872.53a2.57,2.57,0,0,0,.44,2.73A1.05,1.05,0,0,0,938.14,875.55Z" transform="translate(0)"/><path class="cls-53" d="M937,882.34c1.32.11,2.53-1.21,2.81-3.16.3-2.14-.64-4.24-2.1-4.68l-29.49-9c-1.46-.44-2.9.93-3.21,3.08s.64,4.24,2.11,4.69l29.48,9A3.14,3.14,0,0,0,937,882.34Z" transform="translate(0)"/><path class="cls-30" d="M1063.75,593.41h-26.42c-2,0-3.54,2.33-3.54,5.19v6.22c0,2.86,1.58,5.19,3.54,5.19h33.35c2.6,0,4.38-4,3.22-7.41C1072,597.15,1068.19,593.41,1063.75,593.41Z" transform="translate(0)"/><path class="cls-23" d="M958.66,843.88l-16.95-5.83s2.68-22.34,6.52-51.9c7.09,3.6,14.07,8,21.1,12.26C962.91,824.67,958.66,843.88,958.66,843.88Z" transform="translate(0)"/><path class="cls-52" d="M946,828.79s2.68,12.52,5.18,12.52,7.21-8.71,9.33-5.61,3.09,30.39.85,33.67-4.48,8.74-7,8.74-48.43-13.42-54.83-17.79-3.41-18.21,4.48-16.44S937.68,811.93,946,828.79Z" transform="translate(0)"/><path class="cls-16" d="M951.83,858.86A27.36,27.36,0,0,1,962.48,863a42.78,42.78,0,0,1-1.12,7.72c-1.62,5-4.48,7.38-7,7.38s-48.43-13.42-54.83-17.79c-3.47-2.37-4.18-7.52-2.85-11.46a14.35,14.35,0,0,0,4.42,3.34C907.74,855.53,940.31,857.2,951.83,858.86Z" transform="translate(0)"/><path class="cls-54" d="M1011,495.07l38.68-20s28.73,37.46,23.47,62.43-47.93,87.41-68.41,139c-12.14,30.58-30,119.66-39.3,157.85-7-4.32-21.56-15.78-28.65-19.39,6.64-51.18,28.2-152.91,33.91-169.26C979.71,619.94,1011,495.07,1011,495.07Z" transform="translate(0)"/><path class="cls-55" d="M1009.87,499.57c7.51-8.65,31.88-12,47.4-13.31,8.11,13,19.34,34.84,15.88,51.26,0,.13-.05.26-.08.38-16.35-3.28-60.88-13.7-65.2-30.44C1008.68,504.28,1009.35,501.61,1009.87,499.57Z" transform="translate(0)"/><path class="cls-61" d="M955.49,327.19c0-2.46,54.48-8,61.81,2.85s7,50.81-6.83,55.68-56.77-1.51-56.77-1.51S955.46,350.73,955.49,327.19Z" transform="translate(0)"/><path class="cls-40" d="M972.83,332.57c-1,4-1.93,8.11-2.66,12-3.39,17.83-5,55.82,0,68.7s31.17,91.32,38.62,94.95,56.64,18.87,70.09,5.12c8.9-9.1-30.75-154.15-41.81-187.18-4.61-13.74-15.57-20.81-26.23-23.25C1008.41,302.33,977.55,313.59,972.83,332.57Z" transform="translate(0)"/><path class="cls-23" d="M975.66,271.33l2.65,31.45s1.47,24.86,2.17,25.67c6.87,7.95,30.36-25.57,30.36-25.57L994.5,261.14Z" transform="translate(0)"/><path class="cls-46" d="M998.2,270.83l-3.7-9.69-18.84,10.19,2.65,31.45a19.62,19.62,0,0,0,6.38-4.13C989.74,293.59,994.82,282.62,998.2,270.83Z" transform="translate(0)"/><path class="cls-23" d="M977.33,200.73s-.94-.56-6.32,10.24c-3.84,7.7-6.15,16.91-8.55,25.69-3.56,13.09-6.54,27.34-3.85,41.35,1.41,7.37,21.62,9.37,29.75,3s15.69-26.69,15.21-41.18S981,197.9,977.33,200.73Z" transform="translate(0)"/><path class="cls-46" d="M966.53,222.34A82,82,0,0,1,971,211c1.55-3.11,2.73-5.28,3.63-6.79,5.93,3.48,13.81,8.64,18.51,11.77,1.27,1.85,2.51,3.78,3.65,5.74l-3.55,27.53-3.94-13.49s-3.61-9.94-11.82-12.48A25.87,25.87,0,0,0,966.53,222.34Z" transform="translate(0)"/><path class="cls-62" d="M990.63,271.26c1.24,3.88,3.33,4.95,9.65,5.12,8.13.22,16.2-8.8,18.25-25.27,6.27-50.38-26.35-62.68-34.74-67.5-3.14-1.8-5.6-.31-7.45,2.26-3,4.14-7,6.18-11,5.22-1.77-.42-6.46-.58-7.74,3.37-3.64,11.31-3.74,23.07,10,23.07C998.73,217.53,988.23,263.79,990.63,271.26Z" transform="translate(0)"/><path class="cls-23" d="M989.31,242.68s5.37-14,6.94-5.36.14,25.79-5.81,20.63S989.31,242.68,989.31,242.68Z" transform="translate(0)"/><path class="cls-28" d="M1085.23,827.11c8,0,14.47-9.49,14.47-21.16s-6.49-21.17-14.47-21.17-14.46,9.5-14.46,21.17S1077.26,827.11,1085.23,827.11Z" transform="translate(0)"/><path class="cls-63" d="M1097.58,804.77c.48,10.93-5.68,19.94-13.15,19.25-6.16-.57-11.15-7.88-11.54-16.89-.48-10.93,5.68-19.94,13.15-19.25C1092.2,788.44,1097.19,795.75,1097.58,804.77Z" transform="translate(0)"/><path class="cls-64" d="M1081.78,805.08c-.39,3.51,1.65,6.49,4,5.92,1.45-.35,2.62-2.06,2.86-4.18.39-3.51-1.65-6.5-4-5.92C1083.19,801.25,1082,803,1081.78,805.08Z" transform="translate(0)"/><g class="cls-57"><path class="cls-29" d="M815,892c32.43,0,58.81-38.6,58.81-86a118.09,118.09,0,0,0-6.49-39.33c-.34-1-1.15-1.35-1.82-.85a2.48,2.48,0,0,0-.59,2.67A112.62,112.62,0,0,1,871.09,806c0,45.26-25.17,82.09-56.1,82.09a41.38,41.38,0,0,1-23.32-7.41c-.68-.45-1.49,0-1.8,1a2.44,2.44,0,0,0,.67,2.63A43.46,43.46,0,0,0,815,892Z" transform="translate(0)"/></g><path class="cls-28" d="M728.32,806c0-69.94,38.88-126.83,86.67-126.83S901.66,736,901.66,806,862.78,932.77,815,932.77,728.32,875.88,728.32,806Zm10.83,0c0,61.19,34,111,75.84,111s75.84-49.78,75.84-111-34-111-75.84-111S739.15,744.76,739.15,806Z" transform="translate(0)"/><path class="cls-30" d="M735.57,806c0-64.08,35.63-116.21,79.42-116.21S894.4,741.87,894.4,806,858.78,922.16,815,922.16,735.57,870,735.57,806Zm4.09,0c0,60.78,33.79,110.23,75.33,110.23S890.32,866.73,890.32,806,856.53,695.72,815,695.72,739.66,745.16,739.66,806Z" transform="translate(0)"/><g class="cls-57"><path class="cls-29" d="M747.73,806c0-54.27,30.17-98.43,67.26-98.43s67.26,44.16,67.26,98.43S852.08,904.37,815,904.37,747.73,860.22,747.73,806Zm2.71,0c0,52.08,28.95,94.46,64.55,94.46S879.54,858,879.54,806s-29-94.46-64.55-94.46S750.44,753.86,750.44,806Z" transform="translate(0)"/></g><path class="cls-31" d="M813.55,810.9c1.19,0,2.35-.93,3-2.57l91.17-242.79a22,22,0,0,0,1.34-7.61V542.19a6.37,6.37,0,0,1,2-5.11,2.92,2.92,0,0,1,4.05.07L931,551.09c1.61,1.41,3.69.65,4.65-1.7s.44-5.39-1.16-6.8l-15.88-13.93a7.87,7.87,0,0,0-10.86-.21c-3.43,2.84-5.48,8-5.48,13.74v15.74a8.21,8.21,0,0,1-.49,2.83l-91.18,242.8c-.9,2.4-.3,5.41,1.34,6.73A2.63,2.63,0,0,0,813.55,810.9Z" transform="translate(0)"/><path class="cls-28" d="M815,827.11c8,0,14.46-9.49,14.46-21.16S823,784.78,815,784.78s-14.46,9.5-14.46,21.17S807,827.11,815,827.11Z" transform="translate(0)"/><path class="cls-63" d="M827.34,804.77c.47,10.93-5.69,19.94-13.16,19.25-6.15-.57-11.15-7.88-11.54-16.9-.47-10.92,5.68-19.93,13.15-19.24C822,788.45,827,795.76,827.34,804.77Z" transform="translate(0)"/><path class="cls-64" d="M811.54,805.08c-.39,3.51,1.65,6.49,4,5.92,1.45-.35,2.62-2.06,2.86-4.18.39-3.51-1.65-6.5-4.05-5.92C812.94,801.25,811.77,803,811.54,805.08Z" transform="translate(0)"/><path class="cls-34" d="M1013.22,303.29c26.26-23.83,65.63,15.53,63.7,24.63,30.26,37.62,35.59,67.57,45.21,95.82s-3.92,40-22.09,52.63-29.35-17.28-38-44.28S1012.19,309.44,1013.22,303.29Z" transform="translate(0)"/><path class="cls-43" d="M1076.92,327.92c-14.64,12-35.1,24.6-49.81-17.14,13.8,44.44,31.13,31.58,38,29.5S1076.92,327.92,1076.92,327.92Z" transform="translate(0)"/><path class="cls-43" d="M1102.71,392.58c6.06,13.29,17.81,42,12.83,49.78s-19.77,19-25.12,7.56-13.5-39.59-13.5-39.59A48,48,0,0,0,1102.71,392.58Z" transform="translate(0)"/><path class="cls-43" d="M1105.07,414.67c-4.9,6.11-14.47,13.84-19.59,10.79a17,17,0,0,1-6.27-7.48,34.88,34.88,0,0,1-1.09-5.9,46.51,46.51,0,0,0,25.33-17.1C1104.88,400.32,1110,408.55,1105.07,414.67Z" transform="translate(0)"/><path class="cls-65" d="M1103.87,412.91c-4.9,6.11-14.47,13.84-19.59,10.79-2.52-1.5-4.43-4.85-5.72-7.87-1-3.35-1.64-5.5-1.64-5.5a48,48,0,0,0,25.79-17.75C1104.14,397.92,1108.77,406.79,1103.87,412.91Z" transform="translate(0)"/><path class="cls-34" d="M1024,309.28c-24.82-11.52-38.28,13-35,47.13,17.59,78.43,90.73,109.45,90.73,109.45L1070.77,439s-30.21-4.16-61.07-52.79c-21.24-33.47-16.18-44.34-8.65-54.46,12.15-16.32,23.65-5.49,23.65-5.49Z" transform="translate(0)"/><path class="cls-66" d="M1023,346.24s11.42,14.36,3.84,51.2-12,55.67-21.1,71.8c-1.08,1.93-8.26,2.4-8.94,3.39a1.33,1.33,0,0,1-.14.19l-3.23,4.24c-5.16-13.16-10.6-28.27-15-40.67C986.31,408.57,1013,333.18,1023,346.24Z" transform="translate(0)"/><path class="cls-23" d="M928.36,518c3.74,0,22.81-36.38,34.19-58.78A126.94,126.94,0,0,0,974.38,422l3.25-20.23,28.36,2.8s-10,50.73-13.67,56.1l-.15.18c-9.76,12.82-45.57,59.82-49.27,64.18-5,5.94-10.38,13.58-10.38,22.63s-22,3-22-4S923,518,928.36,518Z" transform="translate(0)"/><path class="cls-46" d="M968.81,444.38A134.64,134.64,0,0,0,974.38,422l3.25-20.23,28.36,2.8s-8.64,43.81-12.81,54.31C986.7,453.87,975.47,445.77,968.81,444.38Z" transform="translate(0)"/><path class="cls-61" d="M1018.52,334.27s11.11,13.63,3.53,50.47-20.79,72.53-20.79,72.53-22.11-10.92-35-30C966.31,427.3,981.05,306.18,1018.52,334.27Z" transform="translate(0)"/><g class="cls-57"><path class="cls-25" d="M858.87,179.36a12.54,12.54,0,0,0-8.31,3.38,1.7,1.7,0,0,1-2.69-.46v0a4.17,4.17,0,0,1,.35-5,15.16,15.16,0,0,1,21.32,0,4.17,4.17,0,0,1,.35,5v0a1.7,1.7,0,0,1-2.69.46A12.54,12.54,0,0,0,858.87,179.36Z" transform="translate(0)"/></g><g class="cls-57"><path class="cls-25" d="M858.87,167.43c-5.24,0-10.1,2.44-14.07,6.59a1.7,1.7,0,0,1-2.81-.35h0a4.23,4.23,0,0,1,.24-4.87c4.7-4.92,10.44-7.81,16.64-7.81s12,2.89,16.64,7.81a4.23,4.23,0,0,1,.25,4.87h0a1.7,1.7,0,0,1-2.81.35C869,169.87,864.11,167.43,858.87,167.43Z" transform="translate(0)"/></g><g class="cls-57"><path class="cls-25" d="M858.87,156.15c-7.34,0-14.11,3.64-19.52,9.75a1.71,1.71,0,0,1-2.87-.29h0a4.29,4.29,0,0,1,.2-4.84c6.15-6.94,13.85-11.07,22.19-11.07s16,4.13,22.19,11.07a4.29,4.29,0,0,1,.2,4.84h0a1.71,1.71,0,0,1-2.87.29C873,159.79,866.21,156.15,858.87,156.15Z" transform="translate(0)"/></g><path class="cls-24" d="M867.52,256l-13.62,3.5c-.88.23-1.75-.38-2.19-1.52l-18.48-48.75c-.7-1.84,0-4.13,1.46-4.5l13.62-3.5c.87-.23,1.75.38,2.18,1.52L869,251.47C869.68,253.3,868.93,255.59,867.52,256Z" transform="translate(0)"/><path class="cls-25" d="M869.57,255.56,856,259.07c-.88.23-1.75-.39-2.19-1.53l-18.48-48.75c-.7-1.83.05-4.13,1.46-4.49l13.62-3.51c.87-.22,1.75.39,2.18,1.53L871,251.07C871.73,252.91,871,255.2,869.57,255.56Z" transform="translate(0)"/><path class="cls-50" d="M859,216.36s7.54,3.09,7.18,10.1-.72,10-.72,10l-4.11-9.53s-7.85-4.16-7.76-7.16S859,216.36,859,216.36Z" transform="translate(0)"/><path class="cls-50" d="M836.62,218.13a115.79,115.79,0,0,0-.84,12.75c-.31,9.5,6.48,23.13,9.22,25s17.17-2.57,16.33-5.86-6.08-14-5.41-16.18S844.58,221,836.62,218.13Z" transform="translate(0)"/></g></g></svg>