<svg id="Layer_1" data-name="Layer 1" xmlns="http://www.w3.org/2000/svg" viewBox="0 0 717.67 595.33"><defs><style>.cls-1{fill:#3f3d56;}.cls-2{fill:#fff;}.cls-3{fill:#e6e6e6;}.cls-4{fill:#e33c8e;}.cls-5{fill:#636bff;}.cls-6{fill:#ffb6b6;}.cls-7{fill:#2f2e41;}.cls-8{fill:#008eca;}.cls-9{fill:#ccc;}.cls-10{fill:#02602d;}.cls-11{font-size:46px;fill:#264395;font-family:Arial-Black, Arial Black;font-weight:800;}.cls-12{letter-spacing:-0.03em;}.cls-13{fill:#58ab32;}</style></defs><rect class="cls-1" x="156.85" width="326" height="594" rx="58.73"/><path class="cls-2" d="M477.36,58.73V535.27a53.29,53.29,0,0,1-53.23,53.23H215.59a53.28,53.28,0,0,1-53.23-53.23V58.73A53.29,53.29,0,0,1,215.59,5.5h27.27v9.42A16.07,16.07,0,0,0,258.94,31H380.78a16.09,16.09,0,0,0,16.08-16.08V5.5h27.27A53.3,53.3,0,0,1,477.36,58.73Z" transform="translate(0)"/><path class="cls-1" d="M155.35,120.5a4,4,0,0,1-4-4v-8a4,4,0,0,1,8,0v8A4,4,0,0,1,155.35,120.5Z" transform="translate(0)"/><path class="cls-1" d="M155.35,161.52a4,4,0,0,1-4-4v-22a4,4,0,0,1,8,0v22A4,4,0,0,1,155.35,161.52Z" transform="translate(0)"/><path class="cls-1" d="M155.35,194.5a4,4,0,0,1-4-4v-22a4,4,0,0,1,8,0v22A4,4,0,0,1,155.35,194.5Z" transform="translate(0)"/><path class="cls-1" d="M483.35,176.5a4,4,0,0,1-4-4V118.77a4,4,0,1,1,8,0V172.5A4,4,0,0,1,483.35,176.5Z" transform="translate(0)"/><path class="cls-2" d="M328.45,18.35h-31a2.5,2.5,0,1,1,0-5h31a2.5,2.5,0,0,1,0,5Z" transform="translate(0)"/><circle class="cls-2" cx="344.45" cy="15.85" r="2"/><path class="cls-3" d="M230.94,29.07h-27a5,5,0,0,1,0-10h27a5,5,0,0,1,0,10Z" transform="translate(0)"/><path class="cls-3" d="M333.36,238.7h-27a5,5,0,0,1,0-10h27a5,5,0,0,1,0,10Z" transform="translate(0)"/><circle class="cls-3" cx="407.94" cy="24.07" r="4.5"/><circle class="cls-3" cx="421.94" cy="24.07" r="4.5"/><circle class="cls-3" cx="435.94" cy="24.07" r="4.5"/><path class="cls-4" d="M406.16,308.7H219.43a18.16,18.16,0,0,1-18.14-18.14V271.83a18.15,18.15,0,0,1,18.14-18.13H406.16a18.15,18.15,0,0,1,18.13,18.13v18.73A18.16,18.16,0,0,1,406.16,308.7Zm-186.73-53a16.15,16.15,0,0,0-16.14,16.13v18.73a16.16,16.16,0,0,0,16.14,16.14H406.16a16.16,16.16,0,0,0,16.13-16.14V271.83a16.15,16.15,0,0,0-16.13-16.13Z" transform="translate(0)"/><path class="cls-3" d="M333.36,377.7h-27a5,5,0,0,1,0-10h27a5,5,0,0,1,0,10Z" transform="translate(0)"/><path class="cls-5" d="M339.56,522.7H300.15a7.3,7.3,0,0,1,0-14.6h39.41a7.3,7.3,0,1,1,0,14.6Z" transform="translate(0)"/><path class="cls-4" d="M406.16,447.7H219.43a18.16,18.16,0,0,1-18.14-18.14V410.83a18.15,18.15,0,0,1,18.14-18.13H406.16a18.15,18.15,0,0,1,18.13,18.13v18.73A18.16,18.16,0,0,1,406.16,447.7Zm-186.73-53a16.15,16.15,0,0,0-16.14,16.13v18.73a16.16,16.16,0,0,0,16.14,16.14H406.16a16.16,16.16,0,0,0,16.13-16.14V410.83a16.15,16.15,0,0,0-16.13-16.13Z" transform="translate(0)"/><rect class="cls-3" x="198.94" y="193.5" width="241.5" height="2"/><path class="cls-6" d="M434.16,272.87a6.48,6.48,0,0,0,7.14,5.53,5.85,5.85,0,0,0,1-.21l13.43,18.18,11.63-3.57-21.1-22.92a6.47,6.47,0,0,0-6.75-4.08,6.19,6.19,0,0,0-5.38,6.9A1.11,1.11,0,0,0,434.16,272.87Z" transform="translate(0)"/><path class="cls-6" d="M603.22,400.52a6.49,6.49,0,0,1-.17-9,7.07,7.07,0,0,1,.77-.68l-6.55-21.63,9.81-7.19,5.77,30.61a6.47,6.47,0,0,1-.76,7.85,6.19,6.19,0,0,1-8.75.2Z" transform="translate(0)"/><polygon class="cls-6" points="547.62 582.43 537.72 582.43 533.01 544.24 547.63 544.24 547.62 582.43"/><path class="cls-7" d="M548,592.76H517.52v-.39a11.86,11.86,0,0,1,11.86-11.85h0l5.56-4.22,10.37,4.22H548Z" transform="translate(0)"/><polygon class="cls-6" points="590.62 582.43 580.72 582.43 576.01 544.24 590.63 544.24 590.62 582.43"/><path class="cls-7" d="M591,592.76H560.52v-.39a11.86,11.86,0,0,1,11.86-11.85h0l5.56-4.22,10.37,4.22H591Z" transform="translate(0)"/><path class="cls-7" d="M518.29,377.15S507,392.86,515.16,420s3.56,51.41,5.85,56.28,6.88,9.48,3.08,13.17-5.8,6.69-2.8,7.69,13,71,13,71l17,1s6.16-32.51-.42-58.76c0,0,1.44-19.05-1.57-24.64s-2.42-.55-2.21-7.57a61.62,61.62,0,0,1,2.2-15c1-4,1.58-44.31,1.58-44.31l22.1,49.8a13.42,13.42,0,0,1,.73,5.76c-.41,2.75-.41,6.87.09,8.31s1.06,1.75.78,4.59-.28,78.4-.28,78.4h19l9-75.55a24.45,24.45,0,0,1-4-6c-2-4-2.08-4.22-1-7.11s1-8.52,1-10.2,1-78.18-12-89.44S518.29,377.15,518.29,377.15Z" transform="translate(0)"/><path class="cls-8" d="M576.64,257.07l-19-4.92-8.86-12.22-21,2.59-4.48,16.66-15,8.7s8.28,87.57,6.31,92.38-9,4.41-3,10.61,6.83,3.7,5.43,10.45-11.6,13.89,0,13.82,81.6-1.07,79.6-9.07-2-6-5-11-5-2.21-4-9.61,0-12.4,0-16.4-3.35-40.35-3.35-40.35Z" transform="translate(0)"/><path class="cls-8" d="M517.42,266.2s-18.78-2.13-22.78,6.87-14.08,27.74-14.08,27.74-7.86-8.22-8.62-11.95c-.65-3.16-1,2.12-6.28-3.6-2.37-2.56-.37-2.56-3.37-3.56l-6-2-10,9s-.19,10.87,5,11-2-2,5,5c3.62,3.61.3,3,6.32,6.69s5.35,3.66,7.19,5.67,11.71,3.47,11.71,3.47l44.22-24.47Z" transform="translate(0)"/><path class="cls-8" d="M566.77,260.85s8.05-11.8,21.82,3.53,24,85.31,23.41,87.82-4.28,1.07,0,5.29,7.32,1.22,4.32,4.22-9.26,5.82-4.13,6.91-14.83,7.08-14.83,7.08-2.91-1.06-3-8.07c-.07-3.93,1.93-5.93-1.07-6.93s.69-7.68.37-8.84-19.31-52.15-19.31-52.15Z" transform="translate(0)"/><circle class="cls-6" cx="535.12" cy="214.78" r="23.06"/><path class="cls-7" d="M550.29,232.7c-5.45-4.26,2-23-7-19,0,0-11-7-13.21-2.4-2.56,5.32-11.66,2.91-17.25,1a13.86,13.86,0,0,0,.93-3.19,25.89,25.89,0,0,1-3.27,2.19,6.76,6.76,0,0,1-2-1.64,4.06,4.06,0,0,1-.51-4.61c.93-1.43,2.85-1.87,4-3.14a1.36,1.36,0,0,0,.19-1.26,3.59,3.59,0,0,1,2.56-4.39,2.94,2.94,0,0,1,.66-.11,1.42,1.42,0,0,0,.61-.13,14.53,14.53,0,0,0,2.61-2.06,27.3,27.3,0,0,1-3.94-.11l-.81-.1a8.84,8.84,0,0,1,5.47-5,25.62,25.62,0,0,1,7.92-1.11l4.64-.15a45.79,45.79,0,0,1,9.79.34,23.88,23.88,0,0,1,16.57,11.84C561.62,205.88,565.29,225.7,550.29,232.7Z" transform="translate(0)"/><path class="cls-5" d="M491.46,341.26l-118.85,42a11.77,11.77,0,0,1-15-7.16L337.2,318.37a11.74,11.74,0,0,1,7.16-15l118.85-42a11.76,11.76,0,0,1,15,7.17l20.42,57.74A11.77,11.77,0,0,1,491.46,341.26Z" transform="translate(0)"/><path class="cls-2" d="M365.19,316.78c-7.88,5.19-18,1.29-21.5-4.4l.56-.32C351,307.88,360.92,310.21,365.19,316.78Z" transform="translate(0)"/><path class="cls-2" d="M463.91,331.49a6.48,6.48,0,0,1-5.16-.09c-3.38-1.68-5-6.67-6.24-10.67-.37-1.17-.72-2.27-1.08-3.16v0a7.17,7.17,0,0,1,4.35-9.1l16-5.65a6.41,6.41,0,0,1,5.15.09c3.38,1.68,5,6.66,6.25,10.66.37,1.17.72,2.27,1.08,3.17a7.17,7.17,0,0,1-4.34,9.12Z" transform="translate(0)"/><path class="cls-2" d="M366,347.39a1.68,1.68,0,0,1-1.71-.28,2.11,2.11,0,0,1-.69-2,1.68,1.68,0,0,1,1.19-1.31l6.08-2.15a1.69,1.69,0,0,1,1.75.28,2.08,2.08,0,0,1,.69,1.95,1.71,1.71,0,0,1-1.19,1.31L366,347.38Z" transform="translate(0)"/><path class="cls-2" d="M362.72,361.2a3,3,0,0,1-2.89-1.08,3.74,3.74,0,0,1-.53-3.63,3,3,0,0,1,2.51-1.88L384.47,347a3,3,0,0,1,2.95,1.08,3.74,3.74,0,0,1,.54,3.63,3,3,0,0,1-2.52,1.87l-22.66,7.61Z" transform="translate(0)"/><rect class="cls-2" x="337.9" y="305.92" width="149.13" height="0.71" transform="translate(-78.5 155.01) rotate(-19.47)"/><circle class="cls-5" cx="460.29" cy="315.7" r="4"/><circle class="cls-5" cx="473.29" cy="317.7" r="3"/><path class="cls-9" d="M0,594.14a1.19,1.19,0,0,0,1.18,1.19h715.3a1.19,1.19,0,1,0,0-2.38H1.19A1.18,1.18,0,0,0,0,594.13Z" transform="translate(0)"/><path class="cls-10" d="M248.65,568.35a2.8,2.8,0,0,1-2-4.86l.19-.77-.07-.18a7.54,7.54,0,0,0-13.91.05c-2.28,5.48-5.17,11-5.88,16.76a22,22,0,0,0,.39,7.67,89.33,89.33,0,0,1-8.14-37.14,86.07,86.07,0,0,1,.54-9.63q.44-3.93,1.23-7.8a90.38,90.38,0,0,1,17.94-38.34,24.13,24.13,0,0,0,10-10.39,18.42,18.42,0,0,0,1.67-5c-.49.07-1.84-7.36-1.47-7.81-.68-1-1.9-1.55-2.64-2.55-3.69-5-8.77-4.13-11.42,2.67-5.67,2.86-5.73,7.6-2.25,12.17,2.21,2.9,2.52,6.83,4.46,9.94-.2.25-.41.5-.61.76a90.85,90.85,0,0,0-9.5,15.05,37.88,37.88,0,0,0-2.26-17.58c-2.16-5.22-6.22-9.61-9.79-14.12-4.28-5.42-13.08-3.05-13.83,3.81a1.5,1.5,0,0,0,0,.2c.53.3,1.05.62,1.55,1a3.81,3.81,0,0,1-1.53,6.93h-.08a37.48,37.48,0,0,0,1,5.66c-4.58,17.71,5.31,24.16,19.42,24.45l.93.47a93,93,0,0,0-5,23.54,89,89,0,0,0,.06,14.23l0-.16a23.25,23.25,0,0,0-8-13.45c-6.12-5-14.76-6.88-21.36-10.92a4.38,4.38,0,0,0-6.7,4.25l0,.18a26.06,26.06,0,0,1,2.87,1.38c.53.3,1.05.62,1.55,1a3.81,3.81,0,0,1,1.06,5.28,3.86,3.86,0,0,1-2.59,1.65h-.08l-.16,0a37.66,37.66,0,0,0,7,10.92c2.86,15.46,15.16,16.93,28.31,12.43h0a93.78,93.78,0,0,0,6.24,18.22h22.3c.08-.25.15-.51.22-.75a25.52,25.52,0,0,1-6.17-.37c1.66-2,3.31-4.08,5-6.11a.65.65,0,0,0,.11-.12l2.52-3.1h0a37.16,37.16,0,0,0-1.08-9.45Z" transform="translate(0)"/><text class="cls-11" transform="translate(226.07 141.81)">Bi<tspan class="cls-12" x="51.1" y="0">k</tspan><tspan x="80.21" y="0">epal</tspan></text><path class="cls-13" d="M221.72,186.38l-2.22.43-2.83-15.34v0c-.36.74-1.15,2.45-2.37,5.15s-2.41,5.39-3.57,8.1h-1.89q-1.62-3.76-3.6-8.14t-2.31-5.09h0q-.07.36-1.1,5.23t-2,10.09l-2.1-.39c.91-3.92,1.76-7.82,2.56-11.67s1.22-5.95,1.29-6.28l2.18-.31q.13.31,1.93,4.4t4.23,9.42H210q1.86-4.19,3.93-8.91l2.16-4.91,2.07.16c0,.2.4,2.2,1.13,6S220.84,182.12,221.72,186.38Z" transform="translate(0)"/><path class="cls-13" d="M236.12,179.23h-9.89a6.08,6.08,0,0,0,.62,2.66,5,5,0,0,0,1.85,2,6,6,0,0,0,1.8.76,10.09,10.09,0,0,0,2.43.25c.52,0,1,0,1.43,0l.8-.05-.24,1.81-.73,0c-.41,0-.89,0-1.45,0a11.43,11.43,0,0,1-3.8-.57,7.09,7.09,0,0,1-2.66-1.57,6.73,6.73,0,0,1-1.51-2.13,6.54,6.54,0,0,1-.63-2.88,8.1,8.1,0,0,1,.47-2.82A7.59,7.59,0,0,1,226,174.4a5.31,5.31,0,0,1,2-1.43,6.54,6.54,0,0,1,4.73-.13,4.56,4.56,0,0,1,1.71,1.16,5.87,5.87,0,0,1,1.23,2.16A10.12,10.12,0,0,1,236.12,179.23ZM234,177.7a4.57,4.57,0,0,0-1.15-2.66,3.28,3.28,0,0,0-2.47-1,3.57,3.57,0,0,0-2.56,1,5.18,5.18,0,0,0-1.42,2.65Z" transform="translate(0)"/><path class="cls-13" d="M259.33,186.65h-2.16c0-.1,0-.74,0-1.91s0-2.29,0-3.33c0-.41,0-1.08,0-2s0-1.64,0-2.1a3.39,3.39,0,0,0-.65-2.27,2.5,2.5,0,0,0-1.88-.63,5.6,5.6,0,0,0-1.78.37,13.56,13.56,0,0,0-2.33,1.16v.28c0,.13,0,.31,0,.53,0,.74,0,1.48,0,2.24s0,1.49,0,2.18c0,1.51,0,2.78,0,3.81s0,1.59,0,1.68h-2.16q0-.15,0-1.65c0-1,0-2.19,0-3.56,0-.45,0-1.14,0-2.07s0-1.61,0-2a8.31,8.31,0,0,0-.11-1.15,2.16,2.16,0,0,0-.36-.93,1.8,1.8,0,0,0-.73-.64,3.14,3.14,0,0,0-1.29-.21,4.56,4.56,0,0,0-1.79.45,18.09,18.09,0,0,0-2.35,1.29c0,.15,0,.73,0,1.74s0,1.83,0,2.46q0,1.64,0,3.9c0,1.52,0,2.32,0,2.41h-2.16q0-.1,0-1.59c0-1,0-2.63,0-4.92v-3c0-1.27,0-2.7-.05-4.31h2.13v1.58h0a14.08,14.08,0,0,1,2.31-1.3,5.91,5.91,0,0,1,2.45-.64,4.14,4.14,0,0,1,2.23.56,3.16,3.16,0,0,1,1.28,1.42h0a16.8,16.8,0,0,1,2.89-1.47,6.45,6.45,0,0,1,2.25-.51,3.92,3.92,0,0,1,2.95,1.1,4.13,4.13,0,0,1,1.06,3c0,1,0,1.78,0,2.44s0,1.36,0,2.1c0,1.53,0,2.83,0,3.89S259.33,186.58,259.33,186.65Z" transform="translate(0)"/><path class="cls-13" d="M276.07,179.62a6.47,6.47,0,0,1-4.08,6.25,11.29,11.29,0,0,1-2.77.76,25.1,25.1,0,0,1-3.75.24h-1.21c0-.7,0-2,0-3.91s0-4.19,0-6.87c0-1.64,0-3.23,0-4.77s0-3.11,0-4.71h2.16l0,6.3a18.26,18.26,0,0,1,4.49.5,8.8,8.8,0,0,1,2.81,1.28,5.54,5.54,0,0,1,1.77,2.08A6.35,6.35,0,0,1,276.07,179.62Zm-2.19,0a4.15,4.15,0,0,0-.94-2.77,5.17,5.17,0,0,0-2.41-1.62,10,10,0,0,0-1.65-.41,12.32,12.32,0,0,0-1.83-.14h-.67c0,.2,0,.93,0,2.18s0,2.28,0,3.09c0,1.52,0,2.59,0,3.22s0,1.27,0,1.91a15.56,15.56,0,0,0,2.75-.22,7.58,7.58,0,0,0,2.14-.7,4.73,4.73,0,0,0,2-1.84A5.39,5.39,0,0,0,273.88,179.67Z" transform="translate(0)"/><path class="cls-13" d="M290.42,179.23h-9.88a6.08,6.08,0,0,0,.61,2.66,5.12,5.12,0,0,0,1.85,2,6,6,0,0,0,1.81.76,10,10,0,0,0,2.43.25c.52,0,1,0,1.43,0l.8-.05-.25,1.81-.72,0c-.41,0-.9,0-1.45,0a11.49,11.49,0,0,1-3.81-.57,7.17,7.17,0,0,1-2.66-1.57,6.89,6.89,0,0,1-1.51-2.13,6.53,6.53,0,0,1-.62-2.88,8.1,8.1,0,0,1,.46-2.82,7.62,7.62,0,0,1,1.4-2.34,5.2,5.2,0,0,1,2-1.43,6.26,6.26,0,0,1,2.48-.51,6.33,6.33,0,0,1,2.26.38,4.72,4.72,0,0,1,1.71,1.16,6.16,6.16,0,0,1,1.23,2.16A9.84,9.84,0,0,1,290.42,179.23Zm-2.11-1.53a4.58,4.58,0,0,0-1.16-2.66,3.26,3.26,0,0,0-2.47-1,3.55,3.55,0,0,0-2.55,1,5.2,5.2,0,0,0-1.43,2.65Z" transform="translate(0)"/><path class="cls-13" d="M302,174.43a22.78,22.78,0,0,0-2.3.75c-1,.38-2.23.89-3.58,1.53,0,.1,0,.56,0,1.38s0,1.57,0,2.27c0,1.08,0,2.35,0,3.83s0,2.3,0,2.46H294q0-.22,0-1.53t0-4.44c0-.85,0-2,0-3.56s0-3,0-4.31h2.12v2.08l0,0a28.84,28.84,0,0,1,3.05-1.52,18.48,18.48,0,0,1,2.4-.88Z" transform="translate(0)"/><path class="cls-13" d="M312.34,182.65a3.33,3.33,0,0,1-.49,1.8,3.85,3.85,0,0,1-1.29,1.28,6.56,6.56,0,0,1-2,.79,10.94,10.94,0,0,1-2.52.27c-.45,0-.92,0-1.4-.06l-.81-.08-.08-1.79,1,.08q.82.06,1.65.06a10.73,10.73,0,0,0,1.23-.09,4,4,0,0,0,1.24-.3,2.45,2.45,0,0,0,1-.73,1.74,1.74,0,0,0,.33-1.06,1.42,1.42,0,0,0-.29-.91,3.42,3.42,0,0,0-.79-.67,9.11,9.11,0,0,0-1.5-.79,14.58,14.58,0,0,1-1.59-.8,4.08,4.08,0,0,1-1.4-1.33,3.27,3.27,0,0,1-.49-1.77,3.14,3.14,0,0,1,.56-1.82,4.07,4.07,0,0,1,1.48-1.3,5.31,5.31,0,0,1,1.79-.58,12.51,12.51,0,0,1,1.9-.14c.55,0,1,0,1.37,0l.61,0,.15,1.82-.84-.06c-.5,0-1-.05-1.64-.05a6.42,6.42,0,0,0-1.19.11,3.69,3.69,0,0,0-1,.31,2,2,0,0,0-.84.73,1.58,1.58,0,0,0-.26.82,1.35,1.35,0,0,0,.36.94,3.07,3.07,0,0,0,.84.67q.56.33,1.53.78a12,12,0,0,1,1.41.73,4.66,4.66,0,0,1,1.46,1.34A3.05,3.05,0,0,1,312.34,182.65Z" transform="translate(0)"/><path class="cls-13" d="M327.54,186.65h-2.16c0-.27,0-1.09,0-2.47s0-2.27,0-2.71,0-1.17,0-2.1,0-1.6,0-2a3.8,3.8,0,0,0-.6-2.26,2.4,2.4,0,0,0-1.94-.68,5.92,5.92,0,0,0-2,.47,16.46,16.46,0,0,0-2.57,1.27l.06,10.51H316.2c0-.35,0-1.79,0-4.3s0-4.58,0-6.2c0-1.06,0-2.39,0-4s0-3.45,0-5.54h2.16l-.06,7.78h0a22,22,0,0,1,3.2-1.52,6.86,6.86,0,0,1,2.14-.42,3.75,3.75,0,0,1,2.81,1.1,4.18,4.18,0,0,1,1.06,3c0,1.15,0,2.14,0,3s0,1.51,0,2c0,.83,0,1.78,0,2.86S327.53,186.25,327.54,186.65Z" transform="translate(0)"/><path class="cls-13" d="M334.9,170.16h-2.41v-2.35h2.41Zm-.12,16.49h-2.16c0-.14,0-1,0-2.69s0-3,0-4.09,0-2,0-3.1,0-2.44,0-4h2.16c0,1.32,0,2.55,0,3.69s0,2.16,0,3.06c0,2.12,0,3.82,0,5.11S334.78,186.61,334.78,186.65Z" transform="translate(0)"/><path class="cls-13" d="M351.76,179.31a6.57,6.57,0,0,1-.95,3.6,6.77,6.77,0,0,1-2.54,2.35,10.53,10.53,0,0,1-3.06,1,17.92,17.92,0,0,1-3.17.3l0,6.27h-2.17q0-.23,0-3.78c0-2.36,0-4.74,0-7.11,0-1.2,0-2.59,0-4.17s0-3.28,0-5.1l.86,0h.67a25.29,25.29,0,0,1,4.45.3,8.94,8.94,0,0,1,2.89,1.07,5.89,5.89,0,0,1,2.17,2.15A6,6,0,0,1,351.76,179.31Zm-2.19.07a4.31,4.31,0,0,0-.63-2.34,4.65,4.65,0,0,0-1.64-1.6,7,7,0,0,0-2.09-.76,12.5,12.5,0,0,0-2.53-.24h-.62c0,.16,0,.7,0,1.62s0,2.52,0,4.79c0,.47,0,1.13,0,2s0,1.54,0,2a14.05,14.05,0,0,0,2.57-.24,8.6,8.6,0,0,0,2.12-.65,5.12,5.12,0,0,0,2.11-1.82A5,5,0,0,0,349.57,179.38Z" transform="translate(0)"/><path class="cls-13" d="M374.58,174.61a5.65,5.65,0,0,1-1.29,3.61,6.42,6.42,0,0,1-3.45,2.18,12,12,0,0,1-2,.36c-.73.07-1.55.11-2.45.11l0,5.78h-2.26c0-.55,0-1.56,0-3s0-3.77,0-6.87c0-1,0-2.19,0-3.62s0-3-.06-4.78h2.08a23.07,23.07,0,0,1,4,.3,7.55,7.55,0,0,1,2.79,1,5.21,5.21,0,0,1,1.9,2A6.14,6.14,0,0,1,374.58,174.61Zm-2.33,0a4,4,0,0,0-2.61-4,5.74,5.74,0,0,0-1.78-.44c-.64-.06-1.29-.09-2-.09h-.5c0,.1,0,.78,0,2s0,2.27,0,3,0,1.47,0,2.39,0,1.44,0,1.57h.54a17,17,0,0,0,1.95-.12,6,6,0,0,0,1.77-.45,4.42,4.42,0,0,0,2-1.52A4.1,4.1,0,0,0,372.25,174.61Z" transform="translate(0)"/><path class="cls-13" d="M386.26,174.43a23.64,23.64,0,0,0-2.3.75c-1,.38-2.23.89-3.57,1.53,0,.1,0,.56,0,1.38s0,1.57,0,2.27c0,1.08,0,2.35,0,3.83s0,2.3,0,2.46h-2.16c0-.15,0-.66,0-1.53s0-2.35,0-4.44c0-.85,0-2,0-3.56s0-3,0-4.31h2.12v2.1a29.83,29.83,0,0,1,3.05-1.52,18.48,18.48,0,0,1,2.4-.88Z" transform="translate(0)"/><path class="cls-13" d="M391.47,170.16h-2.4v-2.35h2.4Zm-.12,16.49h-2.16c0-.14,0-1,0-2.69s0-3,0-4.09,0-2,0-3.1,0-2.44-.05-4h2.16c0,1.32,0,2.55-.05,3.69s0,2.16,0,3.06c0,2.12,0,3.82,0,5.11S391.35,186.61,391.35,186.65Z" transform="translate(0)"/><path class="cls-13" d="M405.61,184.87l-.16,1.84h-.76a15.6,15.6,0,0,1-3.29-.34,10.28,10.28,0,0,1-2.75-1,6.85,6.85,0,0,1-2.58-2.39,6.17,6.17,0,0,1-.93-3.33,5.59,5.59,0,0,1,.85-3,6.89,6.89,0,0,1,2.21-2.25,9.55,9.55,0,0,1,2.95-1.21,14.79,14.79,0,0,1,3.54-.42h.56l.11,1.84h-.42a16,16,0,0,0-2.59.18,9.62,9.62,0,0,0-2.09.61,4.6,4.6,0,0,0-2.14,1.72,4.42,4.42,0,0,0-.79,2.52,4.6,4.6,0,0,0,.74,2.68,4.91,4.91,0,0,0,2,1.68,7.93,7.93,0,0,0,2.16.67,14.78,14.78,0,0,0,2.54.2h.86Z" transform="translate(0)"/><path class="cls-13" d="M411.64,170.16h-2.41v-2.35h2.41Zm-.12,16.49h-2.16c0-.14,0-1,0-2.69s0-3,0-4.09,0-2,0-3.1,0-2.44,0-4h2.16c0,1.32,0,2.55,0,3.69s0,2.16,0,3.06c0,2.12,0,3.82,0,5.11S411.52,186.61,411.52,186.65Z" transform="translate(0)"/><path class="cls-13" d="M428,186.65h-2.16c0-.25,0-1.1,0-2.53s0-2.31,0-2.65,0-1.17,0-2.1,0-1.6,0-2a3.8,3.8,0,0,0-.6-2.26,2.4,2.4,0,0,0-1.94-.68,5.75,5.75,0,0,0-2.07.49,17.05,17.05,0,0,0-2.48,1.26c0,.1,0,.64,0,1.63s0,1.88,0,2.69c0,1.06,0,2.33,0,3.83s0,2.28,0,2.35h-2.16c0-.06,0-.62,0-1.67s0-2.62,0-4.7v-3.36c0-1.29,0-2.66,0-4.11h2.13v1.6a20.22,20.22,0,0,1,3.19-1.52,6.83,6.83,0,0,1,2.13-.43,3.74,3.74,0,0,1,2.81,1.1,4.18,4.18,0,0,1,1.06,3c0,1.15,0,2.14,0,3s0,1.51,0,2c0,.83,0,1.86,0,3.11S428,186.59,428,186.65Z" transform="translate(0)"/><path class="cls-13" d="M443.39,172.69c0,.2,0,1.1,0,2.71s0,3.13,0,4.58c0,1,0,2,0,3s0,1.95,0,2.8a7,7,0,0,1-.8,3.66,5.74,5.74,0,0,1-2.27,2.12,11.16,11.16,0,0,1-2.83,1,19.69,19.69,0,0,1-4.05.35l-.22-1.73c1.07,0,2-.08,2.87-.18a9.79,9.79,0,0,0,2.31-.52,4.31,4.31,0,0,0,2.23-1.59,4.64,4.64,0,0,0,.66-2.42h-.66a15.2,15.2,0,0,1-3.35-.39,8.36,8.36,0,0,1-2.94-1.23,6.28,6.28,0,0,1-1.95-2.11,6.35,6.35,0,0,1-.76-3.21,5.59,5.59,0,0,1,1.06-3.38,7.3,7.3,0,0,1,2.81-2.32,9.85,9.85,0,0,1,2.74-.86,23,23,0,0,1,3.59-.24h1.58Zm-2.1,7.27V177.5c0-1,0-2,0-3.07h-.35a13.11,13.11,0,0,0-2.22.16,9.18,9.18,0,0,0-2,.62,4.54,4.54,0,0,0-2.13,1.76,4.8,4.8,0,0,0-.74,2.62,4.49,4.49,0,0,0,.73,2.57,4.83,4.83,0,0,0,2,1.65,9.1,9.1,0,0,0,1.93.64,10.88,10.88,0,0,0,2.33.25h.51c0-.11,0-.62,0-1.53S441.29,181.2,441.29,180Z" transform="translate(0)"/></svg>