<svg id="Layer_1" data-name="Layer 1" xmlns="http://www.w3.org/2000/svg" viewBox="0 0 885 632"><defs><style>.cls-1{fill:#f1841c;}.cls-2{fill:#ccc;}.cls-3{fill:#47b7ea;}.cls-4{fill:#f2f2f2;}.cls-5{fill:#42bced;}.cls-6{fill:#3f3d56;}.cls-7{fill:#e6e6e6;}.cls-8{fill:#009539;}.cls-9{fill:#734207;}.cls-10{fill:#019539;}.cls-11{fill:#e82d88;}.cls-12{fill:#ed8eba;}.cls-13{fill:#fff;}.cls-14{fill:#ffb8b8;}.cls-15{fill:#636bff;}.cls-16{fill:#2f2e41;}.cls-17{fill:#a0616a;}.cls-18{fill:#ff6584;}.cls-19{fill:#b3b3b3;}</style></defs><path class="cls-1" d="M22,520.94c0-9.45,5.77-17.11,12.87-17.1s12.84,7.66,12.84,17.1" transform="translate(0 -21.31)"/><path class="cls-2" d="M34.82,520.94a.42.42,0,0,1-.35-.46v-9c0-.26.15-.46.35-.46s.34.2.34.46h0v9C35.16,520.74,35,520.94,34.82,520.94Z" transform="translate(0 -21.31)"/><path class="cls-2" d="M34.82,517.84a.3.3,0,0,1-.23-.11L30.42,513a.57.57,0,0,1,0-.65.29.29,0,0,1,.49-.06h0L35,517a.56.56,0,0,1,0,.65.33.33,0,0,1-.26.16Z" transform="translate(0 -21.31)"/><path class="cls-1" d="M69.44,576.35c0-13.31,6.5-24.08,14.51-24.07s14.47,10.78,14.48,24.07" transform="translate(0 -21.31)"/><path class="cls-2" d="M83.93,576.35c-.21,0-.39-.29-.39-.65V563c0-.36.18-.65.39-.65s.39.29.4.65v12.7C84.33,576.06,84.15,576.35,83.93,576.35Z" transform="translate(0 -21.31)"/><path class="cls-2" d="M83.93,572a.32.32,0,0,1-.25-.16L79,565.12a1,1,0,0,1,0-.91c.14-.28.38-.32.55-.08h0l4.7,6.7a1,1,0,0,1,0,.92.36.36,0,0,1-.3.23Z" transform="translate(0 -21.31)"/><ellipse class="cls-3" cx="662.86" cy="48.15" rx="27.87" ry="46.31"/><ellipse class="cls-4" cx="91.89" cy="596.91" rx="25.34" ry="9.82"/><path class="cls-5" d="M79,214.94c6.64-34.49,22.87-61.23,42.11-77.13,22.84-18.87,49.07-21,73.87-13.67,26.76,7.93,51.77,26.21,76,46.16,23.75,19.56,47.12,40.22,71.81,56.39C392,258.92,444.3,276.91,497.26,279.87c47.66,2.65,98.62-6,139.43-50.55,37.4-40.78,61.19-108.07,73.58-178.21q2.38-13.47,4.24-27.17c.36-2.64-2.09-3.77-2.45-1.12-10,73.24-31.31,145.63-67.74,192.32-39.39,50.5-91.09,62.17-139.48,60.84-53.53-1.56-106.49-18.54-156.53-50.2-25.33-16-49.24-36.83-73.45-56.92-23.68-19.65-48-38-74.06-47.1-23.78-8.28-49.23-8.78-72.16,5.94-18.87,12.13-36.08,33.74-46.15,63.3a171.67,171.67,0,0,0-6,22.82c-.49,2.58,1.95,3.69,2.45,1.12Z" transform="translate(0 -21.31)"/><path class="cls-6" d="M440.71,537.34c.47,0,.85-.63.85-1.4s-.38-1.41-.85-1.41h-8v-5.61h8c.47,0,.85-.63.85-1.41s-.38-1.4-.85-1.4H372.3c-.47,0-.85.63-.85,1.4s.38,1.41.85,1.41h8v5.61h-8c-.47,0-.85.63-.85,1.41s.38,1.4.85,1.4h8V543h-8c-.47,0-.85.63-.85,1.41s.38,1.4.85,1.4h8v5.61h-7.18c-.93,0-1.69,1.26-1.69,2.81s.76,2.81,1.69,2.81H380a3.19,3.19,0,0,0-.08.7v19.65c0,1.16.57,2.1,1.27,2.1s1.26-.94,1.26-2.1V557.69a3.2,3.2,0,0,0-.07-.7h48.3a3.19,3.19,0,0,0-.08.7v19.65c0,1.16.57,2.1,1.27,2.1s1.26-.94,1.26-2.1V557.69a4,4,0,0,0-.07-.7h6.83c.93,0,1.69-1.26,1.69-2.81s-.76-2.81-1.69-2.81h-7.18v-5.61h8c.47,0,.85-.63.85-1.4s-.38-1.41-.85-1.41h-8v-5.61ZM382,528.92h49v5.61H382Zm49,22.45H382v-5.61h49Zm0-8.42H382v-5.61h49Z" transform="translate(0 -21.31)"/><path class="cls-7" d="M183.11,478.43c0-24.78-12.1-83.6-27-83.6s-27,58.82-27,83.6,12.1,44.91,27,44.91,27-20.1,27-44.91Z" transform="translate(0 -21.31)"/><path class="cls-8" d="M176.35,478.43c0-24.78-12.1-83.6-27-83.6s-27,58.82-27,83.6,12.1,44.91,27,44.91,27-20.1,27-44.91Z" transform="translate(0 -21.31)"/><path class="cls-9" d="M150.17,578.85c-.47,0-.84-.63-.84-1.4V452.34c0-.77.37-1.4.84-1.4s.85.63.85,1.4V577.45C151,578.22,150.64,578.85,150.17,578.85Z" transform="translate(0 -21.31)"/><path class="cls-9" d="M150.17,472.85c-.47,0-.84-.63-.84-1.4a2,2,0,0,1,.24-1l11.05-18.36a.64.64,0,0,1,1.19,0,2.12,2.12,0,0,1,0,2l-11,18.35A.74.74,0,0,1,150.17,472.85Z" transform="translate(0 -21.31)"/><path class="cls-6" d="M461,578.85c-.47,0-.85-.63-.85-1.4V452.34c0-.77.38-1.4.85-1.4s.84.63.84,1.4V577.45C461.84,578.22,461.46,578.85,461,578.85Z" transform="translate(0 -21.31)"/><path class="cls-7" d="M551.37,478.43c0-24.78-12.1-83.6-27-83.6s-27,58.82-27,83.6,12.11,44.91,27,44.91,27-20.1,27-44.91Z" transform="translate(0 -21.31)"/><path class="cls-10" d="M544.61,478.43c0-24.78-12.1-83.6-27-83.6s-27,58.82-27,83.6,12.1,44.91,27,44.91,27-20.1,27-44.91Z" transform="translate(0 -21.31)"/><path class="cls-9" d="M518.43,578.85c-.47,0-.84-.63-.84-1.4V452.34c0-.77.37-1.4.84-1.4s.84.63.84,1.4V577.45C519.27,578.22,518.9,578.85,518.43,578.85Z" transform="translate(0 -21.31)"/><path class="cls-9" d="M518.43,472.85c-.47,0-.84-.63-.84-1.4a1.94,1.94,0,0,1,.24-1l11-18.36a.64.64,0,0,1,1.19,0,2.12,2.12,0,0,1,0,2l-11,18.35A.75.75,0,0,1,518.43,472.85Z" transform="translate(0 -21.31)"/><path class="cls-11" d="M239.7,94H226.19c-2.1,0-3.8-2.83-3.8-6.31V35.78c0-3.49,1.7-6.31,3.8-6.32H239.7c2.1,0,3.8,2.83,3.8,6.32V87.71C243.5,91.19,241.8,94,239.7,94Z" transform="translate(0 -21.31)"/><path class="cls-11" d="M292.91,578.22H223.65c-4,0-7.17-5.34-7.18-11.93V101.74c0-6.58,3.22-11.92,7.18-11.93h69.26c4,0,7.18,5.35,7.18,11.93V566.29C300.09,572.88,296.88,578.22,292.91,578.22Z" transform="translate(0 -21.31)"/><path class="cls-12" d="M251.53,578.22H182.27c-4,0-7.18-5.34-7.18-11.93V101.74c0-6.58,3.21-11.92,7.18-11.93h69.26c4,0,7.17,5.35,7.18,11.93V566.29C258.7,572.88,255.49,578.22,251.53,578.22Z" transform="translate(0 -21.31)"/><path class="cls-12" d="M227,94H213.52c-2.1,0-3.8-2.83-3.8-6.31V35.78c0-3.49,1.7-6.31,3.8-6.32H227c2.1,0,3.8,2.83,3.8,6.32V87.71C230.83,91.19,229.13,94,227,94Z" transform="translate(0 -21.31)"/><path class="cls-13" d="M209.3,195.07H193.25c-1.17,0-2.11-1.57-2.11-3.51v-40.7c0-1.93.94-3.5,2.11-3.51H209.3c1.16,0,2.11,1.58,2.11,3.51v40.7C211.41,193.5,210.46,195.07,209.3,195.07Z" transform="translate(0 -21.31)"/><path class="cls-13" d="M240.55,195.07H224.5c-1.17,0-2.11-1.57-2.11-3.51v-40.7c0-1.93.94-3.5,2.11-3.51h16.05c1.16,0,2.11,1.58,2.11,3.51v40.7C242.66,193.5,241.71,195.07,240.55,195.07Z" transform="translate(0 -21.31)"/><path class="cls-13" d="M209.3,269.46H193.25c-1.17,0-2.11-1.57-2.11-3.51v-40.7c0-1.94.94-3.51,2.11-3.51H209.3c1.16,0,2.11,1.57,2.11,3.51V266C211.41,267.89,210.46,269.45,209.3,269.46Z" transform="translate(0 -21.31)"/><path class="cls-13" d="M240.55,269.46H224.5c-1.17,0-2.11-1.57-2.11-3.51v-40.7c0-1.94.94-3.51,2.11-3.51h16.05c1.16,0,2.11,1.57,2.11,3.51V266C242.66,267.89,241.71,269.45,240.55,269.46Z" transform="translate(0 -21.31)"/><path class="cls-13" d="M209.3,343.84H193.25c-1.17,0-2.11-1.57-2.11-3.51v-40.7c0-1.94.94-3.5,2.11-3.51H209.3c1.16,0,2.11,1.57,2.11,3.51v40.7C211.41,342.27,210.46,343.84,209.3,343.84Z" transform="translate(0 -21.31)"/><path class="cls-13" d="M240.55,343.84H224.5c-1.17,0-2.11-1.57-2.11-3.51v-40.7c0-1.94.94-3.5,2.11-3.51h16.05c1.16,0,2.11,1.57,2.11,3.51v40.7C242.66,342.27,241.71,343.84,240.55,343.84Z" transform="translate(0 -21.31)"/><path class="cls-13" d="M209.3,418.23H193.25c-1.17,0-2.11-1.58-2.11-3.51V374c0-1.94.94-3.51,2.11-3.51H209.3c1.16,0,2.11,1.57,2.11,3.51v40.7C211.41,416.65,210.46,418.22,209.3,418.23Z" transform="translate(0 -21.31)"/><path class="cls-13" d="M240.55,418.23H224.5c-1.17,0-2.11-1.58-2.11-3.51V374c0-1.94.94-3.51,2.11-3.51h16.05c1.16,0,2.11,1.57,2.11,3.51v40.7C242.66,416.65,241.71,418.22,240.55,418.23Z" transform="translate(0 -21.31)"/><path class="cls-13" d="M209.3,492.61H193.25c-1.17,0-2.11-1.57-2.11-3.51V448.4c0-1.94.94-3.51,2.11-3.51H209.3c1.16,0,2.11,1.57,2.11,3.51v40.7C211.41,491,210.46,492.61,209.3,492.61Z" transform="translate(0 -21.31)"/><path class="cls-13" d="M240.55,492.61H224.5c-1.17,0-2.11-1.57-2.11-3.51V448.4c0-1.94.94-3.51,2.11-3.51h16.05c1.16,0,2.11,1.57,2.11,3.51v40.7C242.66,491,241.71,492.61,240.55,492.61Z" transform="translate(0 -21.31)"/><path class="cls-12" d="M588.53,339.63H575c-2.1,0-3.8-2.83-3.8-6.31V303.84c0-3.48,1.7-6.31,3.8-6.31h13.51c2.1,0,3.8,2.83,3.81,6.31v29.48C592.33,336.8,590.63,339.63,588.53,339.63Z" transform="translate(0 -21.31)"/><path class="cls-12" d="M702.56,579.63H633.3c-4,0-7.17-5.35-7.18-11.93V344.54c0-6.58,3.22-11.92,7.18-11.93h69.26c4,0,7.17,5.35,7.18,11.93V567.7C709.73,574.28,706.52,579.62,702.56,579.63Z" transform="translate(0 -21.31)"/><path class="cls-11" d="M661.17,579.63H541.24c-4,0-7.18-5.35-7.18-11.93V344.54c0-6.58,3.21-11.92,7.18-11.93H661.17c4,0,7.18,5.35,7.18,11.93V567.7C668.35,574.28,665.14,579.62,661.17,579.63Z" transform="translate(0 -21.31)"/><path class="cls-11" d="M575.87,339.63H562.35c-2.1,0-3.8-2.83-3.8-6.31V303.84c0-3.48,1.7-6.31,3.8-6.31h13.52c2.09,0,3.79,2.83,3.8,6.31v29.48C579.66,336.8,578,339.63,575.87,339.63Z" transform="translate(0 -21.31)"/><path class="cls-13" d="M593.6,442.79H577.55c-1.16,0-2.11-1.58-2.11-3.51v-40.7c0-1.94.95-3.51,2.11-3.51H593.6c1.17,0,2.11,1.57,2.11,3.51v40.7C595.71,441.21,594.77,442.78,593.6,442.79Z" transform="translate(0 -21.31)"/><path class="cls-13" d="M624.85,442.79h-16c-1.17,0-2.11-1.58-2.12-3.51v-40.7c0-1.94.95-3.51,2.12-3.51h16c1.17,0,2.11,1.57,2.12,3.51v40.7C627,441.21,626,442.78,624.85,442.79Z" transform="translate(0 -21.31)"/><path class="cls-13" d="M593.6,517.17H577.55c-1.16,0-2.11-1.57-2.11-3.51V473c0-1.94.95-3.5,2.11-3.51H593.6c1.17,0,2.11,1.57,2.11,3.51v40.7C595.71,515.6,594.77,517.17,593.6,517.17Z" transform="translate(0 -21.31)"/><path class="cls-13" d="M624.85,517.17h-16c-1.17,0-2.11-1.57-2.12-3.51V473c0-1.94.95-3.5,2.12-3.51h16C626,469.46,627,471,627,473v40.7C627,515.6,626,517.17,624.85,517.17Z" transform="translate(0 -21.31)"/><path class="cls-9" d="M884.16,580.33H.84c-.46,0-.84-.63-.84-1.41s.38-1.4.84-1.4H884.16c.46,0,.84.63.84,1.4S884.62,580.33,884.16,580.33Z" transform="translate(0 -21.31)"/><path class="cls-7" d="M306.43,629.45H227.88c-.47,0-.85-.63-.85-1.4s.38-1.41.85-1.41h78.55c.46,0,.84.63.84,1.41S306.89,629.45,306.43,629.45Z" transform="translate(0 -21.31)"/><path class="cls-7" d="M501.54,629.45H423c-.47,0-.85-.63-.85-1.4s.38-1.41.85-1.41h78.55c.46,0,.84.63.84,1.41S502,629.45,501.54,629.45Z" transform="translate(0 -21.31)"/><path class="cls-7" d="M696.65,629.45H618.1c-.47,0-.85-.63-.85-1.4s.38-1.41.85-1.41h78.55c.46,0,.84.63.84,1.41S697.11,629.45,696.65,629.45Z" transform="translate(0 -21.31)"/><path class="cls-7" d="M351.19,478.43c0-24.78-12.1-83.6-27-83.6s-27,58.82-27,83.6,12.1,44.91,27,44.91,27-20.1,27-44.91Z" transform="translate(0 -21.31)"/><path class="cls-8" d="M344.44,478.43c0-24.78-12.1-83.6-27-83.6s-27,58.82-27,83.6,12.1,44.91,27,44.91,27-20.1,27-44.91Z" transform="translate(0 -21.31)"/><path class="cls-9" d="M318.25,578.85c-.46,0-.84-.63-.84-1.4V452.34c0-.77.38-1.4.84-1.4s.85.63.85,1.4V577.45C319.1,578.22,318.72,578.85,318.25,578.85Z" transform="translate(0 -21.31)"/><path class="cls-9" d="M318.25,472.85c-.46,0-.84-.63-.84-1.4a1.94,1.94,0,0,1,.25-1l11-18.36a.64.64,0,0,1,1.2,0,2.12,2.12,0,0,1,0,2l-11,18.35A.74.74,0,0,1,318.25,472.85Z" transform="translate(0 -21.31)"/><path class="cls-7" d="M782.8,478.43c0-24.78-12.1-83.6-27-83.6s-27,58.82-27,83.6,12.1,44.91,27,44.91,27-20.1,27-44.91Z" transform="translate(0 -21.31)"/><path class="cls-8" d="M776,478.43c0-24.78-12.1-83.6-27-83.6s-27,58.82-27,83.6,12.1,44.91,27,44.91,27-20.1,27-44.91Z" transform="translate(0 -21.31)"/><path class="cls-9" d="M749.86,578.85c-.47,0-.85-.63-.85-1.4V452.34c0-.77.38-1.4.85-1.4s.84.63.84,1.4V577.45C750.7,578.22,750.33,578.85,749.86,578.85Z" transform="translate(0 -21.31)"/><path class="cls-9" d="M749.86,472.85c-.47,0-.85-.63-.85-1.4a1.94,1.94,0,0,1,.25-1l11-18.36a.64.64,0,0,1,1.19,0,2.12,2.12,0,0,1,0,2l-11,18.35A.75.75,0,0,1,749.86,472.85Z" transform="translate(0 -21.31)"/><path class="cls-6" d="M470.29,494H451.7c-1.16,0-2.11-1.57-2.11-3.5V459.63c0-1.94,1-3.51,2.11-3.51h18.59c1.16,0,2.11,1.57,2.11,3.51v30.88C472.4,492.44,471.45,494,470.29,494Z" transform="translate(0 -21.31)"/><path class="cls-14" d="M650.67,509.05c.77.33,1.23,1.64,1,2.91,0,.14-.05.27-.08.4l3.67,5.88-2.59,1-3.09-5.74a3.34,3.34,0,0,1-.57-3.25c.32-1,1-1.46,1.64-1.17Z" transform="translate(0 -21.31)"/><path class="cls-15" d="M655.83,524.53l-4.53-7.06a1.61,1.61,0,0,1,0-1.51v0l.92-1.56c.23-.38.59-.42.85-.1l3.8,4.83,2.36-9.55c.38-1.52,1.43-2.24,2.35-1.62l.1.08h0a3.74,3.74,0,0,1,1,3.16c-.43,4.34-3,10.08-4.55,13.12-.42.84-1.12,1.15-1.74.77A1.71,1.71,0,0,1,655.83,524.53Z" transform="translate(0 -21.31)"/><path class="cls-13" d="M653.29,517.68l-3.33-8A.69.69,0,0,1,650,509l.13-.15c.13-.15.31-.1.4.12l3.34,8a.69.69,0,0,1-.08.66h0l-.13.15c-.13.15-.31.1-.4-.12Z" transform="translate(0 -21.31)"/><path class="cls-6" d="M652.36,517.74l-2.77-6.67a2,2,0,0,1,.2-1.82l.28-.32,3.66,8.82-.28.32h0C653.1,518.48,652.61,518.33,652.36,517.74Z" transform="translate(0 -21.31)"/><polygon class="cls-14" points="652.7 554.02 650.96 553.68 651.19 542.43 653.47 542.87 652.7 554.02"/><path class="cls-16" d="M652.94,578.21l-5.6-1.07V577c.13-2,1.22-3.44,2.43-3.21h0l3.42.66Z" transform="translate(0 -21.31)"/><polygon class="cls-14" points="672.91 551.88 671.24 552.74 668.45 542.43 670.92 541.16 672.91 551.88"/><path class="cls-16" d="M673.84,575.66l-5.39,2.77,0-.11c-.36-1.93.29-4,1.45-4.57h0l3.29-1.69Z" transform="translate(0 -21.31)"/><path class="cls-16" d="M650.75,572.73a1.44,1.44,0,0,1-.47-1.44l1.05-20a9,9,0,0,1,.5-2.59l6.35-17.49,5.67,1.69,0,0c2.76,2.81,5.21,16.42,7.58,29.59.37,2,.75,4.17,1.12,6.19a1.6,1.6,0,0,1-.38,1.54l-1.72,1.2c-.34.24-.73,0-.91-.53L660.74,544a.16.16,0,0,0-.1-.12.12.12,0,0,0-.13.08l-5.13,9.64L653.5,572v0c-.14.54-.5.83-.84.67l-1.85.06h0Z" transform="translate(0 -21.31)"/><path class="cls-15" d="M657.87,533.08l0,0V533c0-.15-2.62-14.74-.28-24.05h0c.07-.23,1.7-5.43,3.6-5.95l.05,0,.61,1.92c.2.32,3.53,6.07,2,16,.13.81,2,11.95,1,13.61a1.31,1.31,0,0,1-1.24.52A17,17,0,0,1,657.87,533.08Z" transform="translate(0 -21.31)"/><ellipse class="cls-16" cx="660.75" cy="472.51" rx="4.43" ry="7.35"/><ellipse class="cls-14" cx="658.99" cy="474" rx="3.51" ry="5.83"/><path class="cls-16" d="M661.24,501c-.31.19-.71.35-1,0a2.23,2.23,0,0,1-.06-1.59,9.05,9.05,0,0,0,.44-1.53,3.27,3.27,0,0,0-.52-2.16,3.67,3.67,0,0,0-1.27-1.06l-2.45-1.45a3.2,3.2,0,0,1-1.61-1.73,4.46,4.46,0,0,1,.77-4.11,2,2,0,0,1,2.7-.09,11.43,11.43,0,0,0,1.43,1c1,.43,2.11,0,3,1a6.14,6.14,0,0,1,1.07,4,18.32,18.32,0,0,1-.72,4.38,10.73,10.73,0,0,1-.8,2.34c-.34.69-.86,1.07-1.4,1Z" transform="translate(0 -21.31)"/><ellipse class="cls-16" cx="664.46" cy="468.95" rx="2.86" ry="4.74"/><path class="cls-13" d="M659.75,497.14c0-.26.12-.48.28-.48s.29.22.29.48a.53.53,0,0,1-.18.44v1c0,.1,0,.18-.11.18s-.1-.08-.1-.17h0v-1A.53.53,0,0,1,659.75,497.14Z" transform="translate(0 -21.31)"/><path class="cls-14" d="M650.84,514c.79-.13,1.5.83,1.58,2.14v.42l4.67,3.39-2.22,2.4-4.1-3.59c-.79-.19-1.33-1.4-1.22-2.71C649.64,515,650.18,514.13,650.84,514Z" transform="translate(0 -21.31)"/><path class="cls-15" d="M658.93,525.55l-5.73-4a1.39,1.39,0,0,1-.34-1.39v0l.54-2c.13-.49.46-.74.77-.59l4.57,2.32.22-10.32c0-1.64.86-2.93,1.85-2.87l.12,0h0c.79.12,1.43,1.09,1.58,2.39.51,4.31-.73,11.2-1.51,14.92-.22,1-.81,1.74-1.47,1.74A1.08,1.08,0,0,1,658.93,525.55Z" transform="translate(0 -21.31)"/><path class="cls-15" d="M63.51,483.12H55.73V480c2.46-2.27,4.64-2.08,7.5.19Z" transform="translate(0 -21.31)"/><polygon class="cls-14" points="53.93 517.65 52.23 517.65 51.97 508.9 53.93 508.9 53.93 517.65"/><path class="cls-16" d="M54.36,541.15H48.87v-.09c0-1.57,1-2.84,2.14-2.84h3.35Z" transform="translate(0 -21.31)"/><polygon class="cls-14" points="63.52 517.65 65.22 517.65 65.48 508.9 63.52 508.9 63.52 517.65"/><path class="cls-16" d="M71.14,600.66h3.78c1.34,0,2.41,1.8,2.41,4h0v.13H71.14Z" transform="translate(0 -21.31)"/><path class="cls-16" d="M63.57,537.84a.71.71,0,0,1-.61-.66l-4.23-24.51c0-.12-.1-.22-.2-.21h0c-.1,0-.18.09-.2.22L54.45,537a.7.7,0,0,1-.61.66H52c-.34,0-.62-.37-.62-.83v-.05l1.37-30.86.56-.21h0l10.87.12,2.31,30.83a.78.78,0,0,1-.56.9h0l-2.3.24Z" transform="translate(0 -21.31)"/><ellipse class="cls-14" cx="59.08" cy="451.63" rx="3.41" ry="4.54"/><path class="cls-6" d="M57,509.33a4.17,4.17,0,0,1-4.14-3,1.09,1.09,0,0,1,0-.62c.37-1.71,2.19-10.6,1-17.66a9.63,9.63,0,0,1,.8-5.76,5.77,5.77,0,0,1,3.6-3.22h0c.19-.05.39-.09.58-.12a4.75,4.75,0,0,1,4.48,2,9.05,9.05,0,0,1,1.78,6L64.19,506a.91.91,0,0,1-.34.69C62.83,507.35,59.74,509.33,57,509.33Z" transform="translate(0 -21.31)"/><path class="cls-16" d="M62.93,469.6c-.73-2.45-2.64-3.88-4.59-3.44l1.08,1.16c-1.34.06-2.75-.07-3.7,1.18.3,0,.7.85,1,.84a1.67,1.67,0,0,0-1.33,1.23,4.58,4.58,0,0,0-.16,2.21,30.56,30.56,0,0,0,1.2,3.17c0-1.8,2.64-6.11,3.94-5.66A3.86,3.86,0,0,0,58.72,472a3.78,3.78,0,0,1,2.87-.63,1.47,1.47,0,0,0,.69.05,1.14,1.14,0,0,0,.66-1.31,1.26,1.26,0,0,0-.17-.47Z" transform="translate(0 -21.31)"/><path class="cls-15" d="M56.75,508.18a.47.47,0,0,1-.25-.07L50,504.35a.91.91,0,0,1-.36-1L54,481.83c.33-1.67,1.61-2.66,2.86-2.22h0l1.71.66-1.2,27.12a1,1,0,0,1-.3.66A.52.52,0,0,1,56.75,508.18Z" transform="translate(0 -21.31)"/><path class="cls-15" d="M77.51,551.62l-.32-2-.47-2.92-.22-1.41L76,542.36l-3.35-21.07c-.38-2.34-1.82-3.74-3.23-3.12l0,0-1.94.92,1,26.85.1,2.81.06,1.76h0l.1,2.78.14,4c0,.61.33,1.1.71,1.1a.46.46,0,0,0,.28-.1l7.3-5.29A1.49,1.49,0,0,0,77.51,551.62Z" transform="translate(0 -21.31)"/><polygon class="cls-2" points="67.84 477.56 60.76 480.04 60.67 478.05 67.42 475.49 67.84 477.56"/><polygon class="cls-2" points="77.19 528.3 68.68 532.01 68.58 529.23 68.58 529.22 76.72 525.38 77.19 528.3"/><polygon class="cls-2" points="57.65 478.47 57.56 480.43 50.62 477.68 51.02 475.63 57.65 478.47"/><polygon class="cls-2" points="57.5 481.72 50.42 478.67 50.01 480.73 57.41 483.66 57.5 481.72"/><path class="cls-14" d="M50.54,505.07a2.11,2.11,0,0,0,1.07-2.43,1.68,1.68,0,0,0-.09-.32l3.33-13.92-2.36-.65-3.05,13.63a2.36,2.36,0,0,0-.6,2.71A1.38,1.38,0,0,0,50.54,505.07Z" transform="translate(0 -21.31)"/><path class="cls-6" d="M54.94,481.57h0c.68.09,1.06,1.1.89,2.36L55,490c-.06.45-.34.81-.57.73l-2.74-.91c-.21-.07-.28-.47-.16-.86l1.64-5.49A2.22,2.22,0,0,1,54.94,481.57Z" transform="translate(0 -21.31)"/><path class="cls-15" d="M59.06,464.44h0c2.4,0,4.37,2.54,4.45,5.73h.83c.16,0,.28.17.28.37V472c0,.21-.12.37-.28.37H54.9c-.16,0-.28-.16-.28-.37v-1.66c0-3.27,2-5.92,4.44-5.92Z" transform="translate(0 -21.31)"/><path class="cls-7" d="M59.6,501h-2c-.13,0-.24-.13-.25-.31L57,495.35h3.25l-.39,5.36C59.84,500.89,59.73,501,59.6,501Z" transform="translate(0 -21.31)"/><path class="cls-2" d="M60.24,496H57c-.14,0-.25-.16-.25-.34v-.81c0-.19.11-.34.25-.34h3.25c.14,0,.25.15.25.34v.81C60.49,495.87,60.38,496,60.24,496Z" transform="translate(0 -21.31)"/><path class="cls-14" d="M58.66,498.14a.9.9,0,0,1,.22.06l5.23-6-.3-2.19,2.42-1,.82,3.8a1.72,1.72,0,0,1-.47,1.66L60,500c0,1.07-.63,2-1.44,2s-1.47-.83-1.48-1.91a1.77,1.77,0,0,1,1.44-2Z" transform="translate(0 -21.31)"/><path class="cls-6" d="M64.12,482.07h0c.73-.27,1.45.46,1.69,1.71l1.17,6c.08.45-.08.92-.35,1l-3.1.6c-.24,0-.45-.28-.45-.71l-.13-5.9A2.83,2.83,0,0,1,64.12,482.07Z" transform="translate(0 -21.31)"/><path class="cls-7" d="M112,544.47h-2.66c-.18,0-.32-.23-.34-.52l-.53-9.07h4.41l-.54,9.07C112.36,544.24,112.21,544.47,112,544.47Z" transform="translate(0 -21.31)"/><path class="cls-2" d="M112.9,536h-4.4c-.19,0-.34-.25-.34-.57v-1.37c0-.31.15-.57.34-.57h4.4c.19,0,.34.26.34.57v1.37C113.24,535.77,113.09,536,112.9,536Z" transform="translate(0 -21.31)"/><path class="cls-2" d="M138.17,597.73a69,69,0,0,1-4.53-14.05,1.8,1.8,0,0,1,.38-1.62l6.61-5.89a.54.54,0,0,1,.71,0,1.37,1.37,0,0,1,.46.9,42,42,0,0,0,4.22,13.1,2,2,0,0,1,.2,1.14,1.52,1.52,0,0,1-.41,1l-6.62,5.89C138.84,598.4,138.41,598.25,138.17,597.73Z" transform="translate(0 -21.31)"/><path class="cls-13" d="M138.62,597.16c.07.16.2.2.31.11l6.61-5.89a.45.45,0,0,0,.12-.28.57.57,0,0,0-.06-.35,43.55,43.55,0,0,1-4.35-13.49.42.42,0,0,0-.14-.28.17.17,0,0,0-.21,0l-6.61,5.89a.52.52,0,0,0-.12.48,67.4,67.4,0,0,0,4.45,13.8Z" transform="translate(0 -21.31)"/><path class="cls-2" d="M141.07,584.57l-3.6,2.64c-.29.21-.62,0-.75-.48l-.09-.33a1.27,1.27,0,0,1,.29-1.24l3.6-2.64c.29-.21.62,0,.75.48l.09.33A1.27,1.27,0,0,1,141.07,584.57Z" transform="translate(0 -21.31)"/><path class="cls-2" d="M142.39,588.64l-3.61,2.64c-.28.21-.61,0-.74-.48l-.09-.34a1.22,1.22,0,0,1,.29-1.23l3.6-2.65c.29-.2.62,0,.75.48l.08.34A1.25,1.25,0,0,1,142.39,588.64Z" transform="translate(0 -21.31)"/><path class="cls-17" d="M133.94,585.25a4.85,4.85,0,0,1-.61-4.64,2.92,2.92,0,0,1,.22-.47L132,544.31l4.38.71.12,35.08a5.09,5.09,0,0,1-.09,4.78A1.47,1.47,0,0,1,133.94,585.25Z" transform="translate(0 -21.31)"/><path class="cls-6" d="M133,556.35a1.75,1.75,0,0,1-.35-1.06l-.32-9.66c-.07-2.14.91-4,2.2-4.08,1.1-.1,2.09,1.09,2.38,2.85l1.41,8.64a1.63,1.63,0,0,1-.6,1.72l-4,1.81A.6.6,0,0,1,133,556.35Z" transform="translate(0 -21.31)"/><polygon class="cls-17" points="125.56 607.99 123.25 607.98 122.16 593.2 125.56 593.2 125.56 607.99"/><path class="cls-16" d="M121.09,628.2h5v4.65H118.8V632c0-2.1,1-3.8,2.29-3.8Z" transform="translate(0 -21.31)"/><polygon class="cls-17" points="134.22 607.99 131.91 607.98 130.81 593.2 134.22 593.2 134.22 607.99"/><path class="cls-16" d="M129.75,628.2h5v4.65h-7.25V632c0-2.1,1-3.8,2.29-3.8Z" transform="translate(0 -21.31)"/><path class="cls-16" d="M125.45,621.84l-2.54-.2c-.45,0-.8-.65-.8-1.39-.67-17.18-1.6-35.59-.18-42.71,0-.78.37-1.41.84-1.42l.13,0,10.16,2.45c.41.1.72.69.72,1.38,1.3,8.43,1.36,23.7,1.31,39.57,0,.78-.37,1.42-.84,1.42h-2.74c-.42,0-.78-.5-.84-1.19L129,601.93c-.06-.6-.39-1-.75-.92a1,1,0,0,0-.56,1l-1.34,18.63c0,.71-.41,1.24-.84,1.25Z" transform="translate(0 -21.31)"/><path class="cls-6" d="M127.24,580a10.09,10.09,0,0,0-4.83-2.75.82.82,0,0,1-.58-.52,2.16,2.16,0,0,1-.17-1.06l2.43-30c.29-3.57,1.67-6.65,3.65-8.12s4.15-1.17,5.91.77l.24.28c2,2.48,3,6.74,2.38,10.82-1.49,10.14-2,26.78-2.09,30a1.54,1.54,0,0,1-.55,1.25,5.68,5.68,0,0,1-2.87.85A5.11,5.11,0,0,1,127.24,580Z" transform="translate(0 -21.31)"/><ellipse class="cls-17" cx="129.28" cy="504.41" rx="4.62" ry="7.68"/><path class="cls-16" d="M132.55,531.8c-.56,1-1.51,1.06-2.11.13a3.32,3.32,0,0,1-.47-1.51,4,4,0,0,1,0-.49,18.69,18.69,0,0,0,.31-2.73,2.34,2.34,0,0,0-.16-.68c-.69-1.52-2.3.69-3-.7-.4-.84.07-2.18-.24-3.13-.4-1.25-1.59-.63-2.34-1.32s-.78-2.88-.23-4.18c.72-1.54,1.82-2.47,3-2.53a5.37,5.37,0,0,1,3.39,1.1,8,8,0,0,1,3.2,3.68,14.47,14.47,0,0,1,.55,7.67A17.48,17.48,0,0,1,132.55,531.8Z" transform="translate(0 -21.31)"/><path class="cls-15" d="M136.21,539.27a4,4,0,0,0-1.77-2.2c-3.24-2.18-6.91-1.66-9.88,1.4-.21,0-.39.27-.43.61l-3.34,24.57-.44,3.2-.29,2.12-.43,3.19-.23,1.7a.9.9,0,0,0,.35.94h.06l14.44,2.07h0c.25,0,.45-.32.47-.73l.13-3.48L135,569l.06-1.61.15-3.71,1-24.34v0Z" transform="translate(0 -21.31)"/><path class="cls-17" d="M112.53,540.81c0,.17,0,.34,0,.52l8.09,7.75,2-1.88,2.1,4.55-4.21,5-9.22-12.09c-1,.63-2.16-.24-2.54-1.94s.14-3.59,1.17-4.22,2.16.24,2.54,1.94C112.48,540.55,112.51,540.68,112.53,540.81Z" transform="translate(0 -21.31)"/><path class="cls-6" d="M121,548.42a2,2,0,0,1,.24-1.15l4.11-6.84c.91-1.51,2.39-1.51,3.3,0a5.94,5.94,0,0,1,.31,4.86l-2.93,7.5c-.25.65-.78.84-1.17.41l-3.48-3.75A1.62,1.62,0,0,1,121,548.42Z" transform="translate(0 -21.31)"/><polygon class="cls-2" points="135.25 542.34 135.1 546.05 120.35 545.54 120.79 542.34 135.25 542.34"/><polygon class="cls-2" points="135.04 547.66 134.89 551.37 119.63 550.85 120.06 547.66 135.04 547.66"/><path class="cls-15" d="M129.37,510.8h0c-3.25,0-5.92,4.29-6,9.69h-1.13c-.21,0-.38.28-.38.63v2.5c0,.35.17.63.38.63H135c.21,0,.38-.28.38-.63h0v-2.81c0-5.53-2.7-10-6-10Z" transform="translate(0 -21.31)"/><path class="cls-18" d="M163.26,612.61H162c0-.26-1.74-7-1.74-7l-1-4.21-.69-2.81-1.05-4.21-1.2-4.84c-.07-.53-.39-.87-.71-.74a.87.87,0,0,0-.45.74l-1.2,4.84-1,4.21-.69,2.81-1,4.21s-1.73,6.76-1.74,7h-1.29c-.7,0-1.27.94-1.27,2.1s.57,2.11,1.27,2.11h15.2c.7,0,1.27-.94,1.27-2.11S164,612.61,163.26,612.61Z" transform="translate(0 -21.31)"/><path class="cls-18" d="M162.42,649.1h-.5c0-.18-2.18-9.63-2.18-9.63l-1.33-5.4-.9-3.62L156.18,625l-1.46-5.85c-.1-.68-.51-1.1-.92-.93a1.14,1.14,0,0,0-.56.93L151.78,625l-1.33,5.41-.9,3.62-1.34,5.4S146,648.92,146,649.1h-.51c-.7,0-1.27.94-1.27,2.1s.57,2.11,1.27,2.11h16.89c.7,0,1.27-.94,1.27-2.11S163.12,649.1,162.42,649.1Z" transform="translate(0 -21.31)"/><polygon class="cls-4" points="158.49 577.26 152.83 577.26 153.88 573.05 157.44 573.05 158.49 577.26"/><polygon class="cls-4" points="160.23 584.28 151.09 584.28 152.14 580.07 159.18 580.07 160.23 584.28"/><polygon class="cls-4" points="157.51 609.14 150.45 609.14 151.78 603.73 156.18 603.73 157.51 609.14"/><polygon class="cls-4" points="159.74 618.16 148.21 618.16 149.55 612.76 158.41 612.76 159.74 618.16"/><path class="cls-14" d="M348.82,532.25a3.17,3.17,0,0,0,0-3c-.06-.08-.11-.16-.17-.23l-.64-6.94-2.6,1.36,1.43,6.19a3,3,0,0,0,.42,2.88c.49.51,1.13.38,1.55-.31Z" transform="translate(0 -21.31)"/><path class="cls-15" d="M346.13,529l-1.6-12.46a10.47,10.47,0,0,1,1.22-6.68c2.06-3.29,4.7-7.43,5.61-8.51a3.56,3.56,0,0,1,2.95-1.44h0l1.38,2.17-3,8.23-4.57,4.76.51,12.21Z" transform="translate(0 -21.31)"/><path class="cls-2" d="M345,512.05h6.74c.29,0,.53.4.53.88h0c0,.49-.24.88-.53.88H345c-.29,0-.53-.39-.53-.88h0C344.49,512.45,344.73,512.05,345,512.05Z" transform="translate(0 -21.31)"/><path class="cls-2" d="M345,531.15h6.74c.29,0,.53.4.53.88h0c0,.49-.24.88-.53.88H345c-.29,0-.53-.39-.53-.88h0C344.49,531.55,344.73,531.15,345,531.15Z" transform="translate(0 -21.31)"/><path class="cls-2" d="M348.45,579c-.13,0-.25-.17-.26-.4L344.82,513c0-.24.1-.45.24-.47s.28.15.29.39l3.1,60.65,3-60.64c0-.25.14-.43.29-.4s.25.23.24.47l-3.27,65.64c0,.23-.13.4-.27.4Z" transform="translate(0 -21.31)"/><ellipse class="cls-14" cx="356.02" cy="470.2" rx="3.47" ry="5.76"/><polygon class="cls-14" points="345.69 555.07 344.04 554.2 345.28 543.22 347.71 544.51 345.69 555.07"/><path class="cls-16" d="M345.59,578.81l-5.3-2.81,0-.23c.35-1.82,1.52-2.83,2.62-2.25l3.32,1.76Z" transform="translate(0 -21.31)"/><polygon class="cls-14" points="357.68 555.01 355.95 555.01 355.13 543.92 357.68 543.92 357.68 555.01"/><path class="cls-16" d="M352.68,578.88H358v-3.27h-3.35c-1.08,0-1.95,1.46-1.95,3.25Z" transform="translate(0 -21.31)"/><path class="cls-16" d="M357.63,572.73l-.58-.15a5.77,5.77,0,0,1-2.16-.67c-.15-.1-.16-1.69-.07-10.59.06-6.54.14-14.68,0-19,0-.43-.24-.75-.49-.72s-.33.19-.4.46c-1.32,5.06-3.53,16.37-5,23.86-.51,2.61-.91,4.67-1.17,5.9-.1.48-.4.76-.7.64-1.21-.5-1.13-.72-2.84-1.45a1.13,1.13,0,0,1-.43-1.16c.31-2.43,6-41.85,6.42-45.59.06-.54.37-.89.69-.79h0c1.28.43,2,.88,3.32,1.32s2.77,1,4.14,1.42h0a.65.65,0,0,1,.35.36,4.14,4.14,0,0,0,1.38,1.53c.36.29-.46.26-.14.68,1.26,1.67-.56,35.58-1.66,43.24-.08.5-.37.82-.67.75Z" transform="translate(0 -21.31)"/><path class="cls-16" d="M357.49,496.55c-.2-1.43.82-4.5.62-5.92-.13-1-1.5-.31-1.82-1.15a2,2,0,0,0-1.45-1.53c-.69,0-1.37.83-2,.47a3,3,0,0,1-.58-2.89v0a4.45,4.45,0,0,1,1.53-2.24,3.17,3.17,0,0,1,3.41-.95,6.28,6.28,0,0,1,1.81,1.88,10.12,10.12,0,0,1,1.36,2.31,9.83,9.83,0,0,1,.06,6.07,7.6,7.6,0,0,1-2.84,4.07" transform="translate(0 -21.31)"/><path class="cls-15" d="M349,529.76c.38-1,.94-5.9,1.64-14.07.48-5.58.9-11.24,1.1-14.14a1.61,1.61,0,0,1,.47-1.1l.4-.3c3.24-2.47,7.05-1.58,9.76,2.28v.06c0,.06.72,6.47-.75,10.8s-1.46,15.6-1.46,15.71v.15l-.08,0c-2.25-1.07-10.95.8-11,.82l-.14,0Z" transform="translate(0 -21.31)"/><path class="cls-2" d="M355.32,514.91h6.74c.29,0,.53.39.53.88h0c0,.48-.24.88-.53.88h-6.74c-.29,0-.52-.4-.52-.88h0C354.8,515.3,355,514.91,355.32,514.91Z" transform="translate(0 -21.31)"/><path class="cls-2" d="M355.32,534h6.74c.29,0,.53.39.53.88h0c0,.48-.24.87-.53.87h-6.74c-.29,0-.52-.39-.52-.87h0C354.8,534.4,355,534,355.32,534Z" transform="translate(0 -21.31)"/><path class="cls-2" d="M358.76,579.23c-.14,0-.25-.17-.26-.4l-3.37-63c0-.25.09-.46.24-.48s.27.16.28.4h0l3.11,58,3-58c0-.24.14-.42.29-.4s.25.23.24.47l-3.28,63c0,.23-.12.4-.26.4Z" transform="translate(0 -21.31)"/><path class="cls-14" d="M356.58,534.29c-.14-1.13.28-2.24,1-2.49a.85.85,0,0,1,.22,0l2.8-5.26L362.3,530l-3.22,3.91c0,1.16-.6,2.08-1.3,2.05s-1.07-.72-1.2-1.66Z" transform="translate(0 -21.31)"/><path class="cls-15" d="M358.22,530.63l4.42-9.79-2.28-8.12.16-9.63,1.87-.57,0,0a8,8,0,0,1,2,3.87c.41,1.72,1.28,7.59,1.92,12.21a10.52,10.52,0,0,1-1.15,6.7l-5.42,9Z" transform="translate(0 -21.31)"/><path class="cls-2" d="M339.69,576.51l6,2.42c.25.11.5-.09.6-.47l5.2-23a1.06,1.06,0,0,0,0-.56.68.68,0,0,0-.28-.43l-4.54-2.88a.35.35,0,0,0-.45,0,.79.79,0,0,0-.24.49h0l-3.21,20.23h-.05a3.76,3.76,0,0,0-2.68,1.86A4.21,4.21,0,0,0,339.69,576.51Z" transform="translate(0 -21.31)"/><polygon class="cls-19" points="344.04 542.77 344.06 542.34 349.58 543.31 349.55 543.74 344.04 542.77"/><polygon class="cls-19" points="343.48 546.35 343.58 545.95 348.02 549.27 347.91 549.67 343.48 546.35"/><polygon class="cls-19" points="350.16 540.23 344.93 537.35 345.04 536.95 350.27 539.83 350.16 540.23"/><polygon class="cls-19" points="350.69 538.25 345.46 534.06 345.57 533.66 350.8 537.85 350.69 538.25"/><polygon class="cls-19" points="342.95 549.72 343.12 549.39 346.89 554.74 346.72 555.08 342.95 549.72"/><polygon class="cls-19" points="341.81 551.35 342.05 551.16 343.57 556.71 343.33 556.89 341.81 551.35"/><path class="cls-17" d="M489.44,534.09c-.85-.33-1.37-1.73-1.18-3.14a3.43,3.43,0,0,1,.09-.44l-5.8-21.77,3.32-1.39,4.66,21.84a3.65,3.65,0,0,1,.69,3.54C490.89,533.81,490.15,534.37,489.44,534.09Z" transform="translate(0 -21.31)"/><path class="cls-15" d="M483.62,515.56a1.22,1.22,0,0,1-.38-.73l-1-5.64c-.46-1.63,0-3.57.94-4.34s2.15-.07,2.61,1.56l2,4.92a1.74,1.74,0,0,1-.2,1.63l-.09.08-3.23,2.51A.45.45,0,0,1,483.62,515.56Z" transform="translate(0 -21.31)"/><path class="cls-6" d="M495.43,512.75l-3.55,4.19a.2.2,0,0,1-.32,0l-1-1.2a.65.65,0,0,1-.06-.61s0,0,0-.08l2.74-4a.2.2,0,0,1,.27-.09l1.78,1.06a.57.57,0,0,1,.16.57A.41.41,0,0,1,495.43,512.75Z" transform="translate(0 -21.31)"/><path class="cls-13" d="M495.14,512.36a.2.2,0,0,0-.05-.21l-1.61-.95a.06.06,0,0,0-.09,0l-2.47,3.66v0a.2.2,0,0,0,0,.21h0l.86,1.08a.07.07,0,0,0,.11,0l3.21-3.77A.11.11,0,0,0,495.14,512.36Z" transform="translate(0 -21.31)"/><polygon class="cls-17" points="482.46 553.85 484.26 553.85 485.12 542.34 482.46 542.34 482.46 553.85"/><path class="cls-16" d="M482,574.19h3.53c1.25,0,2.26,1.67,2.26,3.74h0v.12H482Z" transform="translate(0 -21.31)"/><polygon class="cls-17" points="476.46 553.85 478.25 553.85 479.11 542.34 476.46 542.34 476.46 553.85"/><path class="cls-16" d="M476,574.19h3.54c1.24,0,2.25,1.67,2.25,3.74h0v.12H476Z" transform="translate(0 -21.31)"/><path class="cls-16" d="M476.08,571.64a1.86,1.86,0,0,1-.2-.84c-.42-7.32.74-45.79,3.43-49.07l0,0,7.88-2.26h0l.14.24c0,.34,1.45,34.06-2.51,51.27-.1.42-.34.7-.61.7h-1.58c-.36,0-.65-.49-.65-1.1v-.08l1.27-32.23c0-.2-.08-.37-.2-.39s-.21.11-.23.29l-3.59,32.7c-.06.48-.3.82-.59.86l-2.07.26h0A.55.55,0,0,1,476.08,571.64Z" transform="translate(0 -21.31)"/><ellipse class="cls-17" cx="486.44" cy="472.43" rx="3.6" ry="5.98"/><path class="cls-15" d="M477.78,527a2.07,2.07,0,0,1-.25-1L479,514.57c-1.17-8.27.39-9.83,2.15-11.39h0l.74-3.31c.08-.55.42-.88.76-.74l.11.07,3.75,3.31a1.35,1.35,0,0,1,.34.73,2.41,2.41,0,0,1,0,1l-.28,1.25c.72,1.59,1.83,7.87.66,10.31l.88,8.11a1.41,1.41,0,0,1-.55,1.36l-9.24,2a.2.2,0,0,1-.11,0A.52.52,0,0,1,477.78,527Z" transform="translate(0 -21.31)"/><path class="cls-17" d="M491.23,513.85c-.06.1-.11.2-.16.3l-7.25-.83-.78-2.63-2.54,1.43,1.1,4.88c.18.81.67,1.32,1.19,1.26l8.24-1c.49,1.14,1.45,1.4,2.14.58a3.75,3.75,0,0,0,.35-3.57c-.49-1.14-1.45-1.4-2.14-.58Z" transform="translate(0 -21.31)"/><path class="cls-15" d="M483.55,513.36l-3.16,1.75c-.35.19-.72-.12-.83-.69l0-.16-.57-5.43c-.32-1.6.2-3.32,1.16-3.84s2,.34,2.31,1.93l1.5,4.91a1.52,1.52,0,0,1-.29,1.47l-.09.06Z" transform="translate(0 -21.31)"/><ellipse class="cls-16" cx="484.42" cy="462.84" rx="2.93" ry="4.87"/><path class="cls-16" d="M489.85,494.47a1,1,0,0,0,.85-.11,2,2,0,0,0,.5-1.27c.55-6-2.54-5.53-2.9-5.79a5.07,5.07,0,0,1-.65-.78,2.11,2.11,0,0,0-1.68-.62,3.15,3.15,0,0,0-2.05.42,4.4,4.4,0,0,0-1.36,2.08,14.89,14.89,0,0,0-.67,2.91,11.78,11.78,0,0,0-.12,3.56c.31,1.81,1.27,3.1,2.41,3.2a4.21,4.21,0,0,1,1-3.61,2,2,0,0,1,2-.39,5,5,0,0,0,1.32.27C489,494.37,489.5,494.41,489.85,494.47Z" transform="translate(0 -21.31)"/><path class="cls-1" d="M771.42,576.35c0-13.31,6.51-24.08,14.52-24.06s14.46,10.78,14.47,24.06" transform="translate(0 -21.31)"/><path class="cls-2" d="M785.92,576.35c-.22,0-.4-.29-.4-.65V563c0-.36.18-.65.4-.65s.39.29.39.65v12.7C786.31,576.06,786.13,576.35,785.92,576.35Z" transform="translate(0 -21.31)"/><path class="cls-2" d="M785.92,572a.33.33,0,0,1-.26-.16l-4.7-6.71a1,1,0,0,1-.05-.91c.14-.28.39-.32.55-.08h0l4.7,6.7a1,1,0,0,1,0,.92.36.36,0,0,1-.29.23Z" transform="translate(0 -21.31)"/><path class="cls-1" d="M816.09,576.35c0-13.31,6.51-24.08,14.52-24.06s14.46,10.78,14.48,24.06" transform="translate(0 -21.31)"/><path class="cls-2" d="M830.59,576.35c-.22,0-.39-.29-.39-.65h0V563c0-.36.17-.65.39-.65s.39.29.39.65v12.7C831,576.06,830.8,576.35,830.59,576.35Z" transform="translate(0 -21.31)"/><path class="cls-2" d="M830.59,572a.33.33,0,0,1-.26-.16l-4.7-6.71a1,1,0,0,1,0-.91c.14-.28.39-.32.55-.08h0l4.7,6.7a.94.94,0,0,1,0,.92.36.36,0,0,1-.29.23Z" transform="translate(0 -21.31)"/></svg>