<svg id="Layer_1" data-name="Layer 1" xmlns="http://www.w3.org/2000/svg" viewBox="0 0 921.18 727.9"><defs><style>.cls-1{fill:#ff6584;}.cls-2{fill:#636bff;}.cls-3{fill:#3f3d56;}.cls-4{fill:#f2f2f2;}.cls-5{fill:#2f2e41;}.cls-6{fill:#f191ad;}.cls-7{fill:#e61a62;}.cls-7,.cls-8{opacity:0.1;isolation:isolate;}.cls-9{fill:#a0616a;}.cls-10{fill:#575a89;}</style></defs><circle class="cls-1" cx="209.63" cy="318.2" r="55.04"/><path class="cls-2" d="M550.62,380.52c0,108.36-64.42,146.2-143.89,146.2s-143.89-37.84-143.89-146.2S406.73,134.3,406.73,134.3,550.62,272.15,550.62,380.52Z"/><polygon class="cls-3" points="401.49 510.14 402.96 419.45 464.29 307.25 403.19 405.23 403.86 364.45 446.12 283.27 404.03 353.65 404.03 353.65 405.22 280.31 450.49 215.69 405.41 268.78 406.15 134.3 401.48 312.33 401.86 304.98 355.84 234.55 401.12 319.08 396.84 400.99 396.71 398.82 343.66 324.69 396.55 406.5 396.01 416.74 395.92 416.9 395.96 417.74 385.08 625.55 399.62 625.55 401.36 518.21 454.12 436.61 401.49 510.14"/><path class="cls-3" d="M689.45,482.87c0,108.36-64.42,146.2-143.89,146.2s-143.88-37.84-143.88-146.2S545.56,236.65,545.56,236.65,689.45,374.5,689.45,482.87Z"/><polygon class="cls-4" points="540.32 612.49 541.8 521.8 603.12 409.6 542.03 507.57 542.69 466.8 584.96 385.62 542.86 456 542.86 456.01 544.06 382.66 589.32 318.04 544.24 371.13 544.99 236.65 540.31 414.68 540.69 407.33 494.68 336.9 539.96 421.43 535.67 503.34 535.54 501.17 482.49 427.05 535.38 508.85 534.84 519.09 534.75 519.25 534.79 520.09 523.91 727.9 538.45 727.9 540.19 620.56 592.95 538.96 540.32 612.49"/><path class="cls-3" d="M418.88,482.87c0,108.36-64.42,146.2-143.89,146.2S131.1,591.23,131.1,482.87,275,236.65,275,236.65,418.88,374.5,418.88,482.87Z"/><polygon class="cls-4" points="269.75 612.49 271.23 521.8 332.55 409.6 271.46 507.57 272.12 466.8 314.39 385.62 272.29 456 272.29 456.01 273.49 382.66 318.75 318.04 273.67 371.13 274.42 236.65 269.74 414.68 270.12 407.33 224.11 336.9 269.38 421.43 265.1 503.34 264.97 501.17 211.92 427.05 264.81 508.85 264.27 519.09 264.18 519.25 264.22 520.09 253.34 727.9 267.88 727.9 269.62 620.56 322.38 538.96 269.75 612.49"/><path class="cls-5" d="M410.39,727c-164.28,0-297.46-133.18-297.46-297.46S246.11,132.07,410.39,132.06,707.85,265.24,707.85,429.52A297.46,297.46,0,0,1,410.39,727Zm0-592.65c-162.76,0-295.18,132.42-295.18,295.19S247.63,724.72,410.39,724.72,705.58,592.29,705.58,429.53,573.16,134.34,410.39,134.34Z"/><polygon class="cls-6" points="653.63 599.23 653.63 725.9 167.21 725.9 167.21 599.23 410.42 472.56 410.92 472.82 653.63 599.23"/><polygon class="cls-7" points="653.63 599.23 653.63 725.9 410.92 725.9 410.92 472.82 653.63 599.23"/><polygon class="cls-3" points="389.64 550.09 371.4 556.97 371.4 529.82 389.64 521.82 389.64 550.09"/><polygon class="cls-3" points="187.98 626.09 181.9 628.39 181.9 611.9 187.98 609.21 187.98 626.09"/><polygon class="cls-3" points="209.26 618.99 202.17 621.65 202.17 603.79 209.26 600.68 209.26 618.99"/><polygon class="cls-3" points="232.57 609.87 224.46 612.92 224.46 593.66 232.57 590.09 232.57 609.87"/><polygon class="cls-3" points="260.94 598.73 250.81 602.55 250.81 582.51 260.94 578.07 260.94 598.73"/><polygon class="cls-3" points="295.4 585.55 283.24 590.15 283.24 568.33 295.4 562.99 295.4 585.55"/><polygon class="cls-3" points="336.95 570.35 322.76 575.7 322.76 551.1 336.95 544.88 336.95 570.35"/><polygon class="cls-3" points="187.98 659.53 181.9 661.06 181.9 644.33 187.98 642.41 187.98 659.53"/><polygon class="cls-3" points="209.26 654.46 202.17 656.24 202.17 638.25 209.26 636.01 209.26 654.46"/><polygon class="cls-3" points="232.57 648.38 224.46 650.42 224.46 631.15 232.57 628.6 232.57 648.38"/><polygon class="cls-3" points="260.94 641.29 250.81 643.83 250.81 623.05 260.94 619.86 260.94 641.29"/><polygon class="cls-3" points="295.4 632.17 283.24 635.24 283.24 612.91 295.4 609.09 295.4 632.17"/><polygon class="cls-3" points="336.95 622.03 321.75 625.86 321.75 600.75 336.95 595.97 336.95 622.03"/><polygon class="cls-3" points="389.64 608.86 371.4 613.45 371.4 585.55 389.64 579.83 389.64 608.86"/><polygon class="cls-3" points="389.64 666.62 371.4 668.95 371.4 641.29 389.64 637.84 389.64 666.62"/><polygon class="cls-3" points="187.98 691.96 181.9 692.74 181.9 676.76 187.98 675.6 187.98 691.96"/><polygon class="cls-3" points="209.26 689.93 202.17 690.83 202.17 673.72 209.26 672.39 209.26 689.93"/><polygon class="cls-3" points="232.57 686.89 224.46 687.92 224.46 668.65 232.57 667.11 232.57 686.89"/><polygon class="cls-3" points="260.94 682.84 250.81 684.13 250.81 663.58 260.94 661.65 260.94 682.84"/><polygon class="cls-3" points="295.4 678.78 283.24 680.33 283.24 657.5 295.4 655.19 295.4 678.78"/><polygon class="cls-3" points="336.95 673.72 321.75 675.64 321.75 650.41 336.95 647.52 336.95 673.72"/><polygon class="cls-3" points="633.87 626.09 639.95 628.39 639.95 611.9 633.87 609.21 633.87 626.09"/><polygon class="cls-3" points="612.58 618.99 619.68 621.65 619.68 603.79 612.58 600.68 612.58 618.99"/><polygon class="cls-3" points="589.28 609.87 597.38 612.92 597.38 593.66 589.28 590.09 589.28 609.87"/><polygon class="cls-3" points="560.9 598.73 571.04 602.55 571.04 582.51 560.9 578.07 560.9 598.73"/><polygon class="cls-3" points="526.45 585.55 538.61 590.15 538.61 568.33 526.45 562.99 526.45 585.55"/><polygon class="cls-3" points="484.9 570.35 499.09 575.7 499.09 551.1 484.9 544.88 484.9 570.35"/><polygon class="cls-3" points="633.87 659.53 639.95 661.06 639.95 644.33 633.87 642.41 633.87 659.53"/><polygon class="cls-3" points="612.58 654.46 619.68 656.24 619.68 638.25 612.58 636.01 612.58 654.46"/><polygon class="cls-3" points="589.28 648.38 597.38 650.42 597.38 631.15 589.28 628.6 589.28 648.38"/><polygon class="cls-3" points="560.9 641.29 571.04 643.83 571.04 623.05 560.9 619.86 560.9 641.29"/><polygon class="cls-3" points="526.45 632.17 538.61 635.24 538.61 612.91 526.45 609.09 526.45 632.17"/><polygon class="cls-3" points="484.9 622.03 500.1 625.86 500.1 600.75 484.9 595.97 484.9 622.03"/><polygon class="cls-3" points="432.2 608.86 450.44 613.45 450.44 585.55 432.2 579.83 432.2 608.86"/><polygon class="cls-3" points="432.2 666.62 450.44 668.95 450.44 641.29 432.2 637.84 432.2 666.62"/><polygon class="cls-3" points="633.87 691.96 639.95 692.74 639.95 676.76 633.87 675.6 633.87 691.96"/><polygon class="cls-3" points="612.58 689.93 619.68 690.83 619.68 673.72 612.58 672.39 612.58 689.93"/><polygon class="cls-3" points="589.28 686.89 597.38 687.92 597.38 668.65 589.28 667.11 589.28 686.89"/><polygon class="cls-3" points="560.9 682.84 571.04 684.13 571.04 663.58 560.9 661.65 560.9 682.84"/><polygon class="cls-3" points="526.45 678.78 538.61 680.33 538.61 657.5 526.45 655.19 526.45 678.78"/><polygon class="cls-3" points="484.9 673.72 500.1 675.64 500.1 650.41 484.9 647.52 484.9 673.72"/><polygon class="cls-3" points="449.43 557.18 431.19 550.3 431.19 521.71 449.43 529.71 449.43 557.18"/><rect class="cls-5" x="619.22" y="703.35" width="1.49" height="23.79"/><rect class="cls-5" x="637.17" y="709.82" width="1.05" height="16.86"/><rect class="cls-5" x="652.87" y="711.88" width="0.93" height="14.82"/><polygon class="cls-3" points="577.12 695.81 577.12 726.41 557.36 726.38 537.6 726.35 537.6 691.96 557.36 693.88 577.12 695.81"/><polygon class="cls-3" points="244.73 726.41 284.25 726.35 284.25 691.96 244.73 695.8 244.73 726.41"/><rect class="cls-5" y="725.4" width="885.5" height="2.03"/><polygon class="cls-8" points="577.12 695.81 577.12 726.41 557.36 726.38 557.36 693.88 577.12 695.81"/><rect class="cls-5" x="406.36" y="698.54" width="2.03" height="28.37"/><path class="cls-2" d="M419.07,688.44c0,9.95-5.31,18.24-11.69,18.53-6.21.28-11.12-7.17-11.12-16.61S408.39,655,408.39,655,419.07,678.5,419.07,688.44Z"/><rect class="cls-5" x="168.75" y="707.64" width="1.21" height="16.92"/><path class="cls-2" d="M176.33,701.61c0,5.93-3.17,10.88-7,11s-6.63-4.27-6.63-9.91,7.24-21.1,7.24-21.1S176.33,695.68,176.33,701.61Z"/><path class="cls-2" d="M628.14,704.29c0,5.64-3.55,10-8.18,9.83-4.91-.23-9.11-5.53-9.11-11.82s9.11-22,9.11-22S628.14,698.65,628.14,704.29Z"/><path class="cls-2" d="M643.49,710.49c0,4-2.52,7.12-5.79,7-3.48-.16-6.46-3.91-6.46-8.37s6.46-15.59,6.46-15.59S643.49,706.49,643.49,710.49Z"/><path class="cls-2" d="M658.42,712.47c0,3.51-2.21,6.25-5.09,6.12-3.06-.14-5.68-3.44-5.68-7.36s5.68-13.7,5.68-13.7S658.42,709,658.42,712.47Z"/><path class="cls-9" d="M665.62,163.25s-9.87,29.59-4.39,36.17-32.87-19.73-32.87-19.73l20.82-24.11Z"/><circle class="cls-5" cx="643.12" cy="114" r="49.21"/><polygon class="cls-9" points="834.4 496.42 809.19 516.15 794.94 493.14 820.15 475.6 834.4 496.42"/><path class="cls-5" d="M798.78,644.93l6.57,31.78L824,701.92s50.41,15.34,16.43,23-41.64-5.48-41.64-5.48l-24.11-20.82v28.5H759.32L756,686.57s-2.2-12.05,7.67-25.2l2.19-19.73Z"/><path class="cls-9" d="M671.65,251.48l8.76,50.41s93.16-9.86,99.74,8.77,8.76,24.11,8.76,24.11l-18.63,6.58-8.77-16.44A20.76,20.76,0,0,0,745.08,326c-8.77,4.39-85.49,15.35-91,1.1s-20.82-66.86-20.82-66.86l23-18.63Z"/><path class="cls-8" d="M671.65,251.48l8.76,50.41s93.16-9.86,99.74,8.77,8.76,24.11,8.76,24.11l-18.63,6.58-8.77-16.44A20.76,20.76,0,0,0,745.08,326c-8.77,4.39-85.49,15.35-91,1.1s-20.82-66.86-20.82-66.86l23-18.63Z"/><path class="cls-5" d="M723.16,397.24l7.67,26.3,19.73,100.83s2.19,74.53,5.48,83.29,3.28,9.87,0,13.16-9.87,14.24,0,20.82,44.93,14.25,46,6.58,1.09-19.73,0-25.21,3.28-91,3.28-91L792.2,401.62,747.27,380.8Z"/><path class="cls-8" d="M723.16,397.24l7.67,26.3,19.73,100.83s2.19,74.53,5.48,83.29,3.28,9.87,0,13.16-9.87,14.24,0,20.82,44.93,14.25,46,6.58,1.09-19.73,0-25.21,3.28-91,3.28-91L792.2,401.62,747.27,380.8Z"/><path class="cls-5" d="M770.28,294.22l24.11,46s138.1,61.37,126,86.58-78.91,72.33-78.91,72.33-3.29,18.64-13.15,13.16-34-34-31.78-37.27,9.86-11,13.15-9.86,41.64-28.5,41.64-28.5l-65.75-16.44s-78.91-2.19-83.3-39.45,0-43.84,0-43.84l-5.48-12,44.94-27.4Z"/><path class="cls-5" d="M804.26,476.15l-23,20.82s-19.73-8.77-31.78-5.48S716.58,497,716.58,497l3.29,18.63,28-5.16-22.48,31.47s0,49.32,14.25,49.32,9.86-29.6,9.86-29.6l43.84-34s21.92-8.77,24.11-8.77S804.26,476.15,804.26,476.15Z"/><circle class="cls-9" cx="661.23" cy="134.76" r="37.26"/><path class="cls-10" d="M624.52,163.8s17.53-4.39,23,0,6.58,14.25,14.25,15.34,14.25,1.1,15.35,2.19,26.3,31.79,26.3,31.79,15.34,8.76,18.63,20.82,36.17,52.61,40.55,57-28.49,26.3-39.45,34-42.75,11-52.61-6.58S607,186.81,624.52,163.8Z"/><path class="cls-9" d="M666.17,235l8.76,50.41s93.16-9.86,99.74,8.77,8.76,24.11,8.76,24.11l-18.63,6.58L756,308.47a20.82,20.82,0,0,0-16.44,1.09c-8.77,4.39-85.49,15.35-91,1.1s-20.82-66.86-20.82-66.86l23-18.63Z"/><path class="cls-10" d="M645.22,168.41s26.43,55.67,24.23,71-9.86,4.38-9.86,4.38-9.86-15.34-14.25-6.57S635.48,258.05,631.1,257s-28.5-82.2-15.35-89.87S645.22,168.41,645.22,168.41Z"/><circle class="cls-5" cx="589.82" cy="49.21" r="49.21"/><path class="cls-5" d="M547.37,90a49.21,49.21,0,0,0,76-25.83,49.21,49.21,0,1,1-96-20.18A49.21,49.21,0,0,0,547.37,90Z"/><circle class="cls-5" cx="633" cy="122.2" r="36.09"/><ellipse class="cls-5" cx="660.35" cy="108.67" rx="31.98" ry="25.01"/><ellipse class="cls-9" cx="661.78" cy="138.59" rx="7.12" ry="12.6"/><path class="cls-5" d="M759.57,324.43s19.4-11.13,23-8.34,5.2,11.52,5.2,11.52l-22.42,8.8-6.57-12.05Z"/></svg>