<?xml version="1.0" encoding="utf-8"?>
<!-- Generator: Adobe Illustrator 25.2.3, SVG Export Plug-In . SVG Version: 6.00 Build 0)  -->
<svg version="1.1" id="Layer_1" xmlns="http://www.w3.org/2000/svg" xmlns:xlink="http://www.w3.org/1999/xlink" x="0px" y="0px"
	 viewBox="0 0 258.6 459.4" style="enable-background:new 0 0 258.6 459.4;" xml:space="preserve">
<style type="text/css">
	.st0{fill:#3F3D56;}
	.st1{fill:#FFFFFF;}
	.st2{fill:#E6E6E6;}
	.st3{opacity:0.1;enable-background:new    ;}
	.st4{fill:#CCCCCC;}
	.st5{fill:none;}
	.st6{clip-path:url(#SVGID_2_);}
	.st7{clip-path:url(#SVGID_4_);}
	.st8{opacity:0.64;clip-path:url(#SVGID_6_);}
	.st9{clip-path:url(#SVGID_8_);fill:#00DF7D;}
	.st10{opacity:0.5;clip-path:url(#SVGID_6_);}
	.st11{clip-path:url(#SVGID_10_);fill:#EA5B0C;}
	.st12{opacity:0.37;clip-path:url(#SVGID_6_);}
	.st13{clip-path:url(#SVGID_12_);fill:#FF4AFC;}
	.st14{opacity:0.56;clip-path:url(#SVGID_6_);}
	.st15{clip-path:url(#SVGID_14_);fill:#FFDB55;}
	.st16{clip-path:url(#SVGID_16_);fill:none;stroke:#1D1D1B;stroke-width:1.8615;stroke-miterlimit:10;}
	.st17{clip-path:url(#SVGID_16_);fill:none;stroke:#1D1D1B;stroke-width:1.8615;stroke-linecap:round;stroke-miterlimit:10;}
	.st18{clip-path:url(#SVGID_16_);fill:none;stroke:#1D1D1B;stroke-width:1.963;stroke-linecap:round;stroke-miterlimit:10;}
	.st19{clip-path:url(#SVGID_16_);}
	.st20{clip-path:url(#SVGID_4_);fill:none;stroke:#1D1D1B;stroke-width:6.769136e-02;stroke-miterlimit:10;}
	.st21{clip-path:url(#SVGID_18_);}
	.st22{clip-path:url(#SVGID_18_);fill:none;stroke:#1D1D1B;stroke-width:6.769136e-02;stroke-miterlimit:10;}
</style>
<path class="st0" d="M55.3,15.2h156c24.2,0,43.9,19.7,43.9,43.9v356.4c0,24.2-19.7,43.9-43.9,43.9h-156c-24.2,0-43.9-19.7-43.9-43.9
	V59.1C11.4,34.8,31,15.2,55.3,15.2z"/>
<path class="st1" d="M251.1,59.1v356.4c0,22-17.8,39.8-39.8,39.8h-156c-22,0-39.8-17.8-39.8-39.8V59.1c0-22,17.8-39.8,39.8-39.8
	h20.4v7c0,6.7,5.4,12,12,12c26.4,8,57.4,6.7,91.1,0c6.7,0,12-5.4,12-12v-7h20.4C233.3,19.3,251.1,37.1,251.1,59.1z"/>
<path class="st0" d="M10.2,105.3c-1.6,0-3-1.3-3-3v-6c0-1.6,1.3-3,3-3s3,1.3,3,3v6C13.2,103.9,11.9,105.3,10.2,105.3z"/>
<path class="st0" d="M10.2,136c-1.6,0-3-1.3-3-3v-16.5c0-1.6,1.3-3,3-3s3,1.3,3,3V133C13.2,134.6,11.9,136,10.2,136z"/>
<path class="st0" d="M10.2,160.6c-1.6,0-3-1.3-3-3v-16.5c0-1.6,1.3-3,3-3s3,1.3,3,3v16.5C13.2,159.3,11.9,160.6,10.2,160.6z"/>
<path class="st0" d="M255.6,101c-1.6,0-3,1.3-3,3v40.2c0,1.6,1.3,3,3,3s3-1.3,3-3V104C258.6,102.4,257.2,101,255.6,101z"/>
<path class="st2" d="M66.8,36.9H46.6c-2.1,0-3.7-1.6-3.7-3.7s1.6-3.7,3.7-3.7h20.2c2.1,0,3.7,1.6,3.7,3.7S68.8,36.9,66.8,36.9z"/>
<rect x="253.2" y="122.9" class="st1" width="5.4" height="1.5"/>
<path class="st3" d="M15.3,245.6v3.7c0,22,235.6,22,235.6,0v-3.7C251,267.5,15.3,267.5,15.3,245.6z"/>
<path class="st4" d="M43.5,625c0,0.5,0.4,0.9,0.9,0.9l0,0h189.5c0.5,0,0.9-0.4,0.9-0.9c0-0.5-0.4-0.9-0.9-0.9H44.4
	C44,624.1,43.5,624.5,43.5,625L43.5,625z"/>
<rect x="11.4" y="15.2" class="st5" width="243.8" height="444.2"/>
<image style="overflow:visible;" width="392" height="474" xlink:href="645E512BA24EC211.png"  transform="matrix(0.6011 0 0 0.7801 15.4483 52.3765)">
</image>
<path class="st3" d="M251.1,59.1v190.4c0,22-235.6,22-235.6,0V59.1c0-22,17.8-39.8,39.8-39.8h20.4v7c0,6.7,5.4,12,12,12
	c25.3,7.9,56.5,6.7,91.1,0c6.7,0,12-5.4,12-12v-7h20.4C233.3,19.3,251.1,37.1,251.1,59.1z"/>
<g>
	<g>
		<defs>
			<rect id="SVGID_1_" x="37.3" y="9.3" width="191.9" height="191.9"/>
		</defs>
		<clipPath id="SVGID_2_">
			<use xlink:href="#SVGID_1_"  style="overflow:visible;"/>
		</clipPath>
		<g class="st6">
			<defs>
				<rect id="SVGID_3_" x="37.3" y="9.3" width="191.9" height="191.9"/>
			</defs>
			<clipPath id="SVGID_4_">
				<use xlink:href="#SVGID_3_"  style="overflow:visible;"/>
			</clipPath>
			<g class="st7">
				<defs>
					<rect id="SVGID_5_" x="37.3" y="9.3" width="191.9" height="191.9"/>
				</defs>
				<clipPath id="SVGID_6_">
					<use xlink:href="#SVGID_5_"  style="overflow:visible;"/>
				</clipPath>
				<g class="st8">
					<g>
						<defs>
							<rect id="SVGID_7_" x="133.7" y="78.8" width="47.5" height="47.5"/>
						</defs>
						<clipPath id="SVGID_8_">
							<use xlink:href="#SVGID_7_"  style="overflow:visible;"/>
						</clipPath>
						<path class="st9" d="M181.1,102.5c0,13.1-10.6,23.7-23.7,23.7s-23.7-10.6-23.7-23.7s10.6-23.7,23.7-23.7
							S181.1,89.4,181.1,102.5"/>
					</g>
				</g>
				<g class="st10">
					<g>
						<defs>
							<rect id="SVGID_9_" x="85.6" y="78.8" width="47.5" height="47.5"/>
						</defs>
						<clipPath id="SVGID_10_">
							<use xlink:href="#SVGID_9_"  style="overflow:visible;"/>
						</clipPath>
						<path class="st11" d="M133.1,102.5c0,13.1-10.6,23.7-23.7,23.7s-23.7-10.6-23.7-23.7c0-13.1,10.6-23.7,23.7-23.7
							S133.1,89.4,133.1,102.5"/>
					</g>
				</g>
				<g class="st12">
					<g>
						<defs>
							<rect id="SVGID_11_" x="111.2" y="58" width="47.5" height="47.5"/>
						</defs>
						<clipPath id="SVGID_12_">
							<use xlink:href="#SVGID_11_"  style="overflow:visible;"/>
						</clipPath>
						<path class="st13" d="M158.7,81.8c0,13.1-10.6,23.7-23.7,23.7c-13.1,0-23.7-10.6-23.7-23.7S121.8,58,135,58
							C148.1,58,158.7,68.7,158.7,81.8"/>
					</g>
				</g>
				<g class="st14">
					<g>
						<defs>
							<rect id="SVGID_13_" x="110.6" y="105" width="47.5" height="47.5"/>
						</defs>
						<clipPath id="SVGID_14_">
							<use xlink:href="#SVGID_13_"  style="overflow:visible;"/>
						</clipPath>
						<path class="st15" d="M158.1,128.7c0,13.1-10.6,23.7-23.7,23.7s-23.7-10.6-23.7-23.7c0-13.1,10.6-23.7,23.7-23.7
							S158.1,115.6,158.1,128.7"/>
					</g>
				</g>
			</g>
			<g class="st7">
				<defs>
					<rect id="SVGID_15_" x="37.3" y="9.3" width="191.9" height="191.9"/>
				</defs>
				<clipPath id="SVGID_16_">
					<use xlink:href="#SVGID_15_"  style="overflow:visible;"/>
				</clipPath>
				<circle class="st16" cx="114.2" cy="111" r="13.3"/>
				<circle class="st16" cx="153.5" cy="110.2" r="13.3"/>
				<line class="st17" x1="114.2" y1="111" x2="155.6" y2="110.4"/>
				<line class="st17" x1="124.3" y1="92.5" x2="135.3" y2="122"/>
				<path class="st17" d="M120.9,94.6c12.4-0.8,19.2-10.4,19.2-10.4"/>
				<path class="st17" d="M127.3,93.7c0,0,20.4,7.3,7.3,13.4"/>
				<line class="st18" x1="100.3" y1="81.1" x2="101.2" y2="124.4"/>
				<line class="st18" x1="139.4" y1="96.3" x2="140.3" y2="139.6"/>
				<path class="st17" d="M140.9,84.8c0,0,7.2,13,15.7,8.6"/>
				<path class="st19" d="M151.6,80.5c0,2.4-1.9,4.3-4.3,4.3c-2.4,0-4.3-1.9-4.3-4.3c0-2.4,1.9-4.3,4.3-4.3
					C149.7,76.2,151.6,78.1,151.6,80.5"/>
			</g>
			<line class="st20" x1="109.6" y1="101.6" x2="113.3" y2="109.2"/>
			<line class="st20" x1="104.2" y1="113.5" x2="112.4" y2="111.7"/>
			<line class="st20" x1="119.7" y1="101.9" x2="114.8" y2="108.6"/>
			<line class="st20" x1="110.3" y1="121.1" x2="113.6" y2="113.2"/>
			<line class="st20" x1="120.3" y1="120.5" x2="115.1" y2="113.8"/>
			<line class="st20" x1="157.5" y1="101" x2="156.3" y2="108.3"/>
			<line class="st20" x1="148.4" y1="101" x2="153.9" y2="108.3"/>
			<line class="st20" x1="147.5" y1="119.6" x2="155.1" y2="112.3"/>
			<line class="st20" x1="160.9" y1="118.7" x2="157.5" y2="112.3"/>
			<g class="st7">
				<defs>
					<rect id="SVGID_17_" x="37.3" y="9.3" width="191.9" height="191.9"/>
				</defs>
				<clipPath id="SVGID_18_">
					<use xlink:href="#SVGID_17_"  style="overflow:visible;"/>
				</clipPath>
				<path class="st21" d="M145.1,78.2c-0.4,0.1-0.5-0.5-0.4-1l0,0.2c-0.9,0.5-1.8,1.5-2.6,2.5c-0.8,1-1.5,2.1-2.3,3.1
					c-0.8,1-1.7,1.9-2.6,2.3c-1.1,0.5-1.9-0.1-2.4-0.8c0,0,0,0,0,0c0.9-1,1.8-2.1,2.5-3.3c-1,1-2,1.9-3,2.5
					c-0.3-0.6-0.5-1.2-0.7-1.9c-0.1-0.4-0.2-1,0.1-1.7c0.3-0.7,0.9-1.2,1.4-1.4c0.5-0.2,0.9-0.2,1.4-0.3c0.5-0.1,1-0.3,1.5-0.8
					c1.1-1.2,1.4-3.2,2.6-4.3c0.6-0.6,1.1-0.7,1.7-0.8c0.8-0.1,1.5-0.1,2.2-0.1c0.6,0,1.2,0.2,1.6,0.6c0.4,0.5,0.4,1.3,0,2.3
					c0.2,0.4,0.3,0.8,0.2,1.4C146.1,77.3,145.5,78.1,145.1,78.2"/>
				<line class="st22" x1="165.1" y1="110.4" x2="157.5" y2="110.1"/>
			</g>
		</g>
	</g>
</g>
</svg>
