<svg xmlns="http://www.w3.org/2000/svg" viewBox="0 0 2725.78 2663.95"><defs><style>.cls-1{fill:#3f3d56;}.cls-2{fill:#fff;}.cls-3{fill:#e6e6e6;}.cls-4{fill:#7363ff;}.cls-5{isolation:isolate;opacity:0.1;}.cls-6{fill:#a0616a;}.cls-7{fill:#2f2e41;}.cls-8{fill:#ccc;}</style></defs><g id="Layer_2" data-name="Layer 2"><path class="cls-1" d="M1845.94,1443.94H2975.85c175.73,0,318.2,117.41,318.2,262.25v2128c0,144.83-142.47,262.25-318.2,262.25H1845.94c-175.73,0-318.19-117.42-318.19-262.25v-2128C1527.75,1561.35,1670.21,1443.94,1845.94,1443.94Z" transform="translate(-1497.95 -1443.94)"/><path class="cls-2" d="M3264.25,1706.21v2128c-.19,131.21-129.2,237.55-288.41,237.7H1846c-159.21-.15-288.23-106.49-288.41-237.7v-2128c.18-131.22,129.2-237.55,288.41-237.7h147.75v42.06c0,39.66,39,71.8,87.12,71.81,191.28,47.62,415.82,40.19,660.14,0,48.12,0,87.12-32.15,87.12-71.81v-42.06h147.75C3135.05,1468.66,3264.06,1575,3264.25,1706.21Z" transform="translate(-1497.95 -1443.94)"/><path class="cls-1" d="M1519.62,1982c-12,0-21.66-8-21.67-17.86v-35.73c0-9.86,9.7-17.86,21.67-17.86s21.67,8,21.67,17.86v35.73C1541.28,1974,1531.58,1982,1519.62,1982Z" transform="translate(-1497.95 -1443.94)"/><path class="cls-1" d="M1519.62,2165.21c-12,0-21.66-8-21.67-17.86V2049c0-9.86,9.7-17.86,21.67-17.86s21.67,8,21.67,17.86v98.34C1541.28,2157.21,1531.58,2165.2,1519.62,2165.21Z" transform="translate(-1497.95 -1443.94)"/><path class="cls-1" d="M1519.62,2312.48c-12,0-21.66-8-21.67-17.87v-98.33c0-9.87,9.7-17.86,21.67-17.86s21.67,8,21.67,17.86v98.33C1541.28,2304.48,1531.58,2312.47,1519.62,2312.48Z" transform="translate(-1497.95 -1443.94)"/><path class="cls-1" d="M3296.76,1956.45c-12,0-21.65,8-21.67,17.82v240c0,9.87,9.7,17.87,21.67,17.87s21.67-8,21.67-17.87v-240C3318.4,1964.42,3308.71,1956.46,3296.76,1956.45Z" transform="translate(-1497.95 -1443.94)"/><path class="cls-3" d="M1929.15,1573.76H1782.86c-15,0-27.09-10-27.09-22.33s12.13-22.32,27.09-22.32h146.29c15,0,27.09,10,27.09,22.32S1944.11,1573.76,1929.15,1573.76Z" transform="translate(-1497.95 -1443.94)"/><path class="cls-4" d="M2779.11,3809.44c-40.77,2.1-63.3-39.64-32.46-64l3.07-10.06-1.22-2.41c-41.23-81-124.71-35.54-221.83.68-80.11,29.87-160.85,68.78-93.85,220.31,14.07,31.83-2.8,67.86,6.25,100.84-85.22-153.2-129.47-319.72-129.75-488.25a938.32,938.32,0,0,1,8.53-126.59,991,991,0,0,1,19.63-102.63c35.16-141.36,101.09-276.3,194.61-398.29q-17.87.19-35.77.32-32.25,43.38-60.09,88.82a369.77,369.77,0,0,0,2.09-88.63c-144.83,0-289.56-3.86-417.51-11.46,4.85,323.21,149.61,390.61,327.12,235.81,5,2.1,9.82,4.2,14.79,6.2C2320,3270,2293.14,3374,2282.93,3479.6a955.55,955.55,0,0,0,1,187.09c-.13-.74-.25-1.48-.38-2.21-16.32-69.21-61.11-131.65-126.82-176.79-97.59-66.08-235.47-90.41-340.76-143.52-50.68-25.57-115.63,7.47-106.78,55.9.14.77.28,1.54.43,2.32a452.66,452.66,0,0,1,45.75,18.17q12.69,5.89,24.84,12.52c46.17,25.17,30.21,84.15-24.49,91.11l-1.24.16-2.55.31c26.82,52.78,64.46,101.35,111.27,143.6,13,332,225,289.15,451.7,163.35h.13a1084.05,1084.05,0,0,0,99.54,239.51h355.6c1.28-3.26,2.43-6.62,3.57-9.88a488.71,488.71,0,0,1-98.39-4.83c26.38-26.68,52.76-53.58,79.15-80.26a18.94,18.94,0,0,0,1.65-1.57c13.39-13.66,26.9-27.21,40.28-40.87h0a406.84,406.84,0,0,0-17.34-124.26Z" transform="translate(-1497.95 -1443.94)"/><path class="cls-3" d="M2400.19,2797.11c-34.5-68.59-99.16-126.36-156.1-185.66-68.4-71.22-208.65-40.14-220.7,50.15-.11.88-.23,1.75-.34,2.62q12.69,5.91,24.84,12.53c46.16,25.16,30.21,84.14-24.49,91.1l-1.24.16a419.7,419.7,0,0,0,15.93,74.48,379.88,379.88,0,0,0-17.28,85.63c128,7.6,272.68,11.41,417.51,11.46C2433.62,2887.08,2419.46,2835.38,2400.19,2797.11Z" transform="translate(-1497.95 -1443.94)"/><path class="cls-3" d="M2772.49,2710.18a213.52,213.52,0,0,0,26.63-66c-7.77.85-29.31-96.74-23.45-102.73-10.83-13.55-30.22-20.29-42.06-33.51-58.85-65.76-139.93-54.28-182.26,35.08-90.42,37.62-91.3,100-35.81,160,35.29,38.17,40.14,89.82,71.12,130.68-3.19,3.36-6.5,6.62-9.69,10a1200.3,1200.3,0,0,0-91.49,109.09q17.91-.12,35.77-.32a1191.8,1191.8,0,0,1,91.53-105.72C2681.71,2815.75,2737.44,2768.09,2772.49,2710.18Z" transform="translate(-1497.95 -1443.94)"/><path class="cls-5" d="M3276.92,1687.38V2824c0,131.06-1706.7,131.06-1706.7,0V1687.38c.18-131.22,129.2-237.55,288.4-237.7h147.75v42.06c0,39.66,39,71.81,87.13,71.81,183.16,47.41,409.28,39.6,660.14,0,48.11,0,87.12-32.15,87.12-71.81v-42.06h147.75C3147.72,1449.83,3276.73,1556.16,3276.92,1687.38Z" transform="translate(-1497.95 -1443.94)"/><path class="cls-4" d="M2569.6,1828.07h-48.76c-38.89,0-70.39,26-70.44,58v44.65h-86.69c-38.88,0-70.39,26-70.43,58.06v89.31c0,32,31.55,58,70.43,58.05h108.36c38.89,0,70.4-26,70.44-58.05v-89.31c0-32-31.55-58-70.44-58.06h-10.83v-44.65c0-27.12,26.7-49.09,59.6-49.12h48.76c32.9,0,59.56,22,59.6,49.12v49.12H2640v-49.12C2640,1854.07,2608.48,1828.1,2569.6,1828.07Zm-37.93,160.76v89.31c0,27.11-26.7,49.09-59.6,49.12H2363.71c-32.9,0-59.56-22-59.6-49.12v-89.31c0-27.12,26.7-49.09,59.6-49.12,51.31,24.6,79.57,11.87,108.36,0C2505,1939.74,2531.64,1961.71,2531.67,1988.83Z" transform="translate(-1497.95 -1443.94)"/><path class="cls-4" d="M2417.89,2073.67c26.93,0,48.77-18,48.77-40.19s-21.84-40.19-48.77-40.19-48.76,18-48.76,40.19S2391,2073.64,2417.89,2073.67Zm0-49.12c20.92,0,37.93-8.31,37.93,8.93s-17,31.26-37.93,31.26-37.92-14-37.92-31.26h0c0-17.24,17-8.93,37.92-8.93Z" transform="translate(-1497.95 -1443.94)"/><ellipse class="cls-4" cx="919.95" cy="607.41" rx="16.25" ry="13.4"/><rect class="cls-2" x="1781.42" y="643.13" width="39.06" height="8.93"/><path class="cls-5" d="M1556.42,2819.64V2842c0,131.06,1706.7,131.06,1706.7,0v-22.33C3263.12,2950.71,1556.42,2950.71,1556.42,2819.64Z" transform="translate(-1497.95 -1443.94)"/><path class="cls-6" d="M3864.17,2850.82c22-3.7,36.5-21.2,32.61-39.46a27.45,27.45,0,0,0-1.77-5.22l111-76.73-27.42-60.13-138.28,118.66c-17.08,6.5-26.71,21.66-23.44,36.93,4,17.73,24.71,29.43,46.22,26.12h0Z" transform="translate(-1497.95 -1443.94)"/><path class="cls-4" d="M3981.06,2348.35l-44,28.94s-52.61,78.83-14.9,95.18,155,70.72,155,70.72-48.46,39.75-54.17,59.06,6.93,36.47-13.14,32.43-20.66,9.11-25.55,25.66-37.56,31.79-37.56,31.79l62.42,37.95s28.89,8.41,31.26-11.57-4.21-17.16,15.87-13.12,37-21.86,47.69-46,119.81-136.57,119.81-136.57L4109.56,2418.1c-34.85-32-79.11-56-128.5-69.75Z" transform="translate(-1497.95 -1443.94)"/><polygon class="cls-6" points="2479.41 2552.1 2433.96 2551.79 2413.84 2403.93 2480.93 2404.4 2479.41 2552.1"/><path class="cls-7" d="M3826.05,4067.44c-.08,9.25,8.93,16.81,20.15,16.9l90.36.62,15.82-26.43,5.81,26.56,34.1.26-8.61-94.74-11.86-.65-48.39-2.75-15.61-.87-.27,26.81L3835,4053.73C3829.44,4056.82,3826.11,4062,3826.05,4067.44Z" transform="translate(-1497.95 -1443.94)"/><polygon class="cls-6" points="2090.6 2560.16 2045.15 2559.84 2025.03 2411.98 2092.11 2412.45 2090.6 2560.16"/><path class="cls-7" d="M3438.33,4077.39c-.08,9.24,8.93,16.8,20.15,16.89l90.37.62,15.82-26.43,5.81,26.57,34.09.25-8.61-94.74-11.86-.65-48.39-2.75-15.61-.86-.27,26.8-72.59,40.58C3441.72,4066.76,3438.39,4071.89,3438.33,4077.39Z" transform="translate(-1497.95 -1443.94)"/><path class="cls-7" d="M3690,2738.18s-87.27,35.43-64.52,56.76,4.05,33.39-24.31,53.43-85.45,254.71-85.45,254.71l-73.92,363.53s19.61,317.43,32.77,328.73,33.42-5.39,13.17,11.31-36.47,3.34-20.26,16.69,20.26,50.09,20.26,50.09l105-7.29s68.33-244,22.19-352.08l181-395.4,54.73,381.52s30,309.81,50.3,319.82,34.85,10.7,17.43,23.71-17.43-7-17.43,13V3890l98,11.09s45.52-297,24.4-434.44l64-461.31-49.82-207.89L3986,2741.52Z" transform="translate(-1497.95 -1443.94)"/><path class="cls-6" d="M3250.2,2624.68c18.17,10.93,43.59,8,57.35-6.71a32.48,32.48,0,0,0,3.5-4.6l143.58,15.94,35.45-57.2-199.56-4.31c-17.33-6-37.41-1.68-48.9,10.59-13.2,14.39-9.75,34.87,7.7,45.76h0Z" transform="translate(-1497.95 -1443.94)"/><path class="cls-4" d="M3666.58,2351.56l-55.6-7.33s-66.73,30-56,64,1.54,133.05,1.54,133.05-68.28-2.74-89.45,6.78-28,28.79-37.93,13.84.54-22.89-17.6-14.73-76.42,15-76.42,15l-23.43,65.75s32.55,36.9,52.06,24.88,23.36-29.92,33.26-15,12.67,42.82,41.53,33.07,235-54,235-54l24.92-205.3Z" transform="translate(-1497.95 -1443.94)"/><path class="cls-4" d="M3637.17,2787.81s-39.25-51.64-31.78-59.21,16.84,5.51,0-7.71,77.57-101.46,83.77-114.46-94.49-239.94-94.49-239.94l85.76-42.57,72.48-84.05L3882.54,2257l45.61,76.2,64.43,18.74,5.41,4.46V2494.8s28.68,118.15-34.41,158.83c0,0,30.1,54,22,64.06s137.58,141.64,23.25,156.67C3883.6,2890.83,3616.47,2782,3637.17,2787.81Z" transform="translate(-1497.95 -1443.94)"/><path class="cls-8" d="M2835.13,4102.57c0,2.93,2.86,5.31,6.41,5.32H4213.93c3.56,0,6.44-2.38,6.44-5.32s-2.88-5.31-6.44-5.31H2841.58c-3.55,0-6.44,2.36-6.45,5.28Z" transform="translate(-1497.95 -1443.94)"/><ellipse class="cls-6" cx="2338.88" cy="708.18" rx="132" ry="108.79"/><path class="cls-7" d="M3956.89,2048.44c-.06-9.86-5.4-22.6-9.09-31.72s-11.84-17.13-21.62-17.56a24.9,24.9,0,0,0-20.38,10.95,53,53,0,0,0-8.38,22.46,122,122,0,0,0,28.77,100.49c6.81,7.61,15.22,14.63,25.32,16a34.52,34.52,0,0,0,25.58-8.44c18.15-14.75,23.53-41.62,17.1-64.15s-9.44-31.36-28.17-45.3" transform="translate(-1497.95 -1443.94)"/><path class="cls-7" d="M3768.3,2208.28c2.21,9.68-18.1,55.71-11.61,64,0,0,67.2,19.24,92.9,20.62,31.39,1.68,56.64-8.94,86-24.91a47.67,47.67,0,0,1,8.87-24.6,28.06,28.06,0,0,0,4.16,16.81c110-22.51,83-103.84,16.62-141.95l-44.15-83.69c13.25,3.64-26.74-52.59-68.9-11.87-52.76-44.28-155,19.47-167.78,76.42,12.33-12.86,18.74-11.34,21.9-2.48a51.77,51.77,0,0,1,16.78-19.32,36,36,0,0,0-5.47,19.32c83.22,4.26,67.73,50.54-.48,119.86,25.22-12.94,8.2,42.83,21.67,56.16C3739.47,2263.33,3765.92,2217.34,3768.3,2208.28Z" transform="translate(-1497.95 -1443.94)"/><path class="cls-4" d="M3873.49,2139c2.44,0,4.41-1.63,4.41-3.64a3.82,3.82,0,0,0-3.2-3.5,36.55,36.55,0,0,1-.31-13.55c1.44-20.1,3.84-53.74-35.78-76.45a5,5,0,0,0-6.15.92,3.27,3.27,0,0,0,1.1,5c35.57,20.38,33.43,50.27,32,70-.81,11.31-1.39,19.48,6.93,21A5.33,5.33,0,0,0,3873.49,2139Z" transform="translate(-1497.95 -1443.94)"/><path class="cls-7" d="M3867.39,2005.13a295,295,0,0,1,84.8-15.49c23.12-.8,50.7,3.45,60.1,20.87,5.7,10.58,2.67,23-2.55,33.71s-29.59,32.43-15.55,32.2c35.25-.6,50.3,25.38,32.41,65.76-10.37,23.41,54,22.51,84,25.64-22.54,6.9-45.43,13.86-69.39,15.51s-49.55-2.64-67.44-15.88c-19.35-14.33-26.79-36.58-30.09-57.85s-3.46-43.18-12.21-63.38-28.84-39-54.77-40.79" transform="translate(-1497.95 -1443.94)"/></g></svg>