<?xml version="1.0" encoding="utf-8"?>
<!-- Generator: Adobe Illustrator 26.0.1, SVG Export Plug-In . SVG Version: 6.00 Build 0)  -->
<svg version="1.1" id="Layer_1" xmlns="http://www.w3.org/2000/svg" xmlns:xlink="http://www.w3.org/1999/xlink" x="0px" y="0px"
	 viewBox="0 0 372.2 664.5" style="enable-background:new 0 0 372.2 664.5;" xml:space="preserve">
<style type="text/css">
	.st0{fill:#3F3D56;}
	.st1{fill:#FFFFFF;}
	.st2{fill:#E6E6E6;}
	.st3{fill:#7363FF;}
	.st4{opacity:0.1;enable-background:new    ;}
	.st5{fill:#A0616A;}
	.st6{fill:#2F2E41;}
	.st7{fill:#CCCCCC;}
</style>
<path class="st0" d="M64.2,0h208.5c32.4,0,58.7,26.3,58.7,58.7v476.5c0,32.4-26.3,58.7-58.7,58.7H64.2c-32.4,0-58.7-26.3-58.7-58.7
	V58.7C5.5,26.3,31.8,0,64.2,0z"/>
<path class="st1" d="M326,58.7v476.5c0,29.4-23.8,53.2-53.2,53.2H64.2c-29.4,0-53.2-23.8-53.2-53.2V58.7C11,29.3,34.8,5.5,64.2,5.5
	h27.3v9.4c0,8.9,7.2,16.1,16.1,16.1c35.3,10.7,76.7,9,121.8,0c8.9,0,16.1-7.2,16.1-16.1V5.5h27.3C302.2,5.5,326,29.3,326,58.7z"/>
<path class="st0" d="M4,120.5c-2.2,0-4-1.8-4-4v-8c0-2.2,1.8-4,4-4s4,1.8,4,4v8C8,118.7,6.2,120.5,4,120.5z"/>
<path class="st0" d="M4,161.5c-2.2,0-4-1.8-4-4v-22c0-2.2,1.8-4,4-4s4,1.8,4,4v22C8,159.7,6.2,161.5,4,161.5z"/>
<path class="st0" d="M4,194.5c-2.2,0-4-1.8-4-4v-22c0-2.2,1.8-4,4-4s4,1.8,4,4v22C8,192.7,6.2,194.5,4,194.5z"/>
<path class="st0" d="M332,114.8c-2.2,0-4,1.8-4,4v53.7c0,2.2,1.8,4,4,4s4-1.8,4-4v-53.7C336,116.6,334.2,114.8,332,114.8z"/>
<path class="st2" d="M79.6,29.1h-27c-2.8,0-5-2.2-5-5s2.2-5,5-5h27c2.8,0,5,2.2,5,5S82.3,29.1,79.6,29.1z"/>
<path class="st3" d="M236.5,529.7c-7.5,0.5-11.7-8.9-6-14.3c0.2-0.8,0.4-1.4,0.6-2.3c-0.1-0.2-0.1-0.4-0.2-0.5
	c-7.6-18.1-23-8-40.9,0.2c-14.8,6.7-29.7,15.4-17.3,49.3c2.6,7.1-0.5,15.2,1.2,22.6c-15.7-34.3-23.9-71.6-23.9-109.3
	c0-9.5,0.5-18.9,1.6-28.3c0.9-7.7,2.1-15.4,3.6-23c6.5-31.7,18.7-61.9,35.9-89.2c-2.2,0-4.4,0.1-6.6,0.1c-4,6.5-7.7,13.1-11.1,19.9
	c0.8-6.6,0.9-13.2,0.4-19.8c-26.7,0-53.4-0.9-77.1-2.6c0.9,72.4,27.6,87.5,60.4,52.8c0.9,0.5,1.8,0.9,2.7,1.4
	c-7.9,22.4-12.8,45.7-14.7,69.3c-1.1,13.9-1,28,0.2,41.9c0-0.2,0-0.3-0.1-0.5c-3-15.5-11.3-29.5-23.4-39.6
	c-18-14.8-43.5-20.2-62.9-32.1c-9.4-5.7-21.3,1.7-19.7,12.5c0,0.2,0.1,0.3,0.1,0.5c2.9,1.2,5.7,2.5,8.4,4.1c1.6,0.9,3.1,1.8,4.6,2.8
	c8.5,5.6,5.6,18.8-4.5,20.4l-0.2,0c-0.2,0-0.3,0-0.5,0.1c4.9,11.8,11.9,22.7,20.5,32.2c2.4,74.3,41.5,64.8,83.4,36.6h0
	c4.2,18.5,10.4,36.4,18.4,53.6h65.6c0.2-0.7,0.4-1.5,0.7-2.2c-6.1,0.4-12.2,0-18.2-1.1c4.9-6,9.7-12,14.6-18
	c0.1-0.1,0.2-0.2,0.3-0.4c2.5-3.1,5-6.1,7.4-9.2l0,0C239.8,548.2,238.7,538.8,236.5,529.7L236.5,529.7z"/>
<path class="st2" d="M166.5,303c-6.4-15.4-18.3-28.3-28.8-41.6c-12.6-15.9-38.5-9-40.7,11.2c0,0.2,0,0.4-0.1,0.6
	c1.6,0.9,3.1,1.8,4.6,2.8c8.5,5.6,5.6,18.8-4.5,20.4l-0.2,0c0.6,5.6,1.5,11.2,2.9,16.7c-1.7,6.3-2.7,12.7-3.2,19.2
	c23.6,1.7,50.3,2.6,77.1,2.6C172.7,323.2,170.1,311.6,166.5,303z"/>
<path class="st2" d="M235.2,283.6c2.3-4.7,4-9.6,4.9-14.8c-1.4,0.2-5.4-21.7-4.3-23c-2-3-5.6-4.5-7.8-7.5
	c-10.9-14.7-25.8-12.2-33.6,7.9c-16.7,8.4-16.9,22.4-6.6,35.8c6.5,8.5,7.4,20.1,13.1,29.3c-0.6,0.8-1.2,1.5-1.8,2.2
	c-6.1,7.8-11.7,16-16.9,24.4c2.2,0,4.4,0,6.6-0.1c5.2-8.2,10.8-16.1,16.9-23.7C218.5,307.2,228.8,296.5,235.2,283.6z"/>
<path class="st4" d="M328.3,54.5v254.5c0,29.4-315,29.4-315,0V54.5c0-29.4,23.8-53.2,53.2-53.2h27.3v9.4c0,8.9,7.2,16.1,16.1,16.1
	c33.8,10.6,75.5,8.9,121.8,0c8.9,0,16.1-7.2,16.1-16.1V1.3h27.3C304.5,1.3,328.3,25.1,328.3,54.5z"/>
<path class="st1" d="M197.8,86h-9c-7.2,0-13,5.8-13,13v10h-16c-7.2,0-13,5.8-13,13v20c0,7.2,5.8,13,13,13h20c7.2,0,13-5.8,13-13v-20
	c0-7.2-5.8-13-13-13h-2V99c0-6.1,4.9-11,11-11h9c6.1,0,11,4.9,11,11v11h2V99C210.8,91.8,205,86,197.8,86z M190.8,122v20
	c0,6.1-4.9,11-11,11h-20c-6.1,0-11-4.9-11-11v-20c0-6.1,4.9-11,11-11c9.5,5.5,14.7,2.7,20,0C185.9,111,190.8,115.9,190.8,122z"/>
<path class="st1" d="M169.8,141c5,0,9-4,9-9c0-5-4-9-9-9s-9,4-9,9C160.8,137,164.8,141,169.8,141z M169.8,130c3.9,0,7-1.9,7,2
	c0,3.9-3.1,7-7,7s-7-3.1-7-7l0,0C162.8,128.2,165.9,130,169.8,130L169.8,130z"/>
<circle class="st1" cx="169.8" cy="132" r="3"/>
<rect x="328.8" y="144" class="st1" width="7.2" height="2"/>
<path class="st4" d="M10.8,308.1v5c0,29.4,315,29.4,315,0v-5C325.8,337.4,10.8,337.4,10.8,308.1z"/>
<path class="st5" d="M289,379.6c4.1-0.8,6.7-4.7,6-8.8c-0.1-0.4-0.2-0.8-0.3-1.2l20.5-17.2l-5.1-13.5l-25.5,26.6
	c-3.2,1.5-4.9,4.8-4.3,8.3c0.7,4,4.6,6.6,8.5,5.9l0,0C288.9,379.6,289,379.6,289,379.6z"/>
<path class="st3" d="M298.7,278.2l-8.1,6.5c0,0-9.7,17.7-2.7,21.3s28.6,15.8,28.6,15.8s-8.9,8.9-10,13.2s1.3,8.2-2.4,7.3
	s-3.8,2-4.7,5.7s-6.9,7.1-6.9,7.1l11.5,8.5c0,0,5.3,1.9,5.8-2.6s-0.8-3.8,2.9-2.9s6.8-4.9,8.8-10.3s22.1-30.6,22.1-30.6l-21.1-23.4
	C316,286.7,307.8,281.3,298.7,278.2L298.7,278.2z"/>
<polygon class="st5" points="296.8,645.7 288.4,645.6 284.7,612.5 297.1,612.6 "/>
<path class="st6" d="M269.9,659c0,2.1,1.6,3.8,3.7,3.8l16.7,0.1l2.9-5.9l1.1,5.9l6.3,0.1l-1.6-21.2l-2.2-0.1l-8.9-0.6l-2.9-0.2
	l-0.1,6l-13.4,9.1C270.6,656.6,270,657.8,269.9,659z"/>
<polygon class="st5" points="219.8,645.7 211.4,645.6 207.7,612.5 220.1,612.6 "/>
<path class="st6" d="M192.9,659c0,2.1,1.6,3.8,3.7,3.8l16.7,0.1l2.9-5.9l1.1,5.9l6.3,0.1l-1.6-21.2l-2.2-0.1l-8.9-0.6l-2.9-0.2
	l-0.1,6l-13.4,9.1C193.6,656.6,192.9,657.8,192.9,659z"/>
<path class="st6" d="M241.5,365.3c0,0-16.1,7.9-11.9,12.7s0.7,7.5-4.5,12c-5.2,4.5-15.8,57-15.8,57l-13.6,81.4c0,0,3.6,71.1,6,73.6
	s6.2-1.2,2.4,2.5s-6.7,0.7-3.7,3.7s3.7,11.2,3.7,11.2l19.4-1.6c0,0,12.6-54.6,4.1-78.8l33.4-88.5l10.1,85.4c0,0,5.5,69.4,9.3,71.6
	s6.4,2.4,3.2,5.3s-3.2-1.6-3.2,2.9v7.4l18.1,2.5c0,0,8.4-66.5,4.5-97.3l11.8-103.3l-9.2-46.6l-9.5-12.5L241.5,365.3z"/>
<path class="st5" d="M163.8,340.1c3.4,2.4,8,1.8,10.6-1.5c0.2-0.3,0.5-0.7,0.6-1l26.5,3.6l6.5-12.8l-36.8-1c-3.2-1.4-6.9-0.4-9,2.4
	c-2.4,3.2-1.8,7.8,1.4,10.2l0,0l0,0C163.7,340,163.7,340.1,163.8,340.1z"/>
<path class="st3" d="M245.2,278.9l-10.3-1.6c0,0-12.3,6.7-10.3,14.3s0.3,29.8,0.3,29.8s-12.6-0.6-16.5,1.5s-5.2,6.4-7,3.1
	s0.1-5.1-3.2-3.3s-14.1,3.4-14.1,3.4l-4.3,14.7c0,0,6,8.3,9.6,5.6s4.3-6.7,6.1-3.4s2.3,9.6,7.7,7.4s43.4-12.1,43.4-12.1l4.6-46
	L245.2,278.9z"/>
<path class="st3" d="M235.2,376.6c0,0-7.2-11.6-5.9-13.3s3.1,1.2,0-1.7s14.3-22.7,15.5-25.6s-17.4-53.7-17.4-53.7l15.8-9.5
	l13.4-18.8l23.9,3.8l8.4,17.1l11.9,4.2l1,1v31c0,0,5.3,26.5-6.4,35.6c0,0,5.6,12.1,4.1,14.3s25.4,31.7,4.3,35.1
	C280.7,399.7,231.4,375.3,235.2,376.6z"/>
<path class="st7" d="M116.5,663.3c0,0.7,0.5,1.2,1.2,1.2c0,0,0,0,0,0H371c0.7,0,1.2-0.5,1.2-1.2s-0.5-1.2-1.2-1.2H117.7
	C117.1,662.1,116.5,662.6,116.5,663.3C116.5,663.3,116.5,663.3,116.5,663.3z"/>
<circle class="st5" cx="272" cy="234.3" r="24.4"/>
<path class="st6" d="M290.9,216.3c-0.3-2.2-1.8-4.9-2.8-6.8s-3.1-3.5-5.3-3.4c-1.8,0.2-3.4,1.3-4.3,2.9c-0.8,1.6-1.3,3.4-1.3,5.2
	c-0.5,8.2,2.8,16.2,8.9,21.7c1.7,1.5,3.8,2.9,6.1,2.9c2.1-0.1,4.1-0.9,5.5-2.5c3.7-3.7,4.3-9.8,2.3-14.7s-2.9-6.8-7.4-9.4"/>
<path class="st6" d="M256.6,251.3c0.4,2.2-3.3,12.5-2.1,14.3c0,0,12.4,4.3,17.1,4.6c5.8,0.4,10.5-2,15.9-5.6
	c0.1-1.9,0.7-3.8,1.6-5.5c-0.1,1.3,0.2,2.6,0.8,3.8c20.3-5,15.3-23.3,3.1-31.8l-8.1-18.7c2.4,0.8-4.9-11.8-12.7-2.7
	c-9.7-9.9-28.6,4.4-31,17.1c2.3-2.9,3.5-2.5,4-0.6c0.7-1.7,1.7-3.2,3.1-4.3c-0.7,1.3-1,2.8-1,4.3c15.4,1,12.5,11.3-0.1,26.8
	c4.7-2.9,1.5,9.6,4,12.6C251.3,263.6,256.2,253.3,256.6,251.3z"/>
<path class="st3" d="M278.8,231.4c0.5,0,0.8-0.4,0.8-0.8c0-0.4-0.2-0.7-0.6-0.8c-0.2-1-0.2-2-0.1-3c0.3-4.5,0.7-12-6.6-17.1
	c-0.4-0.3-0.9-0.2-1.1,0.2c-0.3,0.4-0.2,0.9,0.2,1.1c6.6,4.6,6.2,11.3,5.9,15.7c-0.1,2.5-0.3,4.4,1.3,4.7
	C278.7,231.3,278.8,231.4,278.8,231.4z"/>
<path class="st6" d="M278.4,213.5c5-2.1,10.3-3.2,15.7-3.5c4.3-0.2,9.4,0.8,11.1,4.7c1.1,2.4,0.5,5.1-0.5,7.5s-5.5,7.3-2.9,7.2
	c6.5-0.1,9.3,5.7,6,14.7c-1.9,5.2,10,5,15.5,5.7c-4.2,1.5-8.4,3.1-12.8,3.5s-9.1-0.6-12.4-3.6c-3.6-3.2-4.9-8.2-5.6-13
	s-0.6-9.7-2.3-14.2s-5.3-8.7-10.1-9.1"/>
</svg>
